<?xml version="1.0" encoding="UTF-8" standalone="no"?>
<!-- Created with Inkscape (http://www.inkscape.org/) -->

<svg
   width="30.594812mm"
   height="6.349998mm"
   viewBox="0 0 30.594812 6.349998"
   version="1.1"
   id="svg5"
   xmlns="http://www.w3.org/2000/svg"
   xmlns:svg="http://www.w3.org/2000/svg">
  <defs
     id="defs2">
    <rect
       x="279.90991"
       y="612.30292"
       width="91.637169"
       height="49.567379"
       id="rect7572" />
  </defs>
  <path
     d="M -2.4724007e-7,0.22586843 H 0.81310924 V 4.9367409 H 0.09034525 V 0.63887642 q 0,-0.006453 -0.025813,-0.0967988 Q 0.0451725,0.44527892 0.02581275,0.34848017 0.006453,0.24522818 -2.4724007e-7,0.22586843 Z"
     id="path829"
     style="font-weight:600;font-size:6.45325px;line-height:1.25;font-family:Rosario;-inkscape-font-specification:'Rosario, Semi-Bold';fill:#d8340e;stroke-width:0.161332" />
  <path
     d="m 2.2909012,1.6713964 q 0.045173,0.103252 0.070986,0.2194105 0.032266,0.1097053 0.045173,0.2194105 0.1935975,-0.1871442 0.4581807,-0.3226625 0.2645833,-0.1419715 0.5356198,-0.1419715 0.361382,0 0.5743392,0.1484248 0.2129573,0.1419715 0.3033028,0.4001015 0.090345,0.2516767 0.090345,0.5872457 V 4.9367409 H 3.7364292 V 2.9168736 q 0,-0.180691 -0.025813,-0.3484754 Q 3.6848032,2.4006137 3.5815512,2.2909084 3.4782992,2.1812032 3.2524354,2.1812032 q -0.1355182,0 -0.2903962,0.064532 -0.1484248,0.058079 -0.283943,0.1484247 -0.129065,0.083892 -0.232317,0.180691 v 2.36189 H 1.8133607 V 2.6522904 q 0,-0.1226117 -0.01936,-0.2903962 Q 1.7810945,2.1876564 1.7359217,2.0263252 1.690749,1.8585407 1.6068567,1.7552887 Z"
     id="path831"
     style="font-weight:600;font-size:6.45325px;line-height:1.25;font-family:Rosario;-inkscape-font-specification:'Rosario, Semi-Bold';fill:#d8340e;stroke-width:0.161332" />
  <path
     d="M 6.1886576,0.80666092 Q 6.1434849,1.0260714 6.1112186,1.2648417 6.0789524,1.5036119 6.0660459,1.7294757 H 6.8791554 L 6.7694501,2.1812032 H 6.0660459 v 1.9359749 q 0,0.096799 0.01936,0.2000508 0.025813,0.096799 0.090346,0.154878 0.070986,0.058079 0.206504,0.058079 0.103252,0 0.206504,-0.01936 0.103252,-0.01936 0.2000508,-0.045173 l 0.090345,0.413008 q -0.1613313,0.051626 -0.335569,0.090345 -0.1677845,0.03872 -0.3549288,0.03872 -0.413008,0 -0.5872457,-0.206504 Q 5.4271741,4.5882654 5.4271741,4.1817106 V 2.1812032 H 4.9238206 V 1.8133679 q 0.2000508,-0.00645 0.335569,-0.103252 0.1355183,-0.096799 0.2258638,-0.2452235 0.096799,-0.154878 0.154878,-0.3226625 0.058079,-0.17423773 0.090346,-0.33556898 z"
     id="path833"
     style="font-weight:600;font-size:6.45325px;line-height:1.25;font-family:Rosario;-inkscape-font-specification:'Rosario, Semi-Bold';fill:#d8340e;stroke-width:0.161332" />
  <path
     d="m 8.627979,1.6455834 q 0.413008,0 0.6840445,0.1742378 0.2774898,0.1742377 0.4065548,0.464634 0.1355182,0.2903962 0.1355182,0.6517782 0,0.096799 -0.012907,0.2000507 -0.00645,0.103252 -0.025813,0.206504 H 7.8084163 q 0,0.5743393 0.25813,0.8840953 0.25813,0.309756 0.6904977,0.309756 0.1871443,0 0.3936483,-0.058079 0.206504,-0.064533 0.4323677,-0.1871442 l 0.206504,0.3678352 q -0.2258637,0.180691 -0.5291665,0.2710365 -0.3033027,0.083892 -0.5872457,0.083892 -0.3742885,0 -0.6646848,-0.129065 Q 7.7180708,4.7560499 7.5244733,4.5301861 7.3308758,4.2978691 7.2276238,4.0010196 7.130825,3.6977169 7.130825,3.3621479 q 0,-0.3291158 0.096799,-0.6324185 Q 7.324423,2.4199734 7.511567,2.1747499 7.7051643,1.9295264 7.982654,1.7875549 8.2601438,1.6455834 8.627979,1.6455834 Z M 8.582806,2.1037642 q -0.2129573,0 -0.3742885,0.1226117 Q 8.0536398,2.3425344 7.956841,2.5296787 7.8664955,2.7103696 7.8406825,2.8975139 H 9.1894118 Q 9.2087715,2.6651969 9.1377858,2.4845059 9.0732533,2.3038149 8.9312818,2.2070162 8.7893103,2.1037642 8.582806,2.1037642 Z"
     id="path835"
     style="font-weight:600;font-size:6.45325px;line-height:1.25;font-family:Rosario;-inkscape-font-specification:'Rosario, Semi-Bold';fill:#d8340e;stroke-width:0.161332" />
  <path
     d="m 11.047944,1.6713964 q 0.129065,0.2968495 0.154878,0.6324185 0.161332,-0.2710365 0.445274,-0.4517275 0.290397,-0.180691 0.606606,-0.180691 l -0.129065,0.6517783 q -0.29685,0 -0.51626,0.154878 -0.21941,0.1548779 -0.400101,0.4194612 v 2.039227 H 10.576857 V 2.6071177 q 0,-0.129065 -0.01936,-0.2903963 -0.01936,-0.1613312 -0.06453,-0.3162092 -0.04517,-0.154878 -0.122612,-0.2645833 z"
     id="path837"
     style="font-weight:600;font-size:6.45325px;line-height:1.25;font-family:Rosario;-inkscape-font-specification:'Rosario, Semi-Bold';fill:#d8340e;stroke-width:0.161332" />
  <path
     d="M 13.467907,4.6777725e-6 V 4.9367409 H 12.822582 V 0.36138667 L 12.745143,4.6777725e-6 Z"
     id="path839"
     style="font-weight:600;font-size:6.45325px;line-height:1.25;font-family:Rosario;-inkscape-font-specification:'Rosario, Semi-Bold';fill:#d8340e;stroke-width:0.161332" />
  <path
     d="m 15.668462,5.0206331 q -0.477541,0 -0.806656,-0.232317 -0.329116,-0.232317 -0.503354,-0.6066055 -0.167784,-0.3807417 -0.167784,-0.826016 0,-0.335569 0.103252,-0.6388717 0.103252,-0.309756 0.296849,-0.5485262 0.200051,-0.2387703 0.477541,-0.3742885 0.283943,-0.1419715 0.638871,-0.1419715 0.483994,0 0.81311,0.2258637 0.329116,0.2258638 0.4969,0.6066055 0.167785,0.3807417 0.167785,0.8324692 0,0.335569 -0.103252,0.645325 -0.103252,0.3033028 -0.29685,0.542073 -0.187144,0.232317 -0.471087,0.3742885 -0.283943,0.1419715 -0.645325,0.1419715 z m 0.0065,-0.4581807 q 0.23877,0 0.400102,-0.1161585 0.161331,-0.1161585 0.251676,-0.3033028 0.0968,-0.1871442 0.135519,-0.4001015 0.03872,-0.2129572 0.03872,-0.4065547 0,-0.2000508 -0.03872,-0.413008 Q 16.429945,2.7103696 16.346053,2.5232254 16.262161,2.3360812 16.10083,2.2263759 15.945952,2.1102174 15.700728,2.1102174 q -0.23877,0 -0.400101,0.1161585 -0.154878,0.1161585 -0.251677,0.3033028 -0.09035,0.1871442 -0.129065,0.4065547 -0.03872,0.2129572 -0.03872,0.4001015 0,0.1871442 0.03227,0.4001015 0.03872,0.2129572 0.129065,0.4065547 0.09035,0.1871443 0.245223,0.3033028 0.154878,0.1161585 0.387195,0.1161585 z"
     id="path841"
     style="font-weight:600;font-size:6.45325px;line-height:1.25;font-family:Rosario;-inkscape-font-specification:'Rosario, Semi-Bold';fill:#d8340e;stroke-width:0.161332" />
  <path
     d="m 24.954681,6.0337934 q -0.219411,0.077439 -0.393649,0.1355182 -0.174237,0.064532 -0.342022,0.103252 -0.167784,0.03872 -0.354929,0.058079 -0.180691,0.01936 -0.406554,0.01936 -0.290397,0 -0.632419,-0.083892 Q 22.483086,6.1822181 22.121704,6.0466999 21.766775,5.9176349 21.4183,5.7563036 21.069824,5.6014256 20.760068,5.4530009 20.456765,5.3110294 20.224448,5.2077774 20.030851,5.1174319 19.81144,5.0658059 19.598483,5.0206331 19.385526,4.9754604 18.766014,4.8399421 18.378819,4.4914666 17.998077,4.1429911 17.823839,3.6525441 17.649602,3.1556439 17.649602,2.5942112 q 0,-0.4839938 0.129065,-0.9163615 0.129065,-0.438821 0.393648,-0.78084328 0.271036,-0.3484755 0.677591,-0.542073 0.406555,-0.20005074 0.955081,-0.20005074 0.548526,0 0.948628,0.20005074 0.406555,0.20005075 0.671138,0.542073 0.271036,0.34202228 0.400101,0.78084328 0.129065,0.438821 0.129065,0.9163615 0,0.4388209 -0.122611,0.8711887 -0.122612,0.4259145 -0.400102,0.7808432 -0.271036,0.3549288 -0.716311,0.567886 0.01936,0.00645 0.04517,0.01936 0.02581,0.00645 0.05163,0.01936 0.167785,0.083892 0.425915,0.206504 0.25813,0.129065 0.567886,0.2645833 0.316209,0.1419715 0.651778,0.25813 0.335569,0.1226117 0.651778,0.2000507 0.316209,0.077439 0.587246,0.077439 0.135518,0 0.329116,-0.032266 0.20005,-0.032266 0.413008,-0.083892 0.21941,-0.045173 0.393648,-0.096799 z M 19.804987,4.4914666 q 0.387195,0 0.651778,-0.1613312 0.264584,-0.1677845 0.425915,-0.438821 0.167784,-0.2774898 0.23877,-0.6130588 0.07099,-0.3420222 0.07099,-0.6840444 0,-0.3484755 -0.07099,-0.6840445 -0.07099,-0.3420223 -0.23877,-0.619512 -0.161331,-0.2774898 -0.425915,-0.44527428 -0.264583,-0.1677845 -0.651778,-0.1677845 -0.387195,0 -0.651778,0.1677845 -0.264583,0.16778448 -0.425915,0.45172748 -0.161331,0.2774898 -0.23877,0.619512 -0.07099,0.335569 -0.07099,0.6840445 0,0.335569 0.07099,0.6775912 0.07744,0.335569 0.23877,0.6130588 0.161332,0.2710365 0.425915,0.438821 0.264583,0.1613312 0.651778,0.1613312 z"
     id="path843"
     style="font-weight:600;font-size:6.45325px;line-height:1.25;font-family:Rosario;-inkscape-font-specification:'Rosario, Semi-Bold';fill:#d8340e;stroke-width:0.161332" />
  <path
     d="m 23.302644,1.7294757 v 2.0005074 q 0,0.1677845 0.02581,0.3484755 0.03227,0.1742378 0.135518,0.2903963 0.103252,0.1161585 0.322663,0.1161585 0.212957,0 0.393648,-0.090345 0.180691,-0.090345 0.290396,-0.25813 0.109706,-0.1677845 0.109706,-0.387195 v -1.652032 q 0,-0.00645 -0.01936,-0.090346 -0.01936,-0.083892 -0.03872,-0.1742377 -0.01291,-0.090345 -0.01936,-0.103252 h 0.722764 v 2.4974077 q 0,0.1419715 0.04517,0.206504 0.04517,0.064533 0.141972,0.064533 0.09035,0 0.245223,-0.058079 l 0.122612,0.387195 q -0.135518,0.070986 -0.303303,0.1161585 -0.161331,0.051626 -0.316209,0.051626 -0.180691,0 -0.329116,-0.096799 -0.141971,-0.096799 -0.187144,-0.3420223 -0.193597,0.2000508 -0.458181,0.335569 -0.264583,0.129065 -0.554979,0.129065 -0.361382,0 -0.574339,-0.1419715 -0.212958,-0.1484247 -0.309756,-0.4001015 -0.09035,-0.25813 -0.09035,-0.593699 V 2.0973109 L 22.57988,1.7294757 Z"
     id="path845"
     style="font-weight:600;font-size:6.45325px;line-height:1.25;font-family:Rosario;-inkscape-font-specification:'Rosario, Semi-Bold';fill:#d8340e;stroke-width:0.161332" />
  <path
     d="m 26.987448,0.61306342 q 0,0.180691 -0.122612,0.309756 -0.122611,0.12906498 -0.309756,0.12906498 -0.180691,0 -0.309756,-0.12906498 -0.122611,-0.129065 -0.122611,-0.309756 0,-0.180691 0.122611,-0.30330275 0.129065,-0.12906499 0.309756,-0.12906499 0.180691,0 0.303303,0.12906499 0.129065,0.12261175 0.129065,0.30330275 z M 26.877743,1.7294757 v 3.2072652 h -0.638872 v -2.83943 l -0.07744,-0.3678352 z"
     id="path847"
     style="font-weight:600;font-size:6.45325px;line-height:1.25;font-family:Rosario;-inkscape-font-specification:'Rosario, Semi-Bold';fill:#d8340e;stroke-width:0.161332" />
  <path
     d="m 29.078298,5.0206331 q -0.477541,0 -0.806657,-0.232317 -0.329115,-0.232317 -0.503353,-0.6066055 -0.167785,-0.3807417 -0.167785,-0.826016 0,-0.335569 0.103252,-0.6388717 0.103252,-0.309756 0.29685,-0.5485262 0.200051,-0.2387703 0.47754,-0.3742885 0.283943,-0.1419715 0.638872,-0.1419715 0.483994,0 0.81311,0.2258637 0.329115,0.2258638 0.4969,0.6066055 0.167784,0.3807417 0.167784,0.8324692 0,0.335569 -0.103252,0.645325 -0.103252,0.3033028 -0.296849,0.542073 -0.187144,0.232317 -0.471087,0.3742885 -0.283943,0.1419715 -0.645325,0.1419715 z m 0.0065,-0.4581807 q 0.23877,0 0.400101,-0.1161585 0.161332,-0.1161585 0.251677,-0.3033028 0.0968,-0.1871442 0.135518,-0.4001015 0.03872,-0.2129572 0.03872,-0.4065547 0,-0.2000508 -0.03872,-0.413008 -0.03227,-0.2129573 -0.116158,-0.4001015 -0.08389,-0.1871442 -0.245224,-0.2968495 -0.154878,-0.1161585 -0.400101,-0.1161585 -0.23877,0 -0.400102,0.1161585 -0.154878,0.1161585 -0.251676,0.3033028 -0.09035,0.1871442 -0.129065,0.4065547 -0.03872,0.2129572 -0.03872,0.4001015 0,0.1871442 0.03227,0.4001015 0.03872,0.2129572 0.129065,0.4065547 0.09035,0.1871443 0.245224,0.3033028 0.154878,0.1161585 0.387195,0.1161585 z"
     id="path849"
     style="font-weight:600;font-size:6.45325px;line-height:1.25;font-family:Rosario;-inkscape-font-specification:'Rosario, Semi-Bold';fill:#d8340e;stroke-width:0.161332" />
  <text
     xml:space="preserve"
     transform="matrix(0.26458333,0,0,0.26458333,-29.235024,-126.12492)"
     id="text7570"
     style="font-size:39.9999px;line-height:1.25;font-family:Calibri;-inkscape-font-specification:'Calibri, Normal';white-space:pre;shape-inside:url(#rect7572)" />
</svg>
