<svg width="115.634" height="24" viewBox="0 0 30.595 6.35" xmlns="http://www.w3.org/2000/svg"><defs><path id="a" d="M279.91 612.303h91.637v49.567H279.91z"/></defs><path d="M0 .226h.813v4.71H.09V.64Q.09.633.065.542L.025.348Q.007.245 0 .226ZM2.29 1.671q.046.104.072.22.032.11.045.22.194-.188.458-.323.265-.142.536-.142.361 0 .574.148.213.142.304.4.09.252.09.587v2.156h-.633v-2.02q0-.18-.025-.349-.026-.167-.13-.277-.103-.11-.329-.11-.135 0-.29.065-.148.058-.284.148-.129.084-.232.18v2.363h-.633V2.652q0-.122-.019-.29-.013-.174-.058-.336-.045-.167-.13-.27ZM6.189.807q-.046.22-.078.458-.032.239-.045.464h.813l-.11.452h-.703v1.936q0 .097.02.2.025.097.09.155.07.058.206.058.104 0 .207-.02.103-.019.2-.044l.09.413q-.161.051-.335.09-.168.039-.355.039-.413 0-.588-.207-.174-.213-.174-.62v-2h-.503v-.368q.2-.006.335-.103.136-.097.226-.245.097-.155.155-.323.058-.174.09-.335ZM8.628 1.646q.413 0 .684.174.278.174.407.464.135.29.135.652 0 .097-.013.2-.006.104-.026.207H7.808q0 .574.259.884.258.31.69.31.187 0 .394-.058.206-.065.432-.188l.207.368q-.226.18-.53.271-.303.084-.587.084-.374 0-.665-.129-.29-.129-.484-.355-.193-.232-.296-.529-.097-.303-.097-.639 0-.329.097-.632.096-.31.284-.555.193-.245.47-.387.278-.142.646-.142zm-.045.458q-.213 0-.374.122-.155.117-.252.304-.09.18-.116.368h1.348q.02-.233-.051-.413-.065-.181-.207-.278-.142-.103-.348-.103ZM11.048 1.671q.129.297.155.633.161-.271.445-.452.29-.18.607-.18l-.13.651q-.296 0-.516.155-.219.155-.4.42v2.039h-.632v-2.33q0-.129-.02-.29-.019-.162-.064-.316-.045-.155-.123-.265zM13.468 0v4.937h-.645V.36L12.745 0ZM15.668 5.02q-.477 0-.806-.232-.33-.232-.504-.606-.167-.381-.167-.826 0-.336.103-.64.103-.309.297-.548.2-.238.477-.374.284-.142.64-.142.483 0 .812.226.33.226.497.607.168.38.168.832 0 .336-.103.645-.104.304-.297.542-.187.233-.471.375t-.646.142zm.007-.458q.239 0 .4-.116.161-.116.252-.303.097-.187.135-.4.039-.213.039-.407 0-.2-.039-.413-.032-.213-.116-.4-.084-.187-.245-.297-.155-.116-.4-.116-.239 0-.4.116-.155.117-.252.304-.09.187-.13.406-.038.213-.038.4 0 .187.032.4.04.213.13.407.09.187.245.303.155.116.387.116zM24.955 6.034q-.22.077-.394.135-.174.065-.342.104-.168.038-.355.058-.18.02-.406.02-.29 0-.633-.085-.342-.084-.703-.22-.355-.128-.704-.29-.348-.155-.658-.303-.303-.142-.536-.245-.193-.09-.413-.142l-.425-.09q-.62-.136-1.007-.485-.38-.348-.555-.838-.174-.497-.174-1.059 0-.484.129-.916.129-.439.393-.781.271-.348.678-.542.406-.2.955-.2.549 0 .949.2.406.2.67.542.272.342.4.78.13.44.13.917 0 .439-.123.871-.122.426-.4.781-.27.355-.716.568.02.006.045.02.026.006.052.019.167.084.426.206.258.13.567.265.317.142.652.258.336.123.652.2.316.078.587.078.136 0 .33-.033.2-.032.412-.084.22-.045.394-.096zm-5.15-1.543q.387 0 .652-.16.264-.169.426-.44.167-.277.238-.613.071-.342.071-.684 0-.348-.07-.684-.072-.342-.24-.62-.16-.277-.425-.445-.265-.167-.652-.167t-.652.167q-.264.168-.426.452-.161.278-.238.62-.071.335-.071.684 0 .335.07.677.078.336.24.613.16.271.425.44.265.16.652.16z" style="font-weight:600;font-size:6.45325px;line-height:1.25;font-family:Rosario;-inkscape-font-specification:'Rosario, Semi-Bold';fill:#d8340e;stroke-width:.161332"/><path d="M23.303 1.73v2q0 .168.025.348.033.175.136.29.103.117.323.117.213 0 .393-.09.181-.09.29-.258.11-.168.11-.388V2.097q0-.006-.019-.09-.02-.084-.039-.174-.013-.09-.02-.103h.724v2.497q0 .142.045.206.045.065.142.065.09 0 .245-.058l.123.387q-.136.071-.304.116-.16.052-.316.052-.18 0-.329-.097-.142-.097-.187-.342-.194.2-.458.336-.265.129-.555.129-.362 0-.575-.142-.213-.149-.31-.4-.09-.259-.09-.594V2.097l-.077-.368zM26.987.613q0 .18-.122.31-.123.129-.31.129-.18 0-.31-.13-.122-.128-.122-.309 0-.18.122-.303.13-.13.31-.13t.303.13q.13.122.13.303zm-.11 1.116v3.208h-.638v-2.84l-.078-.368zM29.078 5.02q-.477 0-.806-.232-.33-.232-.504-.606-.167-.381-.167-.826 0-.336.103-.64.103-.309.297-.548.2-.238.477-.374.284-.142.639-.142.484 0 .813.226.33.226.497.607.168.38.168.832 0 .336-.103.645-.104.304-.297.542-.187.233-.471.375t-.646.142zm.007-.458q.239 0 .4-.116.161-.116.252-.303.096-.187.135-.4.039-.213.039-.407 0-.2-.039-.413-.032-.213-.116-.4-.084-.187-.245-.297-.155-.116-.4-.116-.24 0-.4.116-.155.117-.252.304-.09.187-.13.406-.038.213-.038.4 0 .187.032.4.039.213.13.407.09.187.245.303.154.116.387.116z" style="font-weight:600;font-size:6.45325px;line-height:1.25;font-family:Rosario;-inkscape-font-specification:'Rosario, Semi-Bold';fill:#d8340e;stroke-width:.161332"/></svg>