<?xml version="1.0" encoding="UTF-8" standalone="no"?>
<!-- Created with Inkscape (http://www.inkscape.org/) -->

<svg
   width="30.594812mm"
   height="6.349998mm"
   viewBox="0 0 30.594812 6.349998"
   version="1.1"
   id="svg5"
   sodipodi:docname="logo.svg"
   inkscape:version="1.1.1 (3bf5ae0d25, 2021-09-20)"
   xmlns:inkscape="http://www.inkscape.org/namespaces/inkscape"
   xmlns:sodipodi="http://sodipodi.sourceforge.net/DTD/sodipodi-0.dtd"
   xmlns="http://www.w3.org/2000/svg"
   xmlns:svg="http://www.w3.org/2000/svg">
  <sodipodi:namedview
     id="namedview17"
     pagecolor="#ffffff"
     bordercolor="#666666"
     borderopacity="1.0"
     inkscape:pageshadow="2"
     inkscape:pageopacity="0.0"
     inkscape:pagecheckerboard="0"
     inkscape:document-units="mm"
     showgrid="false"
     inkscape:zoom="9.1495631"
     inkscape:cx="57.762321"
     inkscape:cy="11.967785"
     inkscape:window-width="2560"
     inkscape:window-height="1017"
     inkscape:window-x="-8"
     inkscape:window-y="-8"
     inkscape:window-maximized="1"
     inkscape:current-layer="svg5" />
  <defs
     id="defs2">
    <rect
       x="279.90991"
       y="612.30292"
       width="91.637169"
       height="49.567379"
       id="rect7572" />
  </defs>
  <path
     id="path862"
     style="font-weight:600;font-size:6.45325px;line-height:1.25;font-family:Rosario;-inkscape-font-specification:'Rosario, Semi-Bold';fill:#d8340e;stroke-width:0.609759"
     d="M 48.169922 0 L 48.462891 1.3652344 L 48.462891 18.658203 L 50.902344 18.658203 L 50.902344 0 L 48.169922 0 z M 74.853516 0.5859375 C 73.471403 0.5859375 72.268531 0.83773202 71.244141 1.3417969 C 70.21975 1.8296016 69.366519 2.5125765 68.683594 3.390625 C 68.016928 4.2524134 67.520516 5.2361062 67.195312 6.3417969 C 66.870109 7.4312273 66.707031 8.5851756 66.707031 9.8046875 C 66.707031 11.219321 66.926212 12.552656 67.365234 13.804688 C 67.804259 15.040459 68.503541 16.098514 69.462891 16.976562 C 70.4385 17.854611 71.706603 18.463224 73.267578 18.804688 L 74.876953 19.146484 C 75.4298 19.276566 75.95165 19.455952 76.439453 19.683594 C 77.024819 19.943756 77.698663 20.251652 78.462891 20.609375 C 79.243378 20.983358 80.073122 21.365616 80.951172 21.755859 C 81.829219 22.162363 82.715066 22.528312 83.609375 22.853516 C 84.519944 23.194979 85.40579 23.472211 86.267578 23.683594 C 87.129366 23.894975 87.926494 24 88.658203 24 C 89.227307 24 89.740028 23.976515 90.195312 23.927734 C 90.666859 23.878956 91.114347 23.804593 91.537109 23.707031 C 91.959875 23.609469 92.389103 23.479007 92.828125 23.316406 C 93.26715 23.170065 93.76356 22.999809 94.316406 22.804688 L 93.853516 21.341797 C 93.414491 21.471878 92.918078 21.59321 92.365234 21.707031 C 91.828647 21.837113 91.30875 21.942137 90.804688 22.023438 C 90.316882 22.104738 89.90201 22.146484 89.560547 22.146484 C 88.877619 22.146484 88.138544 22.048638 87.341797 21.853516 C 86.54505 21.658394 85.722481 21.406599 84.876953 21.097656 C 84.031425 20.804973 83.21081 20.478817 82.414062 20.121094 C 81.633575 19.77963 80.917984 19.446297 80.267578 19.121094 C 79.617172 18.81215 79.080968 18.553178 78.658203 18.341797 C 78.593145 18.309268 78.527924 18.28383 78.462891 18.267578 C 78.397858 18.235049 78.34175 18.211564 78.292969 18.195312 C 79.414922 17.658727 80.317075 16.943137 81 16.048828 C 81.699187 15.15452 82.202775 14.170827 82.511719 13.097656 C 82.82066 12.008226 82.974609 10.910378 82.974609 9.8046875 C 82.974609 8.6014358 82.813484 7.4474876 82.488281 6.3417969 C 82.163078 5.2361062 81.657535 4.2524134 80.974609 3.390625 C 80.307944 2.5288367 79.463844 1.8458618 78.439453 1.3417969 C 77.431322 0.83773202 76.235628 0.5859375 74.853516 0.5859375 z M 100.36523 0.68359375 C 99.90995 0.68359375 99.520516 0.84471875 99.195312 1.1699219 C 98.886371 1.4788649 98.732422 1.8611218 98.732422 2.3164062 C 98.732422 2.7716907 98.886371 3.1630781 99.195312 3.4882812 C 99.520516 3.8134843 99.90995 3.9765625 100.36523 3.9765625 C 100.83678 3.9765625 101.22817 3.8134843 101.53711 3.4882812 C 101.84605 3.1630781 102 2.7716907 102 2.3164062 C 102 1.8611218 101.83692 1.4788649 101.51172 1.1699219 C 101.20278 0.84471875 100.82052 0.68359375 100.36523 0.68359375 z M 0 0.85351562 C 0.016260151 0.9022961 0.048875778 1.0562438 0.09765625 1.3164062 L 0.24414062 2.0488281 C 0.30918125 2.2764711 0.34179688 2.397803 0.34179688 2.4140625 L 0.34179688 18.658203 L 3.0722656 18.658203 L 3.0722656 0.85351562 L 0 0.85351562 z M 74.853516 2.5605469 C 75.829125 2.5605469 76.64974 2.7725484 77.316406 3.1953125 C 77.983075 3.6180765 78.519278 4.1797194 78.925781 4.8789062 C 79.348534 5.5780929 79.651206 6.3569615 79.830078 7.21875 C 80.008951 8.0642782 80.097656 8.926639 80.097656 9.8046875 C 80.097656 10.666476 80.008951 11.528837 79.830078 12.390625 C 79.651216 13.236153 79.348544 14.007844 78.925781 14.707031 C 78.519278 15.389958 77.983075 15.94247 77.316406 16.365234 C 76.64974 16.771738 75.829125 16.976562 74.853516 16.976562 C 73.877906 16.976562 73.057291 16.771738 72.390625 16.365234 C 71.723959 15.94247 71.187756 15.389958 70.78125 14.707031 C 70.374749 14.007844 70.072078 13.236153 69.876953 12.390625 C 69.698081 11.528837 69.609375 10.675606 69.609375 9.8300781 C 69.609375 8.9520296 69.698081 8.0896688 69.876953 7.2441406 C 70.072075 6.3823524 70.374747 5.6015306 70.78125 4.9023438 C 71.187756 4.1868968 71.723959 3.6180765 72.390625 3.1953125 C 73.057291 2.7725484 73.877906 2.5605469 74.853516 2.5605469 z M 21.658203 3.0488281 C 21.5769 3.4553321 21.462747 3.877382 21.316406 4.3164062 C 21.170065 4.7391703 20.976325 5.1468656 20.732422 5.5371094 C 20.50478 5.9110924 20.22037 6.2189876 19.878906 6.4628906 C 19.537443 6.7068012 19.11344 6.8372637 18.609375 6.8535156 L 18.609375 8.2441406 L 20.511719 8.2441406 L 20.511719 15.804688 C 20.511719 16.829078 20.730897 17.609901 21.169922 18.146484 C 21.608946 18.666809 22.349975 18.927734 23.390625 18.927734 C 23.86217 18.927734 24.309658 18.878812 24.732422 18.78125 C 25.171446 18.68369 25.593496 18.569534 26 18.439453 L 25.658203 16.878906 C 25.414301 16.943947 25.162506 17.000047 24.902344 17.048828 C 24.642181 17.097609 24.381256 17.121094 24.121094 17.121094 C 23.779631 17.121094 23.520659 17.048685 23.341797 16.902344 C 23.179194 16.756003 23.065041 16.560309 23 16.316406 C 22.951219 16.056244 22.927734 15.80445 22.927734 15.560547 L 22.927734 8.2441406 L 25.585938 8.2441406 L 26 6.5371094 L 22.927734 6.5371094 C 22.960255 5.9680037 23.016356 5.3828757 23.097656 4.78125 C 23.178957 4.179624 23.276804 3.6016734 23.390625 3.0488281 L 21.658203 3.0488281 z M 12.853516 6.21875 C 12.170589 6.21875 11.496745 6.3981359 10.830078 6.7558594 C 10.163412 7.0973228 9.585461 7.5050181 9.0976562 7.9765625 C 9.0651347 7.7001399 9.0090345 7.4229072 8.9277344 7.1464844 C 8.8626937 6.8538015 8.7720249 6.5765688 8.6582031 6.3164062 L 6.0722656 6.6347656 C 6.2836478 6.8949281 6.4467259 7.235439 6.5605469 7.6582031 C 6.6743681 8.0647069 6.7487304 8.48871 6.78125 8.9277344 C 6.8300311 9.3504985 6.8535156 9.7144946 6.8535156 10.023438 L 6.8535156 18.658203 L 9.2441406 18.658203 L 9.2441406 9.7324219 C 9.5043031 9.4885189 9.7958906 9.2602095 10.121094 9.0488281 C 10.462557 8.8211854 10.821329 8.634622 11.195312 8.4882812 C 11.585556 8.3256809 11.951506 8.2441406 12.292969 8.2441406 C 12.862074 8.2441406 13.276947 8.3817806 13.537109 8.6582031 C 13.797272 8.9346259 13.958397 9.2842672 14.023438 9.7070312 C 14.088478 10.129795 14.121094 10.568153 14.121094 11.023438 L 14.121094 18.658203 L 16.511719 18.658203 L 16.511719 10.511719 C 16.511719 9.6661906 16.397563 8.9271148 16.169922 8.2929688 C 15.94228 7.6425625 15.560023 7.1389735 15.023438 6.78125 C 14.486852 6.4072663 13.764084 6.21875 12.853516 6.21875 z M 32.609375 6.21875 C 31.682546 6.21875 30.869109 6.3981359 30.169922 6.7558594 C 29.470735 7.1135828 28.878429 7.600864 28.390625 8.21875 C 27.919081 8.836636 27.560309 9.5359187 27.316406 10.316406 C 27.072503 11.080634 26.951172 11.877763 26.951172 12.707031 C 26.951172 13.552559 27.072504 14.356866 27.316406 15.121094 C 27.576569 15.869061 27.951648 16.535728 28.439453 17.121094 C 28.927258 17.690199 29.535871 18.137687 30.267578 18.462891 C 30.999285 18.788094 31.838161 18.951172 32.78125 18.951172 C 33.496697 18.951172 34.235773 18.846147 35 18.634766 C 35.764228 18.407123 36.430895 18.064659 37 17.609375 L 36.21875 16.21875 C 35.649645 16.527692 35.106263 16.765132 34.585938 16.927734 C 34.065612 17.074075 33.569201 17.146484 33.097656 17.146484 C 32.008226 17.146484 31.138688 16.75705 30.488281 15.976562 C 29.837875 15.196075 29.511719 14.08192 29.511719 12.634766 L 37.097656 12.634766 C 37.146445 12.374603 37.179061 12.113678 37.195312 11.853516 C 37.227834 11.593354 37.244141 11.341559 37.244141 11.097656 C 37.244141 10.187087 37.073885 9.3664726 36.732422 8.6347656 C 36.407219 7.9030584 35.894499 7.3179304 35.195312 6.8789062 C 34.512386 6.4398819 33.650025 6.21875 32.609375 6.21875 z M 59.365234 6.2441406 C 58.470928 6.2441406 57.666619 6.4235265 56.951172 6.78125 C 56.251984 7.1227132 55.65055 7.5936865 55.146484 8.1953125 C 54.658681 8.7969382 54.2836 9.4870906 54.023438 10.267578 C 53.763275 11.031805 53.634766 11.838066 53.634766 12.683594 C 53.634766 13.805545 53.844815 14.845338 54.267578 15.804688 C 54.706603 16.747777 55.340653 17.512291 56.169922 18.097656 C 56.999188 18.683022 58.015497 18.976562 59.21875 18.976562 C 60.129319 18.976563 60.942756 18.797177 61.658203 18.439453 C 62.37365 18.08173 62.967909 17.608803 63.439453 17.023438 C 63.927259 16.421812 64.300384 15.74079 64.560547 14.976562 C 64.820709 14.196075 64.951172 13.382638 64.951172 12.537109 C 64.951172 11.398898 64.739172 10.349974 64.316406 9.390625 C 63.893643 8.4312758 63.268722 7.6667619 62.439453 7.0976562 C 61.610184 6.5285509 60.584747 6.2441406 59.365234 6.2441406 z M 110.04883 6.2441406 C 109.15452 6.2441406 108.35021 6.4235265 107.63477 6.78125 C 106.93558 7.1227132 106.33219 7.5936865 105.82812 8.1953125 C 105.34032 8.7969382 104.96719 9.4870906 104.70703 10.267578 C 104.44687 11.031805 104.31641 11.838066 104.31641 12.683594 C 104.31641 13.805545 104.52841 14.845338 104.95117 15.804688 C 105.3902 16.747777 106.02425 17.512291 106.85352 18.097656 C 107.68278 18.683022 108.69909 18.976562 109.90234 18.976562 C 110.81291 18.976563 111.62635 18.797177 112.3418 18.439453 C 113.05724 18.08173 113.64955 17.608803 114.12109 17.023438 C 114.6089 16.421812 114.98398 15.74079 115.24414 14.976562 C 115.5043 14.196075 115.63477 13.382638 115.63477 12.537109 C 115.63477 11.398898 115.42276 10.349974 115 9.390625 C 114.57723 8.4312758 113.95036 7.6667619 113.12109 7.0976562 C 112.29183 6.5285509 111.26834 6.2441406 110.04883 6.2441406 z M 41.755859 6.3164062 L 39.195312 6.5605469 C 39.390442 6.8369697 39.544389 7.1703031 39.658203 7.5605469 C 39.772017 7.9507907 39.853563 8.3493556 39.902344 8.7558594 C 39.951125 9.1623634 39.974609 9.5283125 39.974609 9.8535156 L 39.974609 18.658203 L 42.365234 18.658203 L 42.365234 10.951172 C 42.820519 10.284505 43.326062 9.7554779 43.878906 9.3652344 C 44.43175 8.9749906 45.08211 8.78125 45.830078 8.78125 L 46.316406 6.3164062 C 45.519659 6.3164062 44.755146 6.5447156 44.023438 7 C 43.307993 7.4552844 42.748303 8.0241046 42.341797 8.7070312 C 42.276756 7.8615031 42.081063 7.0643735 41.755859 6.3164062 z M 85.341797 6.5371094 L 85.634766 7.9277344 L 85.634766 14.683594 C 85.634766 15.529122 85.746956 16.277328 85.974609 16.927734 C 86.21851 17.561881 86.609897 18.06547 87.146484 18.439453 C 87.683069 18.797177 88.405837 18.976562 89.316406 18.976562 C 90.048113 18.976562 90.747397 18.813484 91.414062 18.488281 C 92.080731 18.146818 92.658681 17.722815 93.146484 17.21875 C 93.260306 17.836635 93.495793 18.267816 93.853516 18.511719 C 94.2275 18.755622 94.642372 18.878906 95.097656 18.878906 C 95.4879 18.878906 95.886465 18.813675 96.292969 18.683594 C 96.715734 18.569773 97.09799 18.423003 97.439453 18.244141 L 96.974609 16.78125 C 96.584378 16.927591 96.276482 17 96.048828 17 C 95.804918 17 95.625533 16.918462 95.511719 16.755859 C 95.397905 16.593258 95.341797 16.334286 95.341797 15.976562 L 95.341797 6.5371094 L 92.609375 6.5371094 C 92.625627 6.5696309 92.651065 6.7000934 92.683594 6.9277344 C 92.732375 7.1553771 92.779344 7.3745561 92.828125 7.5859375 C 92.876906 7.797329 92.902344 7.9114824 92.902344 7.9277344 L 92.902344 14.169922 C 92.902344 14.722767 92.764706 15.212002 92.488281 15.634766 C 92.211859 16.057531 91.845909 16.381734 91.390625 16.609375 C 90.935341 16.837016 90.438928 16.951172 89.902344 16.951172 C 89.349497 16.951172 88.943756 16.804402 88.683594 16.511719 C 88.423441 16.219036 88.251232 15.853087 88.169922 15.414062 C 88.104889 14.958778 88.072266 14.52042 88.072266 14.097656 L 88.072266 6.5371094 L 85.341797 6.5371094 z M 98.876953 6.5371094 L 99.169922 7.9277344 L 99.169922 18.658203 L 101.58594 18.658203 L 101.58594 6.5371094 L 98.876953 6.5371094 z M 32.439453 7.9511719 C 32.959779 7.9511719 33.398136 8.0816344 33.755859 8.3417969 C 34.113583 8.5856991 34.374508 8.9353406 34.537109 9.390625 C 34.715971 9.8459094 34.781202 10.365806 34.732422 10.951172 L 29.634766 10.951172 C 29.699806 10.479627 29.844623 10.015831 30.072266 9.5605469 C 30.316168 9.0890022 30.633194 8.7067453 31.023438 8.4140625 C 31.429941 8.1051196 31.902868 7.9511719 32.439453 7.9511719 z M 59.230469 7.9765625 C 59.267308 7.9754192 59.304195 7.9765625 59.341797 7.9765625 C 59.959684 7.9765625 60.463272 8.1213797 60.853516 8.4140625 C 61.260019 8.6904853 61.569869 9.0655649 61.78125 9.5371094 C 61.992631 10.008654 62.137329 10.512243 62.21875 11.048828 C 62.316312 11.585413 62.365234 12.10531 62.365234 12.609375 C 62.365234 13.09718 62.316312 13.609899 62.21875 14.146484 C 62.12119 14.68307 61.950937 15.186659 61.707031 15.658203 C 61.47939 16.129748 61.162363 16.512005 60.755859 16.804688 C 60.349354 17.09737 59.845766 17.244141 59.244141 17.244141 C 58.658775 17.244141 58.171494 17.09737 57.78125 16.804688 C 57.391019 16.512005 57.081169 16.129748 56.853516 15.658203 C 56.625875 15.170398 56.462797 14.657679 56.365234 14.121094 C 56.283924 13.584508 56.244141 13.080919 56.244141 12.609375 C 56.244141 12.13783 56.293063 11.634241 56.390625 11.097656 C 56.488175 10.544811 56.6493 10.032091 56.876953 9.5605469 C 57.120856 9.0890022 57.439834 8.7067453 57.830078 8.4140625 C 58.211175 8.1396723 58.677878 7.9937119 59.230469 7.9765625 z M 109.91211 7.9765625 C 109.94895 7.9754192 109.98584 7.9765625 110.02344 7.9765625 C 110.64132 7.9765625 111.14687 8.1213797 111.53711 8.4140625 C 111.94362 8.6904853 112.25151 9.0655649 112.46289 9.5371094 C 112.67426 10.008654 112.82103 10.512243 112.90234 11.048828 C 112.99991 11.585413 113.04883 12.10531 113.04883 12.609375 C 113.04883 13.09718 112.99991 13.609899 112.90234 14.146484 C 112.80479 14.68307 112.63453 15.186659 112.39062 15.658203 C 112.16298 16.129748 111.84596 16.512005 111.43945 16.804688 C 111.03295 17.09737 110.52936 17.244141 109.92773 17.244141 C 109.34237 17.244141 108.85313 17.09737 108.46289 16.804688 C 108.07266 16.512005 107.76476 16.129748 107.53711 15.658203 C 107.30947 15.170398 107.14639 14.657679 107.04883 14.121094 C 106.96752 13.584508 106.92773 13.080919 106.92773 12.609375 C 106.92773 12.13783 106.9747 11.634241 107.07227 11.097656 C 107.16982 10.544811 107.33289 10.032091 107.56055 9.5605469 C 107.80445 9.0890022 108.12147 8.7067453 108.51172 8.4140625 C 108.89282 8.1396723 109.35952 7.9937119 109.91211 7.9765625 z "
     transform="scale(0.26458333)" />
  <text
     xml:space="preserve"
     transform="matrix(0.26458333,0,0,0.26458333,-29.235024,-126.12492)"
     id="text7570"
     style="font-size:39.9999px;line-height:1.25;font-family:Calibri;-inkscape-font-specification:'Calibri, Normal';white-space:pre;shape-inside:url(#rect7572)" />
</svg>
