<?xml version="1.0" encoding="UTF-8" standalone="no"?>
<!-- Created with Inkscape (http://www.inkscape.org/) -->

<svg
   width="51.508747mm"
   height="10.740557mm"
   viewBox="0 0 51.508747 10.740556"
   version="1.1"
   id="svg826"
   inkscape:version="1.1.1 (3bf5ae0d25, 2021-09-20)"
   sodipodi:docname="logo.svg"
   xmlns:inkscape="http://www.inkscape.org/namespaces/inkscape"
   xmlns:sodipodi="http://sodipodi.sourceforge.net/DTD/sodipodi-0.dtd"
   xmlns="http://www.w3.org/2000/svg"
   xmlns:svg="http://www.w3.org/2000/svg">
  <sodipodi:namedview
     id="namedview828"
     pagecolor="#ffffff"
     bordercolor="#666666"
     borderopacity="1.0"
     inkscape:pageshadow="2"
     inkscape:pageopacity="0.0"
     inkscape:pagecheckerboard="0"
     inkscape:document-units="mm"
     showgrid="false"
     fit-margin-top="0"
     fit-margin-left="0"
     fit-margin-right="0"
     fit-margin-bottom="0"
     inkscape:zoom="2"
     inkscape:cx="105.75"
     inkscape:cy="100.25"
     inkscape:window-width="2560"
     inkscape:window-height="1017"
     inkscape:window-x="-8"
     inkscape:window-y="-8"
     inkscape:window-maximized="1"
     inkscape:current-layer="layer1" />
  <defs
     id="defs823" />
  <g
     inkscape:label="Layer 1"
     inkscape:groupmode="layer"
     id="layer1"
     transform="translate(-22.345371,-122.04491)">
    <g
       aria-label="InterloQuio"
       id="text2297"
       style="font-size:10.9152px;line-height:1.25;font-family:Rosario;-inkscape-font-specification:'Rosario, Normal';fill:#d8340e;stroke-width:0.227399;fill-opacity:1">
      <path
         d="m 22.345371,122.41602 h 1.167926 v 7.94627 h -1.015113 v -7.22586 q 0,-0.0109 -0.04366,-0.17465 -0.03275,-0.16372 -0.06549,-0.33837 -0.03275,-0.17464 -0.04366,-0.20739 z"
         id="path9451"
         style="fill:#d8340e;fill-opacity:1" />
      <path
         d="m 25.980129,124.85011 q 0.07641,0.18556 0.130982,0.38204 0.05458,0.19647 0.07641,0.39294 0.327456,-0.32745 0.77498,-0.56759 0.447523,-0.25105 0.916876,-0.25105 0.600336,0 0.960538,0.25105 0.371117,0.25105 0.534845,0.68766 0.163728,0.42569 0.163728,0.99328 v 3.62385 h -0.895047 v -3.32914 q 0,-0.33837 -0.05458,-0.66582 -0.04366,-0.32746 -0.240134,-0.53485 -0.185558,-0.2183 -0.622166,-0.2183 -0.261965,0 -0.534845,0.10915 -0.27288,0.0982 -0.513015,0.26196 -0.240134,0.16373 -0.436608,0.34929 v 4.02771 h -0.895046 v -3.84215 q 0,-0.21831 -0.03275,-0.5021 -0.03275,-0.29471 -0.109152,-0.56759 -0.07641,-0.2838 -0.218304,-0.46935 z"
         id="path9453"
         style="fill:#d8340e;fill-opacity:1" />
      <path
         d="m 32.594729,123.38748 q -0.07641,0.37111 -0.141898,0.77498 -0.05458,0.39294 -0.07641,0.77497 h 1.418976 l -0.185559,0.68766 h -1.233417 v 3.47104 q 0,0.20739 0.04366,0.37111 0.05458,0.15282 0.174644,0.24014 0.130982,0.0764 0.360201,0.0764 0.174643,0 0.349287,-0.0327 0.174643,-0.0327 0.338371,-0.0764 l 0.152813,0.61125 q -0.27288,0.0764 -0.52393,0.13099 -0.240134,0.0655 -0.556675,0.0655 -0.698573,0 -0.971453,-0.37112 -0.27288,-0.37112 -0.27288,-1.03694 v -3.44921 h -0.807725 v -0.54576 q 0.327456,-0.0109 0.54576,-0.17464 0.218304,-0.16373 0.360202,-0.41478 0.141897,-0.26196 0.229219,-0.54576 0.08732,-0.29471 0.130982,-0.55667 z"
         id="path9455"
         style="fill:#d8340e;fill-opacity:1" />
      <path
         d="m 36.797063,124.80645 q 0.654912,0 1.102436,0.27288 0.447523,0.26197 0.665827,0.74224 0.229219,0.46935 0.229219,1.10243 0,0.15281 -0.02183,0.31654 -0.01092,0.15281 -0.03275,0.32746 h -3.449203 q 0,1.03694 0.458438,1.60453 0.458439,0.56759 1.222503,0.56759 0.31654,0 0.654912,-0.0982 0.349286,-0.0982 0.720403,-0.29471 l 0.338371,0.54576 q -0.382032,0.30562 -0.862301,0.45843 -0.480269,0.15282 -0.971453,0.15282 -0.643996,0 -1.124265,-0.22922 -0.469354,-0.24014 -0.785895,-0.63308 -0.305625,-0.40387 -0.458438,-0.90597 -0.152813,-0.50209 -0.152813,-1.02602 0,-0.54576 0.152813,-1.05878 0.152813,-0.51301 0.458438,-0.92779 0.316541,-0.42569 0.77498,-0.66583 0.458438,-0.25105 1.080604,-0.25105 z m -0.08732,0.68766 q -0.371117,0 -0.654912,0.20739 -0.283795,0.20739 -0.458439,0.53484 -0.174643,0.31654 -0.240134,0.65492 h 2.488666 q 0.01091,-0.45844 -0.130983,-0.76407 -0.130982,-0.31654 -0.392947,-0.46935 -0.25105,-0.16373 -0.611251,-0.16373 z"
         id="path9457"
         style="fill:#d8340e;fill-opacity:1" />
      <path
         d="m 40.759274,124.8392 q 0.196474,0.48027 0.25105,1.01511 0.283795,-0.44752 0.764064,-0.73132 0.480269,-0.28379 1.015114,-0.28379 l -0.218304,0.96054 q -0.52393,0 -0.895047,0.27288 -0.360201,0.27288 -0.643997,0.68765 v 3.60202 h -0.905961 v -3.92947 q 0,-0.21831 -0.03275,-0.49119 -0.03274,-0.27288 -0.109152,-0.53484 -0.07641,-0.26197 -0.207389,-0.44752 z"
         id="path9459"
         style="fill:#d8340e;fill-opacity:1" />
      <path
         d="m 44.874295,122.04491 v 8.31738 h -0.905962 v -7.6843 l -0.141897,-0.63308 z"
         id="path9461"
         style="fill:#d8340e;fill-opacity:1" />
      <path
         d="m 48.683694,130.50419 q -0.796809,0 -1.342569,-0.39295 -0.534845,-0.40386 -0.807725,-1.04786 -0.261965,-0.644 -0.261965,-1.37531 0,-0.54576 0.163728,-1.05878 0.163728,-0.52393 0.480269,-0.92779 0.316541,-0.41478 0.774979,-0.65491 0.469354,-0.24014 1.058775,-0.24014 0.807724,0 1.342569,0.39295 0.54576,0.39295 0.807725,1.03694 0.27288,0.644 0.27288,1.38623 0,0.55668 -0.163728,1.08061 -0.163728,0.51301 -0.480269,0.91688 -0.305625,0.40386 -0.774979,0.64399 -0.458438,0.24014 -1.06969,0.24014 z m 0.01092,-0.68766 q 0.425692,0 0.709488,-0.19647 0.29471,-0.20739 0.469353,-0.53485 0.185559,-0.32746 0.261965,-0.69857 0.07641,-0.38203 0.07641,-0.73132 0,-0.3602 -0.07641,-0.73132 -0.06549,-0.38203 -0.229219,-0.69857 -0.163728,-0.32746 -0.458439,-0.52393 -0.283795,-0.20739 -0.709488,-0.20739 -0.425692,0 -0.720403,0.20739 -0.283795,0.19647 -0.458438,0.52393 -0.174643,0.32745 -0.25105,0.70949 -0.07641,0.37111 -0.07641,0.7204 0,0.33837 0.07641,0.7204 0.07641,0.37112 0.240135,0.69858 0.174643,0.32745 0.458438,0.53484 0.283795,0.20739 0.687658,0.20739 z"
         id="path9463"
         style="fill:#d8340e;fill-opacity:1" />
      <path
         d="m 64.259671,132.27245 q -0.283795,0.10915 -0.556675,0.19647 -0.261965,0.0982 -0.54576,0.16373 -0.283796,0.0764 -0.600336,0.10915 -0.316541,0.0437 -0.698573,0.0437 -0.491184,0 -1.080605,-0.15281 -0.589421,-0.15281 -1.200672,-0.39295 -0.611251,-0.22922 -1.200672,-0.5021 -0.589421,-0.27288 -1.09152,-0.52392 -0.502099,-0.24014 -0.851386,-0.39295 -0.327456,-0.15281 -0.698573,-0.24014 -0.371116,-0.0873 -0.731318,-0.16372 -1.015114,-0.22922 -1.648195,-0.80773 -0.622167,-0.58942 -0.916877,-1.41898 -0.283795,-0.82955 -0.283795,-1.79009 0,-0.81864 0.207389,-1.54996 0.218304,-0.74223 0.654912,-1.30982 0.436608,-0.57851 1.102435,-0.90596 0.665827,-0.32746 1.560873,-0.32746 0.895047,0 1.549959,0.33837 0.665827,0.32746 1.102435,0.90596 0.436608,0.56759 0.643997,1.30983 0.218304,0.73132 0.218304,1.53904 0,0.7859 -0.218304,1.53904 -0.218304,0.74224 -0.698573,1.34257 -0.469353,0.60034 -1.244333,0.9278 0.03275,0.0109 0.07641,0.0327 0.04366,0.0218 0.08732,0.0437 0.240135,0.12007 0.665828,0.33837 0.436608,0.21831 0.993283,0.46936 0.556675,0.25105 1.157011,0.46935 0.600336,0.22922 1.167926,0.37112 0.578506,0.15281 1.04786,0.15281 0.229219,0 0.56759,-0.0546 0.338371,-0.0546 0.687658,-0.13099 0.349286,-0.0764 0.600336,-0.15281 z m -8.579348,-2.53233 q 0.687658,0 1.157012,-0.28379 0.469353,-0.29471 0.753149,-0.77498 0.29471,-0.49119 0.414777,-1.08061 0.130983,-0.60033 0.130983,-1.20067 0,-0.60033 -0.130983,-1.18976 -0.120067,-0.58942 -0.414777,-1.06968 -0.283796,-0.49119 -0.753149,-0.77498 -0.469354,-0.29471 -1.157012,-0.29471 -0.687657,0 -1.157011,0.29471 -0.469353,0.29471 -0.753149,0.78589 -0.283795,0.48027 -0.414777,1.06969 -0.120067,0.58942 -0.120067,1.18976 0,0.58942 0.120067,1.17884 0.130982,0.58942 0.414777,1.0806 0.283796,0.48027 0.753149,0.77498 0.469354,0.29471 1.157011,0.29471 z"
         id="path9465"
         style="fill:#d8340e;fill-opacity:1" />
      <path
         d="m 61.476291,124.93743 v 3.34006 q 0,0.31654 0.05458,0.65491 0.05458,0.32745 0.240134,0.54576 0.196474,0.2183 0.611251,0.2183 0.403863,0 0.731319,-0.17464 0.338371,-0.17464 0.54576,-0.48027 0.207389,-0.31654 0.207389,-0.73132 v -2.7288 q 0,-0.0109 -0.03275,-0.15281 -0.03275,-0.15281 -0.06549,-0.30563 -0.03275,-0.16372 -0.04366,-0.18556 h 1.047859 v 4.36609 q 0,0.20738 0.06549,0.30562 0.07641,0.0982 0.22922,0.0982 0.152812,0 0.414777,-0.0982 l 0.196474,0.58942 q -0.218304,0.12007 -0.491184,0.18556 -0.261965,0.0764 -0.502099,0.0764 -0.283796,0 -0.5021,-0.16373 -0.218304,-0.16373 -0.283795,-0.57851 -0.316541,0.32746 -0.764064,0.55668 -0.436608,0.22922 -0.905962,0.22922 -0.600336,0 -0.971452,-0.25105 -0.360202,-0.25105 -0.52393,-0.67674 -0.163728,-0.43661 -0.163728,-1.0042 v -2.99077 l -0.141898,-0.644 z"
         id="path9467"
         style="fill:#d8340e;fill-opacity:1" />
      <path
         d="m 67.752524,123.1146 q 0,0.27288 -0.196474,0.46935 -0.185558,0.19647 -0.469354,0.19647 -0.27288,0 -0.469353,-0.19647 -0.185559,-0.19647 -0.185559,-0.46935 0,-0.27288 0.185559,-0.46936 0.196473,-0.19647 0.469353,-0.19647 0.27288,0 0.469354,0.19647 0.196474,0.19648 0.196474,0.46936 z m -0.196474,1.82283 v 5.42486 h -0.905962 v -4.78086 l -0.130982,-0.644 z"
         id="path9469"
         style="fill:#d8340e;fill-opacity:1" />
      <path
         d="m 71.365451,130.50419 q -0.796809,0 -1.342569,-0.39295 -0.534845,-0.40386 -0.807725,-1.04786 -0.261965,-0.644 -0.261965,-1.37531 0,-0.54576 0.163728,-1.05878 0.163728,-0.52393 0.480269,-0.92779 0.316541,-0.41478 0.774979,-0.65491 0.469354,-0.24014 1.058775,-0.24014 0.807724,0 1.342569,0.39295 0.54576,0.39295 0.807725,1.03694 0.27288,0.644 0.27288,1.38623 0,0.55668 -0.163728,1.08061 -0.163728,0.51301 -0.480269,0.91688 -0.305625,0.40386 -0.774979,0.64399 -0.458438,0.24014 -1.06969,0.24014 z m 0.01092,-0.68766 q 0.425692,0 0.709488,-0.19647 0.29471,-0.20739 0.469353,-0.53485 0.185559,-0.32746 0.261965,-0.69857 0.07641,-0.38203 0.07641,-0.73132 0,-0.3602 -0.07641,-0.73132 -0.06549,-0.38203 -0.229219,-0.69857 -0.163728,-0.32746 -0.458439,-0.52393 -0.283795,-0.20739 -0.709488,-0.20739 -0.425692,0 -0.720403,0.20739 -0.283795,0.19647 -0.458438,0.52393 -0.174643,0.32745 -0.25105,0.70949 -0.07641,0.37111 -0.07641,0.7204 0,0.33837 0.07641,0.7204 0.07641,0.37112 0.240135,0.69858 0.174643,0.32745 0.458438,0.53484 0.283795,0.20739 0.687658,0.20739 z"
         id="path9471"
         style="fill:#d8340e;fill-opacity:1" />
    </g>
  </g>
</svg>
