<?xml version="1.0" encoding="UTF-8" standalone="no"?>
<!-- Created with Inkscape (http://www.inkscape.org/) -->

<svg
   width="311.95145"
   height="47.952"
   viewBox="0 0 311.95145 47.952"
   version="1.1"
   id="svg5"
   inkscape:version="1.1.1 (3bf5ae0d25, 2021-09-20)"
   sodipodi:docname="logo.svg"
   xmlns:inkscape="http://www.inkscape.org/namespaces/inkscape"
   xmlns:sodipodi="http://sodipodi.sourceforge.net/DTD/sodipodi-0.dtd"
   xmlns="http://www.w3.org/2000/svg"
   xmlns:svg="http://www.w3.org/2000/svg">
  <sodipodi:namedview
     id="namedview7"
     pagecolor="#ffffff"
     bordercolor="#666666"
     borderopacity="1.0"
     inkscape:pageshadow="2"
     inkscape:pageopacity="0.0"
     inkscape:pagecheckerboard="0"
     inkscape:document-units="px"
     showgrid="false"
     fit-margin-top="0"
     fit-margin-left="0"
     fit-margin-right="0"
     fit-margin-bottom="0"
     inkscape:zoom="1.3"
     inkscape:cx="159.61538"
     inkscape:cy="108.84615"
     inkscape:window-width="2560"
     inkscape:window-height="1017"
     inkscape:window-x="-8"
     inkscape:window-y="-8"
     inkscape:window-maximized="1"
     inkscape:current-layer="layer1" />
  <defs
     id="defs2" />
  <g
     inkscape:label="Layer 1"
     inkscape:groupmode="layer"
     id="layer1"
     transform="translate(-20.096,-26.934157)">
    <g
       aria-label="All Things Docs"
       id="text5138"
       style="font-size:48px;line-height:1.25;font-family:Rosario;-inkscape-font-specification:Rosario">
      <path
         d="m 37.76,28.710157 12.432,35.136 h -7.104 l -3.456,-10.08 H 29.168 l -3.504,10.08 h -5.568 l 12.432,-35.136 z m -3.36,8.352 -3.6,12 h 7.248 z"
         style="font-weight:bold;fill:#d8340e"
         id="path823" />
      <path
         d="m 59.167933,26.934157 v 36.912 h -5.856 v -34.32 l -0.528,-2.592 z"
         style="font-weight:bold;fill:#d8340e"
         id="path825" />
      <path
         d="m 71.215907,26.934157 v 36.912 h -5.856 v -34.32 l -0.528,-2.592 z"
         style="font-weight:bold;fill:#d8340e"
         id="path827" />
      <path
         d="m 95.791859,33.462157 h -9.744 v -4.752 h 26.496001 v 4.752 h -9.888 v 30.384 h -6.864001 z"
         style="font-weight:bold;fill:#d8340e"
         id="path829" />
      <path
         d="m 122.23982,26.934157 v 15.312 q 1.392,-1.152 3.216,-2.016 1.824,-0.912 3.696,-0.912 2.784,0 4.32,1.056 1.536,1.056 2.16,2.976 0.624,1.872 0.624,4.368 v 16.128 h -5.808 v -15.552 q 0,-1.104 -0.192,-2.112 -0.144,-1.008 -0.816,-1.632 -0.624,-0.672 -2.016,-0.672 -0.72,0 -1.776,0.432 -1.008,0.432 -1.968,1.056 -0.912,0.576 -1.44,1.152 v 17.328 h -5.712 v -34.32 l -0.576,-2.592 z"
         style="font-weight:bold;fill:#d8340e"
         id="path831" />
      <path
         d="m 149.11977,31.302157 q 0,1.488 -1.056,2.592 -1.056,1.104 -2.592,1.104 -1.488,0 -2.592,-1.104 -1.104,-1.104 -1.104,-2.592 0,-1.536 1.104,-2.592 1.104,-1.056 2.64,-1.056 1.488,0 2.544,1.056 1.056,1.056 1.056,2.592 z m -0.816,8.688 v 23.856 h -5.76 v -21.264 l -0.528,-2.592 z"
         style="font-weight:bold;fill:#d8340e"
         id="path833" />
      <path
         d="m 159.58374,39.462157 q 0.336,0.72 0.528,1.536 0.192,0.768 0.288,1.536 1.44,-1.296 3.36,-2.256 1.968,-0.96 3.936,-0.96 2.784,0 4.32,1.056 1.536,1.056 2.16,2.976 0.624,1.872 0.624,4.368 v 16.128 h -5.808 v -15.552 q 0,-1.104 -0.192,-2.112 -0.144,-1.008 -0.816,-1.632 -0.624,-0.672 -2.016,-0.672 -0.72,0 -1.776,0.432 -1.008,0.432 -1.968,1.056 -0.912,0.576 -1.44,1.152 v 17.328 h -5.76 v -17.088 q 0,-0.864 -0.144,-2.112 -0.096,-1.296 -0.432,-2.544 -0.336,-1.248 -0.912,-1.92 z"
         style="font-weight:bold;fill:#d8340e"
         id="path835" />
      <path
         d="m 188.19169,39.270157 q 1.536,0 2.688,0.384 1.152,0.336 2.448,0.336 2.112,0 4.272,-0.144 2.208,-0.192 4.272,-0.384 l -1.056,3.984 h -4.08 q -0.24,0 -0.576,-0.096 -0.288,-0.096 -0.528,-0.144 0.768,0.96 1.152,2.016 0.384,1.008 0.384,2.256 0,2.496 -1.296,4.368 -1.248,1.872 -3.36,2.928 -2.112,1.008 -4.56,1.008 -0.864,0 -1.584,0.624 -0.672,0.576 -0.672,1.536 0,0.672 0.576,1.008 0.624,0.336 1.536,0.432 0.912,0.096 1.824,0.096 h 2.208 q 1.488,0 2.976,0.144 1.536,0.144 2.784,0.672 1.296,0.528 2.064,1.632 0.768,1.104 0.768,3.024 0,2.592 -1.2,4.464 -1.2,1.872 -3.12,3.072 -1.92,1.248 -4.224,1.824 -2.304,0.576 -4.56,0.576 -1.44,0 -3.12,-0.24 -1.632,-0.24 -3.12,-0.912 -1.488,-0.624 -2.448,-1.824 -0.912,-1.152 -0.912,-3.024 0,-2.112 1.248,-3.744 1.296,-1.632 2.976,-2.4 v -0.192 q -0.816,-0.24 -1.536,-1.2 -0.672,-0.96 -0.672,-2.064 0,-0.48 0.528,-0.96 0.528,-0.48 1.344,-1.344 0.864,-0.864 1.776,-2.4 -1.968,-1.104 -3.12,-2.88 -1.152,-1.824 -1.152,-4.176 0,-2.496 1.248,-4.32 1.248,-1.872 3.312,-2.88 2.112,-1.056 4.512,-1.056 z m -0.048,3.6 q -0.96,0 -1.632,0.672 -0.672,0.624 -1.056,1.728 -0.336,1.056 -0.336,2.4 0,1.296 0.336,2.4 0.384,1.056 1.056,1.728 0.672,0.624 1.632,0.624 1.44,0 2.256,-1.392 0.816,-1.392 0.816,-3.36 0,-1.344 -0.384,-2.4 -0.336,-1.104 -1.056,-1.728 -0.672,-0.672 -1.632,-0.672 z m -2.208,20.976 q -0.96,0.528 -1.68,1.632 -0.672,1.152 -0.672,2.304 0,1.104 0.72,1.776 0.768,0.672 1.776,0.912 1.056,0.288 1.968,0.288 1.104,0 2.304,-0.192 1.248,-0.192 2.256,-0.672 1.056,-0.48 1.68,-1.392 0.672,-0.864 0.672,-2.256 0,-1.152 -0.816,-1.68 -0.768,-0.48 -1.872,-0.624 -1.104,-0.096 -1.968,-0.096 z"
         style="font-weight:bold;fill:#d8340e"
         id="path837" />
      <path
         d="m 212.14366,39.366157 q 1.68,0 3.6,0.384 1.968,0.336 3.456,1.104 l -2.016,4.032 q -0.96,-0.768 -2.256,-1.2 -1.248,-0.432 -2.496,-0.432 -1.2,0 -2.256,0.576 -1.008,0.576 -1.008,1.968 0,0.816 0.384,1.392 0.432,0.528 1.152,0.912 0.72,0.384 1.584,0.768 1.152,0.432 2.4,0.96 1.248,0.528 2.352,1.296 1.104,0.768 1.776,2.064 0.672,1.248 0.672,3.216 0,2.544 -1.344,4.368 -1.344,1.824 -3.504,2.784 -2.112,0.96 -4.512,0.96 -1.92,0 -4.128,-0.576 -2.16,-0.576 -3.84,-1.488 l 2.064,-3.936 q 1.248,0.72 2.592,1.344 1.344,0.576 2.832,0.576 1.44,0 2.496,-0.72 1.104,-0.768 1.104,-2.352 0,-1.056 -0.576,-1.68 -0.528,-0.672 -1.44,-1.152 -0.912,-0.48 -2.016,-0.864 -1.488,-0.576 -2.928,-1.248 -1.44,-0.72 -2.4,-2.016 -0.96,-1.296 -0.96,-3.552 0,-2.544 1.344,-4.176 1.392,-1.68 3.504,-2.496 2.112,-0.816 4.368,-0.816 z"
         style="font-weight:bold;fill:#d8340e"
         id="path839" />
      <path
         d="m 264.94356,46.326157 q 0,5.088 -2.064,9.072 -2.064,3.936 -5.904,6.192 -3.792,2.256 -8.976,2.256 h -12.48 v -32.208 q 0,-0.048 -0.192,-0.72 -0.144,-0.672 -0.336,-1.392 -0.192,-0.72 -0.24,-0.816 h 13.296 q 4.032,0 7.152,1.296 3.12,1.248 5.28,3.6 2.208,2.352 3.312,5.568 1.152,3.216 1.152,7.152 z m -7.104,0.192 q 0,-2.448 -0.576,-4.752 -0.528,-2.352 -1.776,-4.224 -1.2,-1.872 -3.168,-2.976 -1.92,-1.104 -4.704,-1.104 h -5.472 v 25.632 h 5.568 q 3.648,0 5.856,-1.776 2.256,-1.824 3.264,-4.704 1.008,-2.88 1.008,-6.096 z"
         style="font-weight:bold;fill:#d8340e"
         id="path841" />
      <path
         d="m 278.57553,64.422157 q -3.6,0 -6.192,-1.632 -2.544,-1.68 -3.936,-4.464 -1.344,-2.832 -1.344,-6.288 0,-2.592 0.816,-4.848 0.816,-2.304 2.352,-4.032 1.584,-1.776 3.744,-2.784 2.16,-1.008 4.848,-1.008 3.648,0 6.192,1.68 2.544,1.632 3.888,4.464 1.392,2.784 1.392,6.24 0,2.592 -0.816,4.896 -0.816,2.256 -2.352,4.032 -1.536,1.728 -3.696,2.736 -2.16,1.008 -4.896,1.008 z m 0.048,-3.84 q 1.68,0 2.736,-0.816 1.056,-0.864 1.632,-2.16 0.576,-1.344 0.768,-2.832 0.24,-1.536 0.24,-2.832 0,-1.344 -0.192,-2.832 -0.144,-1.536 -0.672,-2.832 -0.528,-1.344 -1.584,-2.16 -1.008,-0.816 -2.736,-0.816 -1.632,0 -2.688,0.864 -1.056,0.864 -1.632,2.208 -0.576,1.344 -0.816,2.832 -0.24,1.488 -0.24,2.736 0,1.296 0.192,2.784 0.192,1.488 0.72,2.832 0.528,1.344 1.536,2.208 1.056,0.816 2.736,0.816 z"
         style="font-weight:bold;fill:#d8340e"
         id="path843" />
      <path
         d="m 305.1675,39.366157 q 1.776,0 3.792,0.624 2.016,0.624 3.456,1.68 l -2.88,3.648 q -1.152,-0.864 -2.256,-1.344 -1.104,-0.528 -2.64,-0.528 -1.536,0 -2.592,0.816 -1.056,0.816 -1.68,2.112 -0.624,1.296 -0.912,2.736 -0.288,1.44 -0.288,2.688 0,4.08 1.68,6.336 1.68,2.256 4.656,2.256 1.248,0 2.544,-0.384 1.296,-0.432 2.784,-1.296 l 1.488,3.456 q -2.016,1.104 -3.744,1.68 -1.728,0.576 -4.08,0.576 -3.792,0 -6.384,-1.584 -2.592,-1.632 -3.936,-4.464 -1.344,-2.832 -1.344,-6.48 0,-3.744 1.536,-6.528 1.536,-2.832 4.272,-4.416 2.784,-1.584 6.528,-1.584 z"
         style="font-weight:bold;fill:#d8340e"
         id="path845" />
      <path
         d="m 324.70344,39.366157 q 1.68,0 3.6,0.384 1.968,0.336 3.456,1.104 l -2.016,4.032 q -0.96,-0.768 -2.256,-1.2 -1.248,-0.432 -2.496,-0.432 -1.2,0 -2.256,0.576 -1.008,0.576 -1.008,1.968 0,0.816 0.384,1.392 0.432,0.528 1.152,0.912 0.72,0.384 1.584,0.768 1.152,0.432 2.4,0.96 1.248,0.528 2.352,1.296 1.104,0.768 1.776,2.064 0.672,1.248 0.672,3.216 0,2.544 -1.344,4.368 -1.344,1.824 -3.504,2.784 -2.112,0.96 -4.512,0.96 -1.92,0 -4.128,-0.576 -2.16,-0.576 -3.84,-1.488 l 2.064,-3.936 q 1.248,0.72 2.592,1.344 1.344,0.576 2.832,0.576 1.44,0 2.496,-0.72 1.104,-0.768 1.104,-2.352 0,-1.056 -0.576,-1.68 -0.528,-0.672 -1.44,-1.152 -0.912,-0.48 -2.016,-0.864 -1.488,-0.576 -2.928,-1.248 -1.44,-0.72 -2.4,-2.016 -0.96,-1.296 -0.96,-3.552 0,-2.544 1.344,-4.176 1.392,-1.68 3.504,-2.496 2.112,-0.816 4.368,-0.816 z"
         style="font-weight:bold;fill:#d8340e"
         id="path847" />
    </g>
  </g>
</svg>
