<?xml version="1.0" encoding="UTF-8" standalone="no"?>
<!-- Created with Inkscape (http://www.inkscape.org/) -->

<svg
   width="1098"
   height="500"
   viewBox="0 0 290.50884 132.29"
   version="1.1"
   id="svg5"
   inkscape:version="1.1.1 (3bf5ae0d25, 2021-09-20)"
   sodipodi:docname="blog-tech-stack.svg"
   xmlns:inkscape="http://www.inkscape.org/namespaces/inkscape"
   xmlns:sodipodi="http://sodipodi.sourceforge.net/DTD/sodipodi-0.dtd"
   xmlns="http://www.w3.org/2000/svg"
   xmlns:svg="http://www.w3.org/2000/svg">
  <sodipodi:namedview
     id="namedview7"
     pagecolor="#ffffff"
     bordercolor="#666666"
     borderopacity="1.0"
     inkscape:pageshadow="2"
     inkscape:pageopacity="0.0"
     inkscape:pagecheckerboard="false"
     inkscape:document-units="px"
     showgrid="false"
     units="px"
     inkscape:zoom="0.74118967"
     inkscape:cx="397.33419"
     inkscape:cy="238.13068"
     inkscape:window-width="2560"
     inkscape:window-height="1017"
     inkscape:window-x="-8"
     inkscape:window-y="-8"
     inkscape:window-maximized="1"
     inkscape:current-layer="layer1" />
  <defs
     id="defs2">
    <radialGradient
       cx="128"
       cy="-128"
       fx="128"
       fy="-128"
       r="255.99969"
       id="radialGradient-1"
       gradientUnits="userSpaceOnUse"
       gradientTransform="matrix(0.23111438,0,0,0.23111438,179.59976,7.8988591)">
      <stop
         stop-color="#20C6B7"
         offset="0%"
         id="stop1041" />
      <stop
         stop-color="#4D9ABF"
         offset="100%"
         id="stop1043" />
    </radialGradient>
  </defs>
  <g
     inkscape:label="Layer 1"
     inkscape:groupmode="layer"
     id="layer1">
    <g
       style="fill:none"
       id="g985"
       transform="matrix(0.26458,0,0,0.26458,2.1067864,77.778427)">
      <rect
         width="602"
         height="173"
         fill="#ffffff"
         id="rect961"
         x="0"
         y="0" />
      <path
         d="m 196.8,89.4868 v -35.76 h -15.12 v 39.52 c 0,3.28 -0.24,7.5202 -4.56,7.5202 -3.84,0 -4.4,-3.9202 -4.56,-6.8802 h -16.08 c 0,8.6402 3.52,15.6802 11.92,18.7202 2.48,0.96 5.28,1.44 8,1.44 6.32,0 12.72,-2.8 16.72,-7.76 3.68,-4.64 3.68,-11.1202 3.68,-16.8002 z m 55.328,23.4402 V 68.5268 h -13.28 v 4.72 h -0.16 c -2.64,-4.4 -8.08,-6.24 -12.96,-6.24 -13.36,0 -22.32,10.72 -22.32,23.68 0,13.2002 8.64,23.7602 22.32,23.7602 4.8,0 10.56,-1.76 12.96,-6.32 h 0.16 v 4.8 z m -13.28,-22.2402 c 0,6.4 -4.64,11.3602 -11.12,11.3602 -6.24,0 -11.04,-5.0402 -11.04,-11.2002 0,-6.32 4.48,-11.44 10.96,-11.44 6.48,0 11.2,4.8 11.2,11.28 z m 91.128,22.2402 V 88.6868 c 0,-6.8 0.24,-12.08 -4.8,-17.2 -3.12,-3.2 -7.28,-4.48 -11.68,-4.48 -6,0 -10.88,2.88 -14.08,7.92 -2.72,-5.04 -7.04,-7.92 -12.8,-7.92 -5.04,0 -9.68,1.68 -12.24,6.24 h -0.16 v -4.72 h -12.4 v 44.4002 h 13.28 V 89.3268 c 0,-5.2 1.36,-9.84 7.52,-9.84 5.6,0 6.64,4.72 6.64,9.28 v 24.1602 h 13.28 V 88.6868 c 0,-5.04 1.44,-9.2 7.36,-9.2 6.16,0 6.8,4.96 6.8,9.84 v 23.6002 z m 42.62,-13.6002 c 0,-15.68 -22.32,-11.76 -22.32,-18.72 0,-2 2,-2.96 3.76,-2.96 2.32,0 4.08,0.88 4.16,3.36 h 13.04 c -0.88,-9.44 -8.16,-14 -17.04,-14 -8.56,0 -17.2,5.36 -17.2,14.64 0,6.24 5.28,9.68 10.56,11.6 1.92,0.72 3.84,1.36 5.76,2 2.4,0.96 6,1.92 6,5.1202 0,2.32 -2.64,3.44 -4.64,3.44 -2.64,0 -4.64,-1.36 -5.04,-4.0802 h -13.2 c 1.04,9.7602 8.8,14.7202 18.08,14.7202 9.04,0 18.08,-5.12 18.08,-15.1202 z m 28.962,-20.72 v -10.08 h -6.4 v -14.8 h -13.28 v 14.8 h -6.56 v 10.08 h 6.56 v 34.3202 h 13.28 V 78.6068 Z m 51.195,34.3202 V 68.5268 h -13.28 v 4.72 h -0.16 c -2.64,-4.4 -8.08,-6.24 -12.96,-6.24 -13.36,0 -22.32,10.72 -22.32,23.68 0,13.2002 8.64,23.7602 22.32,23.7602 4.8,0 10.56,-1.76 12.96,-6.32 h 0.16 v 4.8 z m -13.28,-22.2402 c 0,6.4 -4.64,11.3602 -11.12,11.3602 -6.24,0 -11.04,-5.0402 -11.04,-11.2002 0,-6.32 4.48,-11.44 10.96,-11.44 6.48,0 11.2,4.8 11.2,11.28 z m 67.848,5.36 h -13.52 c -2,3.84 -5.2,5.9202 -9.6,5.9202 -6.48,0 -10.56,-5.0402 -10.56,-11.2802 0,-6 3.84,-11.28 10.24,-11.28 4.56,0 8,2.08 9.92,6.24 h 13.44 c -2.32,-11.28 -12.16,-18.64 -23.52,-18.64 -13.2,0 -23.44,10.48 -23.44,23.6 0,13.2802 10.48,23.7602 23.76,23.7602 11.2,0 20.72,-7.44 23.28,-18.3202 z m 48.135,-27.52 h -15.76 l -12.32,16.08 h -0.16 v -30.88 h -13.28 v 59.2002 h 13.28 V 91.5668 h 0.16 l 12.56,21.3602 h 15.04 l -16.24,-24.8802 z"
         fill="#242424"
         id="path963" />
      <path
         d="m 81.7,38.23 c -26.8019,0 -48.4701,21.6682 -48.4701,48.4701 0,26.8019 21.6682,48.4699 48.4701,48.4699 26.802,0 48.47,-21.668 48.47,-48.4699 V 38.23 Z"
         fill="#f0047f"
         id="path965" />
      <path
         d="M 80.1333,88.2002 V 122.185 C 61.7394,121.407 46.9269,106.594 46.1487,88.2002 Z"
         fill="#ffffff"
         stroke="#f0047f"
         id="path967" />
      <path
         d="M 83.2001,88.2666 H 117.185 C 116.406,106.66 101.594,121.473 83.2001,122.251 Z"
         fill="#ffffff"
         stroke="#f0047f"
         id="path969" />
      <path
         d="M 83.2001,85.1333 V 51.1309 h 34.0029 v 34.0024 z"
         fill="#ffffff"
         stroke="#f0047f"
         id="path971" />
    </g>
    <g
       style="fill-rule:evenodd;stroke-width:27"
       id="g1024"
       transform="matrix(0.08126368,0,0,0.08126368,26.769518,22.600911)">
      <path
         fill="#ebb951"
         stroke="#fcd804"
         d="m 1345.211,24.704 112.262,64.305 a 43,43 0 0 1 21.627,37.312 v 142.237 a 40,40 0 0 1 -20.702,35.037 l -120.886,66.584 a 42,42 0 0 1 -41.216,-0.389 l -106.242,-61.155 a 57,57 0 0 1 -28.564,-49.4 V 138.71 a 64,64 0 0 1 31.172,-54.939 l 98.01,-58.564 a 54,54 0 0 1 54.54,-0.503 z"
         id="path1003" />
      <path
         fill="#33ba91"
         stroke="#00a88a"
         d="m 958.07,22.82 117.31,66.78 a 41,41 0 0 1 20.72,35.64 v 139.5 A 45,45 0 0 1 1073,304.06 L 955.68,369.4 a 44,44 0 0 1 -43.54,-0.41 l -105.82,-61.6 a 56,56 0 0 1 -27.83,-48.4 V 140.07 a 68,68 0 0 1 33.23,-58.44 l 98.06,-58.35 a 48,48 0 0 1 48.3,-0.46 z"
         id="path1005" />
      <path
         fill="#0594cb"
         stroke="#0083c0"
         d="m 575.26,20.97 117.23,68.9 a 40,40 0 0 1 19.73,34.27 l 0.73,138.67 a 48,48 0 0 1 -24.64,42.2 L 573.18,369.12 A 45,45 0 0 1 528.65,368.7 L 422.82,307.1 A 55,55 0 0 1 395.49,259.57 V 136.52 a 63,63 0 0 1 29.87,-53.59 l 99.3,-61.4 a 49,49 0 0 1 50.6,-0.56 z"
         id="path1007" />
      <path
         fill="#ff4088"
         stroke="#c9177e"
         d="m 195.81,24.13 114.41,66.54 a 44,44 0 0 1 21.88,38.04 v 136.43 a 48,48 0 0 1 -24.45,41.82 L 194.1,370.9 a 49,49 0 0 1 -48.48,-0.23 L 41.05,310.48 A 53,53 0 0 1 14.49,264.55 V 135.08 a 55,55 0 0 1 26.1,-46.8 l 102.8,-63.46 a 51,51 0 0 1 52.42,-0.69 z"
         id="path1009" />
      <path
         fill="#ffffff"
         d="m 1320.72,89.15 c 58.79,0 106.52,47.73 106.52,106.51 0,58.8 -47.73,106.52 -106.52,106.52 -58.78,0 -106.52,-47.73 -106.52,-106.52 0,-58.78 47.74,-106.51 106.52,-106.51 z m 0,39.57 c 36.95,0 66.94,30 66.94,66.94 a 66.97,66.97 0 0 1 -66.94,66.94 c -36.95,0 -66.94,-29.99 -66.94,-66.94 a 66.97,66.97 0 0 1 66.93,-66.94 z m -283.8,65.31 c 0,47.18 -8.94,60.93 -26.81,80.58 -17.87,19.65 -41.57,27.57 -71.1,27.57 -27,0 -48.75,-9.58 -67.61,-26.23 -20.88,-18.45 -36.08,-47.04 -36.08,-78.95 0,-31.37 11.72,-58.48 32.49,-78.67 18.22,-17.67 45.34,-29.18 73.3,-29.18 33.77,0 68.83,15.98 90.44,47.53 L 999.82,163.5 C 986.37,138.47 966.88,130.04 939,129.24 c -30.83,-0.88 -64.77,28.53 -62.25,67.75 1.4,21.94 11.65,59.65 60.96,66.57 25.9,3.63 55.36,-24.02 55.36,-39.04 H 944.4 v -37.5 h 92.5 V 194 Z M 474.32,99.38 h 42.29 v 112.17 c 0,17.8 0.49,29.33 1.47,34.61 1.69,8.48 4.81,14.37 11.17,19.5 6.37,5.13 13.8,6.59 24.84,6.59 11.2,0 14.96,-1.74 20.66,-6.6 5.69,-4.85 9.12,-9.46 10.28,-16.53 1.15,-7.07 3.07,-18.8 3.07,-35.18 V 99.38 h 42.28 v 108.78 c 0,24.86 -1.07,42.43 -3.21,52.69 -2.14,10.27 -6.08,18.93 -11.82,26 -5.74,7.06 -13.42,12.69 -23.03,16.88 -9.62,4.19 -22.16,6.28 -37.65,6.28 -18.7,0 -32.87,-2.28 -42.52,-6.85 -9.66,-4.57 -17.3,-10.5 -22.9,-17.8 -5.61,-7.3 -9.3,-14.95 -11.08,-22.96 -2.58,-11.86 -3.88,-29.38 -3.88,-52.55 V 99.38 Z M 93.91,299.92 V 92.7 h 43.35 v 75.48 h 71.92 V 92.7 h 43.48 v 207.22 h -43.48 v -90.61 h -71.92 v 90.61 z"
         id="path1011" />
    </g>
    <path
       d="m 222.4788,28.430753 -0.0217,-0.0092 c -0.0125,-0.0047 -0.0247,-0.0092 -0.0356,-0.02006 -0.0359,-0.03853 -0.0519,-0.09155 -0.0433,-0.143503 l 1.19408,-7.292442 5.5997,5.59509 -5.82369,2.475048 c -0.0162,0.0065 -0.0335,0.0096 -0.051,0.0092 h -0.0231 c -0.008,-0.0047 -0.0155,-0.0108 -0.0309,-0.02623 -0.21673,-0.241046 -0.47591,-0.440315 -0.76465,-0.587901 z m 8.12225,-0.444397 5.98744,5.980853 c 1.24352,1.243696 1.86605,1.864002 2.09313,2.583061 0.0339,0.106471 0.0617,0.21294 0.0834,0.322497 l -14.30897,-6.053375 c -0.008,-0.0031 -0.0155,-0.0063 -0.0231,-0.0092 -0.0572,-0.02315 -0.12359,-0.04938 -0.12359,-0.108014 0,-0.05864 0.068,-0.08641 0.12513,-0.109557 l 0.0185,-0.0077 z m 7.91992,10.805961 c -0.30896,0.580187 -0.91141,1.181975 -1.93093,2.201928 l -6.75053,6.741577 -8.73092,-1.816168 -0.0464,-0.0092 c -0.0772,-0.01235 -0.1591,-0.02623 -0.1591,-0.09566 -0.067,-0.727252 -0.43352,-1.394005 -1.01181,-1.840856 -0.0356,-0.0355 -0.0264,-0.09104 -0.0155,-0.14196 0,-0.0077 0,-0.01544 0.003,-0.02161 l 1.64206,-10.069926 0.006,-0.03395 c 0.009,-0.07715 0.0231,-0.166649 0.0926,-0.166649 0.71084,-0.08833 1.35642,-0.458019 1.79191,-1.026126 0.0139,-0.01544 0.0231,-0.0324 0.0417,-0.04167 0.0495,-0.02315 0.10814,0 0.15911,0.02161 l 14.90679,6.298719 z m -10.23393,10.494266 -11.10055,11.088342 1.90005,-11.665441 0.003,-0.01544 c 0.002,-0.01544 0.004,-0.03086 0.009,-0.04475 0.0155,-0.03704 0.0556,-0.05246 0.0942,-0.0679 l 0.0185,-0.0077 c 0.41603,-0.177306 0.78398,-0.450716 1.0736,-0.797756 0.037,-0.0432 0.0819,-0.08487 0.13902,-0.09258 0.0148,-0.0025 0.03,-0.0025 0.0448,0 l 7.8164,1.604771 z m -13.4501,13.435318 -1.25125,1.249865 -13.83318,-19.970119 c -0.005,-0.0074 -0.0104,-0.01452 -0.0155,-0.02161 -0.0217,-0.02931 -0.0448,-0.05864 -0.0402,-0.09258 0.002,-0.02468 0.017,-0.04629 0.0339,-0.06481 l 0.0155,-0.02007 c 0.0417,-0.06172 0.0772,-0.123442 0.11586,-0.189793 l 0.0309,-0.054 0.004,-0.0047 c 0.0217,-0.03704 0.0417,-0.07252 0.0787,-0.09258 0.0324,-0.01544 0.0772,-0.0092 0.11276,-0.0017 l 15.32542,3.157076 c 0.0429,0.0066 0.0832,0.02418 0.1174,0.05091 0.0201,0.02007 0.0247,0.04167 0.0294,0.06635 0.21668,0.818989 0.80416,1.489729 1.58799,1.813083 0.0433,0.02161 0.0247,0.06943 0.004,0.120358 -0.0104,0.02233 -0.0177,0.04558 -0.0231,0.06943 -0.19309,1.172714 -1.84906,11.26116 -2.29395,13.98464 z m -2.61371,2.609292 c -0.92221,0.91194 -1.46597,1.394914 -2.08077,1.589338 -0.6062,0.191477 -1.25677,0.191477 -1.86296,0 -0.71986,-0.228371 -1.3424,-0.848677 -2.58591,-2.092372 l -13.89189,-13.876628 3.6286,-5.62132 c 0.017,-0.02778 0.0339,-0.05246 0.0617,-0.07253 0.0386,-0.02777 0.0942,-0.01544 0.14058,0 0.83286,0.250994 1.72708,0.205734 2.53028,-0.128072 0.0417,-0.01544 0.0834,-0.02623 0.11586,0.003 0.0163,0.01478 0.0307,0.03135 0.0433,0.04938 l 13.90116,20.150698 z M 190.4624,49.61371 l -3.18681,-3.183307 6.2933,-2.681817 c 0.0161,-0.007 0.0334,-0.01068 0.051,-0.0108 0.0525,0 0.0834,0.05246 0.11121,0.100301 0.0633,0.0972 0.13024,0.191906 0.20082,0.283922 l 0.0201,0.02468 c 0.0185,0.02623 0.006,0.05246 -0.0125,0.07715 l -3.47568,5.389858 z m -4.59715,-4.592109 -4.03179,-4.027356 c -0.68586,-0.685113 -1.18328,-1.181973 -1.52931,-1.609396 l 12.25911,2.539856 c 0.0154,0.0029 0.0308,0.0054 0.0464,0.0077 0.0756,0.01235 0.15911,0.02623 0.15911,0.09721 0,0.07715 -0.0912,0.112643 -0.16838,0.14196 l -0.0356,0.01544 z m -6.2655,-7.707523 c 0.014,-0.259433 0.0607,-0.516065 0.13904,-0.763808 0.22862,-0.719059 0.84961,-1.339365 2.09467,-2.583061 l 5.15945,-5.15378 c 2.37555,3.443899 4.75756,6.883357 7.14599,10.318359 0.0417,0.05555 0.0881,0.117271 0.0402,0.163564 -0.22553,0.248429 -0.45106,0.520007 -0.61017,0.814728 -0.0173,0.03788 -0.0439,0.07079 -0.0772,0.09566 -0.0201,0.01235 -0.0417,0.0077 -0.065,0.003 h -0.003 l -13.82396,-2.896269 z m 8.77416,-9.880132 6.93745,-6.929828 c 0.65189,0.285465 3.02461,1.286902 5.14709,2.18187 1.60653,0.67894 3.07095,1.29616 3.53129,1.496756 0.0463,0.01852 0.0881,0.03704 0.10813,0.08333 0.0123,0.02778 0.006,0.06327 0,0.09258 -0.22307,1.016128 0.0805,2.076187 0.80791,2.820691 0.0464,0.04629 0,0.112643 -0.0402,0.169736 l -0.0217,0.0324 -7.04405,10.898546 c -0.0185,0.03086 -0.0356,0.0571 -0.0664,0.07715 -0.037,0.02315 -0.0896,0.01235 -0.13285,0.0017 -0.27397,-0.07169 -0.55561,-0.11004 -0.83879,-0.114184 -0.25335,0 -0.52831,0.04628 -0.80635,0.09721 h -0.002 c -0.0309,0.0047 -0.0587,0.0108 -0.0834,-0.0077 -0.0273,-0.02228 -0.0507,-0.04887 -0.0695,-0.0787 z m 8.33853,-8.329371 8.98115,-8.971279 c 1.24351,-1.2421533 1.86605,-1.8640013 2.58591,-2.0908286 0.60619,-0.1914785 1.25676,-0.1914785 1.86296,0 0.71986,0.2268273 1.34238,0.8486753 2.5859,2.0908286 l 1.94638,1.94424 -6.38752,9.881677 c -0.0158,0.02876 -0.0374,0.05398 -0.0633,0.07406 -0.0386,0.02623 -0.0927,0.01544 -0.13903,0 -1.0224,-0.309928 -2.13203,-0.09633 -2.96591,0.570927 -0.0417,0.0432 -0.10345,0.01852 -0.15602,-0.0047 -0.83416,-0.362616 -7.32209,-3.101525 -8.25048,-3.495002 z m 19.31859,-5.672243 5.89783,5.891355 -1.42116,8.792285 v 0.02315 c -8.8e-4,0.02004 -0.005,0.03979 -0.0125,0.05864 -0.0155,0.03086 -0.0464,0.03703 -0.0772,0.04629 -0.30386,0.09194 -0.59003,0.234347 -0.84653,0.421252 -0.011,0.0079 -0.0214,0.01662 -0.0309,0.02623 -0.017,0.01852 -0.0339,0.0355 -0.0617,0.03858 -0.0226,6.93e-4 -0.0451,-0.003 -0.0664,-0.0108 l -8.98732,-3.814414 -0.0169,-0.0077 c -0.0572,-0.02315 -0.12513,-0.05091 -0.12513,-0.109556 -0.0528,-0.50028 -0.2164,-0.982557 -0.47888,-1.411888 -0.0433,-0.07098 -0.0911,-0.145046 -0.054,-0.21757 z m -6.07394,13.279467 8.42504,3.56444 c 0.0464,0.0216 0.0973,0.04166 0.1174,0.0895 0.008,0.02876 0.008,0.05918 0,0.08795 -0.0247,0.123444 -0.0463,0.263861 -0.0463,0.405821 v 0.236087 c 0,0.05864 -0.0603,0.08333 -0.11585,0.106469 l -0.017,0.0062 c -1.33465,0.569385 -18.73776,7.982185 -18.76401,7.982185 -0.0264,0 -0.0541,0 -0.0804,-0.02623 -0.0464,-0.0463 0,-0.111099 0.0417,-0.169735 0.007,-0.01017 0.0146,-0.02045 0.0217,-0.03086 l 6.92355,-10.708748 0.0123,-0.01852 c 0.0402,-0.06481 0.0864,-0.137331 0.16065,-0.137331 l 0.0695,0.0108 c 0.15756,0.0216 0.29658,0.04167 0.43716,0.04167 1.05043,0 2.02362,-0.510748 2.61062,-1.384113 0.014,-0.02332 0.0318,-0.04417 0.0525,-0.06172 0.0417,-0.03086 0.10354,-0.01544 0.15138,0.0062 z m -9.64848,14.172893 18.96947,-8.080941 c 0,0 0.0278,0 0.0541,0.02623 0.10355,0.103382 0.19154,0.17282 0.27651,0.237629 l 0.0417,0.02623 c 0.0386,0.02161 0.0772,0.04628 0.0803,0.08641 0,0.01544 0,0.02468 -0.003,0.03858 l -1.62508,9.971173 -0.006,0.04012 c -0.0108,0.07715 -0.0217,0.165105 -0.0942,0.165105 -0.87959,0.05931 -1.67322,0.548355 -2.12094,1.306961 l -0.008,0.01235 c -0.0217,0.0355 -0.0417,0.06943 -0.0772,0.08795 -0.0324,0.01544 -0.0742,0.0092 -0.10813,0.0017 l -15.1277,-3.117027 c -0.0155,-0.003 -0.2348,-0.800842 -0.25178,-0.802386 z"
       fill="url(#radialGradient-1)"
       fill-rule="nonzero"
       id="path1048"
       style="fill:url(#radialGradient-1);stroke-width:0.231114" />
    <path
       d="m 247.0683,68.606503 c -13.47774,0 -24.40683,10.927053 -24.40683,24.406823 0,10.783574 6.99331,19.932294 16.69088,23.159564 1.21978,0.22592 1.6676,-0.52946 1.6676,-1.17411 0,-0.582 -0.0227,-2.50462 -0.0331,-4.54404 -6.79001,1.47642 -8.22278,-2.87969 -8.22278,-2.87969 -1.11025,-2.82108 -2.70994,-3.57122 -2.70994,-3.57122 -2.21443,-1.51482 0.16693,-1.4837 0.16693,-1.4837 2.45086,0.17218 3.74136,2.51514 3.74136,2.51514 2.17685,3.73126 5.70967,2.65254 7.10242,2.02891 0.21906,-1.57746 0.85159,-2.65416 1.54958,-3.26365 -5.42109,-0.61716 -11.11984,-2.70993 -11.11984,-12.061945 0,-2.664671 0.95343,-4.841918 2.51473,-6.551139 -0.25341,-0.614738 -1.08883,-3.097131 0.23644,-6.45899 0,0 2.04953,-0.655963 6.71361,2.501793 1.94687,-0.540776 4.0348,-0.811972 6.10898,-0.821268 2.07418,0.0093 4.16373,0.280492 6.11424,0.821268 4.65843,-3.157756 6.70512,-2.501793 6.70512,-2.501793 1.3285,3.361859 0.49268,5.844252 0.23927,6.45899 1.56494,1.709221 2.5119,3.886468 2.5119,6.551139 0,9.374245 -5.70966,11.438325 -11.1445,12.042555 0.87542,0.7574 1.65546,2.24271 1.65546,4.51979 0,3.26567 -0.0283,5.89396 -0.0283,6.69785 0,0.6495 0.43933,1.41054 1.67649,1.17088 9.69232,-3.23092 16.67673,-12.3764 16.67673,-23.156334 0,-13.47977 -10.92745,-24.406823 -24.40642,-24.406823 z m -15.26567,34.768027 c -0.0537,0.12126 -0.24452,0.15763 -0.41831,0.0743 -0.17703,-0.0796 -0.27646,-0.24492 -0.21906,-0.36658 0.0525,-0.12488 0.24371,-0.15964 0.42032,-0.076 0.17744,0.0796 0.27848,0.24654 0.21705,0.36819 z m 1.20054,1.07124 c -0.1164,0.10791 -0.34394,0.0578 -0.49834,-0.11277 -0.15965,-0.17015 -0.18955,-0.3977 -0.0715,-0.50723 0.12004,-0.10791 0.34071,-0.0574 0.50077,0.11277 0.15964,0.17217 0.19076,0.3981 0.0692,0.50723 z m 0.82362,1.3706 c -0.14954,0.1039 -0.39407,0.006 -0.54522,-0.21058 -0.14955,-0.21703 -0.14955,-0.47731 0.003,-0.58159 0.15156,-0.10422 0.39244,-0.0108 0.54562,0.20492 0.14913,0.22067 0.14913,0.48095 -0.003,0.58725 z m 1.39291,1.58735 c -0.13377,0.14752 -0.41871,0.10791 -0.62726,-0.0933 -0.2134,-0.19684 -0.27282,-0.47611 -0.13864,-0.62364 0.13541,-0.14793 0.42196,-0.10627 0.63213,0.0933 0.21178,0.19642 0.27645,0.47772 0.13377,0.62363 z m 1.80021,0.53587 c -0.059,0.19117 -0.33343,0.27806 -0.60988,0.19683 -0.27605,-0.0837 -0.45671,-0.30757 -0.40094,-0.50077 0.0574,-0.19238 0.33304,-0.28291 0.61151,-0.19601 0.27564,0.0833 0.45671,0.30554 0.39931,0.49995 z m 2.04872,0.2273 c 0.006,0.20128 -0.22755,0.3682 -0.51774,0.37183 -0.29181,0.006 -0.52784,-0.1564 -0.53108,-0.35445 0,-0.20329 0.22917,-0.36859 0.52097,-0.37345 0.2902,-0.005 0.52785,0.15601 0.52785,0.35607 z m 2.01263,-0.0771 c 0.0347,0.19643 -0.16692,0.3981 -0.4551,0.45187 -0.28332,0.0518 -0.54562,-0.0695 -0.58159,-0.26434 -0.0352,-0.20126 0.17015,-0.40295 0.45307,-0.45509 0.28858,-0.0502 0.54684,0.0679 0.58362,0.26756 z"
       fill="#161614"
       id="path1527"
       style="stroke-width:0.190677" />
  </g>
</svg>
