<svg width="206.235" height="175.019" viewBox="0 0 54.566 46.307" xmlns:xlink="http://www.w3.org/1999/xlink" xmlns="http://www.w3.org/2000/svg"><defs><linearGradient xlink:href="#a" id="c" x1="640.521" y1="-136.896" x2="663.923" y2="-93.438" gradientUnits="userSpaceOnUse"/><linearGradient id="a"><stop style="stop-color:#967677;stop-opacity:1" offset="0"/><stop style="stop-color:#967677;stop-opacity:0" offset="1"/></linearGradient><clipPath clipPathUnits="userSpaceOnUse" id="b"><rect style="fill:#d45145;fill-opacity:1;stroke:none;stroke-width:2;stroke-linecap:round;stroke-linejoin:round;stroke-miterlimit:4;stroke-dasharray:none;paint-order:markers fill stroke" width="32.295" height="39.425" x="668.21" y="-397.212" rx="2.175" ry="2.053"/></clipPath></defs><g transform="translate(-705.001 426.288)"><path style="fill:#b48f81;stroke-width:.0299333;stroke-linecap:round;stroke-linejoin:round;paint-order:markers fill stroke" d="M702.585-381.593a.5.5 0 0 1-.5.5.5.5 0 0 1-.5-.5.5.5 0 0 1 .5-.5.5.5 0 0 1 .5.5zm-1.058-2.117a.5.5 0 0 1-.5.5.5.5 0 0 1-.5-.5.5.5 0 0 1 .5-.5.5.5 0 0 1 .5.5zm1.058-2.117a.5.5 0 0 1-.5.5.5.5 0 0 1-.5-.5.5.5 0 0 1 .5-.5.5.5 0 0 1 .5.5zm-2.117 4.234a.5.5 0 0 1-.5.5.5.5 0 0 1-.5-.5.5.5 0 0 1 .5-.5.5.5 0 0 1 .5.5zm-1.058-2.117a.5.5 0 0 1-.5.5.5.5 0 0 1-.5-.5.5.5 0 0 1 .5-.5.5.5 0 0 1 .5.5zm1.058-2.117a.5.5 0 0 1-.5.5.5.5 0 0 1-.5-.5.5.5 0 0 1 .5-.5.5.5 0 0 1 .5.5zm-10.583 4.234a.5.5 0 0 1-.5.5.5.5 0 0 1-.5-.5.5.5 0 0 1 .5-.5.5.5 0 0 1 .5.5zm-1.058-2.117a.5.5 0 0 1-.5.5.5.5 0 0 1-.5-.5.5.5 0 0 1 .5-.5.5.5 0 0 1 .5.5zm4.233 0a.5.5 0 0 1-.5.5.5.5 0 0 1-.5-.5.5.5 0 0 1 .5-.5.5.5 0 0 1 .5.5zm-3.175-2.117a.5.5 0 0 1-.5.5.5.5 0 0 1-.5-.5.5.5 0 0 1 .5-.5.5.5 0 0 1 .5.5zm2.117 0a.5.5 0 0 1-.5.5.5.5 0 0 1-.5-.5.5.5 0 0 1 .5-.5.5.5 0 0 1 .5.5zm0 4.234a.5.5 0 0 1-.5.5.5.5 0 0 1-.5-.5.5.5 0 0 1 .5-.5.5.5 0 0 1 .5.5zm3.175-2.117a.5.5 0 0 1-.5.5.5.5 0 0 1-.5-.5.5.5 0 0 1 .5-.5.5.5 0 0 1 .5.5zm2.116 0a.5.5 0 0 1-.5.5.5.5 0 0 1-.5-.5.5.5 0 0 1 .5-.5.5.5 0 0 1 .5.5zm-3.175 2.117a.5.5 0 0 1-.5.5.5.5 0 0 1-.5-.5.5.5 0 0 1 .5-.5.5.5 0 0 1 .5.5zm0-4.234a.5.5 0 0 1-.5.5.5.5 0 0 1-.5-.5.5.5 0 0 1 .5-.5.5.5 0 0 1 .5.5zm2.117 0a.5.5 0 0 1-.5.5.5.5 0 0 1-.5-.5.5.5 0 0 1 .5-.5.5.5 0 0 1 .5.5zm0 4.234a.5.5 0 0 1-.5.5.5.5 0 0 1-.5-.5.5.5 0 0 1 .5-.5.5.5 0 0 1 .5.5zm2.117-4.234a.5.5 0 0 1-.5.5.5.5 0 0 1-.5-.5.5.5 0 0 1 .5-.5.5.5 0 0 1 .5.5zm0 4.234a.5.5 0 0 1-.5.5.5.5 0 0 1-.5-.5.5.5 0 0 1 .5-.5.5.5 0 0 1 .5.5zm-10.584 0a.5.5 0 0 1-.5.5.5.5 0 0 1-.5-.5.5.5 0 0 1 .5-.5.5.5 0 0 1 .5.5zm-1.058-2.117a.5.5 0 0 1-.5.5.5.5 0 0 1-.5-.5.5.5 0 0 1 .5-.5.5.5 0 0 1 .5.5zm1.058-2.117a.5.5 0 0 1-.5.5.5.5 0 0 1-.5-.5.5.5 0 0 1 .5-.5.5.5 0 0 1 .5.5zm3.175 2.117a.5.5 0 0 1-.5.5.5.5 0 0 1-.5-.5.5.5 0 0 1 .5-.5.5.5 0 0 1 .5.5zm-13.758 2.117a.5.5 0 0 1-.5.5.5.5 0 0 1-.5-.5.5.5 0 0 1 .5-.5.5.5 0 0 1 .5.5zm-1.058-2.117a.5.5 0 0 1-.5.5.5.5 0 0 1-.5-.5.5.5 0 0 1 .5-.5.5.5 0 0 1 .5.5zm4.233 0a.5.5 0 0 1-.5.5.5.5 0 0 1-.5-.5.5.5 0 0 1 .5-.5.5.5 0 0 1 .5.5zm-12.7 0a.5.5 0 0 1-.5.5.5.5 0 0 1-.5-.5.5.5 0 0 1 .5-.5.5.5 0 0 1 .5.5zm2.117 0a.5.5 0 0 1-.5.5.5.5 0 0 1-.5-.5.5.5 0 0 1 .5-.5.5.5 0 0 1 .5.5zm2.116 0a.5.5 0 0 1-.5.5.5.5 0 0 1-.5-.5.5.5 0 0 1 .5-.5.5.5 0 0 1 .5.5zm-3.175 2.117a.5.5 0 0 1-.5.5.5.5 0 0 1-.5-.5.5.5 0 0 1 .5-.5.5.5 0 0 1 .5.5zm0-4.234a.5.5 0 0 1-.5.5.5.5 0 0 1-.5-.5.5.5 0 0 1 .5-.5.5.5 0 0 1 .5.5zm2.117 0a.5.5 0 0 1-.5.5.5.5 0 0 1-.5-.5.5.5 0 0 1 .5-.5.5.5 0 0 1 .5.5zm0 4.234a.5.5 0 0 1-.5.5.5.5 0 0 1-.5-.5.5.5 0 0 1 .5-.5.5.5 0 0 1 .5.5zm2.117-4.234a.5.5 0 0 1-.5.5.5.5 0 0 1-.5-.5.5.5 0 0 1 .5-.5.5.5 0 0 1 .5.5zm0 4.234a.5.5 0 0 1-.5.5.5.5 0 0 1-.5-.5.5.5 0 0 1 .5-.5.5.5 0 0 1 .5.5zm4.233-4.234a.5.5 0 0 1-.5.5.5.5 0 0 1-.5-.5.5.5 0 0 1 .5-.5.5.5 0 0 1 .5.5zm2.117 0a.5.5 0 0 1-.5.5.5.5 0 0 1-.5-.5.5.5 0 0 1 .5-.5.5.5 0 0 1 .5.5zm0 4.234a.5.5 0 0 1-.5.5.5.5 0 0 1-.5-.5.5.5 0 0 1 .5-.5.5.5 0 0 1 .5.5zm3.175-2.117a.5.5 0 0 1-.5.5.5.5 0 0 1-.5-.5.5.5 0 0 1 .5-.5.5.5 0 0 1 .5.5zm2.116 0a.5.5 0 0 1-.5.5.5.5 0 0 1-.5-.5.5.5 0 0 1 .5-.5.5.5 0 0 1 .5.5zm-3.175 2.117a.5.5 0 0 1-.5.5.5.5 0 0 1-.5-.5.5.5 0 0 1 .5-.5.5.5 0 0 1 .5.5zm0-4.234a.5.5 0 0 1-.5.5.5.5 0 0 1-.5-.5.5.5 0 0 1 .5-.5.5.5 0 0 1 .5.5zm2.117 0a.5.5 0 0 1-.5.5.5.5 0 0 1-.5-.5.5.5 0 0 1 .5-.5.5.5 0 0 1 .5.5zm0 4.234a.5.5 0 0 1-.5.5.5.5 0 0 1-.5-.5.5.5 0 0 1 .5-.5.5.5 0 0 1 .5.5zm2.117-4.234a.5.5 0 0 1-.5.5.5.5 0 0 1-.5-.5.5.5 0 0 1 .5-.5.5.5 0 0 1 .5.5zm0 4.234a.5.5 0 0 1-.5.5.5.5 0 0 1-.5-.5.5.5 0 0 1 .5-.5.5.5 0 0 1 .5.5zm-10.584 0a.5.5 0 0 1-.5.5.5.5 0 0 1-.5-.5.5.5 0 0 1 .5-.5.5.5 0 0 1 .5.5zm-1.058-2.117a.5.5 0 0 1-.5.5.5.5 0 0 1-.5-.5.5.5 0 0 1 .5-.5.5.5 0 0 1 .5.5zm1.058-2.117a.5.5 0 0 1-.5.5.5.5 0 0 1-.5-.5.5.5 0 0 1 .5-.5.5.5 0 0 1 .5.5zm3.175 2.117a.5.5 0 0 1-.5.5.5.5 0 0 1-.5-.5.5.5 0 0 1 .5-.5.5.5 0 0 1 .5.5zm24.342-6.35a.5.5 0 0 1-.5.5.5.5 0 0 1-.5-.5.5.5 0 0 1 .5-.5.5.5 0 0 1 .5.5zm-1.058 2.117a.5.5 0 0 1-.5.5.5.5 0 0 1-.5-.5.5.5 0 0 1 .5-.5.5.5 0 0 1 .5.5zm-1.059-2.117a.5.5 0 0 1-.5.5.5.5 0 0 1-.5-.5.5.5 0 0 1 .5-.5.5.5 0 0 1 .5.5zm1.059-2.117a.5.5 0 0 1-.5.5.5.5 0 0 1-.5-.5.5.5 0 0 1 .5-.5.5.5 0 0 1 .5.5zm-10.584 4.234a.5.5 0 0 1-.5.5.5.5 0 0 1-.5-.5.5.5 0 0 1 .5-.5.5.5 0 0 1 .5.5zm-1.058-2.117a.5.5 0 0 1-.5.5.5.5 0 0 1-.5-.5.5.5 0 0 1 .5-.5.5.5 0 0 1 .5.5zm4.233 0a.5.5 0 0 1-.5.5.5.5 0 0 1-.5-.5.5.5 0 0 1 .5-.5.5.5 0 0 1 .5.5zm-3.175-2.117a.5.5 0 0 1-.5.5.5.5 0 0 1-.5-.5.5.5 0 0 1 .5-.5.5.5 0 0 1 .5.5zm2.117 0a.5.5 0 0 1-.5.5.5.5 0 0 1-.5-.5.5.5 0 0 1 .5-.5.5.5 0 0 1 .5.5zm0 4.234a.5.5 0 0 1-.5.5.5.5 0 0 1-.5-.5.5.5 0 0 1 .5-.5.5.5 0 0 1 .5.5zm3.175-2.117a.5.5 0 0 1-.5.5.5.5 0 0 1-.5-.5.5.5 0 0 1 .5-.5.5.5 0 0 1 .5.5zm2.117 0a.5.5 0 0 1-.5.5.5.5 0 0 1-.5-.5.5.5 0 0 1 .5-.5.5.5 0 0 1 .5.5zm-3.175 2.117a.5.5 0 0 1-.5.5.5.5 0 0 1-.5-.5.5.5 0 0 1 .5-.5.5.5 0 0 1 .5.5zm0-4.234a.5.5 0 0 1-.5.5.5.5 0 0 1-.5-.5.5.5 0 0 1 .5-.5.5.5 0 0 1 .5.5zm2.116 0a.5.5 0 0 1-.5.5.5.5 0 0 1-.5-.5.5.5 0 0 1 .5-.5.5.5 0 0 1 .5.5zm0 4.234a.5.5 0 0 1-.5.5.5.5 0 0 1-.5-.5.5.5 0 0 1 .5-.5.5.5 0 0 1 .5.5zm2.117-4.234a.5.5 0 0 1-.5.5.5.5 0 0 1-.5-.5.5.5 0 0 1 .5-.5.5.5 0 0 1 .5.5zm0 4.234a.5.5 0 0 1-.5.5.5.5 0 0 1-.5-.5.5.5 0 0 1 .5-.5.5.5 0 0 1 .5.5zm-10.583 0a.5.5 0 0 1-.5.5.5.5 0 0 1-.5-.5.5.5 0 0 1 .5-.5.5.5 0 0 1 .5.5zm-1.059-2.117a.5.5 0 0 1-.5.5.5.5 0 0 1-.5-.5.5.5 0 0 1 .5-.5.5.5 0 0 1 .5.5zm1.059-2.117a.5.5 0 0 1-.5.5.5.5 0 0 1-.5-.5.5.5 0 0 1 .5-.5.5.5 0 0 1 .5.5zm3.175 2.117a.5.5 0 0 1-.5.5.5.5 0 0 1-.5-.5.5.5 0 0 1 .5-.5.5.5 0 0 1 .5.5zm-13.759 2.117a.5.5 0 0 1-.5.5.5.5 0 0 1-.5-.5.5.5 0 0 1 .5-.5.5.5 0 0 1 .5.5zm-1.058-2.117a.5.5 0 0 1-.5.5.5.5 0 0 1-.5-.5.5.5 0 0 1 .5-.5.5.5 0 0 1 .5.5zm4.233 0a.5.5 0 0 1-.5.5.5.5 0 0 1-.5-.5.5.5 0 0 1 .5-.5.5.5 0 0 1 .5.5zm-12.7 0a.5.5 0 0 1-.5.5.5.5 0 0 1-.5-.5.5.5 0 0 1 .5-.5.5.5 0 0 1 .5.5zm-1.058-2.117a.5.5 0 0 1-.5.5.5.5 0 0 1-.5-.5.5.5 0 0 1 .5-.5.5.5 0 0 1 .5.5zm0 4.234a.5.5 0 0 1-.5.5.5.5 0 0 1-.5-.5.5.5 0 0 1 .5-.5.5.5 0 0 1 .5.5zm3.175-2.117a.5.5 0 0 1-.5.5.5.5 0 0 1-.5-.5.5.5 0 0 1 .5-.5.5.5 0 0 1 .5.5zm2.117 0a.5.5 0 0 1-.5.5.5.5 0 0 1-.5-.5.5.5 0 0 1 .5-.5.5.5 0 0 1 .5.5zm-3.175 2.117a.5.5 0 0 1-.5.5.5.5 0 0 1-.5-.5.5.5 0 0 1 .5-.5.5.5 0 0 1 .5.5zm0-4.234a.5.5 0 0 1-.5.5.5.5 0 0 1-.5-.5.5.5 0 0 1 .5-.5.5.5 0 0 1 .5.5zm2.116 0a.5.5 0 0 1-.5.5.5.5 0 0 1-.5-.5.5.5 0 0 1 .5-.5.5.5 0 0 1 .5.5zm0 4.234a.5.5 0 0 1-.5.5.5.5 0 0 1-.5-.5.5.5 0 0 1 .5-.5.5.5 0 0 1 .5.5zm2.117-4.234a.5.5 0 0 1-.5.5.5.5 0 0 1-.5-.5.5.5 0 0 1 .5-.5.5.5 0 0 1 .5.5zm0 4.234a.5.5 0 0 1-.5.5.5.5 0 0 1-.5-.5.5.5 0 0 1 .5-.5.5.5 0 0 1 .5.5zm4.233-4.234a.5.5 0 0 1-.5.5.5.5 0 0 1-.5-.5.5.5 0 0 1 .5-.5.5.5 0 0 1 .5.5zm2.117 0a.5.5 0 0 1-.5.5.5.5 0 0 1-.5-.5.5.5 0 0 1 .5-.5.5.5 0 0 1 .5.5zm0 4.234a.5.5 0 0 1-.5.5.5.5 0 0 1-.5-.5.5.5 0 0 1 .5-.5.5.5 0 0 1 .5.5zm3.175-2.117a.5.5 0 0 1-.5.5.5.5 0 0 1-.5-.5.5.5 0 0 1 .5-.5.5.5 0 0 1 .5.5zm2.117 0a.5.5 0 0 1-.5.5.5.5 0 0 1-.5-.5.5.5 0 0 1 .5-.5.5.5 0 0 1 .5.5zm-3.175 2.117a.5.5 0 0 1-.5.5.5.5 0 0 1-.5-.5.5.5 0 0 1 .5-.5.5.5 0 0 1 .5.5zm0-4.234a.5.5 0 0 1-.5.5.5.5 0 0 1-.5-.5.5.5 0 0 1 .5-.5.5.5 0 0 1 .5.5zm2.116 0a.5.5 0 0 1-.5.5.5.5 0 0 1-.5-.5.5.5 0 0 1 .5-.5.5.5 0 0 1 .5.5zm0 4.234a.5.5 0 0 1-.5.5.5.5 0 0 1-.5-.5.5.5 0 0 1 .5-.5.5.5 0 0 1 .5.5zm2.117-4.234a.5.5 0 0 1-.5.5.5.5 0 0 1-.5-.5.5.5 0 0 1 .5-.5.5.5 0 0 1 .5.5zm0 4.234a.5.5 0 0 1-.5.5.5.5 0 0 1-.5-.5.5.5 0 0 1 .5-.5.5.5 0 0 1 .5.5zm-10.583 0a.5.5 0 0 1-.5.5.5.5 0 0 1-.5-.5.5.5 0 0 1 .5-.5.5.5 0 0 1 .5.5zm-1.059-2.117a.5.5 0 0 1-.5.5.5.5 0 0 1-.5-.5.5.5 0 0 1 .5-.5.5.5 0 0 1 .5.5zm1.059-2.117a.5.5 0 0 1-.5.5.5.5 0 0 1-.5-.5.5.5 0 0 1 .5-.5.5.5 0 0 1 .5.5zm3.175 2.117a.5.5 0 0 1-.5.5.5.5 0 0 1-.5-.5.5.5 0 0 1 .5-.5.5.5 0 0 1 .5.5zm23.283-4.233a.5.5 0 0 1-.5.5.5.5 0 0 1-.5-.5.5.5 0 0 1 .5-.5.5.5 0 0 1 .5.5zm-1.058-2.117a.5.5 0 0 1-.5.5.5.5 0 0 1-.5-.5.5.5 0 0 1 .5-.5.5.5 0 0 1 .5.5zm-1.059 2.117a.5.5 0 0 1-.5.5.5.5 0 0 1-.5-.5.5.5 0 0 1 .5-.5.5.5 0 0 1 .5.5zm-1.058-2.117a.5.5 0 0 1-.5.5.5.5 0 0 1-.5-.5.5.5 0 0 1 .5-.5.5.5 0 0 1 .5.5zm-9.525 2.117a.5.5 0 0 1-.5.5.5.5 0 0 1-.5-.5.5.5 0 0 1 .5-.5.5.5 0 0 1 .5.5zm-1.058-2.117a.5.5 0 0 1-.5.5.5.5 0 0 1-.5-.5.5.5 0 0 1 .5-.5.5.5 0 0 1 .5.5zm4.233 0a.5.5 0 0 1-.5.5.5.5 0 0 1-.5-.5.5.5 0 0 1 .5-.5.5.5 0 0 1 .5.5zm-1.058 2.117a.5.5 0 0 1-.5.5.5.5 0 0 1-.5-.5.5.5 0 0 1 .5-.5.5.5 0 0 1 .5.5zm3.175-2.117a.5.5 0 0 1-.5.5.5.5 0 0 1-.5-.5.5.5 0 0 1 .5-.5.5.5 0 0 1 .5.5zm2.116 0a.5.5 0 0 1-.5.5.5.5 0 0 1-.5-.5.5.5 0 0 1 .5-.5.5.5 0 0 1 .5.5zm-3.175 2.117a.5.5 0 0 1-.5.5.5.5 0 0 1-.5-.5.5.5 0 0 1 .5-.5.5.5 0 0 1 .5.5zm2.117 0a.5.5 0 0 1-.5.5.5.5 0 0 1-.5-.5.5.5 0 0 1 .5-.5.5.5 0 0 1 .5.5zm2.117 0a.5.5 0 0 1-.5.5.5.5 0 0 1-.5-.5.5.5 0 0 1 .5-.5.5.5 0 0 1 .5.5zm-10.584 0a.5.5 0 0 1-.5.5.5.5 0 0 1-.5-.5.5.5 0 0 1 .5-.5.5.5 0 0 1 .5.5zm-1.058-2.117a.5.5 0 0 1-.5.5.5.5 0 0 1-.5-.5.5.5 0 0 1 .5-.5.5.5 0 0 1 .5.5zm4.233 0a.5.5 0 0 1-.5.5.5.5 0 0 1-.5-.5.5.5 0 0 1 .5-.5.5.5 0 0 1 .5.5zm-13.758 2.117a.5.5 0 0 1-.5.5.5.5 0 0 1-.5-.5.5.5 0 0 1 .5-.5.5.5 0 0 1 .5.5zm-1.058-2.117a.5.5 0 0 1-.5.5.5.5 0 0 1-.5-.5.5.5 0 0 1 .5-.5.5.5 0 0 1 .5.5zm4.233 0a.5.5 0 0 1-.5.5.5.5 0 0 1-.5-.5.5.5 0 0 1 .5-.5.5.5 0 0 1 .5.5zm-12.7 0a.5.5 0 0 1-.5.5.5.5 0 0 1-.5-.5.5.5 0 0 1 .5-.5.5.5 0 0 1 .5.5zm2.117 0a.5.5 0 0 1-.5.5.5.5 0 0 1-.5-.5.5.5 0 0 1 .5-.5.5.5 0 0 1 .5.5zm2.116 0a.5.5 0 0 1-.5.5.5.5 0 0 1-.5-.5.5.5 0 0 1 .5-.5.5.5 0 0 1 .5.5zm-3.175 2.117a.5.5 0 0 1-.5.5.5.5 0 0 1-.5-.5.5.5 0 0 1 .5-.5.5.5 0 0 1 .5.5zm2.117 0a.5.5 0 0 1-.5.5.5.5 0 0 1-.5-.5.5.5 0 0 1 .5-.5.5.5 0 0 1 .5.5zm2.117 0a.5.5 0 0 1-.5.5.5.5 0 0 1-.5-.5.5.5 0 0 1 .5-.5.5.5 0 0 1 .5.5zm6.35 0a.5.5 0 0 1-.5.5.5.5 0 0 1-.5-.5.5.5 0 0 1 .5-.5.5.5 0 0 1 .5.5zm3.175-2.117a.5.5 0 0 1-.5.5.5.5 0 0 1-.5-.5.5.5 0 0 1 .5-.5.5.5 0 0 1 .5.5zm2.116 0a.5.5 0 0 1-.5.5.5.5 0 0 1-.5-.5.5.5 0 0 1 .5-.5.5.5 0 0 1 .5.5zm-3.175 2.117a.5.5 0 0 1-.5.5.5.5 0 0 1-.5-.5.5.5 0 0 1 .5-.5.5.5 0 0 1 .5.5zm2.117 0a.5.5 0 0 1-.5.5.5.5 0 0 1-.5-.5.5.5 0 0 1 .5-.5.5.5 0 0 1 .5.5zm2.117 0a.5.5 0 0 1-.5.5.5.5 0 0 1-.5-.5.5.5 0 0 1 .5-.5.5.5 0 0 1 .5.5zm-10.584 0a.5.5 0 0 1-.5.5.5.5 0 0 1-.5-.5.5.5 0 0 1 .5-.5.5.5 0 0 1 .5.5zm-1.058-2.117a.5.5 0 0 1-.5.5.5.5 0 0 1-.5-.5.5.5 0 0 1 .5-.5.5.5 0 0 1 .5.5zm4.233 0a.5.5 0 0 1-.5.5.5.5 0 0 1-.5-.5.5.5 0 0 1 .5-.5.5.5 0 0 1 .5.5zm23.284 38.1a.5.5 0 0 1-.5.5.5.5 0 0 1-.5-.5.5.5 0 0 1 .5-.5.5.5 0 0 1 .5.5zm1.058-2.117a.5.5 0 0 1-.5.5.5.5 0 0 1-.5-.5.5.5 0 0 1 .5-.5.5.5 0 0 1 .5.5zm-3.175 2.117a.5.5 0 0 1-.5.5.5.5 0 0 1-.5-.5.5.5 0 0 1 .5-.5.5.5 0 0 1 .5.5zm1.058-2.117a.5.5 0 0 1-.5.5.5.5 0 0 1-.5-.5.5.5 0 0 1 .5-.5.5.5 0 0 1 .5.5zm-11.641 2.117a.5.5 0 0 1-.5.5.5.5 0 0 1-.5-.5.5.5 0 0 1 .5-.5.5.5 0 0 1 .5.5zm4.233 0a.5.5 0 0 1-.5.5.5.5 0 0 1-.5-.5.5.5 0 0 1 .5-.5.5.5 0 0 1 .5.5zm-3.175-2.117a.5.5 0 0 1-.5.5.5.5 0 0 1-.5-.5.5.5 0 0 1 .5-.5.5.5 0 0 1 .5.5zm2.117 0a.5.5 0 0 1-.5.5.5.5 0 0 1-.5-.5.5.5 0 0 1 .5-.5.5.5 0 0 1 .5.5zm3.175 2.117a.5.5 0 0 1-.5.5.5.5 0 0 1-.5-.5.5.5 0 0 1 .5-.5.5.5 0 0 1 .5.5zm2.116 0a.5.5 0 0 1-.5.5.5.5 0 0 1-.5-.5.5.5 0 0 1 .5-.5.5.5 0 0 1 .5.5zm-3.175-2.117a.5.5 0 0 1-.5.5.5.5 0 0 1-.5-.5.5.5 0 0 1 .5-.5.5.5 0 0 1 .5.5zm2.117 0a.5.5 0 0 1-.5.5.5.5 0 0 1-.5-.5.5.5 0 0 1 .5-.5.5.5 0 0 1 .5.5zm2.117 0a.5.5 0 0 1-.5.5.5.5 0 0 1-.5-.5.5.5 0 0 1 .5-.5.5.5 0 0 1 .5.5zm-11.642 2.117a.5.5 0 0 1-.5.5.5.5 0 0 1-.5-.5.5.5 0 0 1 .5-.5.5.5 0 0 1 .5.5zm1.058-2.117a.5.5 0 0 1-.5.5.5.5 0 0 1-.5-.5.5.5 0 0 1 .5-.5.5.5 0 0 1 .5.5zm3.175 2.117a.5.5 0 0 1-.5.5.5.5 0 0 1-.5-.5.5.5 0 0 1 .5-.5.5.5 0 0 1 .5.5zm-14.816 0a.5.5 0 0 1-.5.5.5.5 0 0 1-.5-.5.5.5 0 0 1 .5-.5.5.5 0 0 1 .5.5zm4.233 0a.5.5 0 0 1-.5.5.5.5 0 0 1-.5-.5.5.5 0 0 1 .5-.5.5.5 0 0 1 .5.5zm-12.7 0a.5.5 0 0 1-.5.5.5.5 0 0 1-.5-.5.5.5 0 0 1 .5-.5.5.5 0 0 1 .5.5zm2.117 0a.5.5 0 0 1-.5.5.5.5 0 0 1-.5-.5.5.5 0 0 1 .5-.5.5.5 0 0 1 .5.5zm2.116 0a.5.5 0 0 1-.5.5.5.5 0 0 1-.5-.5.5.5 0 0 1 .5-.5.5.5 0 0 1 .5.5zm-3.175-2.117a.5.5 0 0 1-.5.5.5.5 0 0 1-.5-.5.5.5 0 0 1 .5-.5.5.5 0 0 1 .5.5zm2.117 0a.5.5 0 0 1-.5.5.5.5 0 0 1-.5-.5.5.5 0 0 1 .5-.5.5.5 0 0 1 .5.5zm2.117 0a.5.5 0 0 1-.5.5.5.5 0 0 1-.5-.5.5.5 0 0 1 .5-.5.5.5 0 0 1 .5.5zm4.233 0a.5.5 0 0 1-.5.5.5.5 0 0 1-.5-.5.5.5 0 0 1 .5-.5.5.5 0 0 1 .5.5zm2.117 0a.5.5 0 0 1-.5.5.5.5 0 0 1-.5-.5.5.5 0 0 1 .5-.5.5.5 0 0 1 .5.5zm3.175 2.117a.5.5 0 0 1-.5.5.5.5 0 0 1-.5-.5.5.5 0 0 1 .5-.5.5.5 0 0 1 .5.5zm2.116 0a.5.5 0 0 1-.5.5.5.5 0 0 1-.5-.5.5.5 0 0 1 .5-.5.5.5 0 0 1 .5.5zm-3.175-2.117a.5.5 0 0 1-.5.5.5.5 0 0 1-.5-.5.5.5 0 0 1 .5-.5.5.5 0 0 1 .5.5zm2.117 0a.5.5 0 0 1-.5.5.5.5 0 0 1-.5-.5.5.5 0 0 1 .5-.5.5.5 0 0 1 .5.5zm2.117 0a.5.5 0 0 1-.5.5.5.5 0 0 1-.5-.5.5.5 0 0 1 .5-.5.5.5 0 0 1 .5.5zm-11.642 2.117a.5.5 0 0 1-.5.5.5.5 0 0 1-.5-.5.5.5 0 0 1 .5-.5.5.5 0 0 1 .5.5zm1.058-2.117a.5.5 0 0 1-.5.5.5.5 0 0 1-.5-.5.5.5 0 0 1 .5-.5.5.5 0 0 1 .5.5zm3.175 2.117a.5.5 0 0 1-.5.5.5.5 0 0 1-.5-.5.5.5 0 0 1 .5-.5.5.5 0 0 1 .5.5zm24.342-6.35a.5.5 0 0 1-.5.5.5.5 0 0 1-.5-.5.5.5 0 0 1 .5-.5.5.5 0 0 1 .5.5zm-1.058 2.117a.5.5 0 0 1-.5.5.5.5 0 0 1-.5-.5.5.5 0 0 1 .5-.5.5.5 0 0 1 .5.5zm-1.059-2.117a.5.5 0 0 1-.5.5.5.5 0 0 1-.5-.5.5.5 0 0 1 .5-.5.5.5 0 0 1 .5.5zm1.059-2.117a.5.5 0 0 1-.5.5.5.5 0 0 1-.5-.5.5.5 0 0 1 .5-.5.5.5 0 0 1 .5.5zm-10.584 4.234a.5.5 0 0 1-.5.5.5.5 0 0 1-.5-.5.5.5 0 0 1 .5-.5.5.5 0 0 1 .5.5zm-1.058-2.117a.5.5 0 0 1-.5.5.5.5 0 0 1-.5-.5.5.5 0 0 1 .5-.5.5.5 0 0 1 .5.5zm4.233 0a.5.5 0 0 1-.5.5.5.5 0 0 1-.5-.5.5.5 0 0 1 .5-.5.5.5 0 0 1 .5.5zm-3.175-2.117a.5.5 0 0 1-.5.5.5.5 0 0 1-.5-.5.5.5 0 0 1 .5-.5.5.5 0 0 1 .5.5zm2.117 0a.5.5 0 0 1-.5.5.5.5 0 0 1-.5-.5.5.5 0 0 1 .5-.5.5.5 0 0 1 .5.5zm0 4.234a.5.5 0 0 1-.5.5.5.5 0 0 1-.5-.5.5.5 0 0 1 .5-.5.5.5 0 0 1 .5.5zm3.175-2.117a.5.5 0 0 1-.5.5.5.5 0 0 1-.5-.5.5.5 0 0 1 .5-.5.5.5 0 0 1 .5.5zm2.117 0a.5.5 0 0 1-.5.5.5.5 0 0 1-.5-.5.5.5 0 0 1 .5-.5.5.5 0 0 1 .5.5zm-3.175 2.117a.5.5 0 0 1-.5.5.5.5 0 0 1-.5-.5.5.5 0 0 1 .5-.5.5.5 0 0 1 .5.5zm0-4.234a.5.5 0 0 1-.5.5.5.5 0 0 1-.5-.5.5.5 0 0 1 .5-.5.5.5 0 0 1 .5.5zm2.116 0a.5.5 0 0 1-.5.5.5.5 0 0 1-.5-.5.5.5 0 0 1 .5-.5.5.5 0 0 1 .5.5zm0 4.234a.5.5 0 0 1-.5.5.5.5 0 0 1-.5-.5.5.5 0 0 1 .5-.5.5.5 0 0 1 .5.5zm2.117-4.234a.5.5 0 0 1-.5.5.5.5 0 0 1-.5-.5.5.5 0 0 1 .5-.5.5.5 0 0 1 .5.5zm0 4.234a.5.5 0 0 1-.5.5.5.5 0 0 1-.5-.5.5.5 0 0 1 .5-.5.5.5 0 0 1 .5.5zm-10.583 0a.5.5 0 0 1-.5.5.5.5 0 0 1-.5-.5.5.5 0 0 1 .5-.5.5.5 0 0 1 .5.5zm-1.059-2.117a.5.5 0 0 1-.5.5.5.5 0 0 1-.5-.5.5.5 0 0 1 .5-.5.5.5 0 0 1 .5.5zm1.059-2.117a.5.5 0 0 1-.5.5.5.5 0 0 1-.5-.5.5.5 0 0 1 .5-.5.5.5 0 0 1 .5.5zm3.175 2.117a.5.5 0 0 1-.5.5.5.5 0 0 1-.5-.5.5.5 0 0 1 .5-.5.5.5 0 0 1 .5.5zm-13.759 2.117a.5.5 0 0 1-.5.5.5.5 0 0 1-.5-.5.5.5 0 0 1 .5-.5.5.5 0 0 1 .5.5zm-1.058-2.117a.5.5 0 0 1-.5.5.5.5 0 0 1-.5-.5.5.5 0 0 1 .5-.5.5.5 0 0 1 .5.5zm4.233 0a.5.5 0 0 1-.5.5.5.5 0 0 1-.5-.5.5.5 0 0 1 .5-.5.5.5 0 0 1 .5.5zm-12.7 0a.5.5 0 0 1-.5.5.5.5 0 0 1-.5-.5.5.5 0 0 1 .5-.5.5.5 0 0 1 .5.5zm-1.058-2.117a.5.5 0 0 1-.5.5.5.5 0 0 1-.5-.5.5.5 0 0 1 .5-.5.5.5 0 0 1 .5.5zm0 4.234a.5.5 0 0 1-.5.5.5.5 0 0 1-.5-.5.5.5 0 0 1 .5-.5.5.5 0 0 1 .5.5zm3.175-2.117a.5.5 0 0 1-.5.5.5.5 0 0 1-.5-.5.5.5 0 0 1 .5-.5.5.5 0 0 1 .5.5zm2.117 0a.5.5 0 0 1-.5.5.5.5 0 0 1-.5-.5.5.5 0 0 1 .5-.5.5.5 0 0 1 .5.5zm-3.175 2.117a.5.5 0 0 1-.5.5.5.5 0 0 1-.5-.5.5.5 0 0 1 .5-.5.5.5 0 0 1 .5.5zm0-4.234a.5.5 0 0 1-.5.5.5.5 0 0 1-.5-.5.5.5 0 0 1 .5-.5.5.5 0 0 1 .5.5zm2.116 0a.5.5 0 0 1-.5.5.5.5 0 0 1-.5-.5.5.5 0 0 1 .5-.5.5.5 0 0 1 .5.5zm0 4.234a.5.5 0 0 1-.5.5.5.5 0 0 1-.5-.5.5.5 0 0 1 .5-.5.5.5 0 0 1 .5.5zm2.117-4.234a.5.5 0 0 1-.5.5.5.5 0 0 1-.5-.5.5.5 0 0 1 .5-.5.5.5 0 0 1 .5.5zm0 4.234a.5.5 0 0 1-.5.5.5.5 0 0 1-.5-.5.5.5 0 0 1 .5-.5.5.5 0 0 1 .5.5zm4.233-4.234a.5.5 0 0 1-.5.5.5.5 0 0 1-.5-.5.5.5 0 0 1 .5-.5.5.5 0 0 1 .5.5zm2.117 0a.5.5 0 0 1-.5.5.5.5 0 0 1-.5-.5.5.5 0 0 1 .5-.5.5.5 0 0 1 .5.5zm0 4.234a.5.5 0 0 1-.5.5.5.5 0 0 1-.5-.5.5.5 0 0 1 .5-.5.5.5 0 0 1 .5.5zm3.175-2.117a.5.5 0 0 1-.5.5.5.5 0 0 1-.5-.5.5.5 0 0 1 .5-.5.5.5 0 0 1 .5.5zm2.117 0a.5.5 0 0 1-.5.5.5.5 0 0 1-.5-.5.5.5 0 0 1 .5-.5.5.5 0 0 1 .5.5zm-3.175 2.117a.5.5 0 0 1-.5.5.5.5 0 0 1-.5-.5.5.5 0 0 1 .5-.5.5.5 0 0 1 .5.5zm0-4.234a.5.5 0 0 1-.5.5.5.5 0 0 1-.5-.5.5.5 0 0 1 .5-.5.5.5 0 0 1 .5.5zm2.116 0a.5.5 0 0 1-.5.5.5.5 0 0 1-.5-.5.5.5 0 0 1 .5-.5.5.5 0 0 1 .5.5zm0 4.234a.5.5 0 0 1-.5.5.5.5 0 0 1-.5-.5.5.5 0 0 1 .5-.5.5.5 0 0 1 .5.5zm2.117-4.234a.5.5 0 0 1-.5.5.5.5 0 0 1-.5-.5.5.5 0 0 1 .5-.5.5.5 0 0 1 .5.5zm0 4.234a.5.5 0 0 1-.5.5.5.5 0 0 1-.5-.5.5.5 0 0 1 .5-.5.5.5 0 0 1 .5.5zm-10.583 0a.5.5 0 0 1-.5.5.5.5 0 0 1-.5-.5.5.5 0 0 1 .5-.5.5.5 0 0 1 .5.5zm-1.059-2.117a.5.5 0 0 1-.5.5.5.5 0 0 1-.5-.5.5.5 0 0 1 .5-.5.5.5 0 0 1 .5.5zm1.059-2.117a.5.5 0 0 1-.5.5.5.5 0 0 1-.5-.5.5.5 0 0 1 .5-.5.5.5 0 0 1 .5.5zm3.175 2.117a.5.5 0 0 1-.5.5.5.5 0 0 1-.5-.5.5.5 0 0 1 .5-.5.5.5 0 0 1 .5.5zm23.283-4.233a.5.5 0 0 1-.5.5.5.5 0 0 1-.5-.5.5.5 0 0 1 .5-.5.5.5 0 0 1 .5.5zm-1.058-2.117a.5.5 0 0 1-.5.5.5.5 0 0 1-.5-.5.5.5 0 0 1 .5-.5.5.5 0 0 1 .5.5zm1.058-2.117a.5.5 0 0 1-.5.5.5.5 0 0 1-.5-.5.5.5 0 0 1 .5-.5.5.5 0 0 1 .5.5zm-2.117 4.234a.5.5 0 0 1-.5.5.5.5 0 0 1-.5-.5.5.5 0 0 1 .5-.5.5.5 0 0 1 .5.5zm-1.058-2.117a.5.5 0 0 1-.5.5.5.5 0 0 1-.5-.5.5.5 0 0 1 .5-.5.5.5 0 0 1 .5.5zm1.058-2.117a.5.5 0 0 1-.5.5.5.5 0 0 1-.5-.5.5.5 0 0 1 .5-.5.5.5 0 0 1 .5.5zm-10.583 4.234a.5.5 0 0 1-.5.5.5.5 0 0 1-.5-.5.5.5 0 0 1 .5-.5.5.5 0 0 1 .5.5zm-1.058-2.117a.5.5 0 0 1-.5.5.5.5 0 0 1-.5-.5.5.5 0 0 1 .5-.5.5.5 0 0 1 .5.5zm4.233 0a.5.5 0 0 1-.5.5.5.5 0 0 1-.5-.5.5.5 0 0 1 .5-.5.5.5 0 0 1 .5.5zm-3.175-2.117a.5.5 0 0 1-.5.5.5.5 0 0 1-.5-.5.5.5 0 0 1 .5-.5.5.5 0 0 1 .5.5zm2.117 0a.5.5 0 0 1-.5.5.5.5 0 0 1-.5-.5.5.5 0 0 1 .5-.5.5.5 0 0 1 .5.5zm0 4.234a.5.5 0 0 1-.5.5.5.5 0 0 1-.5-.5.5.5 0 0 1 .5-.5.5.5 0 0 1 .5.5zm3.175-2.117a.5.5 0 0 1-.5.5.5.5 0 0 1-.5-.5.5.5 0 0 1 .5-.5.5.5 0 0 1 .5.5zm2.116 0a.5.5 0 0 1-.5.5.5.5 0 0 1-.5-.5.5.5 0 0 1 .5-.5.5.5 0 0 1 .5.5zm-3.175 2.117a.5.5 0 0 1-.5.5.5.5 0 0 1-.5-.5.5.5 0 0 1 .5-.5.5.5 0 0 1 .5.5zm0-4.234a.5.5 0 0 1-.5.5.5.5 0 0 1-.5-.5.5.5 0 0 1 .5-.5.5.5 0 0 1 .5.5zm2.117 0a.5.5 0 0 1-.5.5.5.5 0 0 1-.5-.5.5.5 0 0 1 .5-.5.5.5 0 0 1 .5.5zm0 4.234a.5.5 0 0 1-.5.5.5.5 0 0 1-.5-.5.5.5 0 0 1 .5-.5.5.5 0 0 1 .5.5zm2.117-4.234a.5.5 0 0 1-.5.5.5.5 0 0 1-.5-.5.5.5 0 0 1 .5-.5.5.5 0 0 1 .5.5zm0 4.234a.5.5 0 0 1-.5.5.5.5 0 0 1-.5-.5.5.5 0 0 1 .5-.5.5.5 0 0 1 .5.5zm-10.584 0a.5.5 0 0 1-.5.5.5.5 0 0 1-.5-.5.5.5 0 0 1 .5-.5.5.5 0 0 1 .5.5zm-1.058-2.117a.5.5 0 0 1-.5.5.5.5 0 0 1-.5-.5.5.5 0 0 1 .5-.5.5.5 0 0 1 .5.5zm1.058-2.117a.5.5 0 0 1-.5.5.5.5 0 0 1-.5-.5.5.5 0 0 1 .5-.5.5.5 0 0 1 .5.5zm3.175 2.117a.5.5 0 0 1-.5.5.5.5 0 0 1-.5-.5.5.5 0 0 1 .5-.5.5.5 0 0 1 .5.5zm-13.758 2.117a.5.5 0 0 1-.5.5.5.5 0 0 1-.5-.5.5.5 0 0 1 .5-.5.5.5 0 0 1 .5.5zm-1.058-2.117a.5.5 0 0 1-.5.5.5.5 0 0 1-.5-.5.5.5 0 0 1 .5-.5.5.5 0 0 1 .5.5zm4.233 0a.5.5 0 0 1-.5.5.5.5 0 0 1-.5-.5.5.5 0 0 1 .5-.5.5.5 0 0 1 .5.5zm-12.7 0a.5.5 0 0 1-.5.5.5.5 0 0 1-.5-.5.5.5 0 0 1 .5-.5.5.5 0 0 1 .5.5zm2.117 0a.5.5 0 0 1-.5.5.5.5 0 0 1-.5-.5.5.5 0 0 1 .5-.5.5.5 0 0 1 .5.5zm2.116 0a.5.5 0 0 1-.5.5.5.5 0 0 1-.5-.5.5.5 0 0 1 .5-.5.5.5 0 0 1 .5.5zm-3.175 2.117a.5.5 0 0 1-.5.5.5.5 0 0 1-.5-.5.5.5 0 0 1 .5-.5.5.5 0 0 1 .5.5zm0-4.234a.5.5 0 0 1-.5.5.5.5 0 0 1-.5-.5.5.5 0 0 1 .5-.5.5.5 0 0 1 .5.5zm2.117 0a.5.5 0 0 1-.5.5.5.5 0 0 1-.5-.5.5.5 0 0 1 .5-.5.5.5 0 0 1 .5.5zm0 4.234a.5.5 0 0 1-.5.5.5.5 0 0 1-.5-.5.5.5 0 0 1 .5-.5.5.5 0 0 1 .5.5zm2.117-4.234a.5.5 0 0 1-.5.5.5.5 0 0 1-.5-.5.5.5 0 0 1 .5-.5.5.5 0 0 1 .5.5zm0 4.234a.5.5 0 0 1-.5.5.5.5 0 0 1-.5-.5.5.5 0 0 1 .5-.5.5.5 0 0 1 .5.5zm4.233-4.234a.5.5 0 0 1-.5.5.5.5 0 0 1-.5-.5.5.5 0 0 1 .5-.5.5.5 0 0 1 .5.5zm2.117 0a.5.5 0 0 1-.5.5.5.5 0 0 1-.5-.5.5.5 0 0 1 .5-.5.5.5 0 0 1 .5.5zm0 4.234a.5.5 0 0 1-.5.5.5.5 0 0 1-.5-.5.5.5 0 0 1 .5-.5.5.5 0 0 1 .5.5zm3.175-2.117a.5.5 0 0 1-.5.5.5.5 0 0 1-.5-.5.5.5 0 0 1 .5-.5.5.5 0 0 1 .5.5zm2.116 0a.5.5 0 0 1-.5.5.5.5 0 0 1-.5-.5.5.5 0 0 1 .5-.5.5.5 0 0 1 .5.5zm-3.175 2.117a.5.5 0 0 1-.5.5.5.5 0 0 1-.5-.5.5.5 0 0 1 .5-.5.5.5 0 0 1 .5.5zm0-4.234a.5.5 0 0 1-.5.5.5.5 0 0 1-.5-.5.5.5 0 0 1 .5-.5.5.5 0 0 1 .5.5zm2.117 0a.5.5 0 0 1-.5.5.5.5 0 0 1-.5-.5.5.5 0 0 1 .5-.5.5.5 0 0 1 .5.5zm0 4.234a.5.5 0 0 1-.5.5.5.5 0 0 1-.5-.5.5.5 0 0 1 .5-.5.5.5 0 0 1 .5.5zm2.117-4.234a.5.5 0 0 1-.5.5.5.5 0 0 1-.5-.5.5.5 0 0 1 .5-.5.5.5 0 0 1 .5.5zm0 4.234a.5.5 0 0 1-.5.5.5.5 0 0 1-.5-.5.5.5 0 0 1 .5-.5.5.5 0 0 1 .5.5zm-10.584 0a.5.5 0 0 1-.5.5.5.5 0 0 1-.5-.5.5.5 0 0 1 .5-.5.5.5 0 0 1 .5.5zm-1.058-2.117a.5.5 0 0 1-.5.5.5.5 0 0 1-.5-.5.5.5 0 0 1 .5-.5.5.5 0 0 1 .5.5zm1.058-2.117a.5.5 0 0 1-.5.5.5.5 0 0 1-.5-.5.5.5 0 0 1 .5-.5.5.5 0 0 1 .5.5zm3.175 2.117a.5.5 0 0 1-.5.5.5.5 0 0 1-.5-.5.5.5 0 0 1 .5-.5.5.5 0 0 1 .5.5zm24.342-6.35a.5.5 0 0 1-.5.5.5.5 0 0 1-.5-.5.5.5 0 0 1 .5-.5.5.5 0 0 1 .5.5zm-1.058 2.117a.5.5 0 0 1-.5.5.5.5 0 0 1-.5-.5.5.5 0 0 1 .5-.5.5.5 0 0 1 .5.5zm-1.059-2.117a.5.5 0 0 1-.5.5.5.5 0 0 1-.5-.5.5.5 0 0 1 .5-.5.5.5 0 0 1 .5.5zm1.059-2.117a.5.5 0 0 1-.5.5.5.5 0 0 1-.5-.5.5.5 0 0 1 .5-.5.5.5 0 0 1 .5.5zm-10.584 4.234a.5.5 0 0 1-.5.5.5.5 0 0 1-.5-.5.5.5 0 0 1 .5-.5.5.5 0 0 1 .5.5zm-1.058-2.117a.5.5 0 0 1-.5.5.5.5 0 0 1-.5-.5.5.5 0 0 1 .5-.5.5.5 0 0 1 .5.5zm4.233 0a.5.5 0 0 1-.5.5.5.5 0 0 1-.5-.5.5.5 0 0 1 .5-.5.5.5 0 0 1 .5.5zm-3.175-2.117a.5.5 0 0 1-.5.5.5.5 0 0 1-.5-.5.5.5 0 0 1 .5-.5.5.5 0 0 1 .5.5zm2.117 0a.5.5 0 0 1-.5.5.5.5 0 0 1-.5-.5.5.5 0 0 1 .5-.5.5.5 0 0 1 .5.5zm0 4.234a.5.5 0 0 1-.5.5.5.5 0 0 1-.5-.5.5.5 0 0 1 .5-.5.5.5 0 0 1 .5.5zm3.175-2.117a.5.5 0 0 1-.5.5.5.5 0 0 1-.5-.5.5.5 0 0 1 .5-.5.5.5 0 0 1 .5.5zm2.117 0a.5.5 0 0 1-.5.5.5.5 0 0 1-.5-.5.5.5 0 0 1 .5-.5.5.5 0 0 1 .5.5zm-3.175 2.117a.5.5 0 0 1-.5.5.5.5 0 0 1-.5-.5.5.5 0 0 1 .5-.5.5.5 0 0 1 .5.5zm0-4.234a.5.5 0 0 1-.5.5.5.5 0 0 1-.5-.5.5.5 0 0 1 .5-.5.5.5 0 0 1 .5.5zm2.116 0a.5.5 0 0 1-.5.5.5.5 0 0 1-.5-.5.5.5 0 0 1 .5-.5.5.5 0 0 1 .5.5zm0 4.234a.5.5 0 0 1-.5.5.5.5 0 0 1-.5-.5.5.5 0 0 1 .5-.5.5.5 0 0 1 .5.5zm2.117-4.234a.5.5 0 0 1-.5.5.5.5 0 0 1-.5-.5.5.5 0 0 1 .5-.5.5.5 0 0 1 .5.5zm0 4.234a.5.5 0 0 1-.5.5.5.5 0 0 1-.5-.5.5.5 0 0 1 .5-.5.5.5 0 0 1 .5.5zm-10.583 0a.5.5 0 0 1-.5.5.5.5 0 0 1-.5-.5.5.5 0 0 1 .5-.5.5.5 0 0 1 .5.5zm-1.059-2.117a.5.5 0 0 1-.5.5.5.5 0 0 1-.5-.5.5.5 0 0 1 .5-.5.5.5 0 0 1 .5.5zm1.059-2.117a.5.5 0 0 1-.5.5.5.5 0 0 1-.5-.5.5.5 0 0 1 .5-.5.5.5 0 0 1 .5.5zm3.175 2.117a.5.5 0 0 1-.5.5.5.5 0 0 1-.5-.5.5.5 0 0 1 .5-.5.5.5 0 0 1 .5.5zm-13.759 2.117a.5.5 0 0 1-.5.5.5.5 0 0 1-.5-.5.5.5 0 0 1 .5-.5.5.5 0 0 1 .5.5zm-1.058-2.117a.5.5 0 0 1-.5.5.5.5 0 0 1-.5-.5.5.5 0 0 1 .5-.5.5.5 0 0 1 .5.5zm4.233 0a.5.5 0 0 1-.5.5.5.5 0 0 1-.5-.5.5.5 0 0 1 .5-.5.5.5 0 0 1 .5.5zm-12.7 0a.5.5 0 0 1-.5.5.5.5 0 0 1-.5-.5.5.5 0 0 1 .5-.5.5.5 0 0 1 .5.5zm-1.058-2.117a.5.5 0 0 1-.5.5.5.5 0 0 1-.5-.5.5.5 0 0 1 .5-.5.5.5 0 0 1 .5.5zm0 4.234a.5.5 0 0 1-.5.5.5.5 0 0 1-.5-.5.5.5 0 0 1 .5-.5.5.5 0 0 1 .5.5zm3.175-2.117a.5.5 0 0 1-.5.5.5.5 0 0 1-.5-.5.5.5 0 0 1 .5-.5.5.5 0 0 1 .5.5zm2.117 0a.5.5 0 0 1-.5.5.5.5 0 0 1-.5-.5.5.5 0 0 1 .5-.5.5.5 0 0 1 .5.5zm-3.175 2.117a.5.5 0 0 1-.5.5.5.5 0 0 1-.5-.5.5.5 0 0 1 .5-.5.5.5 0 0 1 .5.5zm0-4.234a.5.5 0 0 1-.5.5.5.5 0 0 1-.5-.5.5.5 0 0 1 .5-.5.5.5 0 0 1 .5.5zm2.116 0a.5.5 0 0 1-.5.5.5.5 0 0 1-.5-.5.5.5 0 0 1 .5-.5.5.5 0 0 1 .5.5zm0 4.234a.5.5 0 0 1-.5.5.5.5 0 0 1-.5-.5.5.5 0 0 1 .5-.5.5.5 0 0 1 .5.5zm2.117-4.234a.5.5 0 0 1-.5.5.5.5 0 0 1-.5-.5.5.5 0 0 1 .5-.5.5.5 0 0 1 .5.5zm0 4.234a.5.5 0 0 1-.5.5.5.5 0 0 1-.5-.5.5.5 0 0 1 .5-.5.5.5 0 0 1 .5.5zm4.233-4.234a.5.5 0 0 1-.5.5.5.5 0 0 1-.5-.5.5.5 0 0 1 .5-.5.5.5 0 0 1 .5.5zm2.117 0a.5.5 0 0 1-.5.5.5.5 0 0 1-.5-.5.5.5 0 0 1 .5-.5.5.5 0 0 1 .5.5zm0 4.234a.5.5 0 0 1-.5.5.5.5 0 0 1-.5-.5.5.5 0 0 1 .5-.5.5.5 0 0 1 .5.5zm3.175-2.117a.5.5 0 0 1-.5.5.5.5 0 0 1-.5-.5.5.5 0 0 1 .5-.5.5.5 0 0 1 .5.5zm2.117 0a.5.5 0 0 1-.5.5.5.5 0 0 1-.5-.5.5.5 0 0 1 .5-.5.5.5 0 0 1 .5.5zm-3.175 2.117a.5.5 0 0 1-.5.5.5.5 0 0 1-.5-.5.5.5 0 0 1 .5-.5.5.5 0 0 1 .5.5zm0-4.234a.5.5 0 0 1-.5.5.5.5 0 0 1-.5-.5.5.5 0 0 1 .5-.5.5.5 0 0 1 .5.5zm2.116 0a.5.5 0 0 1-.5.5.5.5 0 0 1-.5-.5.5.5 0 0 1 .5-.5.5.5 0 0 1 .5.5zm0 4.234a.5.5 0 0 1-.5.5.5.5 0 0 1-.5-.5.5.5 0 0 1 .5-.5.5.5 0 0 1 .5.5zm2.117-4.234a.5.5 0 0 1-.5.5.5.5 0 0 1-.5-.5.5.5 0 0 1 .5-.5.5.5 0 0 1 .5.5zm0 4.234a.5.5 0 0 1-.5.5.5.5 0 0 1-.5-.5.5.5 0 0 1 .5-.5.5.5 0 0 1 .5.5zm-10.583 0a.5.5 0 0 1-.5.5.5.5 0 0 1-.5-.5.5.5 0 0 1 .5-.5.5.5 0 0 1 .5.5zm-1.059-2.117a.5.5 0 0 1-.5.5.5.5 0 0 1-.5-.5.5.5 0 0 1 .5-.5.5.5 0 0 1 .5.5zm1.059-2.117a.5.5 0 0 1-.5.5.5.5 0 0 1-.5-.5.5.5 0 0 1 .5-.5.5.5 0 0 1 .5.5zm3.175 2.117a.5.5 0 0 1-.5.5.5.5 0 0 1-.5-.5.5.5 0 0 1 .5-.5.5.5 0 0 1 .5.5z" clip-path="url(#b)" transform="rotate(5 977.979 212.74)"/><rect style="mix-blend-mode:multiply;fill:#eae7e7;fill-opacity:1;stroke:none;stroke-width:2;stroke-linecap:round;stroke-linejoin:round;stroke-miterlimit:4;stroke-dasharray:none;paint-order:markers fill stroke" width="32.295" height="39.425" x="682.561" y="-483.786" rx="2.175" ry="2.053" transform="rotate(5)"/><rect style="fill:#fff;fill-opacity:1;stroke:none;stroke-width:1.9;stroke-linecap:round;stroke-linejoin:round;stroke-miterlimit:4;stroke-dasharray:none;paint-order:markers fill stroke" width="30.681" height="37.453" x="681.252" y="-484.917" rx="2.066" ry="1.951" transform="rotate(5)"/><g transform="rotate(5 3720.152 1805.855) scale(.95)" style="fill:#fff;fill-opacity:1;stroke:#b48f81"><circle style="fill:#fff;fill-opacity:1;stroke:#b48f81;stroke-width:2;stroke-linecap:round;stroke-linejoin:round;stroke-miterlimit:4;stroke-dasharray:none;paint-order:markers fill stroke" cx="582.518" cy="-163.225" r="1.825"/><rect style="fill:#fff;fill-opacity:1;stroke:#b48f81;stroke-width:2;stroke-linecap:round;stroke-linejoin:round;stroke-miterlimit:4;stroke-dasharray:none;paint-order:markers fill stroke" width="32.295" height="39.425" x="566.371" y="-161.941" rx="2.175" ry="2.053"/><rect style="fill:#fff;fill-opacity:1;stroke:#b48f81;stroke-width:2;stroke-linecap:round;stroke-linejoin:round;stroke-miterlimit:4;stroke-dasharray:none;paint-order:markers fill stroke" width="10.101" height="2.607" x="577.468" y="-161.916" rx="1.52" ry="2.607"/></g><g style="opacity:.698649;mix-blend-mode:multiply;fill:none;fill-opacity:1;stroke:#b48f81"><path style="color:#000;opacity:1;mix-blend-mode:multiply;fill:url(#c);fill-opacity:1;stroke:none;stroke-width:1;stroke-linecap:round;stroke-linejoin:round;-inkscape-stroke:none;paint-order:markers fill stroke" d="M659.633-136.41a2.844 2.844 0 0 0-2.523 3.095H645.95c-1.712 0-3.176 1.347-3.176 3.053v35.319c0 1.706 1.464 3.052 3.176 3.052h27.944c1.711 0 3.175-1.346 3.175-3.052v-35.319c0-1.706-1.464-3.053-3.175-3.053h-11.161a2.843 2.843 0 0 0-3.099-3.095zm.2 1.99c.029-.001.057-.004.087-.003.467 0 .826.358.826.825 0 .1-.017.196-.047.284h-1.556a.868.868 0 0 1-.047-.284c0-.438.314-.78.738-.821zm-14.012 3.111a1.79 1.79 0 0 1 .128-.006h7.947a2.192 2.192 0 0 0-.025.328c0 1.348 1.217 2.303 2.52 2.303h7.06c1.302 0 2.52-.955 2.52-2.302 0-.113-.01-.222-.026-.329h7.947c.699 0 1.176.484 1.176 1.053v35.318c0 .57-.477 1.053-1.176 1.053H645.95c-.698 0-1.176-.484-1.176-1.053v-35.318c0-.533.42-.992 1.048-1.047zm10.5.023a.517.517 0 0 1 .07-.003h7.06c.382 0 .52.206.52.302 0 .097-.138.304-.52.304h-7.06c-.382 0-.52-.207-.52-.303 0-.09.121-.278.45-.3z" stroke="none" transform="rotate(5 4079.213 977.888) scale(.95)"/></g><path style="mix-blend-mode:multiply;fill:red;fill-opacity:1;stroke:none;stroke-width:1.57486;stroke-linecap:round;stroke-linejoin:round;stroke-miterlimit:4;stroke-dasharray:none;paint-order:markers fill stroke" d="M712.15-395.2c-.003.06-.021.12-.026.18-.002-.028-.011-.135-.007-.15a.152.152 0 0 1 .032-.03z"/><path style="mix-blend-mode:multiply;fill:red;fill-opacity:1;stroke:none;stroke-width:1.57486;stroke-linecap:round;stroke-linejoin:round;stroke-miterlimit:4;stroke-dasharray:none;paint-order:markers fill stroke" d="M728.86-418.66c-.985.031-2.177 1.138-2.863 1.737-.923.883-2.028 2.12-2.447 3.441-.37.194-.8.413-1.36.693-2.707 1.248-1.539.774-4.404 1.825-1.954.716-3.932 1.45-6.007 1.722-.736.104-.588 1.144.147 1.04.234-.048.473-.074.7-.143.454-.137.89-.326 1.34-.476.618-.207 1.25-.375 1.864-.593.743-.265 1.471-.568 2.205-.856 2.552-1.004 1.976-.778 4.447-1.83.434-.229.65-.34.9-.47.567 4.786 8.08 3.555 10.634 2.902 1.394-.357 4.66-1.657 5.058-1.035.315.492-.449 1.093.45 1.387.325.106.701-.016 1.014-.154 3.18-1.485 4.051-3.423 5.434-1.466 2.518 1.826 6.254-.833 8.478.375 1.183.642 2.377 1.414 3.075 1.435.696.098.835-.885.139-.983-.848.053-1.446-.421-2.309-1.055-.78-.44-1.243-.674-2.103-.674-.313.004-.62.093-.928.15-1.416.257-2.826.656-4.28.443-.933-.147-.613-.078-1.351-.433-.777-.549-.228-1.347-1.223-1.584-2.627-.025-4.862 4.001-5.084 1.489-.035-.56-.8-.161-1.168-.058-3.527 1.028-7.842 1.784-11.1 1.532-1.637-.17-4.259-.897-3.671-2.84 1.092-.73 6.815-3.854 5.174-5.26a1.078 1.078 0 0 0-.762-.26zm-.258.853c.1-.003.186.024.254.082.59.536-3.498 3.286-4.343 3.86.763-1.327 3.116-3.926 4.089-3.942zm-23.023 25.409c.284.61.506 1.245.729 1.88.04.108.057.228.118.327.223.361.454.548.947.384.24-.079.417-.285.604-.455.277-.251 1.155-1.265 1.349-1.484a73.277 73.277 0 0 1 2.715-2.891c.286-.29.578-.574.867-.86.223-.231-.102-.548-.326-.317-1.182 1.26-2.363 2.524-3.616 3.714-.626.57-.798.759-1.427 1.234-.099.075-.239.105-.31.206-.03.042-.1-.042-.143-.144-.12-.316-.156-.401-.268-.725a5.78 5.78 0 0 1-.27-.97c-.006-.036-.004-.074-.006-.11-.149-.682-1.113-.47-.963.21zm7.709-23.702a.39.39 0 0 0-.29.125c-.55.585-.264.284-.86.902a94.29 94.29 0 0 1-2.515 2.476c-.246.231-.492.462-.743.688-.239.214-.485.42-.727.63-.204.172-1.23.987-1.302 1.037a5.3 5.3 0 0 1-.394-.96c-.309-.624-1.19-.188-.882.436.02.027.041.054.06.083.062.102.163.295.214.395.112.22.215.444.313.671.113.2.2.434.513.432.416-.003.674-.336.924-.593.147-.15.29-.304.435-.456l.557-.576c1.282-1.317 2.645-2.551 4.005-3.785.637-.59.33-.303.922-.857a.37.37 0 0 0-.23-.648zm-8.234 14.795c.258.413.462.856.663 1.298.08.145.21.45.407.489.569.112.694-.112 1.038-.483.18-.193.34-.402.514-.6.216-.244.437-.483.655-.724 1.612-1.757 3.404-3.333 5.179-4.92.29-.276-.1-.685-.389-.41-.776.78-1.553 1.56-2.345 2.322a67.217 67.217 0 0 1-1.94 1.806c-.3.27-.604.536-.906.804-.575.525-1.424 1.215-1.424 1.215-.167-.313-.425-.73-.55-1.192-.28-.638-1.181-.243-.902.395zm29.022-2.463c-1.525 1.17-3.478 2.157-5.187 2.418-.137.021.226-.771-.755-.609-.99.01-4.934 1.94-5.16 1.32-1.14-3.124-6.749-1.466-8.436.132-.684.76-.079 1.247.681.81 1.154-.662 4.974-3.266 6.093-1.143.564 1.085 1.003 1.46 1.812 1.56 2.19.091 3.096-1.882 4.804-1.343.901.285 3.966-1.055 4.89-1.568.355-.2.711-.396 1.061-.604.027.626.166 1.558.806 1.857 1.699.794 5.22-2.1 6.906-1.593 1.737.669 3.24 1.408 4.985 1.43 4.36-.264 5.544-.796 6.306-.689 2.38.335 2.416-.295 1.462-.748-1.95-.927-4.538 1.08-7.656.73-.568-.066-1.127-.207-1.676-.37-1.371-.404-3.088-1.733-4.242-1.516-.975.217-1.878.677-2.834 1.072-1.317.47-2.29.994-2.738.633-.477-.385-.178-1.209-.004-1.694 1.16-.79 4.105-2.737 4.016-3.801-.168-1.209-2.501.803-3.328 1.455-.827.653-1.489 1.617-1.806 2.261zm9.454 5.18c-.212.006-.41.084-.531.258-.045.139-.1.275-.134.417-.068.277-.117.56-.174.84-.2.985-.292 1.504-.527 2.51a6.478 6.478 0 0 0-.094.56c-3.524.417-6.384-.265-9.907-.625-4.868-.434-9.64.422-13.444.82-.813.088-2.731.163-2.143.862.32.324 2.698.194 3.752-.052 3.483-.815.9-.313 4.535-.944 2.652-.328 4.87-.332 7.134.349 1.225.368 2.523.837 5.584.932 1.205.037 2.74-.284 4.4-.684-.213 1.542-.65 3.727-2.672 4.384-.28.091-.786.08-1.017.028-.672-.106-.563 1.068.184.991 2.433-.25 3.7-3.336 4.392-5.619 4.129-1.022 8.824-2.251 11.302.2.881.49 1.575-.757.693-1.247-.108-.065-.212-.137-.324-.194-.458-.23-.487-.202-1.016-.33-2.748-.174-5.245-.092-7.724.312-.977.308-1.89.526-2.76.675.204-.725.347-1.32.45-1.631.21-.623.404-1.168.733-1.727.048-.082.121-.147.182-.22.308-.446-.33-.884-.874-.866zm1.624 1.392a.488.488 0 0 0-.413.26c-.107.311-.209.618-.333.925-.087.216-.187.427-.28.641-.2.416.389.697.588.281.246-.472.477-.962.844-1.357.238-.398-.074-.754-.406-.75zm14.03 2.972a.817.731 33.804 0 1 .271 1.062.817.731 33.804 0 1-1.085.153.817.731 33.804 0 1-.272-1.062.817.731 33.804 0 1 1.085-.153z"/><path style="opacity:.6;mix-blend-mode:multiply;fill:#bd1f0c;fill-opacity:1;stroke:none;stroke-width:1.57486;stroke-linecap:round;stroke-linejoin:round;stroke-miterlimit:4;stroke-dasharray:none;paint-order:markers fill stroke" d="M728.86-418.66c-.985.031-2.177 1.138-2.863 1.737-.923.883-2.028 2.12-2.448 3.441-.368.194-.799.413-1.36.693-2.706 1.248-1.538.774-4.403 1.825-1.954.716-3.932 1.45-6.007 1.722-.736.104-.588 1.144.147 1.04.234-.048.473-.074.7-.143.454-.137.89-.326 1.339-.476.619-.207 1.25-.375 1.865-.593.743-.265 1.471-.568 2.205-.856 2.552-1.004 1.976-.778 4.447-1.83.434-.229.65-.34.9-.47.567 4.786 8.08 3.555 10.634 2.902 1.394-.357 4.66-1.657 5.058-1.035.315.492-.449 1.093.45 1.387.324.106.701-.016 1.014-.154 3.18-1.485 4.051-3.423 5.434-1.466 2.518 1.826 6.254-.833 8.478.375 1.183.642 2.377 1.414 3.075 1.435.696.098.835-.885.139-.983-.848.053-1.446-.421-2.309-1.055-.78-.44-1.243-.674-2.103-.674-.313.004-.62.093-.928.15-1.416.257-2.826.656-4.28.443-.933-.147-.613-.078-1.351-.433-.777-.549-.228-1.347-1.223-1.584-2.627-.025-4.862 4.001-5.084 1.489-.035-.56-.8-.161-1.168-.058-3.527 1.028-7.842 1.784-11.1 1.532-1.637-.17-4.259-.897-3.671-2.84 1.092-.73 6.815-3.854 5.174-5.26a1.078 1.078 0 0 0-.762-.26zm-.258.853c.1-.003.186.024.254.082.59.536-3.498 3.286-4.343 3.86.763-1.327 3.116-3.926 4.089-3.942zm-23.023 25.409c.284.61.506 1.245.729 1.88.04.108.057.228.118.327.223.361.454.548.947.384.24-.079.417-.285.604-.455.277-.251 1.155-1.265 1.349-1.484a73.277 73.277 0 0 1 2.715-2.891c.286-.29.578-.574.867-.86.223-.231-.102-.548-.326-.317-1.182 1.26-2.363 2.524-3.616 3.714-.626.57-.798.759-1.427 1.234-.099.075-.239.105-.31.206-.03.042-.1-.042-.143-.144-.12-.316-.156-.401-.268-.725a5.78 5.78 0 0 1-.27-.97c-.006-.036-.004-.074-.006-.11-.149-.682-1.113-.47-.963.21zm7.709-23.702a.39.39 0 0 0-.29.125c-.55.585-.264.284-.86.902a94.29 94.29 0 0 1-2.515 2.476c-.246.231-.492.462-.743.688-.239.214-.485.42-.727.63-.204.172-1.231.987-1.302 1.037a5.3 5.3 0 0 1-.394-.96c-.309-.624-1.191-.188-.882.436.02.027.041.054.06.083.062.102.163.295.214.395.112.22.215.444.313.671.113.2.2.434.513.432.416-.003.674-.336.924-.593.147-.15.29-.304.435-.456l.557-.576c1.282-1.317 2.645-2.551 4.005-3.785.637-.59.33-.303.922-.857a.37.37 0 0 0-.23-.648zm-8.234 14.795c.258.413.462.856.663 1.298.08.145.21.45.407.489.569.112.694-.112 1.038-.483.18-.193.34-.402.514-.6.216-.244.437-.483.655-.724 1.612-1.757 3.404-3.333 5.179-4.92.29-.276-.1-.685-.389-.41-.776.78-1.553 1.56-2.345 2.322a67.217 67.217 0 0 1-1.94 1.806c-.3.27-.604.536-.906.804-.575.525-1.424 1.215-1.424 1.215-.167-.313-.425-.73-.55-1.192-.28-.638-1.181-.243-.902.395zm29.022-2.463c-1.525 1.17-3.478 2.157-5.187 2.418-.137.021.226-.771-.755-.609-.99.01-4.934 1.94-5.16 1.32-1.14-3.124-6.749-1.466-8.436.132-.684.76-.079 1.247.681.81 1.154-.662 4.974-3.266 6.093-1.143.564 1.085 1.003 1.46 1.812 1.56 2.19.091 3.096-1.882 4.803-1.343.902.285 3.967-1.055 4.89-1.568.356-.2.712-.396 1.062-.604.027.626.166 1.558.806 1.857 1.699.794 5.22-2.1 6.906-1.593 1.737.669 3.24 1.408 4.985 1.43 4.36-.264 5.544-.796 6.306-.689 2.38.335 2.416-.295 1.462-.748-1.95-.927-4.538 1.08-7.656.73-.568-.066-1.127-.207-1.676-.37-1.371-.404-3.088-1.733-4.242-1.516-.976.217-1.878.677-2.834 1.072-1.317.47-2.29.994-2.738.633-.477-.385-.178-1.209-.004-1.694 1.16-.79 4.105-2.737 4.016-3.801-.168-1.209-2.501.803-3.328 1.455-.827.653-1.489 1.617-1.806 2.261zm9.454 5.18c-.212.006-.41.084-.531.258-.045.139-.1.275-.134.417-.068.277-.117.56-.174.84-.2.985-.292 1.504-.527 2.51a6.478 6.478 0 0 0-.094.56c-3.524.417-6.384-.265-9.907-.625-4.868-.434-9.64.422-13.444.82-.813.088-2.731.163-2.143.862.32.324 2.698.194 3.752-.052 3.483-.815.9-.313 4.535-.944 2.652-.328 4.87-.332 7.134.349 1.225.368 2.523.837 5.584.932 1.205.037 2.74-.284 4.4-.684-.213 1.542-.65 3.727-2.672 4.384-.28.091-.786.08-1.017.028-.672-.106-.563 1.068.184.991 2.433-.25 3.7-3.336 4.392-5.619 4.129-1.022 8.824-2.251 11.302.2.881.49 1.575-.757.693-1.247-.108-.065-.212-.137-.324-.194-.458-.23-.487-.202-1.016-.33-2.748-.174-5.245-.092-7.724.312-.977.308-1.89.526-2.76.675.204-.725.347-1.32.45-1.631.21-.623.404-1.168.733-1.727.048-.082.121-.147.182-.22.308-.446-.33-.884-.874-.866zm1.624 1.392a.488.488 0 0 0-.413.26c-.107.311-.209.618-.333.925-.087.216-.187.427-.28.641-.2.416.389.697.588.281.246-.472.477-.962.844-1.357.238-.398-.074-.754-.406-.75zm14.03 2.972a.817.731 33.804 0 1 .271 1.062.817.731 33.804 0 1-1.085.153.817.731 33.804 0 1-.272-1.062.817.731 33.804 0 1 1.085-.153z"/><path style="mix-blend-mode:multiply;fill:#ebe0b7;fill-opacity:1;stroke:none;stroke-width:2;stroke-linecap:round;stroke-linejoin:round;stroke-miterlimit:4;stroke-dasharray:none;paint-order:markers fill stroke" d="M736.308-426.287a2.699 2.699 0 0 0-2.642 2.722l-10.56-.924c-1.62-.142-3.117 1.011-3.259 2.626l-.93 10.625c-.31.114-.443.166-.99.366-1.935.71-3.894 1.436-5.95 1.706-.728.103-.581 1.132.147 1.03.23-.048.468-.073.693-.141.449-.137.881-.324 1.326-.472.613-.205 1.238-.371 1.847-.588.735-.262 1.456-.562 2.182-.847.315-.124.446-.178.677-.27l-.727 8.309c-1.406.34-2.732.985-3.412 1.63-.678.753-.078 1.234.674.802.513-.294 1.556-.97 2.652-1.442l-.653 7.46c-.557.113-.967.296-.655.667.08.08.296.13.583.16l-.388 4.43c-.117 1.34.746 2.521 1.969 2.967l-.021.244c-.1 1.133.787 2.13 1.988 2.235l27.838 2.435c1.2.105 2.247-.722 2.346-1.855l1.06-12.114c.7.223 1.33.567 1.854 1.086.873.486 1.56-.748.687-1.234-.108-.064-.21-.136-.322-.192-.453-.228-.481-.2-1.006-.326-.39-.025-.77-.04-1.15-.054l.572-6.534c2.294.311 2.327-.302 1.391-.747-.406-.193-.843-.252-1.305-.236l.695-7.954c.251.051.493.124.716.245 1.17.636 2.354 1.4 3.044 1.421.69.098.827-.877.138-.974-.84.052-1.432-.417-2.286-1.045-.584-.328-.996-.532-1.527-.617l.517-5.91c.096-1.096-.732-2.063-1.874-2.219-.255-1.255-1.35-2.242-2.697-2.36l-10.562-.924c.016-.087.03-.176.037-.266.002-.02-.002-.037-.001-.055a2.622 2.622 0 0 0-.136-1.036 2.692 2.692 0 0 0-.18-.412l-.03-.053a2.73 2.73 0 0 0-.637-.757l-.01-.009h-.003a2.694 2.694 0 0 0-.422-.283l-.007-.004a2.646 2.646 0 0 0-1.291-.312zm.03 1.901c.026.001.053 0 .081.005a.763.763 0 0 1 .53.269c.005.003.008.008.012.013a.759.759 0 0 1 .14.276c.024.081.032.169.028.26 0 .01 0 .018-.002.028a.814.814 0 0 1-.053.228l-.016.039-1.467-.128a.825.825 0 0 1-.02-.272.768.768 0 0 1 .766-.717zm-22.866 8.429a.384.384 0 0 0-.286.123c-.546.58-.262.281-.853.893-.818.83-1.641 1.655-2.49 2.453-.244.229-.487.457-.736.68-.236.213-.48.416-.72.624-.202.171-1.219.978-1.29 1.028-.152-.307-.3-.62-.39-.952-.306-.617-1.179-.185-.873.433.02.027.04.053.058.082.063.101.163.293.213.391.112.219.213.44.31.665.113.198.198.43.51.427.411-.003.665-.333.913-.587.145-.149.287-.301.431-.451l.552-.572c1.27-1.304 2.619-2.526 3.966-3.748.63-.583.326-.3.914-.848a.366.366 0 0 0-.229-.641zm.056 9.262a.294.294 0 0 0-.22.09c-.77.773-1.538 1.545-2.324 2.3a66.51 66.51 0 0 1-1.92 1.788c-.298.268-.599.531-.897.797-.57.52-1.41 1.203-1.41 1.203-.166-.31-.422-.722-.545-1.18-.277-.632-1.17-.24-.893.391.255.409.457.848.656 1.286.08.143.208.445.402.484.564.11.687-.11 1.029-.478.177-.191.336-.399.509-.594.213-.242.432-.48.648-.718 1.596-1.74 3.371-3.301 5.129-4.873a.281.281 0 0 0-.164-.496zm-.58 10.747a.238.238 0 0 0-.175.08c-1.17 1.248-2.34 2.5-3.581 3.677-.62.566-.791.752-1.413 1.223-.098.074-.237.104-.308.204-.03.042-.098-.041-.14-.143-.12-.312-.155-.398-.266-.718a5.715 5.715 0 0 1-.267-.96c-.006-.036-.004-.073-.006-.11-.148-.675-1.102-.465-.954.21.282.603.501 1.233.722 1.86.04.108.057.227.117.325.221.358.45.543.938.38.237-.078.413-.282.597-.45.275-.249 1.145-1.252 1.337-1.47a72.652 72.652 0 0 1 2.688-2.863c.284-.287.573-.568.859-.852a.226.226 0 0 0-.148-.393zm45.381 1.513a.809.724 33.804 0 0-.481.293.809.724 33.804 0 0 .268 1.051.809.724 33.804 0 0 1.075-.151.809.724 33.804 0 0-.268-1.052.809.724 33.804 0 0-.594-.141z"/></g></svg>