<svg xmlns="http://www.w3.org/2000/svg" xmlns:xlink="http://www.w3.org/1999/xlink" width="206.234" height="175.019" viewBox="0 0 54.566 46.307" xmlns:v="https://vecta.io/nano"><defs><clipPath id="A"><rect x="668.21" y="-397.21" width="32.295" height="39.425" rx="2.175" ry="2.053" fill="#d45145" paint-order="markers fill stroke"/></clipPath><linearGradient id="B" x1="640.52" x2="663.92" y1="-136.9" y2="-93.438" gradientUnits="userSpaceOnUse"><stop stop-color="#967677" offset="0"/><stop stop-color="#967677" stop-opacity="0" offset="1"/></linearGradient><path id="C" d="M728.86-418.66c-.984.031-2.176 1.138-2.862 1.737-.923.883-2.028 2.121-2.447 3.441l-1.36.693c-2.706 1.248-1.538.774-4.403 1.825-1.954.716-3.932 1.45-6.007 1.722a.53.53 0 0 0 .148 1.04l.7-.142 1.338-.476 1.865-.593 2.205-.856 4.448-1.829.9-.47c.567 4.785 8.081 3.554 10.634 2.901 1.394-.357 4.659-1.657 5.058-1.035.316.492-.449 1.094.45 1.387.325.106.702-.015 1.015-.154 3.179-1.485 4.051-3.423 5.434-1.466 2.519 1.827 6.254-.833 8.479.375 1.182.642 2.377 1.414 3.074 1.436a.5.5 0 0 0 .139-.984c-.848.053-1.446-.421-2.308-1.055-.78-.439-1.243-.674-2.103-.673-.313.004-.62.093-.928.149-1.416.258-2.826.657-4.281.443-.932-.147-.612-.078-1.35-.433-.777-.548-.228-1.347-1.223-1.584-2.627-.024-4.862 4.001-5.084 1.489-.034-.559-.799-.161-1.168-.057-3.527 1.028-7.842 1.784-11.1 1.532-1.637-.171-4.259-.898-3.672-2.84 1.092-.73 6.816-3.854 5.174-5.26-.227-.195-.486-.27-.762-.261zm-.257.853c.101-.003.186.024.254.082.59.536-3.498 3.286-4.343 3.86.763-1.327 3.116-3.926 4.089-3.942zm-23.023 25.409c.285.609.506 1.245.729 1.879.039.109.057.229.118.327.223.362.454.549.947.385.239-.079.417-.286.603-.455.277-.252 1.156-1.265 1.349-1.485a73.26 73.26 0 0 1 2.715-2.891l.867-.861c.224-.23-.102-.547-.326-.317-1.182 1.261-2.362 2.524-3.616 3.714-.626.571-.798.759-1.426 1.234-.099.075-.239.105-.311.206-.03.042-.1-.042-.142-.145-.121-.315-.156-.401-.268-.725-.109-.316-.217-.638-.27-.97-.006-.036-.004-.074-.006-.111-.149-.681-1.113-.47-.964.211zm7.709-23.702a.39.39 0 0 0-.289.125l-.861.902-2.514 2.476-.743.687c-.239.214-.485.42-.727.63-.204.173-1.231.987-1.302 1.037-.155-.311-.303-.626-.394-.961-.309-.624-1.191-.187-.882.437.02.028.041.054.059.083.063.102.164.295.215.395a12.19 12.19 0 0 1 .314.672c.113.2.199.434.513.431.416-.003.673-.336.923-.592l.436-.456.557-.577c1.282-1.317 2.644-2.551 4.004-3.785l.923-.857a.37.37 0 0 0-.231-.648zm-8.233 14.795c.258.413.461.856.663 1.298.08.145.21.45.407.488.569.112.694-.111 1.038-.483.179-.193.34-.402.514-.6l.655-.725c1.612-1.757 3.404-3.333 5.179-4.921.29-.275-.099-.685-.389-.41l-2.346 2.323a67.3 67.3 0 0 1-1.94 1.805l-.906.804c-.575.526-1.424 1.215-1.424 1.215-.167-.312-.426-.729-.55-1.192-.28-.638-1.182-.242-.902.395zm29.022-2.463c-1.525 1.169-3.479 2.157-5.187 2.418-.137.021.226-.771-.755-.609-.991.009-4.934 1.94-5.161 1.319-1.14-3.123-6.748-1.465-8.435.133-.684.76-.079 1.247.681.81 1.154-.663 4.974-3.267 6.093-1.144.563 1.085 1.002 1.46 1.812 1.56 2.189.092 3.096-1.881 4.803-1.342.902.285 3.967-1.055 4.89-1.568l1.062-.604c.026.625.166 1.558.806 1.857 1.699.794 5.22-2.1 6.906-1.593 1.737.669 3.24 1.407 4.985 1.43 4.36-.265 5.544-.797 6.306-.69 2.381.335 2.416-.295 1.463-.748-1.949-.927-4.538 1.08-7.656.731-.568-.067-1.128-.208-1.676-.37-1.371-.405-3.088-1.734-4.242-1.517-.975.217-1.878.677-2.834 1.072-1.317.47-2.29.994-2.738.633-.478-.385-.179-1.209-.004-1.694 1.16-.789 4.105-2.737 4.016-3.801-.168-1.209-2.501.803-3.328 1.455s-1.489 1.617-1.806 2.261zm9.454 5.179c-.212.007-.411.085-.531.259-.045.139-.099.275-.134.417-.068.278-.117.56-.174.84-.201.986-.292 1.505-.527 2.51-.035.152-.065.342-.095.559-3.524.417-6.383-.265-9.906-.625-4.869-.434-9.641.422-13.444.82-.813.088-2.731.164-2.144.862.321.324 2.698.195 3.752-.052 3.483-.815.901-.312 4.535-.943 2.653-.328 4.871-.333 7.134.348 1.225.369 2.523.837 5.584.932 1.205.037 2.74-.284 4.401-.684-.214 1.543-.652 3.728-2.673 4.385-.279.091-.785.079-1.017.028-.672-.107-.563 1.067.184.991 2.433-.25 3.7-3.336 4.392-5.619 4.129-1.023 8.824-2.251 11.302.199.881.491 1.575-.756.693-1.246-.108-.065-.212-.137-.325-.194-.458-.23-.486-.202-1.016-.33-2.748-.175-5.245-.092-7.724.312-.977.308-1.89.526-2.761.675l.451-1.631c.209-.623.403-1.168.732-1.726.048-.082.122-.148.182-.221.308-.445-.331-.884-.874-.865zm1.624 1.393c-.151.003-.305.079-.413.259-.107.312-.209.619-.333.925-.088.216-.187.428-.281.641-.199.416.389.697.588.281.246-.472.477-.962.844-1.357.238-.398-.074-.754-.405-.75zm14.029 2.971a.817.731 33.804 0 1 .272 1.062.817.731 33.804 0 1-1.085.153.817.731 33.804 0 1-.272-1.062.817.731 33.804 0 1 1.085-.153z"/></defs><g transform="translate(-704.998 426.29)"><path transform="rotate(5 977.98 212.74)" d="M702.59-381.59a.5.5 0 0 1-.5.5.5.5 0 0 1-.5-.5.5.5 0 0 1 .854-.354.5.5 0 0 1 .146.354zm-1.058-2.117a.5.5 0 0 1-.5.5.5.5 0 0 1-.5-.5.5.5 0 0 1 .854-.354.5.5 0 0 1 .146.354zm1.058-2.117a.5.5 0 0 1-.5.5.5.5 0 0 1-.5-.5.5.5 0 0 1 .854-.354.5.5 0 0 1 .146.354zm-2.117 4.233a.5.5 0 0 1-.5.5.5.5 0 0 1-.5-.5.5.5 0 0 1 .854-.354.5.5 0 0 1 .146.354zm-1.058-2.117a.5.5 0 0 1-.5.5.5.5 0 0 1-.5-.5.5.5 0 0 1 .854-.354.5.5 0 0 1 .146.354zm1.058-2.117a.5.5 0 0 1-.5.5.5.5 0 0 1-.5-.5.5.5 0 0 1 .854-.354.5.5 0 0 1 .146.354zm-10.583 4.233a.5.5 0 0 1-.5.5.5.5 0 0 1-.5-.5.5.5 0 0 1 .854-.354.5.5 0 0 1 .146.354zm-1.058-2.117a.5.5 0 0 1-.5.5.5.5 0 0 1-.5-.5.5.5 0 0 1 .854-.354.5.5 0 0 1 .146.354zm4.233 0a.5.5 0 0 1-.5.5.5.5 0 0 1-.5-.5.5.5 0 0 1 .854-.354.5.5 0 0 1 .146.354zm-3.175-2.117a.5.5 0 0 1-.5.5.5.5 0 0 1-.5-.5.5.5 0 0 1 .854-.354.5.5 0 0 1 .146.354zm2.117 0a.5.5 0 0 1-.5.5.5.5 0 0 1-.5-.5.5.5 0 0 1 .854-.354.5.5 0 0 1 .146.354zm0 4.233a.5.5 0 0 1-.5.5.5.5 0 0 1-.5-.5.5.5 0 0 1 .854-.354.5.5 0 0 1 .146.354zm3.175-2.117a.5.5 0 0 1-.5.5.5.5 0 0 1-.5-.5.5.5 0 0 1 .854-.354.5.5 0 0 1 .146.354zm2.117 0a.5.5 0 0 1-.5.5.5.5 0 0 1-.5-.5.5.5 0 0 1 .854-.354.5.5 0 0 1 .146.354zm-3.175 2.117a.5.5 0 0 1-.5.5.5.5 0 0 1-.5-.5.5.5 0 0 1 .854-.354.5.5 0 0 1 .146.354zm0-4.233a.5.5 0 0 1-.5.5.5.5 0 0 1-.5-.5.5.5 0 0 1 .854-.354.5.5 0 0 1 .146.354zm2.117 0a.5.5 0 0 1-.5.5.5.5 0 0 1-.5-.5.5.5 0 0 1 .854-.354.5.5 0 0 1 .146.354zm0 4.233a.5.5 0 0 1-.5.5.5.5 0 0 1-.5-.5.5.5 0 0 1 .854-.354.5.5 0 0 1 .146.354zm2.117-4.233a.5.5 0 0 1-.5.5.5.5 0 0 1-.5-.5.5.5 0 0 1 .854-.354.5.5 0 0 1 .146.354zm0 4.233a.5.5 0 0 1-.5.5.5.5 0 0 1-.5-.5.5.5 0 0 1 .854-.354.5.5 0 0 1 .146.354zm-10.583 0a.5.5 0 0 1-.5.5.5.5 0 0 1-.5-.5.5.5 0 0 1 .854-.354.5.5 0 0 1 .146.354zm-1.058-2.117a.5.5 0 0 1-.5.5.5.5 0 0 1-.5-.5.5.5 0 0 1 .854-.354.5.5 0 0 1 .146.354zm1.058-2.117a.5.5 0 0 1-.5.5.5.5 0 0 1-.5-.5.5.5 0 0 1 .854-.354.5.5 0 0 1 .146.354zm3.175 2.117a.5.5 0 0 1-.5.5.5.5 0 0 1-.5-.5.5.5 0 0 1 .854-.354.5.5 0 0 1 .146.354zm-13.758 2.117a.5.5 0 0 1-.5.5.5.5 0 0 1-.5-.5.5.5 0 0 1 .854-.354.5.5 0 0 1 .146.354zm-1.058-2.117a.5.5 0 0 1-.5.5.5.5 0 0 1-.5-.5.5.5 0 0 1 .854-.354.5.5 0 0 1 .146.354zm4.233 0a.5.5 0 0 1-.5.5.5.5 0 0 1-.5-.5.5.5 0 0 1 .854-.354.5.5 0 0 1 .146.354zm-12.7 0a.5.5 0 0 1-.5.5.5.5 0 0 1-.5-.5.5.5 0 0 1 .854-.354.5.5 0 0 1 .146.354zm2.117 0a.5.5 0 0 1-.5.5.5.5 0 0 1-.5-.5.5.5 0 0 1 .854-.354.5.5 0 0 1 .146.354zm2.117 0a.5.5 0 0 1-.5.5.5.5 0 0 1-.5-.5.5.5 0 0 1 .854-.354.5.5 0 0 1 .146.354zm-3.175 2.117a.5.5 0 0 1-.5.5.5.5 0 0 1-.5-.5.5.5 0 0 1 .854-.354.5.5 0 0 1 .146.354zm0-4.233a.5.5 0 0 1-.5.5.5.5 0 0 1-.5-.5.5.5 0 0 1 .854-.354.5.5 0 0 1 .146.354zm2.117 0a.5.5 0 0 1-.5.5.5.5 0 0 1-.5-.5.5.5 0 0 1 .854-.354.5.5 0 0 1 .146.354zm0 4.233a.5.5 0 0 1-.5.5.5.5 0 0 1-.5-.5.5.5 0 0 1 .854-.354.5.5 0 0 1 .146.354zm2.117-4.233a.5.5 0 0 1-.5.5.5.5 0 0 1-.5-.5.5.5 0 0 1 .854-.354.5.5 0 0 1 .146.354zm0 4.233a.5.5 0 0 1-.5.5.5.5 0 0 1-.5-.5.5.5 0 0 1 .854-.354.5.5 0 0 1 .146.354zm4.233-4.233a.5.5 0 0 1-.5.5.5.5 0 0 1-.5-.5.5.5 0 0 1 .854-.354.5.5 0 0 1 .146.354zm2.117 0a.5.5 0 0 1-.5.5.5.5 0 0 1-.5-.5.5.5 0 0 1 .854-.354.5.5 0 0 1 .146.354zm0 4.233a.5.5 0 0 1-.5.5.5.5 0 0 1-.5-.5.5.5 0 0 1 .854-.354.5.5 0 0 1 .146.354zm3.175-2.117a.5.5 0 0 1-.5.5.5.5 0 0 1-.5-.5.5.5 0 0 1 .854-.354.5.5 0 0 1 .146.354zm2.117 0a.5.5 0 0 1-.5.5.5.5 0 0 1-.5-.5.5.5 0 0 1 .854-.354.5.5 0 0 1 .146.354zm-3.175 2.117a.5.5 0 0 1-.5.5.5.5 0 0 1-.5-.5.5.5 0 0 1 .854-.354.5.5 0 0 1 .146.354zm0-4.233a.5.5 0 0 1-.5.5.5.5 0 0 1-.5-.5.5.5 0 0 1 .854-.354.5.5 0 0 1 .146.354zm2.117 0a.5.5 0 0 1-.5.5.5.5 0 0 1-.5-.5.5.5 0 0 1 .854-.354.5.5 0 0 1 .146.354zm0 4.233a.5.5 0 0 1-.5.5.5.5 0 0 1-.5-.5.5.5 0 0 1 .854-.354.5.5 0 0 1 .146.354zm2.117-4.233a.5.5 0 0 1-.5.5.5.5 0 0 1-.5-.5.5.5 0 0 1 .854-.354.5.5 0 0 1 .146.354zm0 4.233a.5.5 0 0 1-.5.5.5.5 0 0 1-.5-.5.5.5 0 0 1 .854-.354.5.5 0 0 1 .146.354zm-10.583 0a.5.5 0 0 1-.5.5.5.5 0 0 1-.5-.5.5.5 0 0 1 .854-.354.5.5 0 0 1 .146.354zm-1.058-2.117a.5.5 0 0 1-.5.5.5.5 0 0 1-.5-.5.5.5 0 0 1 .854-.354.5.5 0 0 1 .146.354zm1.058-2.117a.5.5 0 0 1-.5.5.5.5 0 0 1-.5-.5.5.5 0 0 1 .854-.354.5.5 0 0 1 .146.354zm3.175 2.117a.5.5 0 0 1-.5.5.5.5 0 0 1-.5-.5.5.5 0 0 1 .854-.354.5.5 0 0 1 .146.354zm24.342-6.35a.5.5 0 0 1-.5.5.5.5 0 0 1-.5-.5.5.5 0 0 1 .854-.354.5.5 0 0 1 .146.354zm-1.058 2.117a.5.5 0 0 1-.5.5.5.5 0 0 1-.5-.5.5.5 0 0 1 .854-.354.5.5 0 0 1 .146.354zm-1.058-2.117a.5.5 0 0 1-.5.5.5.5 0 0 1-.5-.5.5.5 0 0 1 .854-.354.5.5 0 0 1 .146.354zm1.058-2.117a.5.5 0 0 1-.5.5.5.5 0 0 1-.5-.5.5.5 0 0 1 .854-.354.5.5 0 0 1 .146.354zm-10.583 4.233a.5.5 0 0 1-.5.5.5.5 0 0 1-.5-.5.5.5 0 0 1 .854-.354.5.5 0 0 1 .146.354zm-1.058-2.117a.5.5 0 0 1-.5.5.5.5 0 0 1-.5-.5.5.5 0 0 1 .854-.354.5.5 0 0 1 .146.354zm4.233 0a.5.5 0 0 1-.5.5.5.5 0 0 1-.5-.5.5.5 0 0 1 .854-.354.5.5 0 0 1 .146.354zm-3.175-2.117a.5.5 0 0 1-.5.5.5.5 0 0 1-.5-.5.5.5 0 0 1 .854-.354.5.5 0 0 1 .146.354zm2.117 0a.5.5 0 0 1-.5.5.5.5 0 0 1-.5-.5.5.5 0 0 1 .854-.354.5.5 0 0 1 .146.354zm0 4.233a.5.5 0 0 1-.5.5.5.5 0 0 1-.5-.5.5.5 0 0 1 .854-.354.5.5 0 0 1 .146.354zm3.175-2.117a.5.5 0 0 1-.5.5.5.5 0 0 1-.5-.5.5.5 0 0 1 .854-.354.5.5 0 0 1 .146.354zm2.117 0a.5.5 0 0 1-.5.5.5.5 0 0 1-.5-.5.5.5 0 0 1 .854-.354.5.5 0 0 1 .146.354zm-3.175 2.117a.5.5 0 0 1-.5.5.5.5 0 0 1-.5-.5.5.5 0 0 1 .854-.354.5.5 0 0 1 .146.354zm0-4.233a.5.5 0 0 1-.5.5.5.5 0 0 1-.5-.5.5.5 0 0 1 .854-.354.5.5 0 0 1 .146.354zm2.117 0a.5.5 0 0 1-.5.5.5.5 0 0 1-.5-.5.5.5 0 0 1 .854-.354.5.5 0 0 1 .146.354zm0 4.233a.5.5 0 0 1-.5.5.5.5 0 0 1-.5-.5.5.5 0 0 1 .854-.354.5.5 0 0 1 .146.354zm2.117-4.233a.5.5 0 0 1-.5.5.5.5 0 0 1-.5-.5.5.5 0 0 1 .854-.354.5.5 0 0 1 .146.354zm0 4.233a.5.5 0 0 1-.5.5.5.5 0 0 1-.5-.5.5.5 0 0 1 .854-.354.5.5 0 0 1 .146.354zm-10.583 0a.5.5 0 0 1-.5.5.5.5 0 0 1-.5-.5.5.5 0 0 1 .854-.354.5.5 0 0 1 .146.354zm-1.058-2.117a.5.5 0 0 1-.5.5.5.5 0 0 1-.5-.5.5.5 0 0 1 .854-.354.5.5 0 0 1 .146.354zm1.058-2.117a.5.5 0 0 1-.5.5.5.5 0 0 1-.5-.5.5.5 0 0 1 .854-.354.5.5 0 0 1 .146.354zm3.175 2.117a.5.5 0 0 1-.5.5.5.5 0 0 1-.5-.5.5.5 0 0 1 .854-.354.5.5 0 0 1 .146.354zm-13.758 2.117a.5.5 0 0 1-.5.5.5.5 0 0 1-.5-.5.5.5 0 0 1 .854-.354.5.5 0 0 1 .146.354zm-1.058-2.117a.5.5 0 0 1-.5.5.5.5 0 0 1-.5-.5.5.5 0 0 1 .854-.354.5.5 0 0 1 .146.354zm4.233 0a.5.5 0 0 1-.5.5.5.5 0 0 1-.5-.5.5.5 0 0 1 .854-.354.5.5 0 0 1 .146.354zm-12.7 0a.5.5 0 0 1-.5.5.5.5 0 0 1-.5-.5.5.5 0 0 1 .854-.354.5.5 0 0 1 .146.354zm-1.058-2.117a.5.5 0 0 1-.5.5.5.5 0 0 1-.5-.5.5.5 0 0 1 .854-.354.5.5 0 0 1 .146.354zm0 4.233a.5.5 0 0 1-.5.5.5.5 0 0 1-.5-.5.5.5 0 0 1 .854-.354.5.5 0 0 1 .146.354zm3.175-2.117a.5.5 0 0 1-.5.5.5.5 0 0 1-.5-.5.5.5 0 0 1 .854-.354.5.5 0 0 1 .146.354zm2.117 0a.5.5 0 0 1-.5.5.5.5 0 0 1-.5-.5.5.5 0 0 1 .854-.354.5.5 0 0 1 .146.354zm-3.175 2.117a.5.5 0 0 1-.5.5.5.5 0 0 1-.5-.5.5.5 0 0 1 .854-.354.5.5 0 0 1 .146.354zm0-4.233a.5.5 0 0 1-.5.5.5.5 0 0 1-.5-.5.5.5 0 0 1 .854-.354.5.5 0 0 1 .146.354zm2.117 0a.5.5 0 0 1-.5.5.5.5 0 0 1-.5-.5.5.5 0 0 1 .854-.354.5.5 0 0 1 .146.354zm0 4.233a.5.5 0 0 1-.5.5.5.5 0 0 1-.5-.5.5.5 0 0 1 .854-.354.5.5 0 0 1 .146.354zm2.117-4.233a.5.5 0 0 1-.5.5.5.5 0 0 1-.5-.5.5.5 0 0 1 .854-.354.5.5 0 0 1 .146.354zm0 4.233a.5.5 0 0 1-.5.5.5.5 0 0 1-.5-.5.5.5 0 0 1 .854-.354.5.5 0 0 1 .146.354zm4.233-4.233a.5.5 0 0 1-.5.5.5.5 0 0 1-.5-.5.5.5 0 0 1 .854-.354.5.5 0 0 1 .146.354zm2.117 0a.5.5 0 0 1-.5.5.5.5 0 0 1-.5-.5.5.5 0 0 1 .854-.354.5.5 0 0 1 .146.354zm0 4.233a.5.5 0 0 1-.5.5.5.5 0 0 1-.5-.5.5.5 0 0 1 .854-.354.5.5 0 0 1 .146.354zm3.175-2.117a.5.5 0 0 1-.5.5.5.5 0 0 1-.5-.5.5.5 0 0 1 .854-.354.5.5 0 0 1 .146.354zm2.117 0a.5.5 0 0 1-.5.5.5.5 0 0 1-.5-.5.5.5 0 0 1 .854-.354.5.5 0 0 1 .146.354zm-3.175 2.117a.5.5 0 0 1-.5.5.5.5 0 0 1-.5-.5.5.5 0 0 1 .854-.354.5.5 0 0 1 .146.354zm0-4.233a.5.5 0 0 1-.5.5.5.5 0 0 1-.5-.5.5.5 0 0 1 .854-.354.5.5 0 0 1 .146.354zm2.117 0a.5.5 0 0 1-.5.5.5.5 0 0 1-.5-.5.5.5 0 0 1 .854-.354.5.5 0 0 1 .146.354zm0 4.233a.5.5 0 0 1-.5.5.5.5 0 0 1-.5-.5.5.5 0 0 1 .854-.354.5.5 0 0 1 .146.354zm2.117-4.233a.5.5 0 0 1-.5.5.5.5 0 0 1-.5-.5.5.5 0 0 1 .854-.354.5.5 0 0 1 .146.354zm0 4.233a.5.5 0 0 1-.5.5.5.5 0 0 1-.5-.5.5.5 0 0 1 .854-.354.5.5 0 0 1 .146.354zm-10.583 0a.5.5 0 0 1-.5.5.5.5 0 0 1-.5-.5.5.5 0 0 1 .854-.354.5.5 0 0 1 .146.354zm-1.058-2.117a.5.5 0 0 1-.5.5.5.5 0 0 1-.5-.5.5.5 0 0 1 .854-.354.5.5 0 0 1 .146.354zm1.058-2.117a.5.5 0 0 1-.5.5.5.5 0 0 1-.5-.5.5.5 0 0 1 .854-.354.5.5 0 0 1 .146.354zm3.175 2.117a.5.5 0 0 1-.5.5.5.5 0 0 1-.5-.5.5.5 0 0 1 .854-.354.5.5 0 0 1 .146.354zm23.283-4.233a.5.5 0 0 1-.5.5.5.5 0 0 1-.5-.5.5.5 0 0 1 .854-.354.5.5 0 0 1 .146.354zm-1.058-2.117a.5.5 0 0 1-.5.5.5.5 0 0 1-.5-.5.5.5 0 0 1 .854-.354.5.5 0 0 1 .146.354zm-1.058 2.117a.5.5 0 0 1-.5.5.5.5 0 0 1-.5-.5.5.5 0 0 1 .854-.354.5.5 0 0 1 .146.354zm-1.058-2.117a.5.5 0 0 1-.5.5.5.5 0 0 1-.5-.5.5.5 0 0 1 .854-.354.5.5 0 0 1 .146.354zm-9.525 2.117a.5.5 0 0 1-.5.5.5.5 0 0 1-.5-.5.5.5 0 0 1 .854-.354.5.5 0 0 1 .146.354zm-1.058-2.117a.5.5 0 0 1-.5.5.5.5 0 0 1-.5-.5.5.5 0 0 1 .854-.354.5.5 0 0 1 .146.354zm4.233 0a.5.5 0 0 1-.5.5.5.5 0 0 1-.5-.5.5.5 0 0 1 .854-.354.5.5 0 0 1 .146.354zm-1.058 2.117a.5.5 0 0 1-.5.5.5.5 0 0 1-.5-.5.5.5 0 0 1 .854-.354.5.5 0 0 1 .146.354zm3.175-2.117a.5.5 0 0 1-.5.5.5.5 0 0 1-.5-.5.5.5 0 0 1 .854-.354.5.5 0 0 1 .146.354zm2.117 0a.5.5 0 0 1-.5.5.5.5 0 0 1-.5-.5.5.5 0 0 1 .854-.354.5.5 0 0 1 .146.354zm-3.175 2.117a.5.5 0 0 1-.5.5.5.5 0 0 1-.5-.5.5.5 0 0 1 .854-.354.5.5 0 0 1 .146.354zm2.117 0a.5.5 0 0 1-.5.5.5.5 0 0 1-.5-.5.5.5 0 0 1 .854-.354.5.5 0 0 1 .146.354zm2.117 0a.5.5 0 0 1-.5.5.5.5 0 0 1-.5-.5.5.5 0 0 1 .854-.354.5.5 0 0 1 .146.354zm-10.583 0a.5.5 0 0 1-.5.5.5.5 0 0 1-.5-.5.5.5 0 0 1 .854-.354.5.5 0 0 1 .146.354zm-1.058-2.117a.5.5 0 0 1-.5.5.5.5 0 0 1-.5-.5.5.5 0 0 1 .854-.354.5.5 0 0 1 .146.354zm4.233 0a.5.5 0 0 1-.5.5.5.5 0 0 1-.5-.5.5.5 0 0 1 .854-.354.5.5 0 0 1 .146.354zm-13.758 2.117a.5.5 0 0 1-.5.5.5.5 0 0 1-.5-.5.5.5 0 0 1 .854-.354.5.5 0 0 1 .146.354zm-1.058-2.117a.5.5 0 0 1-.5.5.5.5 0 0 1-.5-.5.5.5 0 0 1 .854-.354.5.5 0 0 1 .146.354zm4.233 0a.5.5 0 0 1-.5.5.5.5 0 0 1-.5-.5.5.5 0 0 1 .854-.354.5.5 0 0 1 .146.354zm-12.7 0a.5.5 0 0 1-.5.5.5.5 0 0 1-.5-.5.5.5 0 0 1 .854-.354.5.5 0 0 1 .146.354zm2.117 0a.5.5 0 0 1-.5.5.5.5 0 0 1-.5-.5.5.5 0 0 1 .854-.354.5.5 0 0 1 .146.354zm2.117 0a.5.5 0 0 1-.5.5.5.5 0 0 1-.5-.5.5.5 0 0 1 .854-.354.5.5 0 0 1 .146.354zm-3.175 2.117a.5.5 0 0 1-.5.5.5.5 0 0 1-.5-.5.5.5 0 0 1 .854-.354.5.5 0 0 1 .146.354zm2.117 0a.5.5 0 0 1-.5.5.5.5 0 0 1-.5-.5.5.5 0 0 1 .854-.354.5.5 0 0 1 .146.354zm2.117 0a.5.5 0 0 1-.5.5.5.5 0 0 1-.5-.5.5.5 0 0 1 .854-.354.5.5 0 0 1 .146.354zm6.35 0a.5.5 0 0 1-.5.5.5.5 0 0 1-.5-.5.5.5 0 0 1 .854-.354.5.5 0 0 1 .146.354zm3.175-2.117a.5.5 0 0 1-.5.5.5.5 0 0 1-.5-.5.5.5 0 0 1 .854-.354.5.5 0 0 1 .146.354zm2.117 0a.5.5 0 0 1-.5.5.5.5 0 0 1-.5-.5.5.5 0 0 1 .854-.354.5.5 0 0 1 .146.354zm-3.175 2.117a.5.5 0 0 1-.5.5.5.5 0 0 1-.5-.5.5.5 0 0 1 .854-.354.5.5 0 0 1 .146.354zm2.117 0a.5.5 0 0 1-.5.5.5.5 0 0 1-.5-.5.5.5 0 0 1 .854-.354.5.5 0 0 1 .146.354zm2.117 0a.5.5 0 0 1-.5.5.5.5 0 0 1-.5-.5.5.5 0 0 1 .854-.354.5.5 0 0 1 .146.354zm-10.583 0a.5.5 0 0 1-.5.5.5.5 0 0 1-.5-.5.5.5 0 0 1 .854-.354.5.5 0 0 1 .146.354zm-1.058-2.117a.5.5 0 0 1-.5.5.5.5 0 0 1-.5-.5.5.5 0 0 1 .854-.354.5.5 0 0 1 .146.354zm4.233 0a.5.5 0 0 1-.5.5.5.5 0 0 1-.5-.5.5.5 0 0 1 .854-.354.5.5 0 0 1 .146.354zm23.283 38.1a.5.5 0 0 1-.5.5.5.5 0 0 1-.5-.5.5.5 0 0 1 .854-.354.5.5 0 0 1 .146.354zm1.058-2.117a.5.5 0 0 1-.5.5.5.5 0 0 1-.5-.5.5.5 0 0 1 .854-.354.5.5 0 0 1 .146.354zm-3.175 2.117a.5.5 0 0 1-.5.5.5.5 0 0 1-.5-.5.5.5 0 0 1 .854-.354.5.5 0 0 1 .146.354zm1.058-2.117a.5.5 0 0 1-.5.5.5.5 0 0 1-.5-.5.5.5 0 0 1 .854-.354.5.5 0 0 1 .146.354zm-11.642 2.117a.5.5 0 0 1-.5.5.5.5 0 0 1-.5-.5.5.5 0 0 1 .854-.354.5.5 0 0 1 .146.354zm4.233 0a.5.5 0 0 1-.5.5.5.5 0 0 1-.5-.5.5.5 0 0 1 .854-.354.5.5 0 0 1 .146.354zm-3.175-2.117a.5.5 0 0 1-.5.5.5.5 0 0 1-.5-.5.5.5 0 0 1 .854-.354.5.5 0 0 1 .146.354zm2.117 0a.5.5 0 0 1-.5.5.5.5 0 0 1-.5-.5.5.5 0 0 1 .854-.354.5.5 0 0 1 .146.354zm3.175 2.117a.5.5 0 0 1-.5.5.5.5 0 0 1-.5-.5.5.5 0 0 1 .854-.354.5.5 0 0 1 .146.354zm2.117 0a.5.5 0 0 1-.5.5.5.5 0 0 1-.5-.5.5.5 0 0 1 .854-.354.5.5 0 0 1 .146.354zm-3.175-2.117a.5.5 0 0 1-.5.5.5.5 0 0 1-.5-.5.5.5 0 0 1 .854-.354.5.5 0 0 1 .146.354zm2.117 0a.5.5 0 0 1-.5.5.5.5 0 0 1-.5-.5.5.5 0 0 1 .854-.354.5.5 0 0 1 .146.354zm2.117 0a.5.5 0 0 1-.5.5.5.5 0 0 1-.5-.5.5.5 0 0 1 .854-.354.5.5 0 0 1 .146.354zm-11.642 2.117a.5.5 0 0 1-.5.5.5.5 0 0 1-.5-.5.5.5 0 0 1 .854-.354.5.5 0 0 1 .146.354zm1.058-2.117a.5.5 0 0 1-.5.5.5.5 0 0 1-.5-.5.5.5 0 0 1 .854-.354.5.5 0 0 1 .146.354zm3.175 2.117a.5.5 0 0 1-.5.5.5.5 0 0 1-.5-.5.5.5 0 0 1 .854-.354.5.5 0 0 1 .146.354zm-14.817 0a.5.5 0 0 1-.5.5.5.5 0 0 1-.5-.5.5.5 0 0 1 .854-.354.5.5 0 0 1 .146.354zm4.233 0a.5.5 0 0 1-.5.5.5.5 0 0 1-.5-.5.5.5 0 0 1 .854-.354.5.5 0 0 1 .146.354zm-12.7 0a.5.5 0 0 1-.5.5.5.5 0 0 1-.5-.5.5.5 0 0 1 .854-.354.5.5 0 0 1 .146.354zm2.117 0a.5.5 0 0 1-.5.5.5.5 0 0 1-.5-.5.5.5 0 0 1 .854-.354.5.5 0 0 1 .146.354zm2.117 0a.5.5 0 0 1-.5.5.5.5 0 0 1-.5-.5.5.5 0 0 1 .854-.354.5.5 0 0 1 .146.354zm-3.175-2.117a.5.5 0 0 1-.5.5.5.5 0 0 1-.5-.5.5.5 0 0 1 .854-.354.5.5 0 0 1 .146.354zm2.117 0a.5.5 0 0 1-.5.5.5.5 0 0 1-.5-.5.5.5 0 0 1 .854-.354.5.5 0 0 1 .146.354zm2.117 0a.5.5 0 0 1-.5.5.5.5 0 0 1-.5-.5.5.5 0 0 1 .854-.354.5.5 0 0 1 .146.354zm4.233 0a.5.5 0 0 1-.5.5.5.5 0 0 1-.5-.5.5.5 0 0 1 .854-.354.5.5 0 0 1 .146.354zm2.117 0a.5.5 0 0 1-.5.5.5.5 0 0 1-.5-.5.5.5 0 0 1 .854-.354.5.5 0 0 1 .146.354zm3.175 2.117a.5.5 0 0 1-.5.5.5.5 0 0 1-.5-.5.5.5 0 0 1 .854-.354.5.5 0 0 1 .146.354zm2.117 0a.5.5 0 0 1-.5.5.5.5 0 0 1-.5-.5.5.5 0 0 1 .854-.354.5.5 0 0 1 .146.354zm-3.175-2.117a.5.5 0 0 1-.5.5.5.5 0 0 1-.5-.5.5.5 0 0 1 .854-.354.5.5 0 0 1 .146.354zm2.117 0a.5.5 0 0 1-.5.5.5.5 0 0 1-.5-.5.5.5 0 0 1 .854-.354.5.5 0 0 1 .146.354zm2.117 0a.5.5 0 0 1-.5.5.5.5 0 0 1-.5-.5.5.5 0 0 1 .854-.354.5.5 0 0 1 .146.354zm-11.642 2.117a.5.5 0 0 1-.5.5.5.5 0 0 1-.5-.5.5.5 0 0 1 .854-.354.5.5 0 0 1 .146.354zm1.058-2.117a.5.5 0 0 1-.5.5.5.5 0 0 1-.5-.5.5.5 0 0 1 .854-.354.5.5 0 0 1 .146.354zm3.175 2.117a.5.5 0 0 1-.5.5.5.5 0 0 1-.5-.5.5.5 0 0 1 .854-.354.5.5 0 0 1 .146.354zm24.342-6.35a.5.5 0 0 1-.5.5.5.5 0 0 1-.5-.5.5.5 0 0 1 .854-.354.5.5 0 0 1 .146.354zm-1.058 2.117a.5.5 0 0 1-.5.5.5.5 0 0 1-.5-.5.5.5 0 0 1 .854-.354.5.5 0 0 1 .146.354zm-1.058-2.117a.5.5 0 0 1-.5.5.5.5 0 0 1-.5-.5.5.5 0 0 1 .854-.354.5.5 0 0 1 .146.354zm1.058-2.117a.5.5 0 0 1-.5.5.5.5 0 0 1-.5-.5.5.5 0 0 1 .854-.354.5.5 0 0 1 .146.354zm-10.583 4.233a.5.5 0 0 1-.5.5.5.5 0 0 1-.5-.5.5.5 0 0 1 .854-.354.5.5 0 0 1 .146.354zm-1.058-2.117a.5.5 0 0 1-.5.5.5.5 0 0 1-.5-.5.5.5 0 0 1 .854-.354.5.5 0 0 1 .146.354zm4.233 0a.5.5 0 0 1-.5.5.5.5 0 0 1-.5-.5.5.5 0 0 1 .854-.354.5.5 0 0 1 .146.354zm-3.175-2.117a.5.5 0 0 1-.5.5.5.5 0 0 1-.5-.5.5.5 0 0 1 .854-.354.5.5 0 0 1 .146.354zm2.117 0a.5.5 0 0 1-.5.5.5.5 0 0 1-.5-.5.5.5 0 0 1 .854-.354.5.5 0 0 1 .146.354zm0 4.233a.5.5 0 0 1-.5.5.5.5 0 0 1-.5-.5.5.5 0 0 1 .854-.354.5.5 0 0 1 .146.354zm3.175-2.117a.5.5 0 0 1-.5.5.5.5 0 0 1-.5-.5.5.5 0 0 1 .854-.354.5.5 0 0 1 .146.354zm2.117 0a.5.5 0 0 1-.5.5.5.5 0 0 1-.5-.5.5.5 0 0 1 .854-.354.5.5 0 0 1 .146.354zm-3.175 2.117a.5.5 0 0 1-.5.5.5.5 0 0 1-.5-.5.5.5 0 0 1 .854-.354.5.5 0 0 1 .146.354zm0-4.233a.5.5 0 0 1-.5.5.5.5 0 0 1-.5-.5.5.5 0 0 1 .854-.354.5.5 0 0 1 .146.354zm2.117 0a.5.5 0 0 1-.5.5.5.5 0 0 1-.5-.5.5.5 0 0 1 .854-.354.5.5 0 0 1 .146.354zm0 4.233a.5.5 0 0 1-.5.5.5.5 0 0 1-.5-.5.5.5 0 0 1 .854-.354.5.5 0 0 1 .146.354zm2.117-4.233a.5.5 0 0 1-.5.5.5.5 0 0 1-.5-.5.5.5 0 0 1 .854-.354.5.5 0 0 1 .146.354zm0 4.233a.5.5 0 0 1-.5.5.5.5 0 0 1-.5-.5.5.5 0 0 1 .854-.354.5.5 0 0 1 .146.354zm-10.583 0a.5.5 0 0 1-.5.5.5.5 0 0 1-.5-.5.5.5 0 0 1 .854-.354.5.5 0 0 1 .146.354zm-1.058-2.117a.5.5 0 0 1-.5.5.5.5 0 0 1-.5-.5.5.5 0 0 1 .854-.354.5.5 0 0 1 .146.354zm1.058-2.117a.5.5 0 0 1-.5.5.5.5 0 0 1-.5-.5.5.5 0 0 1 .854-.354.5.5 0 0 1 .146.354zm3.175 2.117a.5.5 0 0 1-.5.5.5.5 0 0 1-.5-.5.5.5 0 0 1 .854-.354.5.5 0 0 1 .146.354zm-13.758 2.117a.5.5 0 0 1-.5.5.5.5 0 0 1-.5-.5.5.5 0 0 1 .854-.354.5.5 0 0 1 .146.354zm-1.058-2.117a.5.5 0 0 1-.5.5.5.5 0 0 1-.5-.5.5.5 0 0 1 .854-.354.5.5 0 0 1 .146.354zm4.233 0a.5.5 0 0 1-.5.5.5.5 0 0 1-.5-.5.5.5 0 0 1 .854-.354.5.5 0 0 1 .146.354zm-12.7 0a.5.5 0 0 1-.5.5.5.5 0 0 1-.5-.5.5.5 0 0 1 .854-.354.5.5 0 0 1 .146.354zm-1.058-2.117a.5.5 0 0 1-.5.5.5.5 0 0 1-.5-.5.5.5 0 0 1 .854-.354.5.5 0 0 1 .146.354zm0 4.233a.5.5 0 0 1-.5.5.5.5 0 0 1-.5-.5.5.5 0 0 1 .854-.354.5.5 0 0 1 .146.354zm3.175-2.117a.5.5 0 0 1-.5.5.5.5 0 0 1-.5-.5.5.5 0 0 1 .854-.354.5.5 0 0 1 .146.354zm2.117 0a.5.5 0 0 1-.5.5.5.5 0 0 1-.5-.5.5.5 0 0 1 .854-.354.5.5 0 0 1 .146.354zm-3.175 2.117a.5.5 0 0 1-.5.5.5.5 0 0 1-.5-.5.5.5 0 0 1 .854-.354.5.5 0 0 1 .146.354zm0-4.233a.5.5 0 0 1-.5.5.5.5 0 0 1-.5-.5.5.5 0 0 1 .854-.354.5.5 0 0 1 .146.354zm2.117 0a.5.5 0 0 1-.5.5.5.5 0 0 1-.5-.5.5.5 0 0 1 .854-.354.5.5 0 0 1 .146.354zm0 4.233a.5.5 0 0 1-.5.5.5.5 0 0 1-.5-.5.5.5 0 0 1 .854-.354.5.5 0 0 1 .146.354zm2.117-4.233a.5.5 0 0 1-.5.5.5.5 0 0 1-.5-.5.5.5 0 0 1 .854-.354.5.5 0 0 1 .146.354zm0 4.233a.5.5 0 0 1-.5.5.5.5 0 0 1-.5-.5.5.5 0 0 1 .854-.354.5.5 0 0 1 .146.354zm4.233-4.233a.5.5 0 0 1-.5.5.5.5 0 0 1-.5-.5.5.5 0 0 1 .854-.354.5.5 0 0 1 .146.354zm2.117 0a.5.5 0 0 1-.5.5.5.5 0 0 1-.5-.5.5.5 0 0 1 .854-.354.5.5 0 0 1 .146.354zm0 4.233a.5.5 0 0 1-.5.5.5.5 0 0 1-.5-.5.5.5 0 0 1 .854-.354.5.5 0 0 1 .146.354zm3.175-2.117a.5.5 0 0 1-.5.5.5.5 0 0 1-.5-.5.5.5 0 0 1 .854-.354.5.5 0 0 1 .146.354zm2.117 0a.5.5 0 0 1-.5.5.5.5 0 0 1-.5-.5.5.5 0 0 1 .854-.354.5.5 0 0 1 .146.354zm-3.175 2.117a.5.5 0 0 1-.5.5.5.5 0 0 1-.5-.5.5.5 0 0 1 .854-.354.5.5 0 0 1 .146.354zm0-4.233a.5.5 0 0 1-.5.5.5.5 0 0 1-.5-.5.5.5 0 0 1 .854-.354.5.5 0 0 1 .146.354zm2.117 0a.5.5 0 0 1-.5.5.5.5 0 0 1-.5-.5.5.5 0 0 1 .854-.354.5.5 0 0 1 .146.354zm0 4.233a.5.5 0 0 1-.5.5.5.5 0 0 1-.5-.5.5.5 0 0 1 .854-.354.5.5 0 0 1 .146.354zm2.117-4.233a.5.5 0 0 1-.5.5.5.5 0 0 1-.5-.5.5.5 0 0 1 .854-.354.5.5 0 0 1 .146.354zm0 4.233a.5.5 0 0 1-.5.5.5.5 0 0 1-.5-.5.5.5 0 0 1 .854-.354.5.5 0 0 1 .146.354zm-10.583 0a.5.5 0 0 1-.5.5.5.5 0 0 1-.5-.5.5.5 0 0 1 .854-.354.5.5 0 0 1 .146.354zm-1.058-2.117a.5.5 0 0 1-.5.5.5.5 0 0 1-.5-.5.5.5 0 0 1 .854-.354.5.5 0 0 1 .146.354zm1.058-2.117a.5.5 0 0 1-.5.5.5.5 0 0 1-.5-.5.5.5 0 0 1 .854-.354.5.5 0 0 1 .146.354zm3.175 2.117a.5.5 0 0 1-.5.5.5.5 0 0 1-.5-.5.5.5 0 0 1 .854-.354.5.5 0 0 1 .146.354zm23.283-4.233a.5.5 0 0 1-.5.5.5.5 0 0 1-.5-.5.5.5 0 0 1 .854-.354.5.5 0 0 1 .146.354zm-1.058-2.117a.5.5 0 0 1-.5.5.5.5 0 0 1-.5-.5.5.5 0 0 1 .854-.354.5.5 0 0 1 .146.354zm1.058-2.117a.5.5 0 0 1-.5.5.5.5 0 0 1-.5-.5.5.5 0 0 1 .854-.354.5.5 0 0 1 .146.354zm-2.117 4.233a.5.5 0 0 1-.5.5.5.5 0 0 1-.5-.5.5.5 0 0 1 .854-.354.5.5 0 0 1 .146.354zm-1.058-2.117a.5.5 0 0 1-.5.5.5.5 0 0 1-.5-.5.5.5 0 0 1 .854-.354.5.5 0 0 1 .146.354zm1.058-2.117a.5.5 0 0 1-.5.5.5.5 0 0 1-.5-.5.5.5 0 0 1 .854-.354.5.5 0 0 1 .146.354zm-10.583 4.233a.5.5 0 0 1-.5.5.5.5 0 0 1-.5-.5.5.5 0 0 1 .854-.354.5.5 0 0 1 .146.354zm-1.058-2.117a.5.5 0 0 1-.5.5.5.5 0 0 1-.5-.5.5.5 0 0 1 .854-.354.5.5 0 0 1 .146.354zm4.233 0a.5.5 0 0 1-.5.5.5.5 0 0 1-.5-.5.5.5 0 0 1 .854-.354.5.5 0 0 1 .146.354zm-3.175-2.117a.5.5 0 0 1-.5.5.5.5 0 0 1-.5-.5.5.5 0 0 1 .854-.354.5.5 0 0 1 .146.354zm2.117 0a.5.5 0 0 1-.5.5.5.5 0 0 1-.5-.5.5.5 0 0 1 .854-.354.5.5 0 0 1 .146.354zm0 4.233a.5.5 0 0 1-.5.5.5.5 0 0 1-.5-.5.5.5 0 0 1 .854-.354.5.5 0 0 1 .146.354zm3.175-2.117a.5.5 0 0 1-.5.5.5.5 0 0 1-.5-.5.5.5 0 0 1 .854-.354.5.5 0 0 1 .146.354zm2.117 0a.5.5 0 0 1-.5.5.5.5 0 0 1-.5-.5.5.5 0 0 1 .854-.354.5.5 0 0 1 .146.354zm-3.175 2.117a.5.5 0 0 1-.5.5.5.5 0 0 1-.5-.5.5.5 0 0 1 .854-.354.5.5 0 0 1 .146.354zm0-4.233a.5.5 0 0 1-.5.5.5.5 0 0 1-.5-.5.5.5 0 0 1 .854-.354.5.5 0 0 1 .146.354zm2.117 0a.5.5 0 0 1-.5.5.5.5 0 0 1-.5-.5.5.5 0 0 1 .854-.354.5.5 0 0 1 .146.354zm0 4.233a.5.5 0 0 1-.5.5.5.5 0 0 1-.5-.5.5.5 0 0 1 .854-.354.5.5 0 0 1 .146.354zm2.117-4.233a.5.5 0 0 1-.5.5.5.5 0 0 1-.5-.5.5.5 0 0 1 .854-.354.5.5 0 0 1 .146.354zm0 4.233a.5.5 0 0 1-.5.5.5.5 0 0 1-.5-.5.5.5 0 0 1 .854-.354.5.5 0 0 1 .146.354zm-10.583 0a.5.5 0 0 1-.5.5.5.5 0 0 1-.5-.5.5.5 0 0 1 .854-.354.5.5 0 0 1 .146.354zm-1.058-2.117a.5.5 0 0 1-.5.5.5.5 0 0 1-.5-.5.5.5 0 0 1 .854-.354.5.5 0 0 1 .146.354zm1.058-2.117a.5.5 0 0 1-.5.5.5.5 0 0 1-.5-.5.5.5 0 0 1 .854-.354.5.5 0 0 1 .146.354zm3.175 2.117a.5.5 0 0 1-.5.5.5.5 0 0 1-.5-.5.5.5 0 0 1 .854-.354.5.5 0 0 1 .146.354zm-13.758 2.117a.5.5 0 0 1-.5.5.5.5 0 0 1-.5-.5.5.5 0 0 1 .854-.354.5.5 0 0 1 .146.354zm-1.058-2.117a.5.5 0 0 1-.5.5.5.5 0 0 1-.5-.5.5.5 0 0 1 .854-.354.5.5 0 0 1 .146.354zm4.233 0a.5.5 0 0 1-.5.5.5.5 0 0 1-.5-.5.5.5 0 0 1 .854-.354.5.5 0 0 1 .146.354zm-12.7 0a.5.5 0 0 1-.5.5.5.5 0 0 1-.5-.5.5.5 0 0 1 .854-.354.5.5 0 0 1 .146.354zm2.117 0a.5.5 0 0 1-.5.5.5.5 0 0 1-.5-.5.5.5 0 0 1 .854-.354.5.5 0 0 1 .146.354zm2.117 0a.5.5 0 0 1-.5.5.5.5 0 0 1-.5-.5.5.5 0 0 1 .854-.354.5.5 0 0 1 .146.354zm-3.175 2.117a.5.5 0 0 1-.5.5.5.5 0 0 1-.5-.5.5.5 0 0 1 .854-.354.5.5 0 0 1 .146.354zm0-4.233a.5.5 0 0 1-.5.5.5.5 0 0 1-.5-.5.5.5 0 0 1 .854-.354.5.5 0 0 1 .146.354zm2.117 0a.5.5 0 0 1-.5.5.5.5 0 0 1-.5-.5.5.5 0 0 1 .854-.354.5.5 0 0 1 .146.354zm0 4.233a.5.5 0 0 1-.5.5.5.5 0 0 1-.5-.5.5.5 0 0 1 .854-.354.5.5 0 0 1 .146.354zm2.117-4.233a.5.5 0 0 1-.5.5.5.5 0 0 1-.5-.5.5.5 0 0 1 .854-.354.5.5 0 0 1 .146.354zm0 4.233a.5.5 0 0 1-.5.5.5.5 0 0 1-.5-.5.5.5 0 0 1 .854-.354.5.5 0 0 1 .146.354zm4.233-4.233a.5.5 0 0 1-.5.5.5.5 0 0 1-.5-.5.5.5 0 0 1 .854-.354.5.5 0 0 1 .146.354zm2.117 0a.5.5 0 0 1-.5.5.5.5 0 0 1-.5-.5.5.5 0 0 1 .854-.354.5.5 0 0 1 .146.354zm0 4.233a.5.5 0 0 1-.5.5.5.5 0 0 1-.5-.5.5.5 0 0 1 .854-.354.5.5 0 0 1 .146.354zm3.175-2.117a.5.5 0 0 1-.5.5.5.5 0 0 1-.5-.5.5.5 0 0 1 .854-.354.5.5 0 0 1 .146.354zm2.117 0a.5.5 0 0 1-.5.5.5.5 0 0 1-.5-.5.5.5 0 0 1 .854-.354.5.5 0 0 1 .146.354zm-3.175 2.117a.5.5 0 0 1-.5.5.5.5 0 0 1-.5-.5.5.5 0 0 1 .854-.354.5.5 0 0 1 .146.354zm0-4.233a.5.5 0 0 1-.5.5.5.5 0 0 1-.5-.5.5.5 0 0 1 .854-.354.5.5 0 0 1 .146.354zm2.117 0a.5.5 0 0 1-.5.5.5.5 0 0 1-.5-.5.5.5 0 0 1 .854-.354.5.5 0 0 1 .146.354zm0 4.233a.5.5 0 0 1-.5.5.5.5 0 0 1-.5-.5.5.5 0 0 1 .854-.354.5.5 0 0 1 .146.354zm2.117-4.233a.5.5 0 0 1-.5.5.5.5 0 0 1-.5-.5.5.5 0 0 1 .854-.354.5.5 0 0 1 .146.354zm0 4.233a.5.5 0 0 1-.5.5.5.5 0 0 1-.5-.5.5.5 0 0 1 .854-.354.5.5 0 0 1 .146.354zm-10.583 0a.5.5 0 0 1-.5.5.5.5 0 0 1-.5-.5.5.5 0 0 1 .854-.354.5.5 0 0 1 .146.354zm-1.058-2.117a.5.5 0 0 1-.5.5.5.5 0 0 1-.5-.5.5.5 0 0 1 .854-.354.5.5 0 0 1 .146.354zm1.058-2.117a.5.5 0 0 1-.5.5.5.5 0 0 1-.5-.5.5.5 0 0 1 .854-.354.5.5 0 0 1 .146.354zm3.175 2.117a.5.5 0 0 1-.5.5.5.5 0 0 1-.5-.5.5.5 0 0 1 .854-.354.5.5 0 0 1 .146.354zm24.342-6.35a.5.5 0 0 1-.5.5.5.5 0 0 1-.5-.5.5.5 0 0 1 .854-.354.5.5 0 0 1 .146.354zm-1.058 2.117a.5.5 0 0 1-.5.5.5.5 0 0 1-.5-.5.5.5 0 0 1 .854-.354.5.5 0 0 1 .146.354zm-1.058-2.117a.5.5 0 0 1-.5.5.5.5 0 0 1-.5-.5.5.5 0 0 1 .854-.354.5.5 0 0 1 .146.354zm1.058-2.117a.5.5 0 0 1-.5.5.5.5 0 0 1-.5-.5.5.5 0 0 1 .854-.354.5.5 0 0 1 .146.354zm-10.583 4.233a.5.5 0 0 1-.5.5.5.5 0 0 1-.5-.5.5.5 0 0 1 .854-.354.5.5 0 0 1 .146.354zm-1.058-2.117a.5.5 0 0 1-.5.5.5.5 0 0 1-.5-.5.5.5 0 0 1 .854-.354.5.5 0 0 1 .146.354zm4.233 0a.5.5 0 0 1-.5.5.5.5 0 0 1-.5-.5.5.5 0 0 1 .854-.354.5.5 0 0 1 .146.354zm-3.175-2.117a.5.5 0 0 1-.5.5.5.5 0 0 1-.5-.5.5.5 0 0 1 .854-.354.5.5 0 0 1 .146.354zm2.117 0a.5.5 0 0 1-.5.5.5.5 0 0 1-.5-.5.5.5 0 0 1 .854-.354.5.5 0 0 1 .146.354zm0 4.233a.5.5 0 0 1-.5.5.5.5 0 0 1-.5-.5.5.5 0 0 1 .854-.354.5.5 0 0 1 .146.354zm3.175-2.117a.5.5 0 0 1-.5.5.5.5 0 0 1-.5-.5.5.5 0 0 1 .854-.354.5.5 0 0 1 .146.354zm2.117 0a.5.5 0 0 1-.5.5.5.5 0 0 1-.5-.5.5.5 0 0 1 .854-.354.5.5 0 0 1 .146.354zm-3.175 2.117a.5.5 0 0 1-.5.5.5.5 0 0 1-.5-.5.5.5 0 0 1 .854-.354.5.5 0 0 1 .146.354zm0-4.233a.5.5 0 0 1-.5.5.5.5 0 0 1-.5-.5.5.5 0 0 1 .854-.354.5.5 0 0 1 .146.354zm2.117 0a.5.5 0 0 1-.5.5.5.5 0 0 1-.5-.5.5.5 0 0 1 .854-.354.5.5 0 0 1 .146.354zm0 4.233a.5.5 0 0 1-.5.5.5.5 0 0 1-.5-.5.5.5 0 0 1 .854-.354.5.5 0 0 1 .146.354zm2.117-4.233a.5.5 0 0 1-.5.5.5.5 0 0 1-.5-.5.5.5 0 0 1 .854-.354.5.5 0 0 1 .146.354zm0 4.233a.5.5 0 0 1-.5.5.5.5 0 0 1-.5-.5.5.5 0 0 1 .854-.354.5.5 0 0 1 .146.354zm-10.583 0a.5.5 0 0 1-.5.5.5.5 0 0 1-.5-.5.5.5 0 0 1 .854-.354.5.5 0 0 1 .146.354zm-1.058-2.117a.5.5 0 0 1-.5.5.5.5 0 0 1-.5-.5.5.5 0 0 1 .854-.354.5.5 0 0 1 .146.354zm1.058-2.117a.5.5 0 0 1-.5.5.5.5 0 0 1-.5-.5.5.5 0 0 1 .854-.354.5.5 0 0 1 .146.354zm3.175 2.117a.5.5 0 0 1-.5.5.5.5 0 0 1-.5-.5.5.5 0 0 1 .854-.354.5.5 0 0 1 .146.354zm-13.758 2.117a.5.5 0 0 1-.5.5.5.5 0 0 1-.5-.5.5.5 0 0 1 .854-.354.5.5 0 0 1 .146.354zm-1.058-2.117a.5.5 0 0 1-.5.5.5.5 0 0 1-.5-.5.5.5 0 0 1 .854-.354.5.5 0 0 1 .146.354zm4.233 0a.5.5 0 0 1-.5.5.5.5 0 0 1-.5-.5.5.5 0 0 1 .854-.354.5.5 0 0 1 .146.354zm-12.7 0a.5.5 0 0 1-.5.5.5.5 0 0 1-.5-.5.5.5 0 0 1 .854-.354.5.5 0 0 1 .146.354zm-1.058-2.117a.5.5 0 0 1-.5.5.5.5 0 0 1-.5-.5.5.5 0 0 1 .854-.354.5.5 0 0 1 .146.354zm0 4.233a.5.5 0 0 1-.5.5.5.5 0 0 1-.5-.5.5.5 0 0 1 .854-.354.5.5 0 0 1 .146.354zm3.175-2.117a.5.5 0 0 1-.5.5.5.5 0 0 1-.5-.5.5.5 0 0 1 .854-.354.5.5 0 0 1 .146.354zm2.117 0a.5.5 0 0 1-.5.5.5.5 0 0 1-.5-.5.5.5 0 0 1 .854-.354.5.5 0 0 1 .146.354zm-3.175 2.117a.5.5 0 0 1-.5.5.5.5 0 0 1-.5-.5.5.5 0 0 1 .854-.354.5.5 0 0 1 .146.354zm0-4.233a.5.5 0 0 1-.5.5.5.5 0 0 1-.5-.5.5.5 0 0 1 .854-.354.5.5 0 0 1 .146.354zm2.117 0a.5.5 0 0 1-.5.5.5.5 0 0 1-.5-.5.5.5 0 0 1 .854-.354.5.5 0 0 1 .146.354zm0 4.233a.5.5 0 0 1-.5.5.5.5 0 0 1-.5-.5.5.5 0 0 1 .854-.354.5.5 0 0 1 .146.354zm2.117-4.233a.5.5 0 0 1-.5.5.5.5 0 0 1-.5-.5.5.5 0 0 1 .854-.354.5.5 0 0 1 .146.354zm0 4.233a.5.5 0 0 1-.5.5.5.5 0 0 1-.5-.5.5.5 0 0 1 .854-.354.5.5 0 0 1 .146.354zm4.233-4.233a.5.5 0 0 1-.5.5.5.5 0 0 1-.5-.5.5.5 0 0 1 .854-.354.5.5 0 0 1 .146.354zm2.117 0a.5.5 0 0 1-.5.5.5.5 0 0 1-.5-.5.5.5 0 0 1 .854-.354.5.5 0 0 1 .146.354zm0 4.233a.5.5 0 0 1-.5.5.5.5 0 0 1-.5-.5.5.5 0 0 1 .854-.354.5.5 0 0 1 .146.354zm3.175-2.117a.5.5 0 0 1-.5.5.5.5 0 0 1-.5-.5.5.5 0 0 1 .854-.354.5.5 0 0 1 .146.354zm2.117 0a.5.5 0 0 1-.5.5.5.5 0 0 1-.5-.5.5.5 0 0 1 .854-.354.5.5 0 0 1 .146.354zm-3.175 2.117a.5.5 0 0 1-.5.5.5.5 0 0 1-.5-.5.5.5 0 0 1 .854-.354.5.5 0 0 1 .146.354zm0-4.233a.5.5 0 0 1-.5.5.5.5 0 0 1-.5-.5.5.5 0 0 1 .854-.354.5.5 0 0 1 .146.354zm2.117 0a.5.5 0 0 1-.5.5.5.5 0 0 1-.5-.5.5.5 0 0 1 .854-.354.5.5 0 0 1 .146.354zm0 4.233a.5.5 0 0 1-.5.5.5.5 0 0 1-.5-.5.5.5 0 0 1 .854-.354.5.5 0 0 1 .146.354zm2.117-4.233a.5.5 0 0 1-.5.5.5.5 0 0 1-.5-.5.5.5 0 0 1 .854-.354.5.5 0 0 1 .146.354zm0 4.233a.5.5 0 0 1-.5.5.5.5 0 0 1-.5-.5.5.5 0 0 1 .854-.354.5.5 0 0 1 .146.354zm-10.583 0a.5.5 0 0 1-.5.5.5.5 0 0 1-.5-.5.5.5 0 0 1 .854-.354.5.5 0 0 1 .146.354zm-1.058-2.117a.5.5 0 0 1-.5.5.5.5 0 0 1-.5-.5.5.5 0 0 1 .854-.354.5.5 0 0 1 .146.354zm1.058-2.117a.5.5 0 0 1-.5.5.5.5 0 0 1-.5-.5.5.5 0 0 1 .854-.354.5.5 0 0 1 .146.354zm3.175 2.117a.5.5 0 0 1-.5.5.5.5 0 0 1-.5-.5.5.5 0 0 1 .854-.354.5.5 0 0 1 .146.354z" clip-path="url(#A)" fill="#b48f81" paint-order="markers fill stroke"/><g transform="rotate(5)"><rect x="682.56" y="-483.79" width="32.295" height="39.425" rx="2.175" ry="2.053" fill="#eae7e7" style="mix-blend-mode:multiply" paint-order="markers fill stroke"/><rect x="681.25" y="-484.92" width="30.681" height="37.453" rx="2.066" ry="1.951" paint-order="markers fill stroke" fill="#fff"/></g><g transform="matrix(.94638 .082798 -.082798 .94638 171.55 -317.36)" fill="#fff" stroke="#b48f81" stroke-linejoin="round" stroke-width="2"><circle cx="582.52" cy="-163.23" r="1.825" paint-order="markers fill stroke"/><rect x="566.37" y="-161.94" width="32.295" height="39.425" rx="2.175" ry="2.053" paint-order="markers fill stroke"/><rect x="577.47" y="-161.92" width="10.1" height="2.607" rx="1.52" ry="2.607" paint-order="markers fill stroke"/></g><path d="M659.63-136.41c-1.416.146-2.537 1.36-2.537 2.812a2.81 2.81 0 0 0 .014.283h-11.161c-1.712 0-3.176 1.347-3.176 3.053v35.318c0 1.706 1.464 3.052 3.176 3.052h27.944c1.712 0 3.176-1.347 3.176-3.053v-35.318c0-1.706-1.464-3.053-3.176-3.053h-11.161l.014-.283c0-1.548-1.278-2.826-2.826-2.826-.097 0-.193.005-.287.015zm.201 1.99l.086-.004a.81.81 0 0 1 .826.826c0 .1-.017.196-.047.283h-1.556a.87.87 0 0 1-.047-.284c0-.438.314-.78.738-.821zm-14.013 3.111l.128-.006h7.947a2.19 2.19 0 0 0-.025.328c0 1.348 1.217 2.303 2.519 2.303h7.061c1.302 0 2.519-.955 2.519-2.303 0-.112-.009-.222-.025-.328h7.947c.698 0 1.176.484 1.176 1.053v35.318c0 .569-.477 1.053-1.176 1.053h-27.943c-.698 0-1.176-.484-1.176-1.053v-35.318c0-.533.42-.992 1.047-1.047zm10.501.022l.069-.003h7.06c.382 0 .52.206.52.302s-.138.303-.52.303h-7.06c-.382 0-.52-.206-.52-.302 0-.09.121-.277.45-.3z" fill="url(#B)" opacity=".699" style="mix-blend-mode:multiply" paint-order="markers fill stroke" transform="matrix(.94638 .082798 -.082798 .94638 100.75 -351.81)"/><g fill="red"><path d="M712.15-395.2c-.003.06-.021.121-.026.181l-.007-.15c.003-.006.015-.017.032-.031z" style="mix-blend-mode:multiply" paint-order="markers fill stroke"/><use xlink:href="#C" style="mix-blend-mode:multiply" paint-order="markers fill stroke"/></g><use xlink:href="#C" fill="#bd1f0c" opacity=".6" style="mix-blend-mode:multiply" paint-order="markers fill stroke"/><path d="M736.31-426.29l.001.001a2.7 2.7 0 0 0-2.632 2.45l-.01.272-10.561-.924c-1.62-.142-3.117 1.012-3.258 2.626l-.93 10.625-.991.366c-1.935.709-3.894 1.436-5.949 1.705-.728.103-.582 1.133.146 1.029l.693-.141 1.326-.472 1.847-.588 2.183-.847.676-.269-.727 8.308c-1.407.339-2.732.985-3.413 1.63-.677.753-.078 1.235.674.803.513-.294 1.556-.971 2.652-1.442l-.653 7.461c-.556.112-.967.295-.655.666.081.081.296.131.582.16l-.388 4.43c-.117 1.341.746 2.522 1.969 2.967l-.021.244c-.099 1.133.788 2.13 1.988 2.235l27.839 2.435c1.2.105 2.247-.723 2.346-1.856l1.06-12.113c.699.223 1.329.567 1.854 1.086a.71.71 0 0 0 .687-1.235l-.321-.192c-.454-.228-.482-.2-1.006-.327l-1.15-.054.572-6.534c2.294.312 2.327-.302 1.392-.747-.407-.194-.844-.252-1.306-.236l.696-7.954c.251.051.493.124.716.245 1.171.636 2.354 1.4 3.044 1.422.689.097.827-.878.138-.975-.84.053-1.432-.417-2.286-1.044-.584-.328-.996-.533-1.527-.617l.517-5.91c.096-1.097-.732-2.063-1.874-2.219-.255-1.255-1.351-2.242-2.697-2.36l-10.563-.924.037-.267c.002-.019-.002-.036-.001-.055a2.62 2.62 0 0 0-.006-.435l-.011-.101a2.64 2.64 0 0 0-.094-.424l-.025-.077a2.69 2.69 0 0 0-.18-.412l-.029-.053a2.73 2.73 0 0 0-.264-.382l-.028-.034a2.74 2.74 0 0 0-.346-.341c-.144-.117-.285-.211-.435-.292l-.008-.004c-.307-.164-.651-.27-1.018-.302l-.273-.01zm.029 1.902l.082.004a.82.82 0 0 1 .303.087c.088.046.164.108.227.182.068.083.11.163.14.25l.012.04c.023.082.032.169.027.26l-.002.028-.005.041v.001c-.009.066-.025.128-.048.187l-.016.039-1.466-.128c-.021-.086-.029-.177-.021-.272.036-.415.361-.712.766-.716zm-22.866 8.428c-.094-.003-.194.033-.286.124l-.853.892-2.49 2.453-.736.681-.72.624-1.289 1.028c-.153-.308-.3-.62-.391-.952a.49.49 0 0 0-.873.433l.058.082c.062.101.163.293.213.391l.311.665c.112.198.198.43.508.427.412-.003.666-.333.914-.587l.431-.452.552-.572 3.966-3.748.914-.849c.274-.273.054-.632-.228-.641zm.056 9.262c-.072-.004-.149.022-.221.09l-2.323 2.301-1.921 1.788-.897.796-1.41 1.203c-.165-.309-.422-.722-.545-1.18a.49.49 0 0 0-.893.392c.255.409.457.848.657 1.286.079.144.207.445.402.484.563.111.687-.11 1.028-.478l.509-.594.648-.718c1.596-1.74 3.371-3.3 5.129-4.873.215-.204.052-.483-.164-.496zm-.58 10.746c-.058-.001-.119.023-.175.08l-3.581 3.678-1.413 1.222c-.098.074-.237.104-.308.205-.029.041-.098-.042-.141-.143l-.266-.718c-.108-.313-.214-.631-.267-.96-.006-.036-.004-.074-.006-.11a.49.49 0 0 0-.954.209c.282.603.502 1.233.722 1.861.039.108.056.227.117.325.221.358.45.543.938.381.237-.079.412-.282.597-.45.275-.249 1.144-1.253 1.336-1.47l2.689-2.863.858-.852c.166-.171.027-.391-.147-.393zm45.382 1.513a.809.724 33.804 0 0-.482.293.809.724 33.804 0 0 .269 1.052.809.724 33.804 0 0 1.075-.151.809.724 33.804 0 0-.269-1.052.809.724 33.804 0 0-.593-.142z" fill="#ebe0b7" style="mix-blend-mode:multiply" paint-order="markers fill stroke"/></g></svg>