<svg width="256.216" height="196.313" viewBox="0 0 67.79 51.941" xmlns:xlink="http://www.w3.org/1999/xlink" xmlns="http://www.w3.org/2000/svg"><defs><linearGradient xlink:href="#a" id="c" x1="640.521" y1="-136.896" x2="663.923" y2="-93.438" gradientUnits="userSpaceOnUse"/><linearGradient id="a"><stop style="stop-color:#967677;stop-opacity:1" offset="0"/><stop style="stop-color:#967677;stop-opacity:0" offset="1"/></linearGradient><clipPath clipPathUnits="userSpaceOnUse" id="b"><rect style="fill:#d45145;fill-opacity:1;stroke:none;stroke-width:2;stroke-linecap:round;stroke-linejoin:round;stroke-miterlimit:4;stroke-dasharray:none;paint-order:markers fill stroke" width="32.295" height="39.425" x="668.21" y="-397.212" rx="2.175" ry="2.053"/></clipPath></defs><g transform="translate(-996.356 462.153)"><path style="fill:#b48f81;stroke-width:.0299333;stroke-linecap:round;stroke-linejoin:round;paint-order:markers fill stroke" d="M702.585-381.593a.5.5 0 0 1-.5.5.5.5 0 0 1-.5-.5.5.5 0 0 1 .5-.5.5.5 0 0 1 .5.5zm-1.058-2.117a.5.5 0 0 1-.5.5.5.5 0 0 1-.5-.5.5.5 0 0 1 .5-.5.5.5 0 0 1 .5.5zm1.058-2.117a.5.5 0 0 1-.5.5.5.5 0 0 1-.5-.5.5.5 0 0 1 .5-.5.5.5 0 0 1 .5.5zm-2.117 4.234a.5.5 0 0 1-.5.5.5.5 0 0 1-.5-.5.5.5 0 0 1 .5-.5.5.5 0 0 1 .5.5zm-1.058-2.117a.5.5 0 0 1-.5.5.5.5 0 0 1-.5-.5.5.5 0 0 1 .5-.5.5.5 0 0 1 .5.5zm1.058-2.117a.5.5 0 0 1-.5.5.5.5 0 0 1-.5-.5.5.5 0 0 1 .5-.5.5.5 0 0 1 .5.5zm-10.583 4.234a.5.5 0 0 1-.5.5.5.5 0 0 1-.5-.5.5.5 0 0 1 .5-.5.5.5 0 0 1 .5.5zm-1.058-2.117a.5.5 0 0 1-.5.5.5.5 0 0 1-.5-.5.5.5 0 0 1 .5-.5.5.5 0 0 1 .5.5zm4.233 0a.5.5 0 0 1-.5.5.5.5 0 0 1-.5-.5.5.5 0 0 1 .5-.5.5.5 0 0 1 .5.5zm-3.175-2.117a.5.5 0 0 1-.5.5.5.5 0 0 1-.5-.5.5.5 0 0 1 .5-.5.5.5 0 0 1 .5.5zm2.117 0a.5.5 0 0 1-.5.5.5.5 0 0 1-.5-.5.5.5 0 0 1 .5-.5.5.5 0 0 1 .5.5zm0 4.234a.5.5 0 0 1-.5.5.5.5 0 0 1-.5-.5.5.5 0 0 1 .5-.5.5.5 0 0 1 .5.5zm3.175-2.117a.5.5 0 0 1-.5.5.5.5 0 0 1-.5-.5.5.5 0 0 1 .5-.5.5.5 0 0 1 .5.5zm2.116 0a.5.5 0 0 1-.5.5.5.5 0 0 1-.5-.5.5.5 0 0 1 .5-.5.5.5 0 0 1 .5.5zm-3.175 2.117a.5.5 0 0 1-.5.5.5.5 0 0 1-.5-.5.5.5 0 0 1 .5-.5.5.5 0 0 1 .5.5zm0-4.234a.5.5 0 0 1-.5.5.5.5 0 0 1-.5-.5.5.5 0 0 1 .5-.5.5.5 0 0 1 .5.5zm2.117 0a.5.5 0 0 1-.5.5.5.5 0 0 1-.5-.5.5.5 0 0 1 .5-.5.5.5 0 0 1 .5.5zm0 4.234a.5.5 0 0 1-.5.5.5.5 0 0 1-.5-.5.5.5 0 0 1 .5-.5.5.5 0 0 1 .5.5zm2.117-4.234a.5.5 0 0 1-.5.5.5.5 0 0 1-.5-.5.5.5 0 0 1 .5-.5.5.5 0 0 1 .5.5zm0 4.234a.5.5 0 0 1-.5.5.5.5 0 0 1-.5-.5.5.5 0 0 1 .5-.5.5.5 0 0 1 .5.5zm-10.584 0a.5.5 0 0 1-.5.5.5.5 0 0 1-.5-.5.5.5 0 0 1 .5-.5.5.5 0 0 1 .5.5zm-1.058-2.117a.5.5 0 0 1-.5.5.5.5 0 0 1-.5-.5.5.5 0 0 1 .5-.5.5.5 0 0 1 .5.5zm1.058-2.117a.5.5 0 0 1-.5.5.5.5 0 0 1-.5-.5.5.5 0 0 1 .5-.5.5.5 0 0 1 .5.5zm3.175 2.117a.5.5 0 0 1-.5.5.5.5 0 0 1-.5-.5.5.5 0 0 1 .5-.5.5.5 0 0 1 .5.5zm-13.758 2.117a.5.5 0 0 1-.5.5.5.5 0 0 1-.5-.5.5.5 0 0 1 .5-.5.5.5 0 0 1 .5.5zm-1.058-2.117a.5.5 0 0 1-.5.5.5.5 0 0 1-.5-.5.5.5 0 0 1 .5-.5.5.5 0 0 1 .5.5zm4.233 0a.5.5 0 0 1-.5.5.5.5 0 0 1-.5-.5.5.5 0 0 1 .5-.5.5.5 0 0 1 .5.5zm-12.7 0a.5.5 0 0 1-.5.5.5.5 0 0 1-.5-.5.5.5 0 0 1 .5-.5.5.5 0 0 1 .5.5zm2.117 0a.5.5 0 0 1-.5.5.5.5 0 0 1-.5-.5.5.5 0 0 1 .5-.5.5.5 0 0 1 .5.5zm2.116 0a.5.5 0 0 1-.5.5.5.5 0 0 1-.5-.5.5.5 0 0 1 .5-.5.5.5 0 0 1 .5.5zm-3.175 2.117a.5.5 0 0 1-.5.5.5.5 0 0 1-.5-.5.5.5 0 0 1 .5-.5.5.5 0 0 1 .5.5zm0-4.234a.5.5 0 0 1-.5.5.5.5 0 0 1-.5-.5.5.5 0 0 1 .5-.5.5.5 0 0 1 .5.5zm2.117 0a.5.5 0 0 1-.5.5.5.5 0 0 1-.5-.5.5.5 0 0 1 .5-.5.5.5 0 0 1 .5.5zm0 4.234a.5.5 0 0 1-.5.5.5.5 0 0 1-.5-.5.5.5 0 0 1 .5-.5.5.5 0 0 1 .5.5zm2.117-4.234a.5.5 0 0 1-.5.5.5.5 0 0 1-.5-.5.5.5 0 0 1 .5-.5.5.5 0 0 1 .5.5zm0 4.234a.5.5 0 0 1-.5.5.5.5 0 0 1-.5-.5.5.5 0 0 1 .5-.5.5.5 0 0 1 .5.5zm4.233-4.234a.5.5 0 0 1-.5.5.5.5 0 0 1-.5-.5.5.5 0 0 1 .5-.5.5.5 0 0 1 .5.5zm2.117 0a.5.5 0 0 1-.5.5.5.5 0 0 1-.5-.5.5.5 0 0 1 .5-.5.5.5 0 0 1 .5.5zm0 4.234a.5.5 0 0 1-.5.5.5.5 0 0 1-.5-.5.5.5 0 0 1 .5-.5.5.5 0 0 1 .5.5zm3.175-2.117a.5.5 0 0 1-.5.5.5.5 0 0 1-.5-.5.5.5 0 0 1 .5-.5.5.5 0 0 1 .5.5zm2.116 0a.5.5 0 0 1-.5.5.5.5 0 0 1-.5-.5.5.5 0 0 1 .5-.5.5.5 0 0 1 .5.5zm-3.175 2.117a.5.5 0 0 1-.5.5.5.5 0 0 1-.5-.5.5.5 0 0 1 .5-.5.5.5 0 0 1 .5.5zm0-4.234a.5.5 0 0 1-.5.5.5.5 0 0 1-.5-.5.5.5 0 0 1 .5-.5.5.5 0 0 1 .5.5zm2.117 0a.5.5 0 0 1-.5.5.5.5 0 0 1-.5-.5.5.5 0 0 1 .5-.5.5.5 0 0 1 .5.5zm0 4.234a.5.5 0 0 1-.5.5.5.5 0 0 1-.5-.5.5.5 0 0 1 .5-.5.5.5 0 0 1 .5.5zm2.117-4.234a.5.5 0 0 1-.5.5.5.5 0 0 1-.5-.5.5.5 0 0 1 .5-.5.5.5 0 0 1 .5.5zm0 4.234a.5.5 0 0 1-.5.5.5.5 0 0 1-.5-.5.5.5 0 0 1 .5-.5.5.5 0 0 1 .5.5zm-10.584 0a.5.5 0 0 1-.5.5.5.5 0 0 1-.5-.5.5.5 0 0 1 .5-.5.5.5 0 0 1 .5.5zm-1.058-2.117a.5.5 0 0 1-.5.5.5.5 0 0 1-.5-.5.5.5 0 0 1 .5-.5.5.5 0 0 1 .5.5zm1.058-2.117a.5.5 0 0 1-.5.5.5.5 0 0 1-.5-.5.5.5 0 0 1 .5-.5.5.5 0 0 1 .5.5zm3.175 2.117a.5.5 0 0 1-.5.5.5.5 0 0 1-.5-.5.5.5 0 0 1 .5-.5.5.5 0 0 1 .5.5zm24.342-6.35a.5.5 0 0 1-.5.5.5.5 0 0 1-.5-.5.5.5 0 0 1 .5-.5.5.5 0 0 1 .5.5zm-1.058 2.117a.5.5 0 0 1-.5.5.5.5 0 0 1-.5-.5.5.5 0 0 1 .5-.5.5.5 0 0 1 .5.5zm-1.059-2.117a.5.5 0 0 1-.5.5.5.5 0 0 1-.5-.5.5.5 0 0 1 .5-.5.5.5 0 0 1 .5.5zm1.059-2.117a.5.5 0 0 1-.5.5.5.5 0 0 1-.5-.5.5.5 0 0 1 .5-.5.5.5 0 0 1 .5.5zm-10.584 4.234a.5.5 0 0 1-.5.5.5.5 0 0 1-.5-.5.5.5 0 0 1 .5-.5.5.5 0 0 1 .5.5zm-1.058-2.117a.5.5 0 0 1-.5.5.5.5 0 0 1-.5-.5.5.5 0 0 1 .5-.5.5.5 0 0 1 .5.5zm4.233 0a.5.5 0 0 1-.5.5.5.5 0 0 1-.5-.5.5.5 0 0 1 .5-.5.5.5 0 0 1 .5.5zm-3.175-2.117a.5.5 0 0 1-.5.5.5.5 0 0 1-.5-.5.5.5 0 0 1 .5-.5.5.5 0 0 1 .5.5zm2.117 0a.5.5 0 0 1-.5.5.5.5 0 0 1-.5-.5.5.5 0 0 1 .5-.5.5.5 0 0 1 .5.5zm0 4.234a.5.5 0 0 1-.5.5.5.5 0 0 1-.5-.5.5.5 0 0 1 .5-.5.5.5 0 0 1 .5.5zm3.175-2.117a.5.5 0 0 1-.5.5.5.5 0 0 1-.5-.5.5.5 0 0 1 .5-.5.5.5 0 0 1 .5.5zm2.117 0a.5.5 0 0 1-.5.5.5.5 0 0 1-.5-.5.5.5 0 0 1 .5-.5.5.5 0 0 1 .5.5zm-3.175 2.117a.5.5 0 0 1-.5.5.5.5 0 0 1-.5-.5.5.5 0 0 1 .5-.5.5.5 0 0 1 .5.5zm0-4.234a.5.5 0 0 1-.5.5.5.5 0 0 1-.5-.5.5.5 0 0 1 .5-.5.5.5 0 0 1 .5.5zm2.116 0a.5.5 0 0 1-.5.5.5.5 0 0 1-.5-.5.5.5 0 0 1 .5-.5.5.5 0 0 1 .5.5zm0 4.234a.5.5 0 0 1-.5.5.5.5 0 0 1-.5-.5.5.5 0 0 1 .5-.5.5.5 0 0 1 .5.5zm2.117-4.234a.5.5 0 0 1-.5.5.5.5 0 0 1-.5-.5.5.5 0 0 1 .5-.5.5.5 0 0 1 .5.5zm0 4.234a.5.5 0 0 1-.5.5.5.5 0 0 1-.5-.5.5.5 0 0 1 .5-.5.5.5 0 0 1 .5.5zm-10.583 0a.5.5 0 0 1-.5.5.5.5 0 0 1-.5-.5.5.5 0 0 1 .5-.5.5.5 0 0 1 .5.5zm-1.059-2.117a.5.5 0 0 1-.5.5.5.5 0 0 1-.5-.5.5.5 0 0 1 .5-.5.5.5 0 0 1 .5.5zm1.059-2.117a.5.5 0 0 1-.5.5.5.5 0 0 1-.5-.5.5.5 0 0 1 .5-.5.5.5 0 0 1 .5.5zm3.175 2.117a.5.5 0 0 1-.5.5.5.5 0 0 1-.5-.5.5.5 0 0 1 .5-.5.5.5 0 0 1 .5.5zm-13.759 2.117a.5.5 0 0 1-.5.5.5.5 0 0 1-.5-.5.5.5 0 0 1 .5-.5.5.5 0 0 1 .5.5zm-1.058-2.117a.5.5 0 0 1-.5.5.5.5 0 0 1-.5-.5.5.5 0 0 1 .5-.5.5.5 0 0 1 .5.5zm4.233 0a.5.5 0 0 1-.5.5.5.5 0 0 1-.5-.5.5.5 0 0 1 .5-.5.5.5 0 0 1 .5.5zm-12.7 0a.5.5 0 0 1-.5.5.5.5 0 0 1-.5-.5.5.5 0 0 1 .5-.5.5.5 0 0 1 .5.5zm-1.058-2.117a.5.5 0 0 1-.5.5.5.5 0 0 1-.5-.5.5.5 0 0 1 .5-.5.5.5 0 0 1 .5.5zm0 4.234a.5.5 0 0 1-.5.5.5.5 0 0 1-.5-.5.5.5 0 0 1 .5-.5.5.5 0 0 1 .5.5zm3.175-2.117a.5.5 0 0 1-.5.5.5.5 0 0 1-.5-.5.5.5 0 0 1 .5-.5.5.5 0 0 1 .5.5zm2.117 0a.5.5 0 0 1-.5.5.5.5 0 0 1-.5-.5.5.5 0 0 1 .5-.5.5.5 0 0 1 .5.5zm-3.175 2.117a.5.5 0 0 1-.5.5.5.5 0 0 1-.5-.5.5.5 0 0 1 .5-.5.5.5 0 0 1 .5.5zm0-4.234a.5.5 0 0 1-.5.5.5.5 0 0 1-.5-.5.5.5 0 0 1 .5-.5.5.5 0 0 1 .5.5zm2.116 0a.5.5 0 0 1-.5.5.5.5 0 0 1-.5-.5.5.5 0 0 1 .5-.5.5.5 0 0 1 .5.5zm0 4.234a.5.5 0 0 1-.5.5.5.5 0 0 1-.5-.5.5.5 0 0 1 .5-.5.5.5 0 0 1 .5.5zm2.117-4.234a.5.5 0 0 1-.5.5.5.5 0 0 1-.5-.5.5.5 0 0 1 .5-.5.5.5 0 0 1 .5.5zm0 4.234a.5.5 0 0 1-.5.5.5.5 0 0 1-.5-.5.5.5 0 0 1 .5-.5.5.5 0 0 1 .5.5zm4.233-4.234a.5.5 0 0 1-.5.5.5.5 0 0 1-.5-.5.5.5 0 0 1 .5-.5.5.5 0 0 1 .5.5zm2.117 0a.5.5 0 0 1-.5.5.5.5 0 0 1-.5-.5.5.5 0 0 1 .5-.5.5.5 0 0 1 .5.5zm0 4.234a.5.5 0 0 1-.5.5.5.5 0 0 1-.5-.5.5.5 0 0 1 .5-.5.5.5 0 0 1 .5.5zm3.175-2.117a.5.5 0 0 1-.5.5.5.5 0 0 1-.5-.5.5.5 0 0 1 .5-.5.5.5 0 0 1 .5.5zm2.117 0a.5.5 0 0 1-.5.5.5.5 0 0 1-.5-.5.5.5 0 0 1 .5-.5.5.5 0 0 1 .5.5zm-3.175 2.117a.5.5 0 0 1-.5.5.5.5 0 0 1-.5-.5.5.5 0 0 1 .5-.5.5.5 0 0 1 .5.5zm0-4.234a.5.5 0 0 1-.5.5.5.5 0 0 1-.5-.5.5.5 0 0 1 .5-.5.5.5 0 0 1 .5.5zm2.116 0a.5.5 0 0 1-.5.5.5.5 0 0 1-.5-.5.5.5 0 0 1 .5-.5.5.5 0 0 1 .5.5zm0 4.234a.5.5 0 0 1-.5.5.5.5 0 0 1-.5-.5.5.5 0 0 1 .5-.5.5.5 0 0 1 .5.5zm2.117-4.234a.5.5 0 0 1-.5.5.5.5 0 0 1-.5-.5.5.5 0 0 1 .5-.5.5.5 0 0 1 .5.5zm0 4.234a.5.5 0 0 1-.5.5.5.5 0 0 1-.5-.5.5.5 0 0 1 .5-.5.5.5 0 0 1 .5.5zm-10.583 0a.5.5 0 0 1-.5.5.5.5 0 0 1-.5-.5.5.5 0 0 1 .5-.5.5.5 0 0 1 .5.5zm-1.059-2.117a.5.5 0 0 1-.5.5.5.5 0 0 1-.5-.5.5.5 0 0 1 .5-.5.5.5 0 0 1 .5.5zm1.059-2.117a.5.5 0 0 1-.5.5.5.5 0 0 1-.5-.5.5.5 0 0 1 .5-.5.5.5 0 0 1 .5.5zm3.175 2.117a.5.5 0 0 1-.5.5.5.5 0 0 1-.5-.5.5.5 0 0 1 .5-.5.5.5 0 0 1 .5.5zm23.283-4.233a.5.5 0 0 1-.5.5.5.5 0 0 1-.5-.5.5.5 0 0 1 .5-.5.5.5 0 0 1 .5.5zm-1.058-2.117a.5.5 0 0 1-.5.5.5.5 0 0 1-.5-.5.5.5 0 0 1 .5-.5.5.5 0 0 1 .5.5zm-1.059 2.117a.5.5 0 0 1-.5.5.5.5 0 0 1-.5-.5.5.5 0 0 1 .5-.5.5.5 0 0 1 .5.5zm-1.058-2.117a.5.5 0 0 1-.5.5.5.5 0 0 1-.5-.5.5.5 0 0 1 .5-.5.5.5 0 0 1 .5.5zm-9.525 2.117a.5.5 0 0 1-.5.5.5.5 0 0 1-.5-.5.5.5 0 0 1 .5-.5.5.5 0 0 1 .5.5zm-1.058-2.117a.5.5 0 0 1-.5.5.5.5 0 0 1-.5-.5.5.5 0 0 1 .5-.5.5.5 0 0 1 .5.5zm4.233 0a.5.5 0 0 1-.5.5.5.5 0 0 1-.5-.5.5.5 0 0 1 .5-.5.5.5 0 0 1 .5.5zm-1.058 2.117a.5.5 0 0 1-.5.5.5.5 0 0 1-.5-.5.5.5 0 0 1 .5-.5.5.5 0 0 1 .5.5zm3.175-2.117a.5.5 0 0 1-.5.5.5.5 0 0 1-.5-.5.5.5 0 0 1 .5-.5.5.5 0 0 1 .5.5zm2.116 0a.5.5 0 0 1-.5.5.5.5 0 0 1-.5-.5.5.5 0 0 1 .5-.5.5.5 0 0 1 .5.5zm-3.175 2.117a.5.5 0 0 1-.5.5.5.5 0 0 1-.5-.5.5.5 0 0 1 .5-.5.5.5 0 0 1 .5.5zm2.117 0a.5.5 0 0 1-.5.5.5.5 0 0 1-.5-.5.5.5 0 0 1 .5-.5.5.5 0 0 1 .5.5zm2.117 0a.5.5 0 0 1-.5.5.5.5 0 0 1-.5-.5.5.5 0 0 1 .5-.5.5.5 0 0 1 .5.5zm-10.584 0a.5.5 0 0 1-.5.5.5.5 0 0 1-.5-.5.5.5 0 0 1 .5-.5.5.5 0 0 1 .5.5zm-1.058-2.117a.5.5 0 0 1-.5.5.5.5 0 0 1-.5-.5.5.5 0 0 1 .5-.5.5.5 0 0 1 .5.5zm4.233 0a.5.5 0 0 1-.5.5.5.5 0 0 1-.5-.5.5.5 0 0 1 .5-.5.5.5 0 0 1 .5.5zm-13.758 2.117a.5.5 0 0 1-.5.5.5.5 0 0 1-.5-.5.5.5 0 0 1 .5-.5.5.5 0 0 1 .5.5zm-1.058-2.117a.5.5 0 0 1-.5.5.5.5 0 0 1-.5-.5.5.5 0 0 1 .5-.5.5.5 0 0 1 .5.5zm4.233 0a.5.5 0 0 1-.5.5.5.5 0 0 1-.5-.5.5.5 0 0 1 .5-.5.5.5 0 0 1 .5.5zm-12.7 0a.5.5 0 0 1-.5.5.5.5 0 0 1-.5-.5.5.5 0 0 1 .5-.5.5.5 0 0 1 .5.5zm2.117 0a.5.5 0 0 1-.5.5.5.5 0 0 1-.5-.5.5.5 0 0 1 .5-.5.5.5 0 0 1 .5.5zm2.116 0a.5.5 0 0 1-.5.5.5.5 0 0 1-.5-.5.5.5 0 0 1 .5-.5.5.5 0 0 1 .5.5zm-3.175 2.117a.5.5 0 0 1-.5.5.5.5 0 0 1-.5-.5.5.5 0 0 1 .5-.5.5.5 0 0 1 .5.5zm2.117 0a.5.5 0 0 1-.5.5.5.5 0 0 1-.5-.5.5.5 0 0 1 .5-.5.5.5 0 0 1 .5.5zm2.117 0a.5.5 0 0 1-.5.5.5.5 0 0 1-.5-.5.5.5 0 0 1 .5-.5.5.5 0 0 1 .5.5zm6.35 0a.5.5 0 0 1-.5.5.5.5 0 0 1-.5-.5.5.5 0 0 1 .5-.5.5.5 0 0 1 .5.5zm3.175-2.117a.5.5 0 0 1-.5.5.5.5 0 0 1-.5-.5.5.5 0 0 1 .5-.5.5.5 0 0 1 .5.5zm2.116 0a.5.5 0 0 1-.5.5.5.5 0 0 1-.5-.5.5.5 0 0 1 .5-.5.5.5 0 0 1 .5.5zm-3.175 2.117a.5.5 0 0 1-.5.5.5.5 0 0 1-.5-.5.5.5 0 0 1 .5-.5.5.5 0 0 1 .5.5zm2.117 0a.5.5 0 0 1-.5.5.5.5 0 0 1-.5-.5.5.5 0 0 1 .5-.5.5.5 0 0 1 .5.5zm2.117 0a.5.5 0 0 1-.5.5.5.5 0 0 1-.5-.5.5.5 0 0 1 .5-.5.5.5 0 0 1 .5.5zm-10.584 0a.5.5 0 0 1-.5.5.5.5 0 0 1-.5-.5.5.5 0 0 1 .5-.5.5.5 0 0 1 .5.5zm-1.058-2.117a.5.5 0 0 1-.5.5.5.5 0 0 1-.5-.5.5.5 0 0 1 .5-.5.5.5 0 0 1 .5.5zm4.233 0a.5.5 0 0 1-.5.5.5.5 0 0 1-.5-.5.5.5 0 0 1 .5-.5.5.5 0 0 1 .5.5zm23.284 38.1a.5.5 0 0 1-.5.5.5.5 0 0 1-.5-.5.5.5 0 0 1 .5-.5.5.5 0 0 1 .5.5zm1.058-2.117a.5.5 0 0 1-.5.5.5.5 0 0 1-.5-.5.5.5 0 0 1 .5-.5.5.5 0 0 1 .5.5zm-3.175 2.117a.5.5 0 0 1-.5.5.5.5 0 0 1-.5-.5.5.5 0 0 1 .5-.5.5.5 0 0 1 .5.5zm1.058-2.117a.5.5 0 0 1-.5.5.5.5 0 0 1-.5-.5.5.5 0 0 1 .5-.5.5.5 0 0 1 .5.5zm-11.641 2.117a.5.5 0 0 1-.5.5.5.5 0 0 1-.5-.5.5.5 0 0 1 .5-.5.5.5 0 0 1 .5.5zm4.233 0a.5.5 0 0 1-.5.5.5.5 0 0 1-.5-.5.5.5 0 0 1 .5-.5.5.5 0 0 1 .5.5zm-3.175-2.117a.5.5 0 0 1-.5.5.5.5 0 0 1-.5-.5.5.5 0 0 1 .5-.5.5.5 0 0 1 .5.5zm2.117 0a.5.5 0 0 1-.5.5.5.5 0 0 1-.5-.5.5.5 0 0 1 .5-.5.5.5 0 0 1 .5.5zm3.175 2.117a.5.5 0 0 1-.5.5.5.5 0 0 1-.5-.5.5.5 0 0 1 .5-.5.5.5 0 0 1 .5.5zm2.116 0a.5.5 0 0 1-.5.5.5.5 0 0 1-.5-.5.5.5 0 0 1 .5-.5.5.5 0 0 1 .5.5zm-3.175-2.117a.5.5 0 0 1-.5.5.5.5 0 0 1-.5-.5.5.5 0 0 1 .5-.5.5.5 0 0 1 .5.5zm2.117 0a.5.5 0 0 1-.5.5.5.5 0 0 1-.5-.5.5.5 0 0 1 .5-.5.5.5 0 0 1 .5.5zm2.117 0a.5.5 0 0 1-.5.5.5.5 0 0 1-.5-.5.5.5 0 0 1 .5-.5.5.5 0 0 1 .5.5zm-11.642 2.117a.5.5 0 0 1-.5.5.5.5 0 0 1-.5-.5.5.5 0 0 1 .5-.5.5.5 0 0 1 .5.5zm1.058-2.117a.5.5 0 0 1-.5.5.5.5 0 0 1-.5-.5.5.5 0 0 1 .5-.5.5.5 0 0 1 .5.5zm3.175 2.117a.5.5 0 0 1-.5.5.5.5 0 0 1-.5-.5.5.5 0 0 1 .5-.5.5.5 0 0 1 .5.5zm-14.816 0a.5.5 0 0 1-.5.5.5.5 0 0 1-.5-.5.5.5 0 0 1 .5-.5.5.5 0 0 1 .5.5zm4.233 0a.5.5 0 0 1-.5.5.5.5 0 0 1-.5-.5.5.5 0 0 1 .5-.5.5.5 0 0 1 .5.5zm-12.7 0a.5.5 0 0 1-.5.5.5.5 0 0 1-.5-.5.5.5 0 0 1 .5-.5.5.5 0 0 1 .5.5zm2.117 0a.5.5 0 0 1-.5.5.5.5 0 0 1-.5-.5.5.5 0 0 1 .5-.5.5.5 0 0 1 .5.5zm2.116 0a.5.5 0 0 1-.5.5.5.5 0 0 1-.5-.5.5.5 0 0 1 .5-.5.5.5 0 0 1 .5.5zm-3.175-2.117a.5.5 0 0 1-.5.5.5.5 0 0 1-.5-.5.5.5 0 0 1 .5-.5.5.5 0 0 1 .5.5zm2.117 0a.5.5 0 0 1-.5.5.5.5 0 0 1-.5-.5.5.5 0 0 1 .5-.5.5.5 0 0 1 .5.5zm2.117 0a.5.5 0 0 1-.5.5.5.5 0 0 1-.5-.5.5.5 0 0 1 .5-.5.5.5 0 0 1 .5.5zm4.233 0a.5.5 0 0 1-.5.5.5.5 0 0 1-.5-.5.5.5 0 0 1 .5-.5.5.5 0 0 1 .5.5zm2.117 0a.5.5 0 0 1-.5.5.5.5 0 0 1-.5-.5.5.5 0 0 1 .5-.5.5.5 0 0 1 .5.5zm3.175 2.117a.5.5 0 0 1-.5.5.5.5 0 0 1-.5-.5.5.5 0 0 1 .5-.5.5.5 0 0 1 .5.5zm2.116 0a.5.5 0 0 1-.5.5.5.5 0 0 1-.5-.5.5.5 0 0 1 .5-.5.5.5 0 0 1 .5.5zm-3.175-2.117a.5.5 0 0 1-.5.5.5.5 0 0 1-.5-.5.5.5 0 0 1 .5-.5.5.5 0 0 1 .5.5zm2.117 0a.5.5 0 0 1-.5.5.5.5 0 0 1-.5-.5.5.5 0 0 1 .5-.5.5.5 0 0 1 .5.5zm2.117 0a.5.5 0 0 1-.5.5.5.5 0 0 1-.5-.5.5.5 0 0 1 .5-.5.5.5 0 0 1 .5.5zm-11.642 2.117a.5.5 0 0 1-.5.5.5.5 0 0 1-.5-.5.5.5 0 0 1 .5-.5.5.5 0 0 1 .5.5zm1.058-2.117a.5.5 0 0 1-.5.5.5.5 0 0 1-.5-.5.5.5 0 0 1 .5-.5.5.5 0 0 1 .5.5zm3.175 2.117a.5.5 0 0 1-.5.5.5.5 0 0 1-.5-.5.5.5 0 0 1 .5-.5.5.5 0 0 1 .5.5zm24.342-6.35a.5.5 0 0 1-.5.5.5.5 0 0 1-.5-.5.5.5 0 0 1 .5-.5.5.5 0 0 1 .5.5zm-1.058 2.117a.5.5 0 0 1-.5.5.5.5 0 0 1-.5-.5.5.5 0 0 1 .5-.5.5.5 0 0 1 .5.5zm-1.059-2.117a.5.5 0 0 1-.5.5.5.5 0 0 1-.5-.5.5.5 0 0 1 .5-.5.5.5 0 0 1 .5.5zm1.059-2.117a.5.5 0 0 1-.5.5.5.5 0 0 1-.5-.5.5.5 0 0 1 .5-.5.5.5 0 0 1 .5.5zm-10.584 4.234a.5.5 0 0 1-.5.5.5.5 0 0 1-.5-.5.5.5 0 0 1 .5-.5.5.5 0 0 1 .5.5zm-1.058-2.117a.5.5 0 0 1-.5.5.5.5 0 0 1-.5-.5.5.5 0 0 1 .5-.5.5.5 0 0 1 .5.5zm4.233 0a.5.5 0 0 1-.5.5.5.5 0 0 1-.5-.5.5.5 0 0 1 .5-.5.5.5 0 0 1 .5.5zm-3.175-2.117a.5.5 0 0 1-.5.5.5.5 0 0 1-.5-.5.5.5 0 0 1 .5-.5.5.5 0 0 1 .5.5zm2.117 0a.5.5 0 0 1-.5.5.5.5 0 0 1-.5-.5.5.5 0 0 1 .5-.5.5.5 0 0 1 .5.5zm0 4.234a.5.5 0 0 1-.5.5.5.5 0 0 1-.5-.5.5.5 0 0 1 .5-.5.5.5 0 0 1 .5.5zm3.175-2.117a.5.5 0 0 1-.5.5.5.5 0 0 1-.5-.5.5.5 0 0 1 .5-.5.5.5 0 0 1 .5.5zm2.117 0a.5.5 0 0 1-.5.5.5.5 0 0 1-.5-.5.5.5 0 0 1 .5-.5.5.5 0 0 1 .5.5zm-3.175 2.117a.5.5 0 0 1-.5.5.5.5 0 0 1-.5-.5.5.5 0 0 1 .5-.5.5.5 0 0 1 .5.5zm0-4.234a.5.5 0 0 1-.5.5.5.5 0 0 1-.5-.5.5.5 0 0 1 .5-.5.5.5 0 0 1 .5.5zm2.116 0a.5.5 0 0 1-.5.5.5.5 0 0 1-.5-.5.5.5 0 0 1 .5-.5.5.5 0 0 1 .5.5zm0 4.234a.5.5 0 0 1-.5.5.5.5 0 0 1-.5-.5.5.5 0 0 1 .5-.5.5.5 0 0 1 .5.5zm2.117-4.234a.5.5 0 0 1-.5.5.5.5 0 0 1-.5-.5.5.5 0 0 1 .5-.5.5.5 0 0 1 .5.5zm0 4.234a.5.5 0 0 1-.5.5.5.5 0 0 1-.5-.5.5.5 0 0 1 .5-.5.5.5 0 0 1 .5.5zm-10.583 0a.5.5 0 0 1-.5.5.5.5 0 0 1-.5-.5.5.5 0 0 1 .5-.5.5.5 0 0 1 .5.5zm-1.059-2.117a.5.5 0 0 1-.5.5.5.5 0 0 1-.5-.5.5.5 0 0 1 .5-.5.5.5 0 0 1 .5.5zm1.059-2.117a.5.5 0 0 1-.5.5.5.5 0 0 1-.5-.5.5.5 0 0 1 .5-.5.5.5 0 0 1 .5.5zm3.175 2.117a.5.5 0 0 1-.5.5.5.5 0 0 1-.5-.5.5.5 0 0 1 .5-.5.5.5 0 0 1 .5.5zm-13.759 2.117a.5.5 0 0 1-.5.5.5.5 0 0 1-.5-.5.5.5 0 0 1 .5-.5.5.5 0 0 1 .5.5zm-1.058-2.117a.5.5 0 0 1-.5.5.5.5 0 0 1-.5-.5.5.5 0 0 1 .5-.5.5.5 0 0 1 .5.5zm4.233 0a.5.5 0 0 1-.5.5.5.5 0 0 1-.5-.5.5.5 0 0 1 .5-.5.5.5 0 0 1 .5.5zm-12.7 0a.5.5 0 0 1-.5.5.5.5 0 0 1-.5-.5.5.5 0 0 1 .5-.5.5.5 0 0 1 .5.5zm-1.058-2.117a.5.5 0 0 1-.5.5.5.5 0 0 1-.5-.5.5.5 0 0 1 .5-.5.5.5 0 0 1 .5.5zm0 4.234a.5.5 0 0 1-.5.5.5.5 0 0 1-.5-.5.5.5 0 0 1 .5-.5.5.5 0 0 1 .5.5zm3.175-2.117a.5.5 0 0 1-.5.5.5.5 0 0 1-.5-.5.5.5 0 0 1 .5-.5.5.5 0 0 1 .5.5zm2.117 0a.5.5 0 0 1-.5.5.5.5 0 0 1-.5-.5.5.5 0 0 1 .5-.5.5.5 0 0 1 .5.5zm-3.175 2.117a.5.5 0 0 1-.5.5.5.5 0 0 1-.5-.5.5.5 0 0 1 .5-.5.5.5 0 0 1 .5.5zm0-4.234a.5.5 0 0 1-.5.5.5.5 0 0 1-.5-.5.5.5 0 0 1 .5-.5.5.5 0 0 1 .5.5zm2.116 0a.5.5 0 0 1-.5.5.5.5 0 0 1-.5-.5.5.5 0 0 1 .5-.5.5.5 0 0 1 .5.5zm0 4.234a.5.5 0 0 1-.5.5.5.5 0 0 1-.5-.5.5.5 0 0 1 .5-.5.5.5 0 0 1 .5.5zm2.117-4.234a.5.5 0 0 1-.5.5.5.5 0 0 1-.5-.5.5.5 0 0 1 .5-.5.5.5 0 0 1 .5.5zm0 4.234a.5.5 0 0 1-.5.5.5.5 0 0 1-.5-.5.5.5 0 0 1 .5-.5.5.5 0 0 1 .5.5zm4.233-4.234a.5.5 0 0 1-.5.5.5.5 0 0 1-.5-.5.5.5 0 0 1 .5-.5.5.5 0 0 1 .5.5zm2.117 0a.5.5 0 0 1-.5.5.5.5 0 0 1-.5-.5.5.5 0 0 1 .5-.5.5.5 0 0 1 .5.5zm0 4.234a.5.5 0 0 1-.5.5.5.5 0 0 1-.5-.5.5.5 0 0 1 .5-.5.5.5 0 0 1 .5.5zm3.175-2.117a.5.5 0 0 1-.5.5.5.5 0 0 1-.5-.5.5.5 0 0 1 .5-.5.5.5 0 0 1 .5.5zm2.117 0a.5.5 0 0 1-.5.5.5.5 0 0 1-.5-.5.5.5 0 0 1 .5-.5.5.5 0 0 1 .5.5zm-3.175 2.117a.5.5 0 0 1-.5.5.5.5 0 0 1-.5-.5.5.5 0 0 1 .5-.5.5.5 0 0 1 .5.5zm0-4.234a.5.5 0 0 1-.5.5.5.5 0 0 1-.5-.5.5.5 0 0 1 .5-.5.5.5 0 0 1 .5.5zm2.116 0a.5.5 0 0 1-.5.5.5.5 0 0 1-.5-.5.5.5 0 0 1 .5-.5.5.5 0 0 1 .5.5zm0 4.234a.5.5 0 0 1-.5.5.5.5 0 0 1-.5-.5.5.5 0 0 1 .5-.5.5.5 0 0 1 .5.5zm2.117-4.234a.5.5 0 0 1-.5.5.5.5 0 0 1-.5-.5.5.5 0 0 1 .5-.5.5.5 0 0 1 .5.5zm0 4.234a.5.5 0 0 1-.5.5.5.5 0 0 1-.5-.5.5.5 0 0 1 .5-.5.5.5 0 0 1 .5.5zm-10.583 0a.5.5 0 0 1-.5.5.5.5 0 0 1-.5-.5.5.5 0 0 1 .5-.5.5.5 0 0 1 .5.5zm-1.059-2.117a.5.5 0 0 1-.5.5.5.5 0 0 1-.5-.5.5.5 0 0 1 .5-.5.5.5 0 0 1 .5.5zm1.059-2.117a.5.5 0 0 1-.5.5.5.5 0 0 1-.5-.5.5.5 0 0 1 .5-.5.5.5 0 0 1 .5.5zm3.175 2.117a.5.5 0 0 1-.5.5.5.5 0 0 1-.5-.5.5.5 0 0 1 .5-.5.5.5 0 0 1 .5.5zm23.283-4.233a.5.5 0 0 1-.5.5.5.5 0 0 1-.5-.5.5.5 0 0 1 .5-.5.5.5 0 0 1 .5.5zm-1.058-2.117a.5.5 0 0 1-.5.5.5.5 0 0 1-.5-.5.5.5 0 0 1 .5-.5.5.5 0 0 1 .5.5zm1.058-2.117a.5.5 0 0 1-.5.5.5.5 0 0 1-.5-.5.5.5 0 0 1 .5-.5.5.5 0 0 1 .5.5zm-2.117 4.234a.5.5 0 0 1-.5.5.5.5 0 0 1-.5-.5.5.5 0 0 1 .5-.5.5.5 0 0 1 .5.5zm-1.058-2.117a.5.5 0 0 1-.5.5.5.5 0 0 1-.5-.5.5.5 0 0 1 .5-.5.5.5 0 0 1 .5.5zm1.058-2.117a.5.5 0 0 1-.5.5.5.5 0 0 1-.5-.5.5.5 0 0 1 .5-.5.5.5 0 0 1 .5.5zm-10.583 4.234a.5.5 0 0 1-.5.5.5.5 0 0 1-.5-.5.5.5 0 0 1 .5-.5.5.5 0 0 1 .5.5zm-1.058-2.117a.5.5 0 0 1-.5.5.5.5 0 0 1-.5-.5.5.5 0 0 1 .5-.5.5.5 0 0 1 .5.5zm4.233 0a.5.5 0 0 1-.5.5.5.5 0 0 1-.5-.5.5.5 0 0 1 .5-.5.5.5 0 0 1 .5.5zm-3.175-2.117a.5.5 0 0 1-.5.5.5.5 0 0 1-.5-.5.5.5 0 0 1 .5-.5.5.5 0 0 1 .5.5zm2.117 0a.5.5 0 0 1-.5.5.5.5 0 0 1-.5-.5.5.5 0 0 1 .5-.5.5.5 0 0 1 .5.5zm0 4.234a.5.5 0 0 1-.5.5.5.5 0 0 1-.5-.5.5.5 0 0 1 .5-.5.5.5 0 0 1 .5.5zm3.175-2.117a.5.5 0 0 1-.5.5.5.5 0 0 1-.5-.5.5.5 0 0 1 .5-.5.5.5 0 0 1 .5.5zm2.116 0a.5.5 0 0 1-.5.5.5.5 0 0 1-.5-.5.5.5 0 0 1 .5-.5.5.5 0 0 1 .5.5zm-3.175 2.117a.5.5 0 0 1-.5.5.5.5 0 0 1-.5-.5.5.5 0 0 1 .5-.5.5.5 0 0 1 .5.5zm0-4.234a.5.5 0 0 1-.5.5.5.5 0 0 1-.5-.5.5.5 0 0 1 .5-.5.5.5 0 0 1 .5.5zm2.117 0a.5.5 0 0 1-.5.5.5.5 0 0 1-.5-.5.5.5 0 0 1 .5-.5.5.5 0 0 1 .5.5zm0 4.234a.5.5 0 0 1-.5.5.5.5 0 0 1-.5-.5.5.5 0 0 1 .5-.5.5.5 0 0 1 .5.5zm2.117-4.234a.5.5 0 0 1-.5.5.5.5 0 0 1-.5-.5.5.5 0 0 1 .5-.5.5.5 0 0 1 .5.5zm0 4.234a.5.5 0 0 1-.5.5.5.5 0 0 1-.5-.5.5.5 0 0 1 .5-.5.5.5 0 0 1 .5.5zm-10.584 0a.5.5 0 0 1-.5.5.5.5 0 0 1-.5-.5.5.5 0 0 1 .5-.5.5.5 0 0 1 .5.5zm-1.058-2.117a.5.5 0 0 1-.5.5.5.5 0 0 1-.5-.5.5.5 0 0 1 .5-.5.5.5 0 0 1 .5.5zm1.058-2.117a.5.5 0 0 1-.5.5.5.5 0 0 1-.5-.5.5.5 0 0 1 .5-.5.5.5 0 0 1 .5.5zm3.175 2.117a.5.5 0 0 1-.5.5.5.5 0 0 1-.5-.5.5.5 0 0 1 .5-.5.5.5 0 0 1 .5.5zm-13.758 2.117a.5.5 0 0 1-.5.5.5.5 0 0 1-.5-.5.5.5 0 0 1 .5-.5.5.5 0 0 1 .5.5zm-1.058-2.117a.5.5 0 0 1-.5.5.5.5 0 0 1-.5-.5.5.5 0 0 1 .5-.5.5.5 0 0 1 .5.5zm4.233 0a.5.5 0 0 1-.5.5.5.5 0 0 1-.5-.5.5.5 0 0 1 .5-.5.5.5 0 0 1 .5.5zm-12.7 0a.5.5 0 0 1-.5.5.5.5 0 0 1-.5-.5.5.5 0 0 1 .5-.5.5.5 0 0 1 .5.5zm2.117 0a.5.5 0 0 1-.5.5.5.5 0 0 1-.5-.5.5.5 0 0 1 .5-.5.5.5 0 0 1 .5.5zm2.116 0a.5.5 0 0 1-.5.5.5.5 0 0 1-.5-.5.5.5 0 0 1 .5-.5.5.5 0 0 1 .5.5zm-3.175 2.117a.5.5 0 0 1-.5.5.5.5 0 0 1-.5-.5.5.5 0 0 1 .5-.5.5.5 0 0 1 .5.5zm0-4.234a.5.5 0 0 1-.5.5.5.5 0 0 1-.5-.5.5.5 0 0 1 .5-.5.5.5 0 0 1 .5.5zm2.117 0a.5.5 0 0 1-.5.5.5.5 0 0 1-.5-.5.5.5 0 0 1 .5-.5.5.5 0 0 1 .5.5zm0 4.234a.5.5 0 0 1-.5.5.5.5 0 0 1-.5-.5.5.5 0 0 1 .5-.5.5.5 0 0 1 .5.5zm2.117-4.234a.5.5 0 0 1-.5.5.5.5 0 0 1-.5-.5.5.5 0 0 1 .5-.5.5.5 0 0 1 .5.5zm0 4.234a.5.5 0 0 1-.5.5.5.5 0 0 1-.5-.5.5.5 0 0 1 .5-.5.5.5 0 0 1 .5.5zm4.233-4.234a.5.5 0 0 1-.5.5.5.5 0 0 1-.5-.5.5.5 0 0 1 .5-.5.5.5 0 0 1 .5.5zm2.117 0a.5.5 0 0 1-.5.5.5.5 0 0 1-.5-.5.5.5 0 0 1 .5-.5.5.5 0 0 1 .5.5zm0 4.234a.5.5 0 0 1-.5.5.5.5 0 0 1-.5-.5.5.5 0 0 1 .5-.5.5.5 0 0 1 .5.5zm3.175-2.117a.5.5 0 0 1-.5.5.5.5 0 0 1-.5-.5.5.5 0 0 1 .5-.5.5.5 0 0 1 .5.5zm2.116 0a.5.5 0 0 1-.5.5.5.5 0 0 1-.5-.5.5.5 0 0 1 .5-.5.5.5 0 0 1 .5.5zm-3.175 2.117a.5.5 0 0 1-.5.5.5.5 0 0 1-.5-.5.5.5 0 0 1 .5-.5.5.5 0 0 1 .5.5zm0-4.234a.5.5 0 0 1-.5.5.5.5 0 0 1-.5-.5.5.5 0 0 1 .5-.5.5.5 0 0 1 .5.5zm2.117 0a.5.5 0 0 1-.5.5.5.5 0 0 1-.5-.5.5.5 0 0 1 .5-.5.5.5 0 0 1 .5.5zm0 4.234a.5.5 0 0 1-.5.5.5.5 0 0 1-.5-.5.5.5 0 0 1 .5-.5.5.5 0 0 1 .5.5zm2.117-4.234a.5.5 0 0 1-.5.5.5.5 0 0 1-.5-.5.5.5 0 0 1 .5-.5.5.5 0 0 1 .5.5zm0 4.234a.5.5 0 0 1-.5.5.5.5 0 0 1-.5-.5.5.5 0 0 1 .5-.5.5.5 0 0 1 .5.5zm-10.584 0a.5.5 0 0 1-.5.5.5.5 0 0 1-.5-.5.5.5 0 0 1 .5-.5.5.5 0 0 1 .5.5zm-1.058-2.117a.5.5 0 0 1-.5.5.5.5 0 0 1-.5-.5.5.5 0 0 1 .5-.5.5.5 0 0 1 .5.5zm1.058-2.117a.5.5 0 0 1-.5.5.5.5 0 0 1-.5-.5.5.5 0 0 1 .5-.5.5.5 0 0 1 .5.5zm3.175 2.117a.5.5 0 0 1-.5.5.5.5 0 0 1-.5-.5.5.5 0 0 1 .5-.5.5.5 0 0 1 .5.5zm24.342-6.35a.5.5 0 0 1-.5.5.5.5 0 0 1-.5-.5.5.5 0 0 1 .5-.5.5.5 0 0 1 .5.5zm-1.058 2.117a.5.5 0 0 1-.5.5.5.5 0 0 1-.5-.5.5.5 0 0 1 .5-.5.5.5 0 0 1 .5.5zm-1.059-2.117a.5.5 0 0 1-.5.5.5.5 0 0 1-.5-.5.5.5 0 0 1 .5-.5.5.5 0 0 1 .5.5zm1.059-2.117a.5.5 0 0 1-.5.5.5.5 0 0 1-.5-.5.5.5 0 0 1 .5-.5.5.5 0 0 1 .5.5zm-10.584 4.234a.5.5 0 0 1-.5.5.5.5 0 0 1-.5-.5.5.5 0 0 1 .5-.5.5.5 0 0 1 .5.5zm-1.058-2.117a.5.5 0 0 1-.5.5.5.5 0 0 1-.5-.5.5.5 0 0 1 .5-.5.5.5 0 0 1 .5.5zm4.233 0a.5.5 0 0 1-.5.5.5.5 0 0 1-.5-.5.5.5 0 0 1 .5-.5.5.5 0 0 1 .5.5zm-3.175-2.117a.5.5 0 0 1-.5.5.5.5 0 0 1-.5-.5.5.5 0 0 1 .5-.5.5.5 0 0 1 .5.5zm2.117 0a.5.5 0 0 1-.5.5.5.5 0 0 1-.5-.5.5.5 0 0 1 .5-.5.5.5 0 0 1 .5.5zm0 4.234a.5.5 0 0 1-.5.5.5.5 0 0 1-.5-.5.5.5 0 0 1 .5-.5.5.5 0 0 1 .5.5zm3.175-2.117a.5.5 0 0 1-.5.5.5.5 0 0 1-.5-.5.5.5 0 0 1 .5-.5.5.5 0 0 1 .5.5zm2.117 0a.5.5 0 0 1-.5.5.5.5 0 0 1-.5-.5.5.5 0 0 1 .5-.5.5.5 0 0 1 .5.5zm-3.175 2.117a.5.5 0 0 1-.5.5.5.5 0 0 1-.5-.5.5.5 0 0 1 .5-.5.5.5 0 0 1 .5.5zm0-4.234a.5.5 0 0 1-.5.5.5.5 0 0 1-.5-.5.5.5 0 0 1 .5-.5.5.5 0 0 1 .5.5zm2.116 0a.5.5 0 0 1-.5.5.5.5 0 0 1-.5-.5.5.5 0 0 1 .5-.5.5.5 0 0 1 .5.5zm0 4.234a.5.5 0 0 1-.5.5.5.5 0 0 1-.5-.5.5.5 0 0 1 .5-.5.5.5 0 0 1 .5.5zm2.117-4.234a.5.5 0 0 1-.5.5.5.5 0 0 1-.5-.5.5.5 0 0 1 .5-.5.5.5 0 0 1 .5.5zm0 4.234a.5.5 0 0 1-.5.5.5.5 0 0 1-.5-.5.5.5 0 0 1 .5-.5.5.5 0 0 1 .5.5zm-10.583 0a.5.5 0 0 1-.5.5.5.5 0 0 1-.5-.5.5.5 0 0 1 .5-.5.5.5 0 0 1 .5.5zm-1.059-2.117a.5.5 0 0 1-.5.5.5.5 0 0 1-.5-.5.5.5 0 0 1 .5-.5.5.5 0 0 1 .5.5zm1.059-2.117a.5.5 0 0 1-.5.5.5.5 0 0 1-.5-.5.5.5 0 0 1 .5-.5.5.5 0 0 1 .5.5zm3.175 2.117a.5.5 0 0 1-.5.5.5.5 0 0 1-.5-.5.5.5 0 0 1 .5-.5.5.5 0 0 1 .5.5zm-13.759 2.117a.5.5 0 0 1-.5.5.5.5 0 0 1-.5-.5.5.5 0 0 1 .5-.5.5.5 0 0 1 .5.5zm-1.058-2.117a.5.5 0 0 1-.5.5.5.5 0 0 1-.5-.5.5.5 0 0 1 .5-.5.5.5 0 0 1 .5.5zm4.233 0a.5.5 0 0 1-.5.5.5.5 0 0 1-.5-.5.5.5 0 0 1 .5-.5.5.5 0 0 1 .5.5zm-12.7 0a.5.5 0 0 1-.5.5.5.5 0 0 1-.5-.5.5.5 0 0 1 .5-.5.5.5 0 0 1 .5.5zm-1.058-2.117a.5.5 0 0 1-.5.5.5.5 0 0 1-.5-.5.5.5 0 0 1 .5-.5.5.5 0 0 1 .5.5zm0 4.234a.5.5 0 0 1-.5.5.5.5 0 0 1-.5-.5.5.5 0 0 1 .5-.5.5.5 0 0 1 .5.5zm3.175-2.117a.5.5 0 0 1-.5.5.5.5 0 0 1-.5-.5.5.5 0 0 1 .5-.5.5.5 0 0 1 .5.5zm2.117 0a.5.5 0 0 1-.5.5.5.5 0 0 1-.5-.5.5.5 0 0 1 .5-.5.5.5 0 0 1 .5.5zm-3.175 2.117a.5.5 0 0 1-.5.5.5.5 0 0 1-.5-.5.5.5 0 0 1 .5-.5.5.5 0 0 1 .5.5zm0-4.234a.5.5 0 0 1-.5.5.5.5 0 0 1-.5-.5.5.5 0 0 1 .5-.5.5.5 0 0 1 .5.5zm2.116 0a.5.5 0 0 1-.5.5.5.5 0 0 1-.5-.5.5.5 0 0 1 .5-.5.5.5 0 0 1 .5.5zm0 4.234a.5.5 0 0 1-.5.5.5.5 0 0 1-.5-.5.5.5 0 0 1 .5-.5.5.5 0 0 1 .5.5zm2.117-4.234a.5.5 0 0 1-.5.5.5.5 0 0 1-.5-.5.5.5 0 0 1 .5-.5.5.5 0 0 1 .5.5zm0 4.234a.5.5 0 0 1-.5.5.5.5 0 0 1-.5-.5.5.5 0 0 1 .5-.5.5.5 0 0 1 .5.5zm4.233-4.234a.5.5 0 0 1-.5.5.5.5 0 0 1-.5-.5.5.5 0 0 1 .5-.5.5.5 0 0 1 .5.5zm2.117 0a.5.5 0 0 1-.5.5.5.5 0 0 1-.5-.5.5.5 0 0 1 .5-.5.5.5 0 0 1 .5.5zm0 4.234a.5.5 0 0 1-.5.5.5.5 0 0 1-.5-.5.5.5 0 0 1 .5-.5.5.5 0 0 1 .5.5zm3.175-2.117a.5.5 0 0 1-.5.5.5.5 0 0 1-.5-.5.5.5 0 0 1 .5-.5.5.5 0 0 1 .5.5zm2.117 0a.5.5 0 0 1-.5.5.5.5 0 0 1-.5-.5.5.5 0 0 1 .5-.5.5.5 0 0 1 .5.5zm-3.175 2.117a.5.5 0 0 1-.5.5.5.5 0 0 1-.5-.5.5.5 0 0 1 .5-.5.5.5 0 0 1 .5.5zm0-4.234a.5.5 0 0 1-.5.5.5.5 0 0 1-.5-.5.5.5 0 0 1 .5-.5.5.5 0 0 1 .5.5zm2.116 0a.5.5 0 0 1-.5.5.5.5 0 0 1-.5-.5.5.5 0 0 1 .5-.5.5.5 0 0 1 .5.5zm0 4.234a.5.5 0 0 1-.5.5.5.5 0 0 1-.5-.5.5.5 0 0 1 .5-.5.5.5 0 0 1 .5.5zm2.117-4.234a.5.5 0 0 1-.5.5.5.5 0 0 1-.5-.5.5.5 0 0 1 .5-.5.5.5 0 0 1 .5.5zm0 4.234a.5.5 0 0 1-.5.5.5.5 0 0 1-.5-.5.5.5 0 0 1 .5-.5.5.5 0 0 1 .5.5zm-10.583 0a.5.5 0 0 1-.5.5.5.5 0 0 1-.5-.5.5.5 0 0 1 .5-.5.5.5 0 0 1 .5.5zm-1.059-2.117a.5.5 0 0 1-.5.5.5.5 0 0 1-.5-.5.5.5 0 0 1 .5-.5.5.5 0 0 1 .5.5zm1.059-2.117a.5.5 0 0 1-.5.5.5.5 0 0 1-.5-.5.5.5 0 0 1 .5-.5.5.5 0 0 1 .5.5zm3.175 2.117a.5.5 0 0 1-.5.5.5.5 0 0 1-.5-.5.5.5 0 0 1 .5-.5.5.5 0 0 1 .5.5z" clip-path="url(#b)" transform="rotate(5 1505.429 3608.5)"/><rect style="mix-blend-mode:multiply;fill:#eae7e7;fill-opacity:1;stroke:none;stroke-width:2;stroke-linecap:round;stroke-linejoin:round;stroke-miterlimit:4;stroke-dasharray:none;paint-order:markers fill stroke" width="32.295" height="39.425" x="976.514" y="-542.679" rx="2.175" ry="2.053" transform="rotate(5)"/><rect style="fill:#fff;fill-opacity:1;stroke:none;stroke-width:1.9;stroke-linecap:round;stroke-linejoin:round;stroke-miterlimit:4;stroke-dasharray:none;paint-order:markers fill stroke" width="30.681" height="37.453" x="975.204" y="-543.81" rx="2.066" ry="1.951" transform="rotate(5)"/><g transform="rotate(5 4247.603 5201.614) scale(.95)" style="fill:#fff;fill-opacity:1;stroke:#b48f81"><circle style="fill:#fff;fill-opacity:1;stroke:#b48f81;stroke-width:2;stroke-linecap:round;stroke-linejoin:round;stroke-miterlimit:4;stroke-dasharray:none;paint-order:markers fill stroke" cx="582.518" cy="-163.225" r="1.825"/><rect style="fill:#fff;fill-opacity:1;stroke:#b48f81;stroke-width:2;stroke-linecap:round;stroke-linejoin:round;stroke-miterlimit:4;stroke-dasharray:none;paint-order:markers fill stroke" width="32.295" height="39.425" x="566.371" y="-161.941" rx="2.175" ry="2.053"/><rect style="fill:#fff;fill-opacity:1;stroke:#b48f81;stroke-width:2;stroke-linecap:round;stroke-linejoin:round;stroke-miterlimit:4;stroke-dasharray:none;paint-order:markers fill stroke" width="10.101" height="2.607" x="577.468" y="-161.916" rx="1.52" ry="2.607"/></g><g style="opacity:.698649;mix-blend-mode:multiply;fill:none;fill-opacity:1;stroke:#b48f81"><path style="color:#000;opacity:1;mix-blend-mode:multiply;fill:url(#c);fill-opacity:1;stroke:none;stroke-width:1;stroke-linecap:round;stroke-linejoin:round;-inkscape-stroke:none;paint-order:markers fill stroke" d="M659.633-136.41a2.844 2.844 0 0 0-2.523 3.095H645.95c-1.712 0-3.176 1.347-3.176 3.053v35.319c0 1.706 1.464 3.052 3.176 3.052h27.944c1.711 0 3.175-1.346 3.175-3.052v-35.319c0-1.706-1.464-3.053-3.175-3.053h-11.161a2.843 2.843 0 0 0-3.099-3.095zm.2 1.99c.029-.001.057-.004.087-.003.467 0 .826.358.826.825 0 .1-.017.196-.047.284h-1.556a.868.868 0 0 1-.047-.284c0-.438.314-.78.738-.821zm-14.012 3.111a1.79 1.79 0 0 1 .128-.006h7.947a2.192 2.192 0 0 0-.025.328c0 1.348 1.217 2.303 2.52 2.303h7.06c1.302 0 2.52-.955 2.52-2.302 0-.113-.01-.222-.026-.329h7.947c.699 0 1.176.484 1.176 1.053v35.318c0 .57-.477 1.053-1.176 1.053H645.95c-.698 0-1.176-.484-1.176-1.053v-35.318c0-.533.42-.992 1.048-1.047zm10.5.023a.517.517 0 0 1 .07-.003h7.06c.382 0 .52.206.52.302 0 .097-.138.304-.52.304h-7.06c-.382 0-.52-.207-.52-.303 0-.09.121-.278.45-.3z" stroke="none" transform="rotate(5 4606.663 4373.647) scale(.95)"/></g><path style="mix-blend-mode:multiply;fill:red;fill-opacity:1;stroke:none;stroke-width:1.57486;stroke-linecap:round;stroke-linejoin:round;stroke-miterlimit:4;stroke-dasharray:none;paint-order:markers fill stroke" d="M1010.117-428.25c0 .061-.021.122-.026.182 0-.028-.011-.136-.01-.15 0-.006.015-.017.032-.031z"/><path style="mix-blend-mode:multiply;fill:red;fill-opacity:1;stroke:none;stroke-width:1.57486;stroke-linecap:round;stroke-linejoin:round;stroke-miterlimit:4;stroke-dasharray:none;paint-order:markers fill stroke" d="M1026.826-451.708c-.984.03-2.176 1.137-2.862 1.736-.923.883-2.028 2.121-2.448 3.442-.368.194-.799.412-1.36.693-2.706 1.247-1.537.774-4.403 1.824-1.954.717-3.932 1.45-6.007 1.722-.736.104-.588 1.144.147 1.04.234-.048.473-.073.7-.142.454-.138.89-.327 1.34-.477.618-.206 1.25-.374 1.864-.593.743-.264 1.471-.567 2.205-.856 2.552-1.003 1.976-.778 4.447-1.829.435-.23.65-.34.9-.47.567 4.785 8.08 3.555 10.634 2.901 1.395-.356 4.66-1.657 5.058-1.035.315.493-.449 1.094.45 1.387.324.107.701-.015 1.014-.154 3.18-1.485 4.051-3.423 5.434-1.466 2.518 1.827 6.254-.833 8.478.375 1.183.643 2.377 1.414 3.075 1.436.696.098.835-.886.139-.984-.848.053-1.446-.42-2.309-1.055-.78-.439-1.243-.673-2.103-.673-.313.004-.62.093-.928.149-1.416.258-2.826.657-4.28.443-.933-.146-.613-.078-1.351-.433-.777-.548-.228-1.347-1.223-1.584-2.627-.024-4.862 4.002-5.084 1.49-.034-.56-.8-.162-1.168-.058-3.527 1.028-7.843 1.784-11.1 1.532-1.637-.17-4.259-.898-3.671-2.84 1.092-.73 6.815-3.854 5.174-5.26a1.078 1.078 0 0 0-.762-.261zm-.257.852c.1-.003.186.025.254.082.59.537-3.498 3.286-4.343 3.86.763-1.326 3.116-3.926 4.089-3.942zm-23.023 25.41c.284.609.506 1.245.729 1.879.039.109.057.228.118.327.223.362.454.549.947.385.24-.08.417-.286.603-.455.278-.252 1.156-1.265 1.35-1.485a73.337 73.337 0 0 1 2.715-2.89c.286-.29.578-.574.867-.861.223-.23-.102-.547-.326-.317-1.182 1.26-2.363 2.524-3.617 3.714-.625.571-.797.76-1.426 1.235-.099.075-.239.104-.31.206-.03.042-.1-.042-.143-.145-.12-.315-.156-.4-.268-.725a5.776 5.776 0 0 1-.27-.97c-.01-.036 0-.073-.01-.11-.149-.681-1.113-.47-.963.211zm7.709-23.702a.39.39 0 0 0-.29.125c-.55.584-.264.284-.86.901a94.409 94.409 0 0 1-2.515 2.477 42.67 42.67 0 0 1-.743.687c-.239.214-.485.42-.727.63-.204.173-1.23.988-1.302 1.038a5.306 5.306 0 0 1-.394-.961c-.309-.624-1.19-.187-.882.436.02.028.04.054.059.083.063.103.164.296.214.395.113.22.215.445.314.672.113.2.2.434.513.431.416-.003.673-.336.924-.592.146-.15.29-.305.435-.456l.557-.577c1.282-1.317 2.644-2.55 4.005-3.785.637-.589.33-.303.922-.856a.37.37 0 0 0-.23-.648zm-8.234 14.795c.258.412.462.856.663 1.298.08.145.21.45.407.488.569.113.694-.111 1.038-.482.18-.193.34-.403.514-.6.216-.244.437-.483.655-.725 1.612-1.756 3.404-3.333 5.179-4.92.29-.275-.1-.685-.389-.41a151.1 151.1 0 0 1-2.345 2.323 67.06 67.06 0 0 1-1.94 1.805c-.3.27-.604.536-.906.804-.575.526-1.424 1.215-1.424 1.215-.167-.312-.425-.729-.55-1.192-.28-.638-1.181-.242-.901.396zm29.022-2.463c-1.525 1.169-3.478 2.156-5.187 2.418-.137.02.226-.772-.755-.61-.99.01-4.934 1.941-5.16 1.32-1.14-3.123-6.749-1.465-8.436.133-.684.76-.08 1.247.681.81 1.154-.662 4.974-3.267 6.093-1.144.564 1.085 1.003 1.46 1.812 1.56 2.19.092 3.096-1.881 4.803-1.342.902.284 3.967-1.055 4.89-1.569.356-.199.712-.395 1.062-.603.026.625.166 1.558.806 1.857 1.699.793 5.22-2.1 6.906-1.593 1.737.669 3.24 1.407 4.985 1.43 4.36-.265 5.544-.797 6.306-.69 2.38.336 2.416-.294 1.462-.747-1.95-.927-4.538 1.08-7.656.73-.568-.066-1.127-.208-1.676-.37-1.371-.405-3.088-1.734-4.242-1.516-.976.217-1.878.676-2.834 1.071-1.317.47-2.29.995-2.738.634-.477-.386-.178-1.209 0-1.695 1.16-.789 4.105-2.737 4.016-3.8-.168-1.21-2.501.803-3.328 1.455s-1.489 1.617-1.806 2.26zm9.454 5.179c-.212.007-.41.085-.531.259-.045.138-.099.274-.134.416-.068.278-.117.56-.174.84-.2.986-.292 1.505-.527 2.51a6.701 6.701 0 0 0-.095.56c-3.523.417-6.383-.265-9.906-.625-4.869-.434-9.641.422-13.444.82-.813.089-2.731.164-2.144.862.321.324 2.698.195 3.753-.052 3.482-.815.9-.312 4.534-.943 2.653-.328 4.871-.333 7.135.348 1.225.369 2.523.837 5.584.933 1.204.037 2.74-.284 4.4-.685-.214 1.543-.651 3.728-2.673 4.385-.279.09-.785.079-1.017.028-.672-.107-.563 1.067.184.99 2.433-.25 3.7-3.336 4.392-5.618 4.13-1.023 8.824-2.252 11.302.199.882.49 1.575-.756.694-1.247-.108-.064-.212-.137-.325-.193-.458-.23-.486-.203-1.016-.33-2.747-.175-5.245-.092-7.723.312-.977.308-1.89.526-2.76.675.204-.726.346-1.32.45-1.632.209-.623.403-1.167.732-1.726.05-.082.122-.148.183-.221.308-.445-.331-.884-.874-.865zm1.624 1.393a.488.488 0 0 0-.413.26c-.107.31-.209.618-.333.924-.088.217-.187.428-.28.642-.2.415.389.696.588.28.246-.472.477-.961.843-1.356.239-.398-.074-.754-.405-.75zm14.03 2.971a.817.731 33.804 0 1 .271 1.062.817.731 33.804 0 1-1.085.154.817.731 33.804 0 1-.272-1.062.817.731 33.804 0 1 1.085-.153z"/><path style="opacity:.6;mix-blend-mode:multiply;fill:#bd1f0c;fill-opacity:1;stroke:none;stroke-width:1.57486;stroke-linecap:round;stroke-linejoin:round;stroke-miterlimit:4;stroke-dasharray:none;paint-order:markers fill stroke" d="M1026.826-451.708c-.984.03-2.176 1.137-2.862 1.736-.923.883-2.028 2.121-2.448 3.442-.368.194-.799.412-1.36.693-2.706 1.247-1.537.774-4.403 1.824-1.954.717-3.932 1.45-6.007 1.722-.736.104-.588 1.144.147 1.04.234-.048.473-.073.7-.142.454-.138.89-.327 1.34-.477.618-.206 1.25-.374 1.864-.593.743-.264 1.471-.567 2.205-.856 2.552-1.003 1.976-.778 4.447-1.829.435-.23.65-.34.9-.47.567 4.785 8.08 3.555 10.634 2.901 1.395-.356 4.66-1.657 5.058-1.035.315.493-.449 1.094.45 1.387.324.107.701-.015 1.014-.154 3.18-1.485 4.051-3.423 5.434-1.466 2.518 1.827 6.254-.833 8.478.375 1.183.643 2.377 1.414 3.075 1.436.696.098.835-.886.139-.984-.848.053-1.446-.42-2.309-1.055-.78-.439-1.243-.673-2.103-.673-.313.004-.62.093-.928.149-1.416.258-2.826.657-4.28.443-.933-.146-.613-.078-1.351-.433-.777-.548-.228-1.347-1.223-1.584-2.627-.024-4.862 4.002-5.084 1.49-.034-.56-.8-.162-1.168-.058-3.527 1.028-7.843 1.784-11.1 1.532-1.637-.17-4.259-.898-3.671-2.84 1.092-.73 6.815-3.854 5.174-5.26a1.078 1.078 0 0 0-.762-.261zm-.257.852c.1-.003.186.025.254.082.59.537-3.498 3.286-4.343 3.86.763-1.326 3.116-3.926 4.089-3.942zm-23.023 25.41c.284.609.506 1.245.729 1.879.039.109.057.228.118.327.223.362.454.549.947.385.24-.08.417-.286.604-.455.277-.252 1.155-1.265 1.349-1.485a73.337 73.337 0 0 1 2.715-2.89c.286-.29.578-.574.867-.861.223-.23-.102-.547-.326-.317-1.182 1.26-2.362 2.524-3.616 3.714-.626.571-.798.76-1.427 1.235-.099.075-.239.104-.31.206-.03.042-.1-.042-.143-.145-.12-.315-.156-.4-.268-.725a5.776 5.776 0 0 1-.27-.97c-.01-.036 0-.073-.01-.11-.149-.681-1.113-.47-.963.211zm7.709-23.702a.39.39 0 0 0-.29.125c-.55.584-.264.284-.86.901a94.409 94.409 0 0 1-2.515 2.477 42.67 42.67 0 0 1-.743.687c-.239.214-.485.42-.727.63-.204.173-1.23.988-1.302 1.038a5.306 5.306 0 0 1-.394-.961c-.309-.624-1.19-.187-.882.436.02.028.04.054.059.083.063.103.164.296.214.395.113.22.215.445.314.672.113.2.2.434.513.431.416-.003.673-.336.924-.592.146-.15.29-.305.435-.456l.557-.577c1.282-1.317 2.644-2.55 4.005-3.785.637-.589.33-.303.922-.856a.37.37 0 0 0-.23-.648zm-8.234 14.795c.258.412.462.856.664 1.298.08.145.21.45.406.488.569.113.694-.111 1.038-.482.18-.193.34-.403.514-.6.216-.244.437-.483.655-.725 1.612-1.756 3.404-3.333 5.179-4.92.29-.275-.1-.685-.389-.41-.776.78-1.553 1.56-2.345 2.323a67.191 67.191 0 0 1-1.94 1.805c-.3.27-.604.536-.906.804-.575.526-1.424 1.215-1.424 1.215-.167-.312-.425-.729-.55-1.192-.28-.638-1.181-.242-.902.396zm29.022-2.463c-1.525 1.169-3.478 2.156-5.187 2.418-.137.02.226-.772-.755-.61-.99.01-4.934 1.941-5.16 1.32-1.14-3.123-6.749-1.465-8.436.133-.684.76-.08 1.247.681.81 1.154-.662 4.974-3.267 6.093-1.144.563 1.085 1.002 1.46 1.812 1.56 2.19.092 3.096-1.881 4.803-1.342.902.284 3.967-1.055 4.89-1.569.356-.199.712-.395 1.062-.603.026.625.166 1.558.806 1.857 1.699.793 5.22-2.1 6.906-1.593 1.737.669 3.24 1.407 4.985 1.43 4.36-.265 5.544-.797 6.306-.69 2.38.336 2.416-.294 1.462-.747-1.95-.927-4.538 1.08-7.656.73-.568-.066-1.127-.208-1.676-.37-1.371-.405-3.088-1.734-4.242-1.516-.976.217-1.878.676-2.834 1.071-1.317.47-2.29.995-2.738.634-.477-.386-.178-1.209 0-1.695 1.16-.789 4.105-2.737 4.016-3.8-.168-1.21-2.501.803-3.328 1.455s-1.489 1.617-1.806 2.26zm9.454 5.179c-.212.007-.41.085-.531.259-.045.138-.099.274-.134.416-.068.278-.117.56-.174.84-.2.986-.292 1.505-.527 2.51a6.701 6.701 0 0 0-.095.56c-3.523.417-6.383-.265-9.906-.625-4.869-.434-9.641.422-13.444.82-.813.089-2.731.164-2.144.862.321.324 2.698.195 3.753-.052 3.482-.815.9-.312 4.534-.943 2.653-.328 4.871-.333 7.135.348 1.225.369 2.523.837 5.584.933 1.204.037 2.74-.284 4.4-.685-.214 1.543-.651 3.728-2.673 4.385-.279.09-.785.079-1.017.028-.672-.107-.563 1.067.184.99 2.433-.25 3.7-3.336 4.392-5.618 4.13-1.023 8.824-2.252 11.302.199.882.49 1.575-.756.694-1.247-.108-.064-.212-.137-.325-.193-.458-.23-.486-.203-1.016-.33-2.747-.175-5.245-.092-7.723.312-.977.308-1.89.526-2.76.675.204-.726.346-1.32.45-1.632.209-.623.403-1.167.732-1.726.05-.082.122-.148.183-.221.308-.445-.331-.884-.874-.865zm1.624 1.393a.488.488 0 0 0-.413.26c-.107.31-.209.618-.333.924-.088.217-.187.428-.28.642-.2.415.389.696.588.28.246-.472.477-.961.843-1.356.239-.398-.074-.754-.405-.75zm14.03 2.971a.817.731 33.804 0 1 .271 1.062.817.731 33.804 0 1-1.085.154.817.731 33.804 0 1-.272-1.062.817.731 33.804 0 1 1.085-.153z"/><path style="opacity:.35;mix-blend-mode:multiply;fill:#ebe0b7;fill-opacity:1;stroke:none;stroke-width:2;stroke-linecap:round;stroke-linejoin:round;stroke-miterlimit:4;stroke-dasharray:none;paint-order:markers fill stroke" d="M1034.275-459.336a2.699 2.699 0 0 0-2.632 2.45c-.01.092-.01.182-.01.272l-10.56-.924c-1.62-.142-3.117 1.012-3.259 2.626l-.93 10.626c-.31.114-.443.165-.99.366-1.935.71-3.894 1.436-5.95 1.705-.728.104-.581 1.133.147 1.03.231-.047.468-.072.693-.14.449-.137.881-.324 1.326-.473.613-.204 1.238-.37 1.847-.587.735-.262 1.456-.562 2.183-.848.314-.123.445-.177.676-.269l-.727 8.309c-1.406.339-2.732.985-3.412 1.63-.678.752-.078 1.234.674.802.513-.294 1.557-.971 2.652-1.442l-.653 7.46c-.556.112-.967.295-.655.666.081.081.296.131.583.16l-.388 4.43c-.117 1.341.746 2.522 1.969 2.968l-.021.243c-.1 1.134.787 2.13 1.988 2.235l27.839 2.436c1.2.105 2.246-.723 2.346-1.856l1.06-12.113c.698.223 1.328.567 1.853 1.086.873.486 1.56-.749.687-1.235-.107-.064-.21-.135-.321-.191-.454-.228-.482-.2-1.007-.327-.39-.025-.77-.04-1.15-.054l.572-6.534c2.294.312 2.327-.301 1.392-.746-.407-.194-.844-.252-1.306-.237l.695-7.954c.251.052.493.124.716.245 1.171.636 2.354 1.4 3.044 1.422.69.097.827-.878.138-.975-.84.053-1.432-.416-2.286-1.044-.584-.328-.996-.533-1.526-.617l.517-5.91c.096-1.097-.733-2.063-1.875-2.22-.255-1.254-1.35-2.242-2.696-2.36l-10.563-.923c.016-.088.029-.177.037-.267l-.001-.055c.01-.147.01-.292-.01-.434 0-.034-.01-.068-.011-.102a2.727 2.727 0 0 0-.094-.423c-.01-.026-.016-.051-.025-.077a2.73 2.73 0 0 0-.18-.412l-.029-.052a2.74 2.74 0 0 0-.263-.383l-.028-.033a2.741 2.741 0 0 0-.347-.341c0-.003-.01-.006-.01-.009v-.001a2.7 2.7 0 0 0-.422-.282c0-.001 0-.003-.01-.004a2.646 2.646 0 0 0-1.291-.313zm.029 1.902a.818.818 0 0 1 .385.09.766.766 0 0 1 .228.183c0 .004.01.009.01.013.058.07.1.15.13.236 0 .013.01.027.012.04a.796.796 0 0 1 .027.288c-.001.014 0 .028-.01.042a.863.863 0 0 1-.048.187c0 .013-.011.026-.016.039l-1.466-.129a.817.817 0 0 1-.021-.272.768.768 0 0 1 .766-.716zm-22.866 8.429a.384.384 0 0 0-.285.123c-.546.579-.263.28-.854.892-.818.83-1.64 1.655-2.49 2.454-.243.229-.486.457-.735.68-.237.212-.48.416-.72.624-.203.17-1.22.978-1.29 1.028a5.25 5.25 0 0 1-.39-.952c-.306-.618-1.18-.185-.873.432.02.028.04.054.058.082.062.102.162.293.212.392.112.218.213.44.311.664.112.198.198.43.508.428.412-.003.666-.333.914-.587.146-.149.287-.302.432-.452l.552-.571c1.269-1.304 2.618-2.526 3.965-3.748.631-.583.326-.3.914-.849a.366.366 0 0 0-.229-.64zm.056 9.262a.294.294 0 0 0-.22.09c-.769.773-1.538 1.545-2.323 2.3-.75.722-1.147 1.09-1.922 1.788-.297.268-.597.53-.896.796-.57.52-1.41 1.203-1.41 1.203-.166-.309-.422-.721-.545-1.18-.277-.632-1.17-.24-.893.392.255.408.457.848.657 1.285.079.144.207.446.402.484.563.111.687-.11 1.028-.478.178-.19.337-.398.51-.594.213-.241.431-.479.647-.718 1.597-1.74 3.372-3.3 5.13-4.872a.281.281 0 0 0-.165-.496zm-.58 10.746a.238.238 0 0 0-.175.08c-1.17 1.249-2.34 2.5-3.58 3.678-.62.565-.792.751-1.414 1.222-.098.075-.237.104-.308.205-.029.041-.098-.042-.14-.143-.12-.313-.155-.398-.266-.719a5.708 5.708 0 0 1-.267-.96c-.01-.035 0-.073-.01-.11-.147-.674-1.102-.465-.954.21.282.603.502 1.233.722 1.86.04.109.056.228.117.325.221.358.45.544.939.381.236-.078.412-.282.597-.45.274-.25 1.144-1.253 1.336-1.47a72.562 72.562 0 0 1 2.689-2.863c.283-.287.572-.569.858-.853a.226.226 0 0 0-.147-.393zm45.382 1.513a.809.724 33.804 0 0-.482.293.809.724 33.804 0 0 .269 1.052.809.724 33.804 0 0 1.075-.152.809.724 33.804 0 0-.27-1.051.809.724 33.804 0 0-.592-.142z"/></g></svg>