<svg width="256.216" height="196.313" viewBox="0 0 67.79 51.941" xmlns="http://www.w3.org/2000/svg"><defs><clipPath clipPathUnits="userSpaceOnUse" id="a"><path style="color:#000;fill:#fff;stroke-width:2;stroke-linecap:round;stroke-linejoin:round;-inkscape-stroke:none;paint-order:markers fill stroke" d="M989.185-292.448c-1.072 0-1.891.93-1.891 1.96v18.182c0 1.031.819 1.96 1.89 1.96h12.782c1.072 0 1.893-.929 1.893-1.96v-14.213a1 1 0 0 0-.293-.707l-4.928-4.929a1 1 0 0 0-.707-.293z"/></clipPath><clipPath clipPathUnits="userSpaceOnUse" id="b"><path style="color:#000;fill:#fff;stroke-width:2;stroke-linecap:round;stroke-linejoin:round;-inkscape-stroke:none;paint-order:markers fill stroke" d="M989.185-292.448c-1.072 0-1.891.93-1.891 1.96v18.182c0 1.031.819 1.96 1.89 1.96h12.782c1.072 0 1.893-.929 1.893-1.96v-14.213a1 1 0 0 0-.293-.707l-4.928-4.929a1 1 0 0 0-.707-.293z"/></clipPath><clipPath clipPathUnits="userSpaceOnUse" id="c"><path style="color:#000;fill:#fff;stroke-width:2;stroke-linecap:round;stroke-linejoin:round;-inkscape-stroke:none;paint-order:markers fill stroke" d="M989.185-292.448c-1.072 0-1.891.93-1.891 1.96v18.182c0 1.031.819 1.96 1.89 1.96h12.782c1.072 0 1.893-.929 1.893-1.96v-14.213a1 1 0 0 0-.293-.707l-4.928-4.929a1 1 0 0 0-.707-.293z"/></clipPath><clipPath clipPathUnits="userSpaceOnUse" id="d"><path style="color:#000;fill:#fff;stroke-width:2;stroke-linecap:round;stroke-linejoin:round;-inkscape-stroke:none;paint-order:markers fill stroke" d="M989.185-292.448c-1.072 0-1.891.93-1.891 1.96v18.182c0 1.031.819 1.96 1.89 1.96h12.782c1.072 0 1.893-.929 1.893-1.96v-14.213a1 1 0 0 0-.293-.707l-4.928-4.929a1 1 0 0 0-.707-.293z"/></clipPath><clipPath clipPathUnits="userSpaceOnUse" id="e"><path style="color:#000;fill:#fff;stroke-width:2;stroke-linecap:round;stroke-linejoin:round;-inkscape-stroke:none;paint-order:markers fill stroke" d="M989.185-292.448c-1.072 0-1.891.93-1.891 1.96v18.182c0 1.031.819 1.96 1.89 1.96h12.782c1.072 0 1.893-.929 1.893-1.96v-14.213a1 1 0 0 0-.293-.707l-4.928-4.929a1 1 0 0 0-.707-.293z"/></clipPath><clipPath clipPathUnits="userSpaceOnUse" id="f"><path style="color:#000;fill:#fff;stroke-width:2;stroke-linecap:round;stroke-linejoin:round;-inkscape-stroke:none;paint-order:markers fill stroke" d="M989.185-292.448c-1.072 0-1.891.93-1.891 1.96v18.182c0 1.031.819 1.96 1.89 1.96h12.782c1.072 0 1.893-.929 1.893-1.96v-14.213a1 1 0 0 0-.293-.707l-4.928-4.929a1 1 0 0 0-.707-.293z"/></clipPath><clipPath clipPathUnits="userSpaceOnUse" id="g"><path style="color:#000;fill:#fff;stroke-width:2;stroke-linecap:round;stroke-linejoin:round;-inkscape-stroke:none;paint-order:markers fill stroke" d="M989.185-292.448c-1.072 0-1.891.93-1.891 1.96v18.182c0 1.031.819 1.96 1.89 1.96h12.782c1.072 0 1.893-.929 1.893-1.96v-14.213a1 1 0 0 0-.293-.707l-4.928-4.929a1 1 0 0 0-.707-.293z"/></clipPath><clipPath clipPathUnits="userSpaceOnUse" id="h"><path style="color:#000;fill:#fff;stroke-width:2;stroke-linecap:round;stroke-linejoin:round;-inkscape-stroke:none;paint-order:markers fill stroke" d="M989.185-292.448c-1.072 0-1.891.93-1.891 1.96v18.182c0 1.031.819 1.96 1.89 1.96h12.782c1.072 0 1.893-.929 1.893-1.96v-14.213a1 1 0 0 0-.293-.707l-4.928-4.929a1 1 0 0 0-.707-.293z"/></clipPath></defs><path style="color:#000;fill:#e4ded8;stroke-width:2;stroke-linecap:round;stroke-linejoin:round;-inkscape-stroke:none;paint-order:markers fill stroke" d="M931.637-292.406c-1.072 0-1.893.93-1.893 1.96v18.182c0 1.03.82 1.96 1.893 1.96h12.78c1.073 0 1.893-.93 1.893-1.96v-14.213a1 1 0 0 0-.293-.707l-4.93-4.93a1 1 0 0 0-.706-.292z" transform="translate(33.017 17.485)"/><path style="fill:#5f7ca3;stroke-width:.0299333;stroke-linecap:round;stroke-linejoin:round;paint-order:markers fill stroke" d="M1005.957-269.114a.5.5 0 1 1-1 0 .5.5 0 0 1 1 0zm-1.058-2.117a.5.5 0 1 1-1 0 .5.5 0 0 1 1 0zm1.058-2.117a.5.5 0 1 1-1 0 .5.5 0 0 1 1 0zm-10.583 4.234a.5.5 0 1 1-1 0 .5.5 0 0 1 1 0zm-1.059-2.117a.5.5 0 1 1-1 0 .5.5 0 0 1 1 0zm4.234 0a.5.5 0 1 1-1 0 .5.5 0 0 1 1 0zm-8.467 0a.5.5 0 1 1-1 0 .5.5 0 0 1 1 0zm-3.175 2.117a.5.5 0 1 1-1 0 .5.5 0 0 1 1 0zm0-4.234a.5.5 0 1 1-1 0 .5.5 0 0 1 1 0zm2.117 0a.5.5 0 1 1-1 0 .5.5 0 0 1 1 0zm0 4.234a.5.5 0 1 1-1 0 .5.5 0 0 1 1 0zm2.116-4.234a.5.5 0 1 1-1 0 .5.5 0 0 1 1 0zm0 4.234a.5.5 0 1 1-1 0 .5.5 0 0 1 1 0zm4.234-4.234a.5.5 0 1 1-1 0 .5.5 0 0 1 1 0zm2.116 0a.5.5 0 1 1-1 0 .5.5 0 0 1 1 0zm0 4.234a.5.5 0 1 1-1 0 .5.5 0 0 1 1 0zm3.175-2.117a.5.5 0 1 1-1 0 .5.5 0 0 1 1 0zm2.117 0a.5.5 0 1 1-1 0 .5.5 0 0 1 1 0zm-3.175 2.117a.5.5 0 1 1-1 0 .5.5 0 0 1 1 0zm0-4.234a.5.5 0 1 1-1 0 .5.5 0 0 1 1 0zm2.117 0a.5.5 0 1 1-1 0 .5.5 0 0 1 1 0zm0 4.234a.5.5 0 1 1-1 0 .5.5 0 0 1 1 0zm2.116-4.234a.5.5 0 1 1-1 0 .5.5 0 0 1 1 0zm0 4.234a.5.5 0 1 1-1 0 .5.5 0 0 1 1 0zm-10.583 0a.5.5 0 1 1-1 0 .5.5 0 0 1 1 0zm-1.058-2.117a.5.5 0 1 1-1 0 .5.5 0 0 1 1 0zm1.058-2.117a.5.5 0 1 1-1 0 .5.5 0 0 1 1 0zm3.175 2.117a.5.5 0 1 1-1 0 .5.5 0 0 1 1 0zm9.525-6.35a.5.5 0 1 1-1 0 .5.5 0 0 1 1 0zm-9.525 2.117a.5.5 0 1 1-1 0 .5.5 0 0 1 1 0zm-1.058-2.117a.5.5 0 1 1-1 0 .5.5 0 0 1 1 0zm4.233 0a.5.5 0 1 1-1 0 .5.5 0 0 1 1 0zm-12.7 0a.5.5 0 1 1-1 0 .5.5 0 0 1 1 0zm2.117 0a.5.5 0 1 1-1 0 .5.5 0 0 1 1 0zm2.116 0a.5.5 0 1 1-1 0 .5.5 0 0 1 1 0zm-3.175 2.117a.5.5 0 1 1-1 0 .5.5 0 0 1 1 0zm0-4.234a.5.5 0 1 1-1 0 .5.5 0 0 1 1 0zm2.117 0a.5.5 0 1 1-1 0 .5.5 0 0 1 1 0zm0 4.234a.5.5 0 1 1-1 0 .5.5 0 0 1 1 0zm2.117-4.234a.5.5 0 1 1-1 0 .5.5 0 0 1 1 0zm0 4.234a.5.5 0 1 1-1 0 .5.5 0 0 1 1 0zm4.233-4.234a.5.5 0 1 1-1 0 .5.5 0 0 1 1 0zm2.117 0a.5.5 0 1 1-1 0 .5.5 0 0 1 1 0zm0 4.234a.5.5 0 1 1-1 0 .5.5 0 0 1 1 0zm3.175-2.117a.5.5 0 1 1-1 0 .5.5 0 0 1 1 0zm2.116 0a.5.5 0 1 1-1 0 .5.5 0 0 1 1 0zm-3.175 2.117a.5.5 0 1 1-1 0 .5.5 0 0 1 1 0zm0-4.234a.5.5 0 1 1-1 0 .5.5 0 0 1 1 0zm2.117 0a.5.5 0 1 1-1 0 .5.5 0 0 1 1 0zm0 4.234a.5.5 0 1 1-1 0 .5.5 0 0 1 1 0zm2.117-4.234a.5.5 0 1 1-1 0 .5.5 0 0 1 1 0zm0 4.234a.5.5 0 1 1-1 0 .5.5 0 0 1 1 0zm-10.584 0a.5.5 0 1 1-1 0 .5.5 0 0 1 1 0zm-1.058-2.117a.5.5 0 1 1-1 0 .5.5 0 0 1 1 0zm1.058-2.117a.5.5 0 1 1-1 0 .5.5 0 0 1 1 0zm3.175 2.117a.5.5 0 1 1-1 0 .5.5 0 0 1 1 0zm8.467-4.233a.5.5 0 1 1-1 0 .5.5 0 0 1 1 0zm-1.058-2.117a.5.5 0 1 1-1 0 .5.5 0 0 1 1 0zm1.058-2.117a.5.5 0 1 1-1 0 .5.5 0 0 1 1 0zm-10.583 4.234a.5.5 0 1 1-1 0 .5.5 0 0 1 1 0zm-1.059-2.117a.5.5 0 1 1-1 0 .5.5 0 0 1 1 0zm4.234 0a.5.5 0 1 1-1 0 .5.5 0 0 1 1 0zm-10.584 0a.5.5 0 1 1-1 0 .5.5 0 0 1 1 0zm2.117 0a.5.5 0 1 1-1 0 .5.5 0 0 1 1 0zm-3.175 2.117a.5.5 0 1 1-1 0 .5.5 0 0 1 1 0zm0-4.234a.5.5 0 1 1-1 0 .5.5 0 0 1 1 0zm2.117 0a.5.5 0 1 1-1 0 .5.5 0 0 1 1 0zm0 4.234a.5.5 0 1 1-1 0 .5.5 0 0 1 1 0zm2.116-4.234a.5.5 0 1 1-1 0 .5.5 0 0 1 1 0zm0 4.234a.5.5 0 1 1-1 0 .5.5 0 0 1 1 0zm4.234-4.234a.5.5 0 1 1-1 0 .5.5 0 0 1 1 0zm2.116 0a.5.5 0 1 1-1 0 .5.5 0 0 1 1 0zm0 4.234a.5.5 0 1 1-1 0 .5.5 0 0 1 1 0zm3.175-2.117a.5.5 0 1 1-1 0 .5.5 0 0 1 1 0zm2.117 0a.5.5 0 1 1-1 0 .5.5 0 0 1 1 0zm-3.175 2.117a.5.5 0 1 1-1 0 .5.5 0 0 1 1 0zm0-4.234a.5.5 0 1 1-1 0 .5.5 0 0 1 1 0zm2.117 0a.5.5 0 1 1-1 0 .5.5 0 0 1 1 0zm0 4.234a.5.5 0 1 1-1 0 .5.5 0 0 1 1 0zm2.116-4.234a.5.5 0 1 1-1 0 .5.5 0 0 1 1 0zm0 4.234a.5.5 0 1 1-1 0 .5.5 0 0 1 1 0zm-10.583 0a.5.5 0 1 1-1 0 .5.5 0 0 1 1 0zm-1.058-2.117a.5.5 0 1 1-1 0 .5.5 0 0 1 1 0zm1.058-2.117a.5.5 0 1 1-1 0 .5.5 0 0 1 1 0zm3.175 2.117a.5.5 0 1 1-1 0 .5.5 0 0 1 1 0zm0-4.233a.5.5 0 1 1-1 0 .5.5 0 0 1 1 0zm-1.058-2.117a.5.5 0 1 1-1 0 .5.5 0 0 1 1 0zm4.233 0a.5.5 0 1 1-1 0 .5.5 0 0 1 1 0zm-12.7 0a.5.5 0 1 1-1 0 .5.5 0 0 1 1 0zm2.117 0a.5.5 0 1 1-1 0 .5.5 0 0 1 1 0zm2.116 0a.5.5 0 1 1-1 0 .5.5 0 0 1 1 0zm-3.175 2.117a.5.5 0 1 1-1 0 .5.5 0 0 1 1 0zm0-4.234a.5.5 0 1 1-1 0 .5.5 0 0 1 1 0zm2.117 0a.5.5 0 1 1-1 0 .5.5 0 0 1 1 0zm0 4.234a.5.5 0 1 1-1 0 .5.5 0 0 1 1 0zm2.117-4.234a.5.5 0 1 1-1 0 .5.5 0 0 1 1 0zm0 4.234a.5.5 0 1 1-1 0 .5.5 0 0 1 1 0zm4.233-4.234a.5.5 0 1 1-1 0 .5.5 0 0 1 1 0zm2.117 0a.5.5 0 1 1-1 0 .5.5 0 0 1 1 0zm0 4.234a.5.5 0 1 1-1 0 .5.5 0 0 1 1 0zm2.116 0a.5.5 0 1 1-1 0 .5.5 0 0 1 1 0zm0-4.234a.5.5 0 1 1-1 0 .5.5 0 0 1 1 0zm-6.35 4.234a.5.5 0 1 1-1 0 .5.5 0 0 1 1 0zm-1.058-2.117a.5.5 0 1 1-1 0 .5.5 0 0 1 1 0zm1.058-2.117a.5.5 0 1 1-1 0 .5.5 0 0 1 1 0zm3.175 2.117a.5.5 0 1 1-1 0 .5.5 0 0 1 1 0z" clip-path="url(#a)" transform="translate(-24.133 18.014)"/><path style="fill:#fff;fill-opacity:1;stroke:#596d98;stroke-width:2;stroke-linecap:round;stroke-linejoin:round;stroke-miterlimit:4;stroke-dasharray:none;paint-order:markers fill stroke" d="M930.578-292.994c-.495 0-.893.429-.893.96v18.182c0 .532.398.96.893.96h12.78c.495 0 .893-.428.893-.96v-14.213l-4.929-4.929z" transform="translate(33.017 17.485)"/><path style="fill:#fff;fill-opacity:1;stroke:#596d98;stroke-width:2;stroke-linecap:round;stroke-linejoin:round;stroke-miterlimit:4;stroke-dasharray:none;paint-order:markers fill stroke" d="m944.251-288.065-4.929-4.929v3.97c0 .531.398.96.893.96z" transform="translate(33.017 17.485)"/><path style="color:#000;fill:#e4ded8;stroke-width:2;stroke-linecap:round;stroke-linejoin:round;-inkscape-stroke:none;paint-order:markers fill stroke" d="M956.045-292.005c-1.071 0-1.893.93-1.893 1.96v18.183c0 1.03.822 1.959 1.893 1.959h12.782c1.071 0 1.892-.929 1.892-1.96v-14.212a1 1 0 0 0-.293-.707l-4.93-4.93a1 1 0 0 0-.706-.293z" transform="translate(-10.97 17.084)"/><path style="fill:#5f7ca3;stroke-width:.0299333;stroke-linecap:round;stroke-linejoin:round;paint-order:markers fill stroke" d="M1005.957-269.114a.5.5 0 1 1-1 0 .5.5 0 0 1 1 0zm-1.058-2.117a.5.5 0 1 1-1 0 .5.5 0 0 1 1 0zm1.058-2.117a.5.5 0 1 1-1 0 .5.5 0 0 1 1 0zm-10.583 4.234a.5.5 0 1 1-1 0 .5.5 0 0 1 1 0zm-1.059-2.117a.5.5 0 1 1-1 0 .5.5 0 0 1 1 0zm4.234 0a.5.5 0 1 1-1 0 .5.5 0 0 1 1 0zm-8.467 0a.5.5 0 1 1-1 0 .5.5 0 0 1 1 0zm-3.175 2.117a.5.5 0 1 1-1 0 .5.5 0 0 1 1 0zm0-4.234a.5.5 0 1 1-1 0 .5.5 0 0 1 1 0zm2.117 0a.5.5 0 1 1-1 0 .5.5 0 0 1 1 0zm0 4.234a.5.5 0 1 1-1 0 .5.5 0 0 1 1 0zm2.116-4.234a.5.5 0 1 1-1 0 .5.5 0 0 1 1 0zm0 4.234a.5.5 0 1 1-1 0 .5.5 0 0 1 1 0zm4.234-4.234a.5.5 0 1 1-1 0 .5.5 0 0 1 1 0zm2.116 0a.5.5 0 1 1-1 0 .5.5 0 0 1 1 0zm0 4.234a.5.5 0 1 1-1 0 .5.5 0 0 1 1 0zm3.175-2.117a.5.5 0 1 1-1 0 .5.5 0 0 1 1 0zm2.117 0a.5.5 0 1 1-1 0 .5.5 0 0 1 1 0zm-3.175 2.117a.5.5 0 1 1-1 0 .5.5 0 0 1 1 0zm0-4.234a.5.5 0 1 1-1 0 .5.5 0 0 1 1 0zm2.117 0a.5.5 0 1 1-1 0 .5.5 0 0 1 1 0zm0 4.234a.5.5 0 1 1-1 0 .5.5 0 0 1 1 0zm2.116-4.234a.5.5 0 1 1-1 0 .5.5 0 0 1 1 0zm0 4.234a.5.5 0 1 1-1 0 .5.5 0 0 1 1 0zm-10.583 0a.5.5 0 1 1-1 0 .5.5 0 0 1 1 0zm-1.058-2.117a.5.5 0 1 1-1 0 .5.5 0 0 1 1 0zm1.058-2.117a.5.5 0 1 1-1 0 .5.5 0 0 1 1 0zm3.175 2.117a.5.5 0 1 1-1 0 .5.5 0 0 1 1 0zm9.525-6.35a.5.5 0 1 1-1 0 .5.5 0 0 1 1 0zm-9.525 2.117a.5.5 0 1 1-1 0 .5.5 0 0 1 1 0zm-1.058-2.117a.5.5 0 1 1-1 0 .5.5 0 0 1 1 0zm4.233 0a.5.5 0 1 1-1 0 .5.5 0 0 1 1 0zm-12.7 0a.5.5 0 1 1-1 0 .5.5 0 0 1 1 0zm2.117 0a.5.5 0 1 1-1 0 .5.5 0 0 1 1 0zm2.116 0a.5.5 0 1 1-1 0 .5.5 0 0 1 1 0zm-3.175 2.117a.5.5 0 1 1-1 0 .5.5 0 0 1 1 0zm0-4.234a.5.5 0 1 1-1 0 .5.5 0 0 1 1 0zm2.117 0a.5.5 0 1 1-1 0 .5.5 0 0 1 1 0zm0 4.234a.5.5 0 1 1-1 0 .5.5 0 0 1 1 0zm2.117-4.234a.5.5 0 1 1-1 0 .5.5 0 0 1 1 0zm0 4.234a.5.5 0 1 1-1 0 .5.5 0 0 1 1 0zm4.233-4.234a.5.5 0 1 1-1 0 .5.5 0 0 1 1 0zm2.117 0a.5.5 0 1 1-1 0 .5.5 0 0 1 1 0zm0 4.234a.5.5 0 1 1-1 0 .5.5 0 0 1 1 0zm3.175-2.117a.5.5 0 1 1-1 0 .5.5 0 0 1 1 0zm2.116 0a.5.5 0 1 1-1 0 .5.5 0 0 1 1 0zm-3.175 2.117a.5.5 0 1 1-1 0 .5.5 0 0 1 1 0zm0-4.234a.5.5 0 1 1-1 0 .5.5 0 0 1 1 0zm2.117 0a.5.5 0 1 1-1 0 .5.5 0 0 1 1 0zm0 4.234a.5.5 0 1 1-1 0 .5.5 0 0 1 1 0zm2.117-4.234a.5.5 0 1 1-1 0 .5.5 0 0 1 1 0zm0 4.234a.5.5 0 1 1-1 0 .5.5 0 0 1 1 0zm-10.584 0a.5.5 0 1 1-1 0 .5.5 0 0 1 1 0zm-1.058-2.117a.5.5 0 1 1-1 0 .5.5 0 0 1 1 0zm1.058-2.117a.5.5 0 1 1-1 0 .5.5 0 0 1 1 0zm3.175 2.117a.5.5 0 1 1-1 0 .5.5 0 0 1 1 0zm8.467-4.233a.5.5 0 1 1-1 0 .5.5 0 0 1 1 0zm-1.058-2.117a.5.5 0 1 1-1 0 .5.5 0 0 1 1 0zm1.058-2.117a.5.5 0 1 1-1 0 .5.5 0 0 1 1 0zm-10.583 4.234a.5.5 0 1 1-1 0 .5.5 0 0 1 1 0zm-1.059-2.117a.5.5 0 1 1-1 0 .5.5 0 0 1 1 0zm4.234 0a.5.5 0 1 1-1 0 .5.5 0 0 1 1 0zm-10.584 0a.5.5 0 1 1-1 0 .5.5 0 0 1 1 0zm2.117 0a.5.5 0 1 1-1 0 .5.5 0 0 1 1 0zm-3.175 2.117a.5.5 0 1 1-1 0 .5.5 0 0 1 1 0zm0-4.234a.5.5 0 1 1-1 0 .5.5 0 0 1 1 0zm2.117 0a.5.5 0 1 1-1 0 .5.5 0 0 1 1 0zm0 4.234a.5.5 0 1 1-1 0 .5.5 0 0 1 1 0zm2.116-4.234a.5.5 0 1 1-1 0 .5.5 0 0 1 1 0zm0 4.234a.5.5 0 1 1-1 0 .5.5 0 0 1 1 0zm4.234-4.234a.5.5 0 1 1-1 0 .5.5 0 0 1 1 0zm2.116 0a.5.5 0 1 1-1 0 .5.5 0 0 1 1 0zm0 4.234a.5.5 0 1 1-1 0 .5.5 0 0 1 1 0zm3.175-2.117a.5.5 0 1 1-1 0 .5.5 0 0 1 1 0zm2.117 0a.5.5 0 1 1-1 0 .5.5 0 0 1 1 0zm-3.175 2.117a.5.5 0 1 1-1 0 .5.5 0 0 1 1 0zm0-4.234a.5.5 0 1 1-1 0 .5.5 0 0 1 1 0zm2.117 0a.5.5 0 1 1-1 0 .5.5 0 0 1 1 0zm0 4.234a.5.5 0 1 1-1 0 .5.5 0 0 1 1 0zm2.116-4.234a.5.5 0 1 1-1 0 .5.5 0 0 1 1 0zm0 4.234a.5.5 0 1 1-1 0 .5.5 0 0 1 1 0zm-10.583 0a.5.5 0 1 1-1 0 .5.5 0 0 1 1 0zm-1.058-2.117a.5.5 0 1 1-1 0 .5.5 0 0 1 1 0zm1.058-2.117a.5.5 0 1 1-1 0 .5.5 0 0 1 1 0zm3.175 2.117a.5.5 0 1 1-1 0 .5.5 0 0 1 1 0zm0-4.233a.5.5 0 1 1-1 0 .5.5 0 0 1 1 0zm-1.058-2.117a.5.5 0 1 1-1 0 .5.5 0 0 1 1 0zm4.233 0a.5.5 0 1 1-1 0 .5.5 0 0 1 1 0zm-12.7 0a.5.5 0 1 1-1 0 .5.5 0 0 1 1 0zm2.117 0a.5.5 0 1 1-1 0 .5.5 0 0 1 1 0zm2.116 0a.5.5 0 1 1-1 0 .5.5 0 0 1 1 0zm-3.175 2.117a.5.5 0 1 1-1 0 .5.5 0 0 1 1 0zm0-4.234a.5.5 0 1 1-1 0 .5.5 0 0 1 1 0zm2.117 0a.5.5 0 1 1-1 0 .5.5 0 0 1 1 0zm0 4.234a.5.5 0 1 1-1 0 .5.5 0 0 1 1 0zm2.117-4.234a.5.5 0 1 1-1 0 .5.5 0 0 1 1 0zm0 4.234a.5.5 0 1 1-1 0 .5.5 0 0 1 1 0zm4.233-4.234a.5.5 0 1 1-1 0 .5.5 0 0 1 1 0zm2.117 0a.5.5 0 1 1-1 0 .5.5 0 0 1 1 0zm0 4.234a.5.5 0 1 1-1 0 .5.5 0 0 1 1 0zm2.116 0a.5.5 0 1 1-1 0 .5.5 0 0 1 1 0zm0-4.234a.5.5 0 1 1-1 0 .5.5 0 0 1 1 0zm-6.35 4.234a.5.5 0 1 1-1 0 .5.5 0 0 1 1 0zm-1.058-2.117a.5.5 0 1 1-1 0 .5.5 0 0 1 1 0zm1.058-2.117a.5.5 0 1 1-1 0 .5.5 0 0 1 1 0zm3.175 2.117a.5.5 0 1 1-1 0 .5.5 0 0 1 1 0z" clip-path="url(#b)" transform="translate(-43.712 18.014)"/><path style="fill:#fff;fill-opacity:1;stroke:#596d98;stroke-width:2;stroke-linecap:round;stroke-linejoin:round;stroke-miterlimit:4;stroke-dasharray:none;paint-order:markers fill stroke" d="M954.986-292.592c-.494 0-.892.428-.892.96v18.181c0 .532.398.96.892.96h12.782c.494 0 .892-.428.892-.96v-14.212l-4.929-4.929z" transform="translate(-10.97 17.084)"/><path style="fill:#fff;fill-opacity:1;stroke:#596d98;stroke-width:2;stroke-linecap:round;stroke-linejoin:round;stroke-miterlimit:4;stroke-dasharray:none;paint-order:markers fill stroke" d="m968.66-287.663-4.929-4.929v3.969c0 .532.398.96.893.96z" transform="translate(-10.97 17.084)"/><path style="color:#000;fill:#e4ded8;stroke-width:2;stroke-linecap:round;stroke-linejoin:round;-inkscape-stroke:none;paint-order:markers fill stroke" d="M932.271-263.276c-1.072 0-1.893.93-1.893 1.961v18.182c0 1.03.821 1.959 1.893 1.959h12.781c1.072 0 1.893-.928 1.893-1.96v-14.212a1 1 0 0 0-.293-.707l-4.93-4.93a1 1 0 0 0-.707-.293z" transform="translate(32.383 -36.517)"/><path style="fill:#5f7ca3;stroke-width:.0299333;stroke-linecap:round;stroke-linejoin:round;paint-order:markers fill stroke" d="M1005.957-269.114a.5.5 0 1 1-1 0 .5.5 0 0 1 1 0zm-1.058-2.117a.5.5 0 1 1-1 0 .5.5 0 0 1 1 0zm1.058-2.117a.5.5 0 1 1-1 0 .5.5 0 0 1 1 0zm-10.583 4.234a.5.5 0 1 1-1 0 .5.5 0 0 1 1 0zm-1.059-2.117a.5.5 0 1 1-1 0 .5.5 0 0 1 1 0zm4.234 0a.5.5 0 1 1-1 0 .5.5 0 0 1 1 0zm-8.467 0a.5.5 0 1 1-1 0 .5.5 0 0 1 1 0zm-3.175 2.117a.5.5 0 1 1-1 0 .5.5 0 0 1 1 0zm0-4.234a.5.5 0 1 1-1 0 .5.5 0 0 1 1 0zm2.117 0a.5.5 0 1 1-1 0 .5.5 0 0 1 1 0zm0 4.234a.5.5 0 1 1-1 0 .5.5 0 0 1 1 0zm2.116-4.234a.5.5 0 1 1-1 0 .5.5 0 0 1 1 0zm0 4.234a.5.5 0 1 1-1 0 .5.5 0 0 1 1 0zm4.234-4.234a.5.5 0 1 1-1 0 .5.5 0 0 1 1 0zm2.116 0a.5.5 0 1 1-1 0 .5.5 0 0 1 1 0zm0 4.234a.5.5 0 1 1-1 0 .5.5 0 0 1 1 0zm3.175-2.117a.5.5 0 1 1-1 0 .5.5 0 0 1 1 0zm2.117 0a.5.5 0 1 1-1 0 .5.5 0 0 1 1 0zm-3.175 2.117a.5.5 0 1 1-1 0 .5.5 0 0 1 1 0zm0-4.234a.5.5 0 1 1-1 0 .5.5 0 0 1 1 0zm2.117 0a.5.5 0 1 1-1 0 .5.5 0 0 1 1 0zm0 4.234a.5.5 0 1 1-1 0 .5.5 0 0 1 1 0zm2.116-4.234a.5.5 0 1 1-1 0 .5.5 0 0 1 1 0zm0 4.234a.5.5 0 1 1-1 0 .5.5 0 0 1 1 0zm-10.583 0a.5.5 0 1 1-1 0 .5.5 0 0 1 1 0zm-1.058-2.117a.5.5 0 1 1-1 0 .5.5 0 0 1 1 0zm1.058-2.117a.5.5 0 1 1-1 0 .5.5 0 0 1 1 0zm3.175 2.117a.5.5 0 1 1-1 0 .5.5 0 0 1 1 0zm9.525-6.35a.5.5 0 1 1-1 0 .5.5 0 0 1 1 0zm-9.525 2.117a.5.5 0 1 1-1 0 .5.5 0 0 1 1 0zm-1.058-2.117a.5.5 0 1 1-1 0 .5.5 0 0 1 1 0zm4.233 0a.5.5 0 1 1-1 0 .5.5 0 0 1 1 0zm-12.7 0a.5.5 0 1 1-1 0 .5.5 0 0 1 1 0zm2.117 0a.5.5 0 1 1-1 0 .5.5 0 0 1 1 0zm2.116 0a.5.5 0 1 1-1 0 .5.5 0 0 1 1 0zm-3.175 2.117a.5.5 0 1 1-1 0 .5.5 0 0 1 1 0zm0-4.234a.5.5 0 1 1-1 0 .5.5 0 0 1 1 0zm2.117 0a.5.5 0 1 1-1 0 .5.5 0 0 1 1 0zm0 4.234a.5.5 0 1 1-1 0 .5.5 0 0 1 1 0zm2.117-4.234a.5.5 0 1 1-1 0 .5.5 0 0 1 1 0zm0 4.234a.5.5 0 1 1-1 0 .5.5 0 0 1 1 0zm4.233-4.234a.5.5 0 1 1-1 0 .5.5 0 0 1 1 0zm2.117 0a.5.5 0 1 1-1 0 .5.5 0 0 1 1 0zm0 4.234a.5.5 0 1 1-1 0 .5.5 0 0 1 1 0zm3.175-2.117a.5.5 0 1 1-1 0 .5.5 0 0 1 1 0zm2.116 0a.5.5 0 1 1-1 0 .5.5 0 0 1 1 0zm-3.175 2.117a.5.5 0 1 1-1 0 .5.5 0 0 1 1 0zm0-4.234a.5.5 0 1 1-1 0 .5.5 0 0 1 1 0zm2.117 0a.5.5 0 1 1-1 0 .5.5 0 0 1 1 0zm0 4.234a.5.5 0 1 1-1 0 .5.5 0 0 1 1 0zm2.117-4.234a.5.5 0 1 1-1 0 .5.5 0 0 1 1 0zm0 4.234a.5.5 0 1 1-1 0 .5.5 0 0 1 1 0zm-10.584 0a.5.5 0 1 1-1 0 .5.5 0 0 1 1 0zm-1.058-2.117a.5.5 0 1 1-1 0 .5.5 0 0 1 1 0zm1.058-2.117a.5.5 0 1 1-1 0 .5.5 0 0 1 1 0zm3.175 2.117a.5.5 0 1 1-1 0 .5.5 0 0 1 1 0zm8.467-4.233a.5.5 0 1 1-1 0 .5.5 0 0 1 1 0zm-1.058-2.117a.5.5 0 1 1-1 0 .5.5 0 0 1 1 0zm1.058-2.117a.5.5 0 1 1-1 0 .5.5 0 0 1 1 0zm-10.583 4.234a.5.5 0 1 1-1 0 .5.5 0 0 1 1 0zm-1.059-2.117a.5.5 0 1 1-1 0 .5.5 0 0 1 1 0zm4.234 0a.5.5 0 1 1-1 0 .5.5 0 0 1 1 0zm-10.584 0a.5.5 0 1 1-1 0 .5.5 0 0 1 1 0zm2.117 0a.5.5 0 1 1-1 0 .5.5 0 0 1 1 0zm-3.175 2.117a.5.5 0 1 1-1 0 .5.5 0 0 1 1 0zm0-4.234a.5.5 0 1 1-1 0 .5.5 0 0 1 1 0zm2.117 0a.5.5 0 1 1-1 0 .5.5 0 0 1 1 0zm0 4.234a.5.5 0 1 1-1 0 .5.5 0 0 1 1 0zm2.116-4.234a.5.5 0 1 1-1 0 .5.5 0 0 1 1 0zm0 4.234a.5.5 0 1 1-1 0 .5.5 0 0 1 1 0zm4.234-4.234a.5.5 0 1 1-1 0 .5.5 0 0 1 1 0zm2.116 0a.5.5 0 1 1-1 0 .5.5 0 0 1 1 0zm0 4.234a.5.5 0 1 1-1 0 .5.5 0 0 1 1 0zm3.175-2.117a.5.5 0 1 1-1 0 .5.5 0 0 1 1 0zm2.117 0a.5.5 0 1 1-1 0 .5.5 0 0 1 1 0zm-3.175 2.117a.5.5 0 1 1-1 0 .5.5 0 0 1 1 0zm0-4.234a.5.5 0 1 1-1 0 .5.5 0 0 1 1 0zm2.117 0a.5.5 0 1 1-1 0 .5.5 0 0 1 1 0zm0 4.234a.5.5 0 1 1-1 0 .5.5 0 0 1 1 0zm2.116-4.234a.5.5 0 1 1-1 0 .5.5 0 0 1 1 0zm0 4.234a.5.5 0 1 1-1 0 .5.5 0 0 1 1 0zm-10.583 0a.5.5 0 1 1-1 0 .5.5 0 0 1 1 0zm-1.058-2.117a.5.5 0 1 1-1 0 .5.5 0 0 1 1 0zm1.058-2.117a.5.5 0 1 1-1 0 .5.5 0 0 1 1 0zm3.175 2.117a.5.5 0 1 1-1 0 .5.5 0 0 1 1 0zm0-4.233a.5.5 0 1 1-1 0 .5.5 0 0 1 1 0zm-1.058-2.117a.5.5 0 1 1-1 0 .5.5 0 0 1 1 0zm4.233 0a.5.5 0 1 1-1 0 .5.5 0 0 1 1 0zm-12.7 0a.5.5 0 1 1-1 0 .5.5 0 0 1 1 0zm2.117 0a.5.5 0 1 1-1 0 .5.5 0 0 1 1 0zm2.116 0a.5.5 0 1 1-1 0 .5.5 0 0 1 1 0zm-3.175 2.117a.5.5 0 1 1-1 0 .5.5 0 0 1 1 0zm0-4.234a.5.5 0 1 1-1 0 .5.5 0 0 1 1 0zm2.117 0a.5.5 0 1 1-1 0 .5.5 0 0 1 1 0zm0 4.234a.5.5 0 1 1-1 0 .5.5 0 0 1 1 0zm2.117-4.234a.5.5 0 1 1-1 0 .5.5 0 0 1 1 0zm0 4.234a.5.5 0 1 1-1 0 .5.5 0 0 1 1 0zm4.233-4.234a.5.5 0 1 1-1 0 .5.5 0 0 1 1 0zm2.117 0a.5.5 0 1 1-1 0 .5.5 0 0 1 1 0zm0 4.234a.5.5 0 1 1-1 0 .5.5 0 0 1 1 0zm2.116 0a.5.5 0 1 1-1 0 .5.5 0 0 1 1 0zm0-4.234a.5.5 0 1 1-1 0 .5.5 0 0 1 1 0zm-6.35 4.234a.5.5 0 1 1-1 0 .5.5 0 0 1 1 0zm-1.058-2.117a.5.5 0 1 1-1 0 .5.5 0 0 1 1 0zm1.058-2.117a.5.5 0 1 1-1 0 .5.5 0 0 1 1 0zm3.175 2.117a.5.5 0 1 1-1 0 .5.5 0 0 1 1 0z" clip-path="url(#c)" transform="translate(-24.133 -6.856)"/><path style="fill:#fff;fill-opacity:1;stroke:#596d98;stroke-width:2;stroke-linecap:round;stroke-linejoin:round;stroke-miterlimit:4;stroke-dasharray:none;paint-order:markers fill stroke" d="M931.212-263.863c-.494 0-.892.428-.892.96v18.182c0 .532.398.96.892.96h12.781c.495 0 .893-.428.893-.96v-14.213l-4.93-4.929z" transform="translate(32.383 -36.517)"/><path style="fill:#fff;fill-opacity:1;stroke:#596d98;stroke-width:2;stroke-linecap:round;stroke-linejoin:round;stroke-miterlimit:4;stroke-dasharray:none;paint-order:markers fill stroke" d="m944.886-258.934-4.93-4.929v3.969c0 .532.399.96.893.96z" transform="translate(32.383 -36.517)"/><path style="color:#000;fill:#e4ded8;stroke-width:2;stroke-linecap:round;stroke-linejoin:round;-inkscape-stroke:none;paint-order:markers fill stroke" d="M956.385-262.835c-1.072 0-1.893.93-1.893 1.96v18.182c0 1.031.821 1.96 1.893 1.96h12.781c1.072 0 1.893-.929 1.893-1.96v-14.213a1 1 0 0 0-.293-.707l-4.93-4.93a1 1 0 0 0-.707-.292z" transform="translate(-11.31 -36.957)"/><path style="fill:#5f7ca3;stroke-width:.0299333;stroke-linecap:round;stroke-linejoin:round;paint-order:markers fill stroke" d="M1005.957-269.114a.5.5 0 1 1-1 0 .5.5 0 0 1 1 0zm-1.058-2.117a.5.5 0 1 1-1 0 .5.5 0 0 1 1 0zm1.058-2.117a.5.5 0 1 1-1 0 .5.5 0 0 1 1 0zm-10.583 4.234a.5.5 0 1 1-1 0 .5.5 0 0 1 1 0zm-1.059-2.117a.5.5 0 1 1-1 0 .5.5 0 0 1 1 0zm4.234 0a.5.5 0 1 1-1 0 .5.5 0 0 1 1 0zm-8.467 0a.5.5 0 1 1-1 0 .5.5 0 0 1 1 0zm-3.175 2.117a.5.5 0 1 1-1 0 .5.5 0 0 1 1 0zm0-4.234a.5.5 0 1 1-1 0 .5.5 0 0 1 1 0zm2.117 0a.5.5 0 1 1-1 0 .5.5 0 0 1 1 0zm0 4.234a.5.5 0 1 1-1 0 .5.5 0 0 1 1 0zm2.116-4.234a.5.5 0 1 1-1 0 .5.5 0 0 1 1 0zm0 4.234a.5.5 0 1 1-1 0 .5.5 0 0 1 1 0zm4.234-4.234a.5.5 0 1 1-1 0 .5.5 0 0 1 1 0zm2.116 0a.5.5 0 1 1-1 0 .5.5 0 0 1 1 0zm0 4.234a.5.5 0 1 1-1 0 .5.5 0 0 1 1 0zm3.175-2.117a.5.5 0 1 1-1 0 .5.5 0 0 1 1 0zm2.117 0a.5.5 0 1 1-1 0 .5.5 0 0 1 1 0zm-3.175 2.117a.5.5 0 1 1-1 0 .5.5 0 0 1 1 0zm0-4.234a.5.5 0 1 1-1 0 .5.5 0 0 1 1 0zm2.117 0a.5.5 0 1 1-1 0 .5.5 0 0 1 1 0zm0 4.234a.5.5 0 1 1-1 0 .5.5 0 0 1 1 0zm2.116-4.234a.5.5 0 1 1-1 0 .5.5 0 0 1 1 0zm0 4.234a.5.5 0 1 1-1 0 .5.5 0 0 1 1 0zm-10.583 0a.5.5 0 1 1-1 0 .5.5 0 0 1 1 0zm-1.058-2.117a.5.5 0 1 1-1 0 .5.5 0 0 1 1 0zm1.058-2.117a.5.5 0 1 1-1 0 .5.5 0 0 1 1 0zm3.175 2.117a.5.5 0 1 1-1 0 .5.5 0 0 1 1 0zm9.525-6.35a.5.5 0 1 1-1 0 .5.5 0 0 1 1 0zm-9.525 2.117a.5.5 0 1 1-1 0 .5.5 0 0 1 1 0zm-1.058-2.117a.5.5 0 1 1-1 0 .5.5 0 0 1 1 0zm4.233 0a.5.5 0 1 1-1 0 .5.5 0 0 1 1 0zm-12.7 0a.5.5 0 1 1-1 0 .5.5 0 0 1 1 0zm2.117 0a.5.5 0 1 1-1 0 .5.5 0 0 1 1 0zm2.116 0a.5.5 0 1 1-1 0 .5.5 0 0 1 1 0zm-3.175 2.117a.5.5 0 1 1-1 0 .5.5 0 0 1 1 0zm0-4.234a.5.5 0 1 1-1 0 .5.5 0 0 1 1 0zm2.117 0a.5.5 0 1 1-1 0 .5.5 0 0 1 1 0zm0 4.234a.5.5 0 1 1-1 0 .5.5 0 0 1 1 0zm2.117-4.234a.5.5 0 1 1-1 0 .5.5 0 0 1 1 0zm0 4.234a.5.5 0 1 1-1 0 .5.5 0 0 1 1 0zm4.233-4.234a.5.5 0 1 1-1 0 .5.5 0 0 1 1 0zm2.117 0a.5.5 0 1 1-1 0 .5.5 0 0 1 1 0zm0 4.234a.5.5 0 1 1-1 0 .5.5 0 0 1 1 0zm3.175-2.117a.5.5 0 1 1-1 0 .5.5 0 0 1 1 0zm2.116 0a.5.5 0 1 1-1 0 .5.5 0 0 1 1 0zm-3.175 2.117a.5.5 0 1 1-1 0 .5.5 0 0 1 1 0zm0-4.234a.5.5 0 1 1-1 0 .5.5 0 0 1 1 0zm2.117 0a.5.5 0 1 1-1 0 .5.5 0 0 1 1 0zm0 4.234a.5.5 0 1 1-1 0 .5.5 0 0 1 1 0zm2.117-4.234a.5.5 0 1 1-1 0 .5.5 0 0 1 1 0zm0 4.234a.5.5 0 1 1-1 0 .5.5 0 0 1 1 0zm-10.584 0a.5.5 0 1 1-1 0 .5.5 0 0 1 1 0zm-1.058-2.117a.5.5 0 1 1-1 0 .5.5 0 0 1 1 0zm1.058-2.117a.5.5 0 1 1-1 0 .5.5 0 0 1 1 0zm3.175 2.117a.5.5 0 1 1-1 0 .5.5 0 0 1 1 0zm8.467-4.233a.5.5 0 1 1-1 0 .5.5 0 0 1 1 0zm-1.058-2.117a.5.5 0 1 1-1 0 .5.5 0 0 1 1 0zm1.058-2.117a.5.5 0 1 1-1 0 .5.5 0 0 1 1 0zm-10.583 4.234a.5.5 0 1 1-1 0 .5.5 0 0 1 1 0zm-1.059-2.117a.5.5 0 1 1-1 0 .5.5 0 0 1 1 0zm4.234 0a.5.5 0 1 1-1 0 .5.5 0 0 1 1 0zm-10.584 0a.5.5 0 1 1-1 0 .5.5 0 0 1 1 0zm2.117 0a.5.5 0 1 1-1 0 .5.5 0 0 1 1 0zm-3.175 2.117a.5.5 0 1 1-1 0 .5.5 0 0 1 1 0zm0-4.234a.5.5 0 1 1-1 0 .5.5 0 0 1 1 0zm2.117 0a.5.5 0 1 1-1 0 .5.5 0 0 1 1 0zm0 4.234a.5.5 0 1 1-1 0 .5.5 0 0 1 1 0zm2.116-4.234a.5.5 0 1 1-1 0 .5.5 0 0 1 1 0zm0 4.234a.5.5 0 1 1-1 0 .5.5 0 0 1 1 0zm4.234-4.234a.5.5 0 1 1-1 0 .5.5 0 0 1 1 0zm2.116 0a.5.5 0 1 1-1 0 .5.5 0 0 1 1 0zm0 4.234a.5.5 0 1 1-1 0 .5.5 0 0 1 1 0zm3.175-2.117a.5.5 0 1 1-1 0 .5.5 0 0 1 1 0zm2.117 0a.5.5 0 1 1-1 0 .5.5 0 0 1 1 0zm-3.175 2.117a.5.5 0 1 1-1 0 .5.5 0 0 1 1 0zm0-4.234a.5.5 0 1 1-1 0 .5.5 0 0 1 1 0zm2.117 0a.5.5 0 1 1-1 0 .5.5 0 0 1 1 0zm0 4.234a.5.5 0 1 1-1 0 .5.5 0 0 1 1 0zm2.116-4.234a.5.5 0 1 1-1 0 .5.5 0 0 1 1 0zm0 4.234a.5.5 0 1 1-1 0 .5.5 0 0 1 1 0zm-10.583 0a.5.5 0 1 1-1 0 .5.5 0 0 1 1 0zm-1.058-2.117a.5.5 0 1 1-1 0 .5.5 0 0 1 1 0zm1.058-2.117a.5.5 0 1 1-1 0 .5.5 0 0 1 1 0zm3.175 2.117a.5.5 0 1 1-1 0 .5.5 0 0 1 1 0zm0-4.233a.5.5 0 1 1-1 0 .5.5 0 0 1 1 0zm-1.058-2.117a.5.5 0 1 1-1 0 .5.5 0 0 1 1 0zm4.233 0a.5.5 0 1 1-1 0 .5.5 0 0 1 1 0zm-12.7 0a.5.5 0 1 1-1 0 .5.5 0 0 1 1 0zm2.117 0a.5.5 0 1 1-1 0 .5.5 0 0 1 1 0zm2.116 0a.5.5 0 1 1-1 0 .5.5 0 0 1 1 0zm-3.175 2.117a.5.5 0 1 1-1 0 .5.5 0 0 1 1 0zm0-4.234a.5.5 0 1 1-1 0 .5.5 0 0 1 1 0zm2.117 0a.5.5 0 1 1-1 0 .5.5 0 0 1 1 0zm0 4.234a.5.5 0 1 1-1 0 .5.5 0 0 1 1 0zm2.117-4.234a.5.5 0 1 1-1 0 .5.5 0 0 1 1 0zm0 4.234a.5.5 0 1 1-1 0 .5.5 0 0 1 1 0zm4.233-4.234a.5.5 0 1 1-1 0 .5.5 0 0 1 1 0zm2.117 0a.5.5 0 1 1-1 0 .5.5 0 0 1 1 0zm0 4.234a.5.5 0 1 1-1 0 .5.5 0 0 1 1 0zm2.116 0a.5.5 0 1 1-1 0 .5.5 0 0 1 1 0zm0-4.234a.5.5 0 1 1-1 0 .5.5 0 0 1 1 0zm-6.35 4.234a.5.5 0 1 1-1 0 .5.5 0 0 1 1 0zm-1.058-2.117a.5.5 0 1 1-1 0 .5.5 0 0 1 1 0zm1.058-2.117a.5.5 0 1 1-1 0 .5.5 0 0 1 1 0zm3.175 2.117a.5.5 0 1 1-1 0 .5.5 0 0 1 1 0z" clip-path="url(#d)" transform="translate(-43.712 -6.856)"/><path style="fill:#fff;fill-opacity:1;stroke:#596d98;stroke-width:2;stroke-linecap:round;stroke-linejoin:round;stroke-miterlimit:4;stroke-dasharray:none;paint-order:markers fill stroke" d="M955.326-263.422c-.494 0-.892.428-.892.96v18.181c0 .532.398.96.892.96h12.781c.495 0 .893-.428.893-.96v-14.212l-4.929-4.93z" transform="translate(-11.31 -36.957)"/><path style="fill:#fff;fill-opacity:1;stroke:#596d98;stroke-width:2;stroke-linecap:round;stroke-linejoin:round;stroke-miterlimit:4;stroke-dasharray:none;paint-order:markers fill stroke" d="m969-258.493-4.929-4.93v3.97c0 .531.398.96.892.96z" transform="translate(-11.31 -36.957)"/><path d="M1021.418-179.034c-.74 1.44-1.558 2.24-2.456 2.398-.33.058-.657.003-.92-.24-1.083-.996-.454-3.013.218-4.26.672-1.252 1.326-2.117 2.206-2.272.447-.079.9.257 1.12.683.42-.074.752.812.742 1.23-.014.78.27 2.64.366 2.82.1.179.17.295.209.348.04.054.139.1.297.14.159.045.249.129.27.253.034.187-.034.36-.203.518a1.06 1.06 0 0 1-.555.29c-.689.122-1.12-.515-1.294-1.908zm-.866-2.993c-.37.065-.78.56-1.23 1.486-.445.92-.618 1.667-.517 2.239.053.3.141.44.266.417.432-.076.896-.552 1.392-1.429.498-.881.697-1.61.596-2.185-.032-.183-.1-.32-.203-.412-.1-.095-.202-.134-.304-.116zM1037.812-181.533c.353-2.14.607-4.36.762-4.756.159-.395.435-.593.83-.594.305-.001.458.744.46 1.284.001.368-.149 1.61-.45 2.771-.157.574-.348 1.442-.57 2.603a6.71 6.71 0 0 1 1.5-1.495c.547-.382 1.033-.573 1.461-.575.35 0 .64.149.872.45.236.296.354.648.356 1.053.01 1.146-.433 2.225-1.312 3.236-.874 1.011-1.807 1.519-2.796 1.522-.298.001-.575-.078-.833-.237-.257-.163-.403-.37-.437-.623-.016-.138-.044-.229-.085-.273a5.903 5.903 0 0 1-.129-.145c-.108-.111-.163-.267-.163-.468-.001-.231.055-.711.167-1.44zm.672 3.96c.157.26.333.39.526.39.35-.002.736-.163 1.16-.485.426-.325.795-.78 1.105-1.365.314-.586.47-1.072.47-1.459-.001-.368-.06-.552-.175-.552-.592.002-1.255.438-1.988 1.308-.734.866-1.1 1.587-1.098 2.164zM1040.583-153.296c-.787 1.475-1.664 2.272-2.631 2.393a1.153 1.153 0 0 1-1.005-.341c-.279-.28-.448-.658-.507-1.135-.12-.963.153-1.97.82-3.021.671-1.052 1.41-1.628 2.22-1.729.464-.058.81.022 1.036.242.126-1.246.195-2.023.21-2.332.04-.576.085-.96.136-1.154a.898.898 0 0 1 .285-.468c.138-.123.263-.19.374-.205a.487.487 0 0 1 .46.179c.12.143.194.332.224.568.013.104-.031.411-.133.922-.166.831-.464 5.055-.38 5.723.08.639.26.94.54.906a1.08 1.08 0 0 0 .445-.174c.153-.094.263-.146.33-.154.18-.022.284.071.31.282.032.255-.12.532-.458.833-.334.297-.665.466-.994.507-.354.044-.651-.111-.891-.468-.24-.356-.37-.814-.391-1.374zm-2.349-1.467c-.432.804-.61 1.513-.533 2.125.045.359.2.521.466.488.45-.056 1.145-.43 1.461-1.403 1.153-3.548-.958-2.014-1.394-1.21zM1020.238-152.035c-.59.166-1.086.132-1.485-.103-.398-.236-.679-.64-.84-1.213-.255-.902-.163-1.982.275-3.238.438-1.256 1.01-1.984 1.715-2.183.34-.096.678-.008 1.014.265.335.269.554.586.657.951.097.344.098.595 0 .753-.092.153-.197.247-.315.28-.347.098-.617-.085-.81-.548-.142-.34-.22-.714-.434-.71-.83.01-1.015 3.448-.846 4.046.137.483.466.65.989.503.576-.162 1.1-.53 1.573-1.104.22-.275.41-.435.572-.48.197-.056.288.028.379.211.731 1.476-1.753 2.374-2.448 2.57z" style="font-size:12.7px;-inkscape-font-specification:'Segoe Print Bold';letter-spacing:0;word-spacing:0;mix-blend-mode:multiply;fill:#bd1f0c;stroke-width:.238125" transform="translate(-70.2 -108.92)"/><path style="color:#000;opacity:.45;mix-blend-mode:multiply;fill:#ebe0b7;stroke-width:2;stroke-linecap:round;stroke-linejoin:round;-inkscape-stroke:none;paint-order:markers fill stroke" d="M1014.216-192.46c-1.072 0-1.893.93-1.893 1.961v18.182c0 .743.427 1.432 1.066 1.76.085.96.873 1.787 1.885 1.787h12.782c1.071 0 1.892-.928 1.892-1.96v-14.212a1 1 0 0 0-.293-.707l-.766-.766v-.115a1 1 0 0 0 0-.004 1 1 0 0 0-.074-.374 1 1 0 0 0 0-.008 1 1 0 0 0-.214-.32l-4.93-4.93a1 1 0 0 0-.32-.214 1 1 0 0 0-.01-.004 1 1 0 0 0-.37-.073 1 1 0 0 0-.01-.002zM1033.794-192.46c-1.072 0-1.893.93-1.893 1.961v18.182c0 .743.428 1.432 1.067 1.76.085.96.874 1.787 1.886 1.787h12.78c1.073 0 1.893-.928 1.893-1.96v-14.212a1 1 0 0 0-.293-.707l-.766-.766v-.115a1 1 0 0 0 0-.005 1 1 0 0 0-.075-.375 1 1 0 0 0 0-.006 1 1 0 0 0-.215-.321l-4.928-4.93a1 1 0 0 0-.321-.215 1 1 0 0 0-.01-.003 1 1 0 0 0-.37-.074 1 1 0 0 0-.01-.002zM1014.216-167.588c-1.072 0-1.893.93-1.893 1.96v18.182c0 .743.427 1.43 1.066 1.758.084.96.873 1.789 1.885 1.789h12.782c1.071 0 1.892-.928 1.892-1.96v-14.212a1 1 0 0 0-.293-.707l-.766-.766v-.115a1 1 0 0 0 0-.004 1 1 0 0 0-.074-.374 1 1 0 0 0 0-.008 1 1 0 0 0-.214-.32l-4.93-4.93a1 1 0 0 0-.324-.217 1 1 0 0 0-.383-.076zM1033.794-167.588c-1.072 0-1.893.93-1.893 1.96v18.182c0 .743.428 1.431 1.067 1.758.085.96.873 1.789 1.886 1.789h12.78c1.073 0 1.893-.928 1.893-1.96v-14.212a1 1 0 0 0-.293-.707l-.766-.767v-.114a1 1 0 0 0 0-.005 1 1 0 0 0-.075-.375 1 1 0 0 0 0-.006 1 1 0 0 0-.215-.32l-4.928-4.93a1 1 0 0 0-.324-.217 1 1 0 0 0-.382-.076z" transform="translate(-70.2 -108.92)"/><g><path style="color:#000;fill:#e4ded8;stroke-width:2;stroke-linecap:round;stroke-linejoin:round;-inkscape-stroke:none;paint-order:markers fill stroke" d="M931.637-292.406c-1.072 0-1.893.93-1.893 1.96v18.182c0 1.03.82 1.96 1.893 1.96h12.78c1.073 0 1.893-.93 1.893-1.96v-14.213a1 1 0 0 0-.293-.707l-4.93-4.93a1 1 0 0 0-.706-.292z" transform="translate(-894.012 320.312)"/><path style="fill:#5f7ca3;stroke-width:.0299333;stroke-linecap:round;stroke-linejoin:round;paint-order:markers fill stroke" d="M1005.957-269.114a.5.5 0 1 1-1 0 .5.5 0 0 1 1 0zm-1.058-2.117a.5.5 0 1 1-1 0 .5.5 0 0 1 1 0zm1.058-2.117a.5.5 0 1 1-1 0 .5.5 0 0 1 1 0zm-10.583 4.234a.5.5 0 1 1-1 0 .5.5 0 0 1 1 0zm-1.059-2.117a.5.5 0 1 1-1 0 .5.5 0 0 1 1 0zm4.234 0a.5.5 0 1 1-1 0 .5.5 0 0 1 1 0zm-8.467 0a.5.5 0 1 1-1 0 .5.5 0 0 1 1 0zm-3.175 2.117a.5.5 0 1 1-1 0 .5.5 0 0 1 1 0zm0-4.234a.5.5 0 1 1-1 0 .5.5 0 0 1 1 0zm2.117 0a.5.5 0 1 1-1 0 .5.5 0 0 1 1 0zm0 4.234a.5.5 0 1 1-1 0 .5.5 0 0 1 1 0zm2.116-4.234a.5.5 0 1 1-1 0 .5.5 0 0 1 1 0zm0 4.234a.5.5 0 1 1-1 0 .5.5 0 0 1 1 0zm4.234-4.234a.5.5 0 1 1-1 0 .5.5 0 0 1 1 0zm2.116 0a.5.5 0 1 1-1 0 .5.5 0 0 1 1 0zm0 4.234a.5.5 0 1 1-1 0 .5.5 0 0 1 1 0zm3.175-2.117a.5.5 0 1 1-1 0 .5.5 0 0 1 1 0zm2.117 0a.5.5 0 1 1-1 0 .5.5 0 0 1 1 0zm-3.175 2.117a.5.5 0 1 1-1 0 .5.5 0 0 1 1 0zm0-4.234a.5.5 0 1 1-1 0 .5.5 0 0 1 1 0zm2.117 0a.5.5 0 1 1-1 0 .5.5 0 0 1 1 0zm0 4.234a.5.5 0 1 1-1 0 .5.5 0 0 1 1 0zm2.116-4.234a.5.5 0 1 1-1 0 .5.5 0 0 1 1 0zm0 4.234a.5.5 0 1 1-1 0 .5.5 0 0 1 1 0zm-10.583 0a.5.5 0 1 1-1 0 .5.5 0 0 1 1 0zm-1.058-2.117a.5.5 0 1 1-1 0 .5.5 0 0 1 1 0zm1.058-2.117a.5.5 0 1 1-1 0 .5.5 0 0 1 1 0zm3.175 2.117a.5.5 0 1 1-1 0 .5.5 0 0 1 1 0zm9.525-6.35a.5.5 0 1 1-1 0 .5.5 0 0 1 1 0zm-9.525 2.117a.5.5 0 1 1-1 0 .5.5 0 0 1 1 0zm-1.058-2.117a.5.5 0 1 1-1 0 .5.5 0 0 1 1 0zm4.233 0a.5.5 0 1 1-1 0 .5.5 0 0 1 1 0zm-12.7 0a.5.5 0 1 1-1 0 .5.5 0 0 1 1 0zm2.117 0a.5.5 0 1 1-1 0 .5.5 0 0 1 1 0zm2.116 0a.5.5 0 1 1-1 0 .5.5 0 0 1 1 0zm-3.175 2.117a.5.5 0 1 1-1 0 .5.5 0 0 1 1 0zm0-4.234a.5.5 0 1 1-1 0 .5.5 0 0 1 1 0zm2.117 0a.5.5 0 1 1-1 0 .5.5 0 0 1 1 0zm0 4.234a.5.5 0 1 1-1 0 .5.5 0 0 1 1 0zm2.117-4.234a.5.5 0 1 1-1 0 .5.5 0 0 1 1 0zm0 4.234a.5.5 0 1 1-1 0 .5.5 0 0 1 1 0zm4.233-4.234a.5.5 0 1 1-1 0 .5.5 0 0 1 1 0zm2.117 0a.5.5 0 1 1-1 0 .5.5 0 0 1 1 0zm0 4.234a.5.5 0 1 1-1 0 .5.5 0 0 1 1 0zm3.175-2.117a.5.5 0 1 1-1 0 .5.5 0 0 1 1 0zm2.116 0a.5.5 0 1 1-1 0 .5.5 0 0 1 1 0zm-3.175 2.117a.5.5 0 1 1-1 0 .5.5 0 0 1 1 0zm0-4.234a.5.5 0 1 1-1 0 .5.5 0 0 1 1 0zm2.117 0a.5.5 0 1 1-1 0 .5.5 0 0 1 1 0zm0 4.234a.5.5 0 1 1-1 0 .5.5 0 0 1 1 0zm2.117-4.234a.5.5 0 1 1-1 0 .5.5 0 0 1 1 0zm0 4.234a.5.5 0 1 1-1 0 .5.5 0 0 1 1 0zm-10.584 0a.5.5 0 1 1-1 0 .5.5 0 0 1 1 0zm-1.058-2.117a.5.5 0 1 1-1 0 .5.5 0 0 1 1 0zm1.058-2.117a.5.5 0 1 1-1 0 .5.5 0 0 1 1 0zm3.175 2.117a.5.5 0 1 1-1 0 .5.5 0 0 1 1 0zm8.467-4.233a.5.5 0 1 1-1 0 .5.5 0 0 1 1 0zm-1.058-2.117a.5.5 0 1 1-1 0 .5.5 0 0 1 1 0zm1.058-2.117a.5.5 0 1 1-1 0 .5.5 0 0 1 1 0zm-10.583 4.234a.5.5 0 1 1-1 0 .5.5 0 0 1 1 0zm-1.059-2.117a.5.5 0 1 1-1 0 .5.5 0 0 1 1 0zm4.234 0a.5.5 0 1 1-1 0 .5.5 0 0 1 1 0zm-10.584 0a.5.5 0 1 1-1 0 .5.5 0 0 1 1 0zm2.117 0a.5.5 0 1 1-1 0 .5.5 0 0 1 1 0zm-3.175 2.117a.5.5 0 1 1-1 0 .5.5 0 0 1 1 0zm0-4.234a.5.5 0 1 1-1 0 .5.5 0 0 1 1 0zm2.117 0a.5.5 0 1 1-1 0 .5.5 0 0 1 1 0zm0 4.234a.5.5 0 1 1-1 0 .5.5 0 0 1 1 0zm2.116-4.234a.5.5 0 1 1-1 0 .5.5 0 0 1 1 0zm0 4.234a.5.5 0 1 1-1 0 .5.5 0 0 1 1 0zm4.234-4.234a.5.5 0 1 1-1 0 .5.5 0 0 1 1 0zm2.116 0a.5.5 0 1 1-1 0 .5.5 0 0 1 1 0zm0 4.234a.5.5 0 1 1-1 0 .5.5 0 0 1 1 0zm3.175-2.117a.5.5 0 1 1-1 0 .5.5 0 0 1 1 0zm2.117 0a.5.5 0 1 1-1 0 .5.5 0 0 1 1 0zm-3.175 2.117a.5.5 0 1 1-1 0 .5.5 0 0 1 1 0zm0-4.234a.5.5 0 1 1-1 0 .5.5 0 0 1 1 0zm2.117 0a.5.5 0 1 1-1 0 .5.5 0 0 1 1 0zm0 4.234a.5.5 0 1 1-1 0 .5.5 0 0 1 1 0zm2.116-4.234a.5.5 0 1 1-1 0 .5.5 0 0 1 1 0zm0 4.234a.5.5 0 1 1-1 0 .5.5 0 0 1 1 0zm-10.583 0a.5.5 0 1 1-1 0 .5.5 0 0 1 1 0zm-1.058-2.117a.5.5 0 1 1-1 0 .5.5 0 0 1 1 0zm1.058-2.117a.5.5 0 1 1-1 0 .5.5 0 0 1 1 0zm3.175 2.117a.5.5 0 1 1-1 0 .5.5 0 0 1 1 0zm0-4.233a.5.5 0 1 1-1 0 .5.5 0 0 1 1 0zm-1.058-2.117a.5.5 0 1 1-1 0 .5.5 0 0 1 1 0zm4.233 0a.5.5 0 1 1-1 0 .5.5 0 0 1 1 0zm-12.7 0a.5.5 0 1 1-1 0 .5.5 0 0 1 1 0zm2.117 0a.5.5 0 1 1-1 0 .5.5 0 0 1 1 0zm2.116 0a.5.5 0 1 1-1 0 .5.5 0 0 1 1 0zm-3.175 2.117a.5.5 0 1 1-1 0 .5.5 0 0 1 1 0zm0-4.234a.5.5 0 1 1-1 0 .5.5 0 0 1 1 0zm2.117 0a.5.5 0 1 1-1 0 .5.5 0 0 1 1 0zm0 4.234a.5.5 0 1 1-1 0 .5.5 0 0 1 1 0zm2.117-4.234a.5.5 0 1 1-1 0 .5.5 0 0 1 1 0zm0 4.234a.5.5 0 1 1-1 0 .5.5 0 0 1 1 0zm4.233-4.234a.5.5 0 1 1-1 0 .5.5 0 0 1 1 0zm2.117 0a.5.5 0 1 1-1 0 .5.5 0 0 1 1 0zm0 4.234a.5.5 0 1 1-1 0 .5.5 0 0 1 1 0zm2.116 0a.5.5 0 1 1-1 0 .5.5 0 0 1 1 0zm0-4.234a.5.5 0 1 1-1 0 .5.5 0 0 1 1 0zm-6.35 4.234a.5.5 0 1 1-1 0 .5.5 0 0 1 1 0zm-1.058-2.117a.5.5 0 1 1-1 0 .5.5 0 0 1 1 0zm1.058-2.117a.5.5 0 1 1-1 0 .5.5 0 0 1 1 0zm3.175 2.117a.5.5 0 1 1-1 0 .5.5 0 0 1 1 0z" clip-path="url(#e)" transform="translate(-951.162 320.842)"/><path style="fill:#fff;fill-opacity:1;stroke:#596d98;stroke-width:2;stroke-linecap:round;stroke-linejoin:round;stroke-miterlimit:4;stroke-dasharray:none;paint-order:markers fill stroke" d="M930.578-292.994c-.495 0-.893.429-.893.96v18.182c0 .532.398.96.893.96h12.78c.495 0 .893-.428.893-.96v-14.213l-4.929-4.929z" transform="translate(-894.012 320.312)"/><path style="fill:#fff;fill-opacity:1;stroke:#596d98;stroke-width:2;stroke-linecap:round;stroke-linejoin:round;stroke-miterlimit:4;stroke-dasharray:none;paint-order:markers fill stroke" d="m944.251-288.065-4.929-4.929v3.97c0 .531.398.96.893.96z" transform="translate(-894.012 320.312)"/><path style="color:#000;fill:#e4ded8;stroke-width:2;stroke-linecap:round;stroke-linejoin:round;-inkscape-stroke:none;paint-order:markers fill stroke" d="M956.045-292.005c-1.071 0-1.893.93-1.893 1.96v18.183c0 1.03.822 1.959 1.893 1.959h12.782c1.071 0 1.892-.929 1.892-1.96v-14.212a1 1 0 0 0-.293-.707l-4.93-4.93a1 1 0 0 0-.706-.293z" transform="translate(-938 319.91)"/><path style="fill:#5f7ca3;stroke-width:.0299333;stroke-linecap:round;stroke-linejoin:round;paint-order:markers fill stroke" d="M1005.957-269.114a.5.5 0 1 1-1 0 .5.5 0 0 1 1 0zm-1.058-2.117a.5.5 0 1 1-1 0 .5.5 0 0 1 1 0zm1.058-2.117a.5.5 0 1 1-1 0 .5.5 0 0 1 1 0zm-10.583 4.234a.5.5 0 1 1-1 0 .5.5 0 0 1 1 0zm-1.059-2.117a.5.5 0 1 1-1 0 .5.5 0 0 1 1 0zm4.234 0a.5.5 0 1 1-1 0 .5.5 0 0 1 1 0zm-8.467 0a.5.5 0 1 1-1 0 .5.5 0 0 1 1 0zm-3.175 2.117a.5.5 0 1 1-1 0 .5.5 0 0 1 1 0zm0-4.234a.5.5 0 1 1-1 0 .5.5 0 0 1 1 0zm2.117 0a.5.5 0 1 1-1 0 .5.5 0 0 1 1 0zm0 4.234a.5.5 0 1 1-1 0 .5.5 0 0 1 1 0zm2.116-4.234a.5.5 0 1 1-1 0 .5.5 0 0 1 1 0zm0 4.234a.5.5 0 1 1-1 0 .5.5 0 0 1 1 0zm4.234-4.234a.5.5 0 1 1-1 0 .5.5 0 0 1 1 0zm2.116 0a.5.5 0 1 1-1 0 .5.5 0 0 1 1 0zm0 4.234a.5.5 0 1 1-1 0 .5.5 0 0 1 1 0zm3.175-2.117a.5.5 0 1 1-1 0 .5.5 0 0 1 1 0zm2.117 0a.5.5 0 1 1-1 0 .5.5 0 0 1 1 0zm-3.175 2.117a.5.5 0 1 1-1 0 .5.5 0 0 1 1 0zm0-4.234a.5.5 0 1 1-1 0 .5.5 0 0 1 1 0zm2.117 0a.5.5 0 1 1-1 0 .5.5 0 0 1 1 0zm0 4.234a.5.5 0 1 1-1 0 .5.5 0 0 1 1 0zm2.116-4.234a.5.5 0 1 1-1 0 .5.5 0 0 1 1 0zm0 4.234a.5.5 0 1 1-1 0 .5.5 0 0 1 1 0zm-10.583 0a.5.5 0 1 1-1 0 .5.5 0 0 1 1 0zm-1.058-2.117a.5.5 0 1 1-1 0 .5.5 0 0 1 1 0zm1.058-2.117a.5.5 0 1 1-1 0 .5.5 0 0 1 1 0zm3.175 2.117a.5.5 0 1 1-1 0 .5.5 0 0 1 1 0zm9.525-6.35a.5.5 0 1 1-1 0 .5.5 0 0 1 1 0zm-9.525 2.117a.5.5 0 1 1-1 0 .5.5 0 0 1 1 0zm-1.058-2.117a.5.5 0 1 1-1 0 .5.5 0 0 1 1 0zm4.233 0a.5.5 0 1 1-1 0 .5.5 0 0 1 1 0zm-12.7 0a.5.5 0 1 1-1 0 .5.5 0 0 1 1 0zm2.117 0a.5.5 0 1 1-1 0 .5.5 0 0 1 1 0zm2.116 0a.5.5 0 1 1-1 0 .5.5 0 0 1 1 0zm-3.175 2.117a.5.5 0 1 1-1 0 .5.5 0 0 1 1 0zm0-4.234a.5.5 0 1 1-1 0 .5.5 0 0 1 1 0zm2.117 0a.5.5 0 1 1-1 0 .5.5 0 0 1 1 0zm0 4.234a.5.5 0 1 1-1 0 .5.5 0 0 1 1 0zm2.117-4.234a.5.5 0 1 1-1 0 .5.5 0 0 1 1 0zm0 4.234a.5.5 0 1 1-1 0 .5.5 0 0 1 1 0zm4.233-4.234a.5.5 0 1 1-1 0 .5.5 0 0 1 1 0zm2.117 0a.5.5 0 1 1-1 0 .5.5 0 0 1 1 0zm0 4.234a.5.5 0 1 1-1 0 .5.5 0 0 1 1 0zm3.175-2.117a.5.5 0 1 1-1 0 .5.5 0 0 1 1 0zm2.116 0a.5.5 0 1 1-1 0 .5.5 0 0 1 1 0zm-3.175 2.117a.5.5 0 1 1-1 0 .5.5 0 0 1 1 0zm0-4.234a.5.5 0 1 1-1 0 .5.5 0 0 1 1 0zm2.117 0a.5.5 0 1 1-1 0 .5.5 0 0 1 1 0zm0 4.234a.5.5 0 1 1-1 0 .5.5 0 0 1 1 0zm2.117-4.234a.5.5 0 1 1-1 0 .5.5 0 0 1 1 0zm0 4.234a.5.5 0 1 1-1 0 .5.5 0 0 1 1 0zm-10.584 0a.5.5 0 1 1-1 0 .5.5 0 0 1 1 0zm-1.058-2.117a.5.5 0 1 1-1 0 .5.5 0 0 1 1 0zm1.058-2.117a.5.5 0 1 1-1 0 .5.5 0 0 1 1 0zm3.175 2.117a.5.5 0 1 1-1 0 .5.5 0 0 1 1 0zm8.467-4.233a.5.5 0 1 1-1 0 .5.5 0 0 1 1 0zm-1.058-2.117a.5.5 0 1 1-1 0 .5.5 0 0 1 1 0zm1.058-2.117a.5.5 0 1 1-1 0 .5.5 0 0 1 1 0zm-10.583 4.234a.5.5 0 1 1-1 0 .5.5 0 0 1 1 0zm-1.059-2.117a.5.5 0 1 1-1 0 .5.5 0 0 1 1 0zm4.234 0a.5.5 0 1 1-1 0 .5.5 0 0 1 1 0zm-10.584 0a.5.5 0 1 1-1 0 .5.5 0 0 1 1 0zm2.117 0a.5.5 0 1 1-1 0 .5.5 0 0 1 1 0zm-3.175 2.117a.5.5 0 1 1-1 0 .5.5 0 0 1 1 0zm0-4.234a.5.5 0 1 1-1 0 .5.5 0 0 1 1 0zm2.117 0a.5.5 0 1 1-1 0 .5.5 0 0 1 1 0zm0 4.234a.5.5 0 1 1-1 0 .5.5 0 0 1 1 0zm2.116-4.234a.5.5 0 1 1-1 0 .5.5 0 0 1 1 0zm0 4.234a.5.5 0 1 1-1 0 .5.5 0 0 1 1 0zm4.234-4.234a.5.5 0 1 1-1 0 .5.5 0 0 1 1 0zm2.116 0a.5.5 0 1 1-1 0 .5.5 0 0 1 1 0zm0 4.234a.5.5 0 1 1-1 0 .5.5 0 0 1 1 0zm3.175-2.117a.5.5 0 1 1-1 0 .5.5 0 0 1 1 0zm2.117 0a.5.5 0 1 1-1 0 .5.5 0 0 1 1 0zm-3.175 2.117a.5.5 0 1 1-1 0 .5.5 0 0 1 1 0zm0-4.234a.5.5 0 1 1-1 0 .5.5 0 0 1 1 0zm2.117 0a.5.5 0 1 1-1 0 .5.5 0 0 1 1 0zm0 4.234a.5.5 0 1 1-1 0 .5.5 0 0 1 1 0zm2.116-4.234a.5.5 0 1 1-1 0 .5.5 0 0 1 1 0zm0 4.234a.5.5 0 1 1-1 0 .5.5 0 0 1 1 0zm-10.583 0a.5.5 0 1 1-1 0 .5.5 0 0 1 1 0zm-1.058-2.117a.5.5 0 1 1-1 0 .5.5 0 0 1 1 0zm1.058-2.117a.5.5 0 1 1-1 0 .5.5 0 0 1 1 0zm3.175 2.117a.5.5 0 1 1-1 0 .5.5 0 0 1 1 0zm0-4.233a.5.5 0 1 1-1 0 .5.5 0 0 1 1 0zm-1.058-2.117a.5.5 0 1 1-1 0 .5.5 0 0 1 1 0zm4.233 0a.5.5 0 1 1-1 0 .5.5 0 0 1 1 0zm-12.7 0a.5.5 0 1 1-1 0 .5.5 0 0 1 1 0zm2.117 0a.5.5 0 1 1-1 0 .5.5 0 0 1 1 0zm2.116 0a.5.5 0 1 1-1 0 .5.5 0 0 1 1 0zm-3.175 2.117a.5.5 0 1 1-1 0 .5.5 0 0 1 1 0zm0-4.234a.5.5 0 1 1-1 0 .5.5 0 0 1 1 0zm2.117 0a.5.5 0 1 1-1 0 .5.5 0 0 1 1 0zm0 4.234a.5.5 0 1 1-1 0 .5.5 0 0 1 1 0zm2.117-4.234a.5.5 0 1 1-1 0 .5.5 0 0 1 1 0zm0 4.234a.5.5 0 1 1-1 0 .5.5 0 0 1 1 0zm4.233-4.234a.5.5 0 1 1-1 0 .5.5 0 0 1 1 0zm2.117 0a.5.5 0 1 1-1 0 .5.5 0 0 1 1 0zm0 4.234a.5.5 0 1 1-1 0 .5.5 0 0 1 1 0zm2.116 0a.5.5 0 1 1-1 0 .5.5 0 0 1 1 0zm0-4.234a.5.5 0 1 1-1 0 .5.5 0 0 1 1 0zm-6.35 4.234a.5.5 0 1 1-1 0 .5.5 0 0 1 1 0zm-1.058-2.117a.5.5 0 1 1-1 0 .5.5 0 0 1 1 0zm1.058-2.117a.5.5 0 1 1-1 0 .5.5 0 0 1 1 0zm3.175 2.117a.5.5 0 1 1-1 0 .5.5 0 0 1 1 0z" clip-path="url(#f)" transform="translate(-970.741 320.842)"/><path style="fill:#fff;fill-opacity:1;stroke:#596d98;stroke-width:2;stroke-linecap:round;stroke-linejoin:round;stroke-miterlimit:4;stroke-dasharray:none;paint-order:markers fill stroke" d="M954.986-292.592c-.494 0-.892.428-.892.96v18.181c0 .532.398.96.892.96h12.782c.494 0 .892-.428.892-.96v-14.212l-4.929-4.929z" transform="translate(-938 319.91)"/><path style="fill:#fff;fill-opacity:1;stroke:#596d98;stroke-width:2;stroke-linecap:round;stroke-linejoin:round;stroke-miterlimit:4;stroke-dasharray:none;paint-order:markers fill stroke" d="m968.66-287.663-4.929-4.929v3.969c0 .532.398.96.893.96z" transform="translate(-938 319.91)"/><path style="color:#000;fill:#e4ded8;stroke-width:2;stroke-linecap:round;stroke-linejoin:round;-inkscape-stroke:none;paint-order:markers fill stroke" d="M932.271-263.276c-1.072 0-1.893.93-1.893 1.961v18.182c0 1.03.821 1.959 1.893 1.959h12.781c1.072 0 1.893-.928 1.893-1.96v-14.212a1 1 0 0 0-.293-.707l-4.93-4.93a1 1 0 0 0-.707-.293z" transform="translate(-894.646 266.31)"/><path style="fill:#5f7ca3;stroke-width:.0299333;stroke-linecap:round;stroke-linejoin:round;paint-order:markers fill stroke" d="M1005.957-269.114a.5.5 0 1 1-1 0 .5.5 0 0 1 1 0zm-1.058-2.117a.5.5 0 1 1-1 0 .5.5 0 0 1 1 0zm1.058-2.117a.5.5 0 1 1-1 0 .5.5 0 0 1 1 0zm-10.583 4.234a.5.5 0 1 1-1 0 .5.5 0 0 1 1 0zm-1.059-2.117a.5.5 0 1 1-1 0 .5.5 0 0 1 1 0zm4.234 0a.5.5 0 1 1-1 0 .5.5 0 0 1 1 0zm-8.467 0a.5.5 0 1 1-1 0 .5.5 0 0 1 1 0zm-3.175 2.117a.5.5 0 1 1-1 0 .5.5 0 0 1 1 0zm0-4.234a.5.5 0 1 1-1 0 .5.5 0 0 1 1 0zm2.117 0a.5.5 0 1 1-1 0 .5.5 0 0 1 1 0zm0 4.234a.5.5 0 1 1-1 0 .5.5 0 0 1 1 0zm2.116-4.234a.5.5 0 1 1-1 0 .5.5 0 0 1 1 0zm0 4.234a.5.5 0 1 1-1 0 .5.5 0 0 1 1 0zm4.234-4.234a.5.5 0 1 1-1 0 .5.5 0 0 1 1 0zm2.116 0a.5.5 0 1 1-1 0 .5.5 0 0 1 1 0zm0 4.234a.5.5 0 1 1-1 0 .5.5 0 0 1 1 0zm3.175-2.117a.5.5 0 1 1-1 0 .5.5 0 0 1 1 0zm2.117 0a.5.5 0 1 1-1 0 .5.5 0 0 1 1 0zm-3.175 2.117a.5.5 0 1 1-1 0 .5.5 0 0 1 1 0zm0-4.234a.5.5 0 1 1-1 0 .5.5 0 0 1 1 0zm2.117 0a.5.5 0 1 1-1 0 .5.5 0 0 1 1 0zm0 4.234a.5.5 0 1 1-1 0 .5.5 0 0 1 1 0zm2.116-4.234a.5.5 0 1 1-1 0 .5.5 0 0 1 1 0zm0 4.234a.5.5 0 1 1-1 0 .5.5 0 0 1 1 0zm-10.583 0a.5.5 0 1 1-1 0 .5.5 0 0 1 1 0zm-1.058-2.117a.5.5 0 1 1-1 0 .5.5 0 0 1 1 0zm1.058-2.117a.5.5 0 1 1-1 0 .5.5 0 0 1 1 0zm3.175 2.117a.5.5 0 1 1-1 0 .5.5 0 0 1 1 0zm9.525-6.35a.5.5 0 1 1-1 0 .5.5 0 0 1 1 0zm-9.525 2.117a.5.5 0 1 1-1 0 .5.5 0 0 1 1 0zm-1.058-2.117a.5.5 0 1 1-1 0 .5.5 0 0 1 1 0zm4.233 0a.5.5 0 1 1-1 0 .5.5 0 0 1 1 0zm-12.7 0a.5.5 0 1 1-1 0 .5.5 0 0 1 1 0zm2.117 0a.5.5 0 1 1-1 0 .5.5 0 0 1 1 0zm2.116 0a.5.5 0 1 1-1 0 .5.5 0 0 1 1 0zm-3.175 2.117a.5.5 0 1 1-1 0 .5.5 0 0 1 1 0zm0-4.234a.5.5 0 1 1-1 0 .5.5 0 0 1 1 0zm2.117 0a.5.5 0 1 1-1 0 .5.5 0 0 1 1 0zm0 4.234a.5.5 0 1 1-1 0 .5.5 0 0 1 1 0zm2.117-4.234a.5.5 0 1 1-1 0 .5.5 0 0 1 1 0zm0 4.234a.5.5 0 1 1-1 0 .5.5 0 0 1 1 0zm4.233-4.234a.5.5 0 1 1-1 0 .5.5 0 0 1 1 0zm2.117 0a.5.5 0 1 1-1 0 .5.5 0 0 1 1 0zm0 4.234a.5.5 0 1 1-1 0 .5.5 0 0 1 1 0zm3.175-2.117a.5.5 0 1 1-1 0 .5.5 0 0 1 1 0zm2.116 0a.5.5 0 1 1-1 0 .5.5 0 0 1 1 0zm-3.175 2.117a.5.5 0 1 1-1 0 .5.5 0 0 1 1 0zm0-4.234a.5.5 0 1 1-1 0 .5.5 0 0 1 1 0zm2.117 0a.5.5 0 1 1-1 0 .5.5 0 0 1 1 0zm0 4.234a.5.5 0 1 1-1 0 .5.5 0 0 1 1 0zm2.117-4.234a.5.5 0 1 1-1 0 .5.5 0 0 1 1 0zm0 4.234a.5.5 0 1 1-1 0 .5.5 0 0 1 1 0zm-10.584 0a.5.5 0 1 1-1 0 .5.5 0 0 1 1 0zm-1.058-2.117a.5.5 0 1 1-1 0 .5.5 0 0 1 1 0zm1.058-2.117a.5.5 0 1 1-1 0 .5.5 0 0 1 1 0zm3.175 2.117a.5.5 0 1 1-1 0 .5.5 0 0 1 1 0zm8.467-4.233a.5.5 0 1 1-1 0 .5.5 0 0 1 1 0zm-1.058-2.117a.5.5 0 1 1-1 0 .5.5 0 0 1 1 0zm1.058-2.117a.5.5 0 1 1-1 0 .5.5 0 0 1 1 0zm-10.583 4.234a.5.5 0 1 1-1 0 .5.5 0 0 1 1 0zm-1.059-2.117a.5.5 0 1 1-1 0 .5.5 0 0 1 1 0zm4.234 0a.5.5 0 1 1-1 0 .5.5 0 0 1 1 0zm-10.584 0a.5.5 0 1 1-1 0 .5.5 0 0 1 1 0zm2.117 0a.5.5 0 1 1-1 0 .5.5 0 0 1 1 0zm-3.175 2.117a.5.5 0 1 1-1 0 .5.5 0 0 1 1 0zm0-4.234a.5.5 0 1 1-1 0 .5.5 0 0 1 1 0zm2.117 0a.5.5 0 1 1-1 0 .5.5 0 0 1 1 0zm0 4.234a.5.5 0 1 1-1 0 .5.5 0 0 1 1 0zm2.116-4.234a.5.5 0 1 1-1 0 .5.5 0 0 1 1 0zm0 4.234a.5.5 0 1 1-1 0 .5.5 0 0 1 1 0zm4.234-4.234a.5.5 0 1 1-1 0 .5.5 0 0 1 1 0zm2.116 0a.5.5 0 1 1-1 0 .5.5 0 0 1 1 0zm0 4.234a.5.5 0 1 1-1 0 .5.5 0 0 1 1 0zm3.175-2.117a.5.5 0 1 1-1 0 .5.5 0 0 1 1 0zm2.117 0a.5.5 0 1 1-1 0 .5.5 0 0 1 1 0zm-3.175 2.117a.5.5 0 1 1-1 0 .5.5 0 0 1 1 0zm0-4.234a.5.5 0 1 1-1 0 .5.5 0 0 1 1 0zm2.117 0a.5.5 0 1 1-1 0 .5.5 0 0 1 1 0zm0 4.234a.5.5 0 1 1-1 0 .5.5 0 0 1 1 0zm2.116-4.234a.5.5 0 1 1-1 0 .5.5 0 0 1 1 0zm0 4.234a.5.5 0 1 1-1 0 .5.5 0 0 1 1 0zm-10.583 0a.5.5 0 1 1-1 0 .5.5 0 0 1 1 0zm-1.058-2.117a.5.5 0 1 1-1 0 .5.5 0 0 1 1 0zm1.058-2.117a.5.5 0 1 1-1 0 .5.5 0 0 1 1 0zm3.175 2.117a.5.5 0 1 1-1 0 .5.5 0 0 1 1 0zm0-4.233a.5.5 0 1 1-1 0 .5.5 0 0 1 1 0zm-1.058-2.117a.5.5 0 1 1-1 0 .5.5 0 0 1 1 0zm4.233 0a.5.5 0 1 1-1 0 .5.5 0 0 1 1 0zm-12.7 0a.5.5 0 1 1-1 0 .5.5 0 0 1 1 0zm2.117 0a.5.5 0 1 1-1 0 .5.5 0 0 1 1 0zm2.116 0a.5.5 0 1 1-1 0 .5.5 0 0 1 1 0zm-3.175 2.117a.5.5 0 1 1-1 0 .5.5 0 0 1 1 0zm0-4.234a.5.5 0 1 1-1 0 .5.5 0 0 1 1 0zm2.117 0a.5.5 0 1 1-1 0 .5.5 0 0 1 1 0zm0 4.234a.5.5 0 1 1-1 0 .5.5 0 0 1 1 0zm2.117-4.234a.5.5 0 1 1-1 0 .5.5 0 0 1 1 0zm0 4.234a.5.5 0 1 1-1 0 .5.5 0 0 1 1 0zm4.233-4.234a.5.5 0 1 1-1 0 .5.5 0 0 1 1 0zm2.117 0a.5.5 0 1 1-1 0 .5.5 0 0 1 1 0zm0 4.234a.5.5 0 1 1-1 0 .5.5 0 0 1 1 0zm2.116 0a.5.5 0 1 1-1 0 .5.5 0 0 1 1 0zm0-4.234a.5.5 0 1 1-1 0 .5.5 0 0 1 1 0zm-6.35 4.234a.5.5 0 1 1-1 0 .5.5 0 0 1 1 0zm-1.058-2.117a.5.5 0 1 1-1 0 .5.5 0 0 1 1 0zm1.058-2.117a.5.5 0 1 1-1 0 .5.5 0 0 1 1 0zm3.175 2.117a.5.5 0 1 1-1 0 .5.5 0 0 1 1 0z" clip-path="url(#g)" transform="translate(-951.162 295.97)"/><path style="fill:#fff;fill-opacity:1;stroke:#596d98;stroke-width:2;stroke-linecap:round;stroke-linejoin:round;stroke-miterlimit:4;stroke-dasharray:none;paint-order:markers fill stroke" d="M931.212-263.863c-.494 0-.892.428-.892.96v18.182c0 .532.398.96.892.96h12.781c.495 0 .893-.428.893-.96v-14.213l-4.93-4.929z" transform="translate(-894.646 266.31)"/><path style="fill:#fff;fill-opacity:1;stroke:#596d98;stroke-width:2;stroke-linecap:round;stroke-linejoin:round;stroke-miterlimit:4;stroke-dasharray:none;paint-order:markers fill stroke" d="m944.886-258.934-4.93-4.929v3.969c0 .532.399.96.893.96z" transform="translate(-894.646 266.31)"/><g><path style="color:#000;fill:#e4ded8;stroke-width:2;stroke-linecap:round;stroke-linejoin:round;-inkscape-stroke:none;paint-order:markers fill stroke" d="M956.385-262.835c-1.072 0-1.893.93-1.893 1.96v18.182c0 1.031.821 1.96 1.893 1.96h12.781c1.072 0 1.893-.929 1.893-1.96v-14.213a1 1 0 0 0-.293-.707l-4.93-4.93a1 1 0 0 0-.707-.292z" transform="translate(-938.34 265.87)"/><path style="fill:#5f7ca3;stroke-width:.0299333;stroke-linecap:round;stroke-linejoin:round;paint-order:markers fill stroke" d="M1005.957-269.114a.5.5 0 1 1-1 0 .5.5 0 0 1 1 0zm-1.058-2.117a.5.5 0 1 1-1 0 .5.5 0 0 1 1 0zm1.058-2.117a.5.5 0 1 1-1 0 .5.5 0 0 1 1 0zm-10.583 4.234a.5.5 0 1 1-1 0 .5.5 0 0 1 1 0zm-1.059-2.117a.5.5 0 1 1-1 0 .5.5 0 0 1 1 0zm4.234 0a.5.5 0 1 1-1 0 .5.5 0 0 1 1 0zm-8.467 0a.5.5 0 1 1-1 0 .5.5 0 0 1 1 0zm-3.175 2.117a.5.5 0 1 1-1 0 .5.5 0 0 1 1 0zm0-4.234a.5.5 0 1 1-1 0 .5.5 0 0 1 1 0zm2.117 0a.5.5 0 1 1-1 0 .5.5 0 0 1 1 0zm0 4.234a.5.5 0 1 1-1 0 .5.5 0 0 1 1 0zm2.116-4.234a.5.5 0 1 1-1 0 .5.5 0 0 1 1 0zm0 4.234a.5.5 0 1 1-1 0 .5.5 0 0 1 1 0zm4.234-4.234a.5.5 0 1 1-1 0 .5.5 0 0 1 1 0zm2.116 0a.5.5 0 1 1-1 0 .5.5 0 0 1 1 0zm0 4.234a.5.5 0 1 1-1 0 .5.5 0 0 1 1 0zm3.175-2.117a.5.5 0 1 1-1 0 .5.5 0 0 1 1 0zm2.117 0a.5.5 0 1 1-1 0 .5.5 0 0 1 1 0zm-3.175 2.117a.5.5 0 1 1-1 0 .5.5 0 0 1 1 0zm0-4.234a.5.5 0 1 1-1 0 .5.5 0 0 1 1 0zm2.117 0a.5.5 0 1 1-1 0 .5.5 0 0 1 1 0zm0 4.234a.5.5 0 1 1-1 0 .5.5 0 0 1 1 0zm2.116-4.234a.5.5 0 1 1-1 0 .5.5 0 0 1 1 0zm0 4.234a.5.5 0 1 1-1 0 .5.5 0 0 1 1 0zm-10.583 0a.5.5 0 1 1-1 0 .5.5 0 0 1 1 0zm-1.058-2.117a.5.5 0 1 1-1 0 .5.5 0 0 1 1 0zm1.058-2.117a.5.5 0 1 1-1 0 .5.5 0 0 1 1 0zm3.175 2.117a.5.5 0 1 1-1 0 .5.5 0 0 1 1 0zm9.525-6.35a.5.5 0 1 1-1 0 .5.5 0 0 1 1 0zm-9.525 2.117a.5.5 0 1 1-1 0 .5.5 0 0 1 1 0zm-1.058-2.117a.5.5 0 1 1-1 0 .5.5 0 0 1 1 0zm4.233 0a.5.5 0 1 1-1 0 .5.5 0 0 1 1 0zm-12.7 0a.5.5 0 1 1-1 0 .5.5 0 0 1 1 0zm2.117 0a.5.5 0 1 1-1 0 .5.5 0 0 1 1 0zm2.116 0a.5.5 0 1 1-1 0 .5.5 0 0 1 1 0zm-3.175 2.117a.5.5 0 1 1-1 0 .5.5 0 0 1 1 0zm0-4.234a.5.5 0 1 1-1 0 .5.5 0 0 1 1 0zm2.117 0a.5.5 0 1 1-1 0 .5.5 0 0 1 1 0zm0 4.234a.5.5 0 1 1-1 0 .5.5 0 0 1 1 0zm2.117-4.234a.5.5 0 1 1-1 0 .5.5 0 0 1 1 0zm0 4.234a.5.5 0 1 1-1 0 .5.5 0 0 1 1 0zm4.233-4.234a.5.5 0 1 1-1 0 .5.5 0 0 1 1 0zm2.117 0a.5.5 0 1 1-1 0 .5.5 0 0 1 1 0zm0 4.234a.5.5 0 1 1-1 0 .5.5 0 0 1 1 0zm3.175-2.117a.5.5 0 1 1-1 0 .5.5 0 0 1 1 0zm2.116 0a.5.5 0 1 1-1 0 .5.5 0 0 1 1 0zm-3.175 2.117a.5.5 0 1 1-1 0 .5.5 0 0 1 1 0zm0-4.234a.5.5 0 1 1-1 0 .5.5 0 0 1 1 0zm2.117 0a.5.5 0 1 1-1 0 .5.5 0 0 1 1 0zm0 4.234a.5.5 0 1 1-1 0 .5.5 0 0 1 1 0zm2.117-4.234a.5.5 0 1 1-1 0 .5.5 0 0 1 1 0zm0 4.234a.5.5 0 1 1-1 0 .5.5 0 0 1 1 0zm-10.584 0a.5.5 0 1 1-1 0 .5.5 0 0 1 1 0zm-1.058-2.117a.5.5 0 1 1-1 0 .5.5 0 0 1 1 0zm1.058-2.117a.5.5 0 1 1-1 0 .5.5 0 0 1 1 0zm3.175 2.117a.5.5 0 1 1-1 0 .5.5 0 0 1 1 0zm8.467-4.233a.5.5 0 1 1-1 0 .5.5 0 0 1 1 0zm-1.058-2.117a.5.5 0 1 1-1 0 .5.5 0 0 1 1 0zm1.058-2.117a.5.5 0 1 1-1 0 .5.5 0 0 1 1 0zm-10.583 4.234a.5.5 0 1 1-1 0 .5.5 0 0 1 1 0zm-1.059-2.117a.5.5 0 1 1-1 0 .5.5 0 0 1 1 0zm4.234 0a.5.5 0 1 1-1 0 .5.5 0 0 1 1 0zm-10.584 0a.5.5 0 1 1-1 0 .5.5 0 0 1 1 0zm2.117 0a.5.5 0 1 1-1 0 .5.5 0 0 1 1 0zm-3.175 2.117a.5.5 0 1 1-1 0 .5.5 0 0 1 1 0zm0-4.234a.5.5 0 1 1-1 0 .5.5 0 0 1 1 0zm2.117 0a.5.5 0 1 1-1 0 .5.5 0 0 1 1 0zm0 4.234a.5.5 0 1 1-1 0 .5.5 0 0 1 1 0zm2.116-4.234a.5.5 0 1 1-1 0 .5.5 0 0 1 1 0zm0 4.234a.5.5 0 1 1-1 0 .5.5 0 0 1 1 0zm4.234-4.234a.5.5 0 1 1-1 0 .5.5 0 0 1 1 0zm2.116 0a.5.5 0 1 1-1 0 .5.5 0 0 1 1 0zm0 4.234a.5.5 0 1 1-1 0 .5.5 0 0 1 1 0zm3.175-2.117a.5.5 0 1 1-1 0 .5.5 0 0 1 1 0zm2.117 0a.5.5 0 1 1-1 0 .5.5 0 0 1 1 0zm-3.175 2.117a.5.5 0 1 1-1 0 .5.5 0 0 1 1 0zm0-4.234a.5.5 0 1 1-1 0 .5.5 0 0 1 1 0zm2.117 0a.5.5 0 1 1-1 0 .5.5 0 0 1 1 0zm0 4.234a.5.5 0 1 1-1 0 .5.5 0 0 1 1 0zm2.116-4.234a.5.5 0 1 1-1 0 .5.5 0 0 1 1 0zm0 4.234a.5.5 0 1 1-1 0 .5.5 0 0 1 1 0zm-10.583 0a.5.5 0 1 1-1 0 .5.5 0 0 1 1 0zm-1.058-2.117a.5.5 0 1 1-1 0 .5.5 0 0 1 1 0zm1.058-2.117a.5.5 0 1 1-1 0 .5.5 0 0 1 1 0zm3.175 2.117a.5.5 0 1 1-1 0 .5.5 0 0 1 1 0zm0-4.233a.5.5 0 1 1-1 0 .5.5 0 0 1 1 0zm-1.058-2.117a.5.5 0 1 1-1 0 .5.5 0 0 1 1 0zm4.233 0a.5.5 0 1 1-1 0 .5.5 0 0 1 1 0zm-12.7 0a.5.5 0 1 1-1 0 .5.5 0 0 1 1 0zm2.117 0a.5.5 0 1 1-1 0 .5.5 0 0 1 1 0zm2.116 0a.5.5 0 1 1-1 0 .5.5 0 0 1 1 0zm-3.175 2.117a.5.5 0 1 1-1 0 .5.5 0 0 1 1 0zm0-4.234a.5.5 0 1 1-1 0 .5.5 0 0 1 1 0zm2.117 0a.5.5 0 1 1-1 0 .5.5 0 0 1 1 0zm0 4.234a.5.5 0 1 1-1 0 .5.5 0 0 1 1 0zm2.117-4.234a.5.5 0 1 1-1 0 .5.5 0 0 1 1 0zm0 4.234a.5.5 0 1 1-1 0 .5.5 0 0 1 1 0zm4.233-4.234a.5.5 0 1 1-1 0 .5.5 0 0 1 1 0zm2.117 0a.5.5 0 1 1-1 0 .5.5 0 0 1 1 0zm0 4.234a.5.5 0 1 1-1 0 .5.5 0 0 1 1 0zm2.116 0a.5.5 0 1 1-1 0 .5.5 0 0 1 1 0zm0-4.234a.5.5 0 1 1-1 0 .5.5 0 0 1 1 0zm-6.35 4.234a.5.5 0 1 1-1 0 .5.5 0 0 1 1 0zm-1.058-2.117a.5.5 0 1 1-1 0 .5.5 0 0 1 1 0zm1.058-2.117a.5.5 0 1 1-1 0 .5.5 0 0 1 1 0zm3.175 2.117a.5.5 0 1 1-1 0 .5.5 0 0 1 1 0z" clip-path="url(#h)" transform="translate(-970.741 295.97)"/><path style="fill:#fff;fill-opacity:1;stroke:#596d98;stroke-width:2;stroke-linecap:round;stroke-linejoin:round;stroke-miterlimit:4;stroke-dasharray:none;paint-order:markers fill stroke" d="M955.326-263.422c-.494 0-.892.428-.892.96v18.181c0 .532.398.96.892.96h12.781c.495 0 .893-.428.893-.96v-14.212l-4.929-4.93z" transform="translate(-938.34 265.87)"/><path style="fill:#fff;fill-opacity:1;stroke:#596d98;stroke-width:2;stroke-linecap:round;stroke-linejoin:round;stroke-miterlimit:4;stroke-dasharray:none;paint-order:markers fill stroke" d="m969-258.493-4.929-4.93v3.97c0 .531.398.96.892.96z" transform="translate(-938.34 265.87)"/></g><path d="M951.219-287.955c-.74 1.441-1.56 2.24-2.457 2.399-.33.058-.657.003-.92-.24-1.082-.996-.453-3.013.219-4.261.67-1.252 1.325-2.117 2.205-2.272.447-.078.9.258 1.12.684.42-.074.752.812.743 1.23-.014.78.27 2.64.365 2.82.1.178.17.294.21.348.039.053.138.1.296.14.159.044.249.128.271.253.033.187-.035.36-.204.517a1.06 1.06 0 0 1-.555.29c-.689.122-1.12-.514-1.293-1.908zm-.867-2.993c-.37.066-.78.56-1.229 1.486-.446.921-.619 1.667-.518 2.239.052.3.141.44.266.418.432-.076.896-.553 1.392-1.43.498-.88.697-1.609.596-2.184-.033-.183-.1-.32-.203-.412-.1-.096-.201-.135-.304-.117zM967.612-290.453c.353-2.14.607-4.361.762-4.756.159-.395.435-.593.83-.595.305 0 .458.745.46 1.284.001.369-.148 1.61-.45 2.772-.157.573-.348 1.441-.57 2.603a6.71 6.71 0 0 1 1.501-1.496c.546-.381 1.032-.573 1.46-.574.35-.001.64.148.872.449.236.297.354.648.356 1.054.005 1.145-.433 2.224-1.312 3.236-.874 1.01-1.806 1.518-2.796 1.522-.298 0-.575-.078-.832-.237-.258-.163-.404-.37-.438-.624-.016-.137-.044-.228-.085-.273a5.642 5.642 0 0 1-.128-.145c-.109-.11-.163-.267-.164-.468 0-.23.055-.71.168-1.44zm.672 3.96c.157.26.333.39.526.389.35-.001.736-.163 1.16-.484.426-.325.795-.78 1.105-1.366.314-.585.47-1.071.47-1.458-.001-.369-.06-.552-.175-.552-.592.002-1.255.437-1.988 1.307-.734.866-1.1 1.587-1.098 2.164zM970.383-262.216c-.787 1.474-1.664 2.272-2.631 2.393a1.153 1.153 0 0 1-1.005-.342c-.278-.28-.448-.658-.507-1.134-.12-.964.153-1.971.82-3.022.671-1.051 1.41-1.627 2.22-1.728.465-.058.81.022 1.036.241.126-1.245.196-2.023.21-2.332.04-.575.086-.96.136-1.153a.897.897 0 0 1 .285-.469c.138-.122.263-.19.374-.204a.487.487 0 0 1 .46.178c.12.143.194.332.224.569.013.103-.031.41-.133.922-.166.83-.464 5.054-.38 5.723.079.638.26.94.54.905.144-.018.292-.076.445-.174.153-.094.263-.145.33-.153.18-.023.284.07.31.281.032.255-.12.533-.458.834-.334.297-.665.465-.994.507-.354.044-.651-.112-.89-.468-.24-.357-.37-.815-.392-1.374zm-2.349-1.467c-.432.804-.61 1.512-.533 2.125.045.358.2.52.466.487.45-.056 1.145-.43 1.461-1.403 1.154-3.547-.958-2.014-1.394-1.21zM950.038-260.956c-.59.167-1.086.132-1.484-.103-.4-.235-.68-.64-.841-1.213-.255-.902-.163-1.981.275-3.238.438-1.256 1.01-1.984 1.715-2.183.34-.096.678-.008 1.014.265.335.27.554.586.657.951.097.344.099.595.004.753-.092.154-.197.247-.315.28-.347.099-.617-.084-.81-.548-.142-.339-.22-.713-.434-.71-.83.01-1.014 3.448-.846 4.046.137.483.466.651.989.504.577-.163 1.1-.531 1.573-1.105.22-.275.41-.435.572-.48.197-.056.288.028.379.212.731 1.475-1.753 2.373-2.447 2.569z" style="font-size:12.7px;-inkscape-font-specification:'Segoe Print Bold';letter-spacing:0;word-spacing:0;mix-blend-mode:multiply;fill:#bd1f0c;stroke-width:.238125" transform="translate(-927.03 302.827)"/><path style="color:#000;opacity:.45;mix-blend-mode:multiply;fill:#ebe0b7;stroke-width:2;stroke-linecap:round;stroke-linejoin:round;-inkscape-stroke:none;paint-order:markers fill stroke" d="M944.016-301.38c-1.072 0-1.893.93-1.893 1.96v18.182c0 .743.427 1.432 1.066 1.76.085.96.874 1.787 1.886 1.787h12.78c1.073 0 1.893-.928 1.893-1.959v-14.213a1 1 0 0 0-.293-.707l-.766-.765v-.116a1 1 0 0 0 0-.004 1 1 0 0 0-.074-.374 1 1 0 0 0-.004-.008 1 1 0 0 0-.214-.32l-4.93-4.93a1 1 0 0 0-.32-.214 1 1 0 0 0-.009-.004 1 1 0 0 0-.369-.073 1 1 0 0 0-.008-.002zM963.594-301.38c-1.072 0-1.893.93-1.893 1.96v18.182c0 .743.428 1.433 1.068 1.76.085.96.873 1.787 1.885 1.787h12.78c1.073 0 1.893-.928 1.893-1.959v-14.213a1 1 0 0 0-.293-.707l-.766-.766v-.115a1 1 0 0 0 0-.005 1 1 0 0 0-.075-.374 1 1 0 0 0-.003-.006 1 1 0 0 0-.214-.322l-4.928-4.93a1 1 0 0 0-.322-.214 1 1 0 0 0-.007-.003 1 1 0 0 0-.37-.074 1 1 0 0 0-.008-.002zM944.016-276.509c-1.072 0-1.893.93-1.893 1.96v18.183c0 .742.427 1.43 1.066 1.757.085.96.873 1.79 1.886 1.79h12.78c1.073 0 1.893-.929 1.893-1.96v-14.213a1 1 0 0 0-.293-.707l-.766-.766v-.114a1 1 0 0 0 0-.004 1 1 0 0 0-.074-.375 1 1 0 0 0-.004-.008 1 1 0 0 0-.214-.32l-4.93-4.93a1 1 0 0 0-.324-.216 1 1 0 0 0-.382-.076zM963.594-276.509c-1.072 0-1.893.93-1.893 1.96v18.183c0 .743.428 1.43 1.068 1.758.084.96.872 1.788 1.885 1.788h12.78c1.073 0 1.893-.928 1.893-1.959v-14.213a1 1 0 0 0-.293-.707l-.766-.766v-.114a1 1 0 0 0 0-.005 1 1 0 0 0-.075-.375 1 1 0 0 0-.003-.006 1 1 0 0 0-.214-.321l-4.928-4.93a1 1 0 0 0-.324-.217 1 1 0 0 0-.383-.076z" transform="translate(-927.03 302.827)"/></g></svg>