<svg width="256.216" height="196.313" viewBox="0 0 67.79 51.941" xmlns="http://www.w3.org/2000/svg"><defs><clipPath clipPathUnits="userSpaceOnUse" id="a"/></defs><g style="fill:#eae7e7"><path style="color:#000;opacity:1;fill:#eae7e7;stroke-width:3.77953;stroke-linecap:round;stroke-linejoin:round;-inkscape-stroke:none;paint-order:markers fill stroke" d="M3278.527-1025.162c-5.92 0-10.527 5.132-10.527 11.037v137.436c0 5.905 4.608 11.035 10.527 11.035h96.614c5.92 0 10.527-5.129 10.527-11.035v-113.786c-.01-.043-.012-.087-.02-.13a3.946 3.946 0 0 0-.098-.75c-.01-.043-.017-.085-.027-.127a3.751 3.751 0 0 0-.436-.971 3.78 3.78 0 0 0-.53-.693l-30.917-30.909a3.779 3.779 0 0 0-.7-.537 3.784 3.784 0 0 0-.963-.43c-.04-.01-.08-.016-.12-.023a3.727 3.727 0 0 0-.775-.101c-.038-.01-.075-.011-.114-.016z" transform="scale(.26458) rotate(-5 13739.647 36074.832)"/></g><path style="fill:#4d62a1;stroke-width:.0299333;stroke-linecap:round;stroke-linejoin:round;paint-order:markers fill stroke" d="M884.105-316.07a.5.5 0 1 1-1 0 .5.5 0 0 1 1 0zm-1.058-2.116a.5.5 0 1 1-1 0 .5.5 0 0 1 1 0zm4.233 0a.5.5 0 1 1-1 0 .5.5 0 0 1 1 0zm-3.175-2.117a.5.5 0 1 1-1 0 .5.5 0 0 1 1 0zm2.117 0a.5.5 0 1 1-1 0 .5.5 0 0 1 1 0zm0 4.233a.5.5 0 1 1-1 0 .5.5 0 0 1 1 0zm3.175-2.116a.5.5 0 1 1-1 0 .5.5 0 0 1 1 0zm2.116 0a.5.5 0 1 1-1 0 .5.5 0 0 1 1 0zm-3.175 2.116a.5.5 0 1 1-1 0 .5.5 0 0 1 1 0zm0-4.233a.5.5 0 1 1-1 0 .5.5 0 0 1 1 0zm2.117 0a.5.5 0 1 1-1 0 .5.5 0 0 1 1 0zm0 4.233a.5.5 0 1 1-1 0 .5.5 0 0 1 1 0zm2.117-4.233a.5.5 0 1 1-1 0 .5.5 0 0 1 1 0zm0 4.233a.5.5 0 1 1-1 0 .5.5 0 0 1 1 0zm-10.584 0a.5.5 0 1 1-1 0 .5.5 0 0 1 1 0zm-1.058-2.116a.5.5 0 1 1-1 0 .5.5 0 0 1 1 0zm1.058-2.117a.5.5 0 1 1-1 0 .5.5 0 0 1 1 0zm3.175 2.117a.5.5 0 1 1-1 0 .5.5 0 0 1 1 0zm-13.758 2.116a.5.5 0 1 1-1 0 .5.5 0 0 1 1 0zm-1.058-2.116a.5.5 0 1 1-1 0 .5.5 0 0 1 1 0zm4.233 0a.5.5 0 1 1-1 0 .5.5 0 0 1 1 0zm-3.175-2.117a.5.5 0 1 1-1 0 .5.5 0 0 1 1 0zm2.117 0a.5.5 0 1 1-1 0 .5.5 0 0 1 1 0zm0 4.233a.5.5 0 1 1-1 0 .5.5 0 0 1 1 0zm3.175-2.116a.5.5 0 1 1-1 0 .5.5 0 0 1 1 0zm2.116 0a.5.5 0 1 1-1 0 .5.5 0 0 1 1 0zm-3.175 2.116a.5.5 0 1 1-1 0 .5.5 0 0 1 1 0zm0-4.233a.5.5 0 1 1-1 0 .5.5 0 0 1 1 0zm2.117 0a.5.5 0 1 1-1 0 .5.5 0 0 1 1 0zm0 4.233a.5.5 0 1 1-1 0 .5.5 0 0 1 1 0zm2.117-4.233a.5.5 0 1 1-1 0 .5.5 0 0 1 1 0zm0 4.233a.5.5 0 1 1-1 0 .5.5 0 0 1 1 0zm-10.584 0a.5.5 0 1 1-1 0 .5.5 0 0 1 1 0zm-1.058-2.116a.5.5 0 1 1-1 0 .5.5 0 0 1 1 0zm1.058-2.117a.5.5 0 1 1-1 0 .5.5 0 0 1 1 0zm3.175 2.117a.5.5 0 1 1-1 0 .5.5 0 0 1 1 0zm-13.758 2.116a.5.5 0 1 1-1 0 .5.5 0 0 1 1 0zm-1.058-2.116a.5.5 0 1 1-1 0 .5.5 0 0 1 1 0zm4.233 0a.5.5 0 1 1-1 0 .5.5 0 0 1 1 0zm-15.875 2.116a.5.5 0 1 1-1 0 .5.5 0 0 1 1 0zm-1.058-2.116a.5.5 0 1 1-1 0 .5.5 0 0 1 1 0zm4.233 0a.5.5 0 1 1-1 0 .5.5 0 0 1 1 0zm-3.175-2.117a.5.5 0 1 1-1 0 .5.5 0 0 1 1 0zm2.117 0a.5.5 0 1 1-1 0 .5.5 0 0 1 1 0zm0 4.233a.5.5 0 1 1-1 0 .5.5 0 0 1 1 0zm3.175-2.116a.5.5 0 1 1-1 0 .5.5 0 0 1 1 0zm2.116 0a.5.5 0 1 1-1 0 .5.5 0 0 1 1 0zm-3.175 2.116a.5.5 0 1 1-1 0 .5.5 0 0 1 1 0zm0-4.233a.5.5 0 1 1-1 0 .5.5 0 0 1 1 0zm2.117 0a.5.5 0 1 1-1 0 .5.5 0 0 1 1 0zm0 4.233a.5.5 0 1 1-1 0 .5.5 0 0 1 1 0zm2.117-4.233a.5.5 0 1 1-1 0 .5.5 0 0 1 1 0zm0 4.233a.5.5 0 1 1-1 0 .5.5 0 0 1 1 0zm-10.584 0a.5.5 0 1 1-1 0 .5.5 0 0 1 1 0zm0-4.233a.5.5 0 1 1-1 0 .5.5 0 0 1 1 0zm3.175 2.117a.5.5 0 1 1-1 0 .5.5 0 0 1 1 0zm11.642-2.117a.5.5 0 1 1-1 0 .5.5 0 0 1 1 0zm2.117 0a.5.5 0 1 1-1 0 .5.5 0 0 1 1 0zm0 4.233a.5.5 0 1 1-1 0 .5.5 0 0 1 1 0zm3.175-2.116a.5.5 0 1 1-1 0 .5.5 0 0 1 1 0zm2.116 0a.5.5 0 1 1-1 0 .5.5 0 0 1 1 0zm-3.175 2.116a.5.5 0 1 1-1 0 .5.5 0 0 1 1 0zm0-4.233a.5.5 0 1 1-1 0 .5.5 0 0 1 1 0zm2.117 0a.5.5 0 1 1-1 0 .5.5 0 0 1 1 0zm0 4.233a.5.5 0 1 1-1 0 .5.5 0 0 1 1 0zm2.117-4.233a.5.5 0 1 1-1 0 .5.5 0 0 1 1 0zm0 4.233a.5.5 0 1 1-1 0 .5.5 0 0 1 1 0zm-10.584 0a.5.5 0 1 1-1 0 .5.5 0 0 1 1 0zm-1.058-2.116a.5.5 0 1 1-1 0 .5.5 0 0 1 1 0zm1.058-2.117a.5.5 0 1 1-1 0 .5.5 0 0 1 1 0zm3.175 2.117a.5.5 0 1 1-1 0 .5.5 0 0 1 1 0zm25.4-4.234a.5.5 0 1 1-1 0 .5.5 0 0 1 1 0zm-1.058-2.116a.5.5 0 1 1-1 0 .5.5 0 0 1 1 0zm4.233 0a.5.5 0 1 1-1 0 .5.5 0 0 1 1 0zm-3.175-2.117a.5.5 0 1 1-1 0 .5.5 0 0 1 1 0zm2.117 0a.5.5 0 1 1-1 0 .5.5 0 0 1 1 0zm0 4.233a.5.5 0 1 1-1 0 .5.5 0 0 1 1 0zm3.175-2.116a.5.5 0 1 1-1 0 .5.5 0 0 1 1 0zm2.117 0a.5.5 0 1 1-1 0 .5.5 0 0 1 1 0zm-3.175 2.116a.5.5 0 1 1-1 0 .5.5 0 0 1 1 0zm0-4.233a.5.5 0 1 1-1 0 .5.5 0 0 1 1 0zm2.116 0a.5.5 0 1 1-1 0 .5.5 0 0 1 1 0zm0 4.233a.5.5 0 1 1-1 0 .5.5 0 0 1 1 0zm2.117-4.233a.5.5 0 1 1-1 0 .5.5 0 0 1 1 0zm0 4.233a.5.5 0 1 1-1 0 .5.5 0 0 1 1 0zm-10.583 0a.5.5 0 1 1-1 0 .5.5 0 0 1 1 0zm-1.059-2.116a.5.5 0 1 1-1 0 .5.5 0 0 1 1 0zm1.059-2.117a.5.5 0 1 1-1 0 .5.5 0 0 1 1 0zm3.175 2.117a.5.5 0 1 1-1 0 .5.5 0 0 1 1 0zm-13.759 2.116a.5.5 0 1 1-1 0 .5.5 0 0 1 1 0zm-1.058-2.116a.5.5 0 1 1-1 0 .5.5 0 0 1 1 0zm4.233 0a.5.5 0 1 1-1 0 .5.5 0 0 1 1 0zm-3.175-2.117a.5.5 0 1 1-1 0 .5.5 0 0 1 1 0zm2.117 0a.5.5 0 1 1-1 0 .5.5 0 0 1 1 0zm0 4.233a.5.5 0 1 1-1 0 .5.5 0 0 1 1 0zm3.175-2.116a.5.5 0 1 1-1 0 .5.5 0 0 1 1 0zm2.117 0a.5.5 0 1 1-1 0 .5.5 0 0 1 1 0zm-3.175 2.116a.5.5 0 1 1-1 0 .5.5 0 0 1 1 0zm0-4.233a.5.5 0 1 1-1 0 .5.5 0 0 1 1 0zm2.116 0a.5.5 0 1 1-1 0 .5.5 0 0 1 1 0zm0 4.233a.5.5 0 1 1-1 0 .5.5 0 0 1 1 0zm2.117-4.233a.5.5 0 1 1-1 0 .5.5 0 0 1 1 0zm0 4.233a.5.5 0 1 1-1 0 .5.5 0 0 1 1 0zm-10.583 0a.5.5 0 1 1-1 0 .5.5 0 0 1 1 0zm-1.059-2.116a.5.5 0 1 1-1 0 .5.5 0 0 1 1 0zm1.059-2.117a.5.5 0 1 1-1 0 .5.5 0 0 1 1 0zm3.175 2.117a.5.5 0 1 1-1 0 .5.5 0 0 1 1 0zm-13.759 2.116a.5.5 0 1 1-1 0 .5.5 0 0 1 1 0zm-1.058-2.116a.5.5 0 1 1-1 0 .5.5 0 0 1 1 0zm4.233 0a.5.5 0 1 1-1 0 .5.5 0 0 1 1 0zm-15.875 2.116a.5.5 0 1 1-1 0 .5.5 0 0 1 1 0zm-1.058-2.116a.5.5 0 1 1-1 0 .5.5 0 0 1 1 0zm4.233 0a.5.5 0 1 1-1 0 .5.5 0 0 1 1 0zm-3.175-2.117a.5.5 0 1 1-1 0 .5.5 0 0 1 1 0zm2.117 0a.5.5 0 1 1-1 0 .5.5 0 0 1 1 0zm0 4.233a.5.5 0 1 1-1 0 .5.5 0 0 1 1 0zm3.175-2.116a.5.5 0 1 1-1 0 .5.5 0 0 1 1 0zm2.117 0a.5.5 0 1 1-1 0 .5.5 0 0 1 1 0zm-3.175 2.116a.5.5 0 1 1-1 0 .5.5 0 0 1 1 0zm0-4.233a.5.5 0 1 1-1 0 .5.5 0 0 1 1 0zm2.116 0a.5.5 0 1 1-1 0 .5.5 0 0 1 1 0zm0 4.233a.5.5 0 1 1-1 0 .5.5 0 0 1 1 0zm2.117-4.233a.5.5 0 1 1-1 0 .5.5 0 0 1 1 0zm0 4.233a.5.5 0 1 1-1 0 .5.5 0 0 1 1 0zm-10.583 0a.5.5 0 1 1-1 0 .5.5 0 0 1 1 0zm-1.059-2.116a.5.5 0 1 1-1 0 .5.5 0 0 1 1 0zm1.059-2.117a.5.5 0 1 1-1 0 .5.5 0 0 1 1 0zm3.175 2.117a.5.5 0 1 1-1 0 .5.5 0 0 1 1 0zm11.641-2.117a.5.5 0 1 1-1 0 .5.5 0 0 1 1 0zm2.117 0a.5.5 0 1 1-1 0 .5.5 0 0 1 1 0zm0 4.233a.5.5 0 1 1-1 0 .5.5 0 0 1 1 0zm3.175-2.116a.5.5 0 1 1-1 0 .5.5 0 0 1 1 0zm2.117 0a.5.5 0 1 1-1 0 .5.5 0 0 1 1 0zm-3.175 2.116a.5.5 0 1 1-1 0 .5.5 0 0 1 1 0zm0-4.233a.5.5 0 1 1-1 0 .5.5 0 0 1 1 0zm2.116 0a.5.5 0 1 1-1 0 .5.5 0 0 1 1 0zm0 4.233a.5.5 0 1 1-1 0 .5.5 0 0 1 1 0zm2.117-4.233a.5.5 0 1 1-1 0 .5.5 0 0 1 1 0zm0 4.233a.5.5 0 1 1-1 0 .5.5 0 0 1 1 0zm-10.583 0a.5.5 0 1 1-1 0 .5.5 0 0 1 1 0zm-1.059-2.116a.5.5 0 1 1-1 0 .5.5 0 0 1 1 0zm1.059-2.117a.5.5 0 1 1-1 0 .5.5 0 0 1 1 0zm3.175 2.117a.5.5 0 1 1-1 0 .5.5 0 0 1 1 0zm23.283-4.234a.5.5 0 1 1-1 0 .5.5 0 0 1 1 0zm-1.058-2.116a.5.5 0 1 1-1 0 .5.5 0 0 1 1 0zm4.233 0a.5.5 0 1 1-1 0 .5.5 0 0 1 1 0zm-3.175-2.117a.5.5 0 1 1-1 0 .5.5 0 0 1 1 0zm2.117 0a.5.5 0 1 1-1 0 .5.5 0 0 1 1 0zm0 4.233a.5.5 0 1 1-1 0 .5.5 0 0 1 1 0zm3.175-2.116a.5.5 0 1 1-1 0 .5.5 0 0 1 1 0zm2.116 0a.5.5 0 1 1-1 0 .5.5 0 0 1 1 0zm-3.175 2.116a.5.5 0 1 1-1 0 .5.5 0 0 1 1 0zm0-4.233a.5.5 0 1 1-1 0 .5.5 0 0 1 1 0zm2.117 0a.5.5 0 1 1-1 0 .5.5 0 0 1 1 0zm0 4.233a.5.5 0 1 1-1 0 .5.5 0 0 1 1 0zm2.117-4.233a.5.5 0 1 1-1 0 .5.5 0 0 1 1 0zm0 4.233a.5.5 0 1 1-1 0 .5.5 0 0 1 1 0zm-10.584 0a.5.5 0 1 1-1 0 .5.5 0 0 1 1 0zm-1.058-2.116a.5.5 0 1 1-1 0 .5.5 0 0 1 1 0zm1.058-2.117a.5.5 0 1 1-1 0 .5.5 0 0 1 1 0zm3.175 2.117a.5.5 0 1 1-1 0 .5.5 0 0 1 1 0zm-13.758 2.116a.5.5 0 1 1-1 0 .5.5 0 0 1 1 0zm-1.058-2.116a.5.5 0 1 1-1 0 .5.5 0 0 1 1 0zm4.233 0a.5.5 0 1 1-1 0 .5.5 0 0 1 1 0zm-3.175-2.117a.5.5 0 1 1-1 0 .5.5 0 0 1 1 0zm2.117 0a.5.5 0 1 1-1 0 .5.5 0 0 1 1 0zm0 4.233a.5.5 0 1 1-1 0 .5.5 0 0 1 1 0zm3.175-2.116a.5.5 0 1 1-1 0 .5.5 0 0 1 1 0zm2.116 0a.5.5 0 1 1-1 0 .5.5 0 0 1 1 0zm-3.175 2.116a.5.5 0 1 1-1 0 .5.5 0 0 1 1 0zm0-4.233a.5.5 0 1 1-1 0 .5.5 0 0 1 1 0zm2.117 0a.5.5 0 1 1-1 0 .5.5 0 0 1 1 0zm0 4.233a.5.5 0 1 1-1 0 .5.5 0 0 1 1 0zm2.117-4.233a.5.5 0 1 1-1 0 .5.5 0 0 1 1 0zm0 4.233a.5.5 0 1 1-1 0 .5.5 0 0 1 1 0zm-10.584 0a.5.5 0 1 1-1 0 .5.5 0 0 1 1 0zm-1.058-2.116a.5.5 0 1 1-1 0 .5.5 0 0 1 1 0zm1.058-2.117a.5.5 0 1 1-1 0 .5.5 0 0 1 1 0zm3.175 2.117a.5.5 0 1 1-1 0 .5.5 0 0 1 1 0zm-13.758 2.116a.5.5 0 1 1-1 0 .5.5 0 0 1 1 0zm-1.058-2.116a.5.5 0 1 1-1 0 .5.5 0 0 1 1 0zm4.233 0a.5.5 0 1 1-1 0 .5.5 0 0 1 1 0zm-15.875 2.116a.5.5 0 1 1-1 0 .5.5 0 0 1 1 0zm-1.058-2.116a.5.5 0 1 1-1 0 .5.5 0 0 1 1 0zm4.233 0a.5.5 0 1 1-1 0 .5.5 0 0 1 1 0zm-3.175-2.117a.5.5 0 1 1-1 0 .5.5 0 0 1 1 0zm2.117 0a.5.5 0 1 1-1 0 .5.5 0 0 1 1 0zm0 4.233a.5.5 0 1 1-1 0 .5.5 0 0 1 1 0zm3.175-2.116a.5.5 0 1 1-1 0 .5.5 0 0 1 1 0zm2.116 0a.5.5 0 1 1-1 0 .5.5 0 0 1 1 0zm-3.175 2.116a.5.5 0 1 1-1 0 .5.5 0 0 1 1 0zm0-4.233a.5.5 0 1 1-1 0 .5.5 0 0 1 1 0zm2.117 0a.5.5 0 1 1-1 0 .5.5 0 0 1 1 0zm0 4.233a.5.5 0 1 1-1 0 .5.5 0 0 1 1 0zm2.117-4.233a.5.5 0 1 1-1 0 .5.5 0 0 1 1 0zm0 4.233a.5.5 0 1 1-1 0 .5.5 0 0 1 1 0zm-10.584 0a.5.5 0 1 1-1 0 .5.5 0 0 1 1 0zm0-4.233a.5.5 0 1 1-1 0 .5.5 0 0 1 1 0zm3.175 2.117a.5.5 0 1 1-1 0 .5.5 0 0 1 1 0zm11.642-2.117a.5.5 0 1 1-1 0 .5.5 0 0 1 1 0zm2.117 0a.5.5 0 1 1-1 0 .5.5 0 0 1 1 0zm0 4.233a.5.5 0 1 1-1 0 .5.5 0 0 1 1 0zm3.175-2.116a.5.5 0 1 1-1 0 .5.5 0 0 1 1 0zm2.116 0a.5.5 0 1 1-1 0 .5.5 0 0 1 1 0zm-3.175 2.116a.5.5 0 1 1-1 0 .5.5 0 0 1 1 0zm0-4.233a.5.5 0 1 1-1 0 .5.5 0 0 1 1 0zm2.117 0a.5.5 0 1 1-1 0 .5.5 0 0 1 1 0zm0 4.233a.5.5 0 1 1-1 0 .5.5 0 0 1 1 0zm2.117-4.233a.5.5 0 1 1-1 0 .5.5 0 0 1 1 0zm0 4.233a.5.5 0 1 1-1 0 .5.5 0 0 1 1 0zm-10.584 0a.5.5 0 1 1-1 0 .5.5 0 0 1 1 0zm-1.058-2.116a.5.5 0 1 1-1 0 .5.5 0 0 1 1 0zm1.058-2.117a.5.5 0 1 1-1 0 .5.5 0 0 1 1 0zm3.175 2.117a.5.5 0 1 1-1 0 .5.5 0 0 1 1 0zm25.4-4.234a.5.5 0 1 1-1 0 .5.5 0 0 1 1 0zm-1.058-2.116a.5.5 0 1 1-1 0 .5.5 0 0 1 1 0zm4.233 0a.5.5 0 1 1-1 0 .5.5 0 0 1 1 0zm-3.175-2.117a.5.5 0 1 1-1 0 .5.5 0 0 1 1 0zm2.117 0a.5.5 0 1 1-1 0 .5.5 0 0 1 1 0zm0 4.233a.5.5 0 1 1-1 0 .5.5 0 0 1 1 0zm3.175-2.116a.5.5 0 1 1-1 0 .5.5 0 0 1 1 0zm2.117 0a.5.5 0 1 1-1 0 .5.5 0 0 1 1 0zm-3.175 2.116a.5.5 0 1 1-1 0 .5.5 0 0 1 1 0zm0-4.233a.5.5 0 1 1-1 0 .5.5 0 0 1 1 0zm2.116 0a.5.5 0 1 1-1 0 .5.5 0 0 1 1 0zm0 4.233a.5.5 0 1 1-1 0 .5.5 0 0 1 1 0zm2.117-4.233a.5.5 0 1 1-1 0 .5.5 0 0 1 1 0zm0 4.233a.5.5 0 1 1-1 0 .5.5 0 0 1 1 0zm-10.583 0a.5.5 0 1 1-1 0 .5.5 0 0 1 1 0zm-1.059-2.116a.5.5 0 1 1-1 0 .5.5 0 0 1 1 0zm1.059-2.117a.5.5 0 1 1-1 0 .5.5 0 0 1 1 0zm3.175 2.117a.5.5 0 1 1-1 0 .5.5 0 0 1 1 0zm-13.759 2.116a.5.5 0 1 1-1 0 .5.5 0 0 1 1 0zm-1.058-2.116a.5.5 0 1 1-1 0 .5.5 0 0 1 1 0zm4.233 0a.5.5 0 1 1-1 0 .5.5 0 0 1 1 0zm-3.175-2.117a.5.5 0 1 1-1 0 .5.5 0 0 1 1 0zm2.117 0a.5.5 0 1 1-1 0 .5.5 0 0 1 1 0zm0 4.233a.5.5 0 1 1-1 0 .5.5 0 0 1 1 0zm3.175-2.116a.5.5 0 1 1-1 0 .5.5 0 0 1 1 0zm2.117 0a.5.5 0 1 1-1 0 .5.5 0 0 1 1 0zm-3.175 2.116a.5.5 0 1 1-1 0 .5.5 0 0 1 1 0zm0-4.233a.5.5 0 1 1-1 0 .5.5 0 0 1 1 0zm2.116 0a.5.5 0 1 1-1 0 .5.5 0 0 1 1 0zm0 4.233a.5.5 0 1 1-1 0 .5.5 0 0 1 1 0zm2.117-4.233a.5.5 0 1 1-1 0 .5.5 0 0 1 1 0zm0 4.233a.5.5 0 1 1-1 0 .5.5 0 0 1 1 0zm-10.583 0a.5.5 0 1 1-1 0 .5.5 0 0 1 1 0zm-1.059-2.116a.5.5 0 1 1-1 0 .5.5 0 0 1 1 0zm1.059-2.117a.5.5 0 1 1-1 0 .5.5 0 0 1 1 0zm3.175 2.117a.5.5 0 1 1-1 0 .5.5 0 0 1 1 0zm-13.759 2.116a.5.5 0 1 1-1 0 .5.5 0 0 1 1 0zm-1.058-2.116a.5.5 0 1 1-1 0 .5.5 0 0 1 1 0zm4.233 0a.5.5 0 1 1-1 0 .5.5 0 0 1 1 0zm-15.875 2.116a.5.5 0 1 1-1 0 .5.5 0 0 1 1 0zm-1.058-2.116a.5.5 0 1 1-1 0 .5.5 0 0 1 1 0zm4.233 0a.5.5 0 1 1-1 0 .5.5 0 0 1 1 0zm-3.175-2.117a.5.5 0 1 1-1 0 .5.5 0 0 1 1 0zm2.117 0a.5.5 0 1 1-1 0 .5.5 0 0 1 1 0zm0 4.233a.5.5 0 1 1-1 0 .5.5 0 0 1 1 0zm3.175-2.116a.5.5 0 1 1-1 0 .5.5 0 0 1 1 0zm2.117 0a.5.5 0 1 1-1 0 .5.5 0 0 1 1 0zm-3.175 2.116a.5.5 0 1 1-1 0 .5.5 0 0 1 1 0zm0-4.233a.5.5 0 1 1-1 0 .5.5 0 0 1 1 0zm2.116 0a.5.5 0 1 1-1 0 .5.5 0 0 1 1 0zm0 4.233a.5.5 0 1 1-1 0 .5.5 0 0 1 1 0zm2.117-4.233a.5.5 0 1 1-1 0 .5.5 0 0 1 1 0zm0 4.233a.5.5 0 1 1-1 0 .5.5 0 0 1 1 0zm-10.583 0a.5.5 0 1 1-1 0 .5.5 0 0 1 1 0zm-1.059-2.116a.5.5 0 1 1-1 0 .5.5 0 0 1 1 0zm1.059-2.117a.5.5 0 1 1-1 0 .5.5 0 0 1 1 0zm3.175 2.117a.5.5 0 1 1-1 0 .5.5 0 0 1 1 0zm11.641-2.117a.5.5 0 1 1-1 0 .5.5 0 0 1 1 0zm2.117 0a.5.5 0 1 1-1 0 .5.5 0 0 1 1 0zm0 4.233a.5.5 0 1 1-1 0 .5.5 0 0 1 1 0zm3.175-2.116a.5.5 0 1 1-1 0 .5.5 0 0 1 1 0zm2.117 0a.5.5 0 1 1-1 0 .5.5 0 0 1 1 0zm-3.175 2.116a.5.5 0 1 1-1 0 .5.5 0 0 1 1 0zm0-4.233a.5.5 0 1 1-1 0 .5.5 0 0 1 1 0zm2.116 0a.5.5 0 1 1-1 0 .5.5 0 0 1 1 0zm0 4.233a.5.5 0 1 1-1 0 .5.5 0 0 1 1 0zm2.117-4.233a.5.5 0 1 1-1 0 .5.5 0 0 1 1 0zm0 4.233a.5.5 0 1 1-1 0 .5.5 0 0 1 1 0zm-10.583 0a.5.5 0 1 1-1 0 .5.5 0 0 1 1 0zm-1.059-2.116a.5.5 0 1 1-1 0 .5.5 0 0 1 1 0zm1.059-2.117a.5.5 0 1 1-1 0 .5.5 0 0 1 1 0zm3.175 2.117a.5.5 0 1 1-1 0 .5.5 0 0 1 1 0zm23.283 46.566a.5.5 0 1 1-1 0 .5.5 0 0 1 1 0zm-1.058-2.116a.5.5 0 1 1-1 0 .5.5 0 0 1 1 0zm4.233 0a.5.5 0 1 1-1 0 .5.5 0 0 1 1 0zm-3.175-2.117a.5.5 0 1 1-1 0 .5.5 0 0 1 1 0zm2.117 0a.5.5 0 1 1-1 0 .5.5 0 0 1 1 0zm0 4.233a.5.5 0 1 1-1 0 .5.5 0 0 1 1 0zm3.175-2.116a.5.5 0 1 1-1 0 .5.5 0 0 1 1 0zm2.116 0a.5.5 0 1 1-1 0 .5.5 0 0 1 1 0zm-3.175 2.116a.5.5 0 1 1-1 0 .5.5 0 0 1 1 0zm0-4.233a.5.5 0 1 1-1 0 .5.5 0 0 1 1 0zm2.117 0a.5.5 0 1 1-1 0 .5.5 0 0 1 1 0zm0 4.233a.5.5 0 1 1-1 0 .5.5 0 0 1 1 0zm2.117-4.233a.5.5 0 1 1-1 0 .5.5 0 0 1 1 0zm0 4.233a.5.5 0 1 1-1 0 .5.5 0 0 1 1 0zm-10.584 0a.5.5 0 1 1-1 0 .5.5 0 0 1 1 0zm-1.058-2.116a.5.5 0 1 1-1 0 .5.5 0 0 1 1 0zm1.058-2.117a.5.5 0 1 1-1 0 .5.5 0 0 1 1 0zm3.175 2.117a.5.5 0 1 1-1 0 .5.5 0 0 1 1 0zm-13.758 2.116a.5.5 0 1 1-1 0 .5.5 0 0 1 1 0zm-1.058-2.116a.5.5 0 1 1-1 0 .5.5 0 0 1 1 0zm4.233 0a.5.5 0 1 1-1 0 .5.5 0 0 1 1 0zm-3.175-2.117a.5.5 0 1 1-1 0 .5.5 0 0 1 1 0zm2.117 0a.5.5 0 1 1-1 0 .5.5 0 0 1 1 0zm0 4.233a.5.5 0 1 1-1 0 .5.5 0 0 1 1 0zm3.175-2.116a.5.5 0 1 1-1 0 .5.5 0 0 1 1 0zm2.116 0a.5.5 0 1 1-1 0 .5.5 0 0 1 1 0zm-3.175 2.116a.5.5 0 1 1-1 0 .5.5 0 0 1 1 0zm0-4.233a.5.5 0 1 1-1 0 .5.5 0 0 1 1 0zm2.117 0a.5.5 0 1 1-1 0 .5.5 0 0 1 1 0zm0 4.233a.5.5 0 1 1-1 0 .5.5 0 0 1 1 0zm2.117-4.233a.5.5 0 1 1-1 0 .5.5 0 0 1 1 0zm0 4.233a.5.5 0 1 1-1 0 .5.5 0 0 1 1 0zm-10.584 0a.5.5 0 1 1-1 0 .5.5 0 0 1 1 0zm-1.058-2.116a.5.5 0 1 1-1 0 .5.5 0 0 1 1 0zm1.058-2.117a.5.5 0 1 1-1 0 .5.5 0 0 1 1 0zm3.175 2.117a.5.5 0 1 1-1 0 .5.5 0 0 1 1 0zm-13.758 2.116a.5.5 0 1 1-1 0 .5.5 0 0 1 1 0zm-1.058-2.116a.5.5 0 1 1-1 0 .5.5 0 0 1 1 0zm4.233 0a.5.5 0 1 1-1 0 .5.5 0 0 1 1 0zm-15.875 2.116a.5.5 0 1 1-1 0 .5.5 0 0 1 1 0zm-1.058-2.116a.5.5 0 1 1-1 0 .5.5 0 0 1 1 0zm4.233 0a.5.5 0 1 1-1 0 .5.5 0 0 1 1 0zm-3.175-2.117a.5.5 0 1 1-1 0 .5.5 0 0 1 1 0zm2.117 0a.5.5 0 1 1-1 0 .5.5 0 0 1 1 0zm0 4.233a.5.5 0 1 1-1 0 .5.5 0 0 1 1 0zm3.175-2.116a.5.5 0 1 1-1 0 .5.5 0 0 1 1 0zm2.116 0a.5.5 0 1 1-1 0 .5.5 0 0 1 1 0zm-3.175 2.116a.5.5 0 1 1-1 0 .5.5 0 0 1 1 0zm0-4.233a.5.5 0 1 1-1 0 .5.5 0 0 1 1 0zm2.117 0a.5.5 0 1 1-1 0 .5.5 0 0 1 1 0zm0 4.233a.5.5 0 1 1-1 0 .5.5 0 0 1 1 0zm2.117-4.233a.5.5 0 1 1-1 0 .5.5 0 0 1 1 0zm0 4.233a.5.5 0 1 1-1 0 .5.5 0 0 1 1 0zm-10.584 0a.5.5 0 1 1-1 0 .5.5 0 0 1 1 0zm0-4.233a.5.5 0 1 1-1 0 .5.5 0 0 1 1 0zm3.175 2.117a.5.5 0 1 1-1 0 .5.5 0 0 1 1 0zm11.642-2.117a.5.5 0 1 1-1 0 .5.5 0 0 1 1 0zm2.117 0a.5.5 0 1 1-1 0 .5.5 0 0 1 1 0zm0 4.233a.5.5 0 1 1-1 0 .5.5 0 0 1 1 0zm3.175-2.116a.5.5 0 1 1-1 0 .5.5 0 0 1 1 0zm2.116 0a.5.5 0 1 1-1 0 .5.5 0 0 1 1 0zm-3.175 2.116a.5.5 0 1 1-1 0 .5.5 0 0 1 1 0zm0-4.233a.5.5 0 1 1-1 0 .5.5 0 0 1 1 0zm2.117 0a.5.5 0 1 1-1 0 .5.5 0 0 1 1 0zm0 4.233a.5.5 0 1 1-1 0 .5.5 0 0 1 1 0zm2.117-4.233a.5.5 0 1 1-1 0 .5.5 0 0 1 1 0zm0 4.233a.5.5 0 1 1-1 0 .5.5 0 0 1 1 0zm-10.584 0a.5.5 0 1 1-1 0 .5.5 0 0 1 1 0zm-1.058-2.116a.5.5 0 1 1-1 0 .5.5 0 0 1 1 0zm1.058-2.117a.5.5 0 1 1-1 0 .5.5 0 0 1 1 0zm3.175 2.117a.5.5 0 1 1-1 0 .5.5 0 0 1 1 0zm25.4-4.234a.5.5 0 1 1-1 0 .5.5 0 0 1 1 0zm-1.058-2.116a.5.5 0 1 1-1 0 .5.5 0 0 1 1 0zm4.233 0a.5.5 0 1 1-1 0 .5.5 0 0 1 1 0zm-3.175-2.117a.5.5 0 1 1-1 0 .5.5 0 0 1 1 0zm2.117 0a.5.5 0 1 1-1 0 .5.5 0 0 1 1 0zm0 4.233a.5.5 0 1 1-1 0 .5.5 0 0 1 1 0zm3.175-2.116a.5.5 0 1 1-1 0 .5.5 0 0 1 1 0zm2.117 0a.5.5 0 1 1-1 0 .5.5 0 0 1 1 0zm-3.175 2.116a.5.5 0 1 1-1 0 .5.5 0 0 1 1 0zm0-4.233a.5.5 0 1 1-1 0 .5.5 0 0 1 1 0zm2.116 0a.5.5 0 1 1-1 0 .5.5 0 0 1 1 0zm0 4.233a.5.5 0 1 1-1 0 .5.5 0 0 1 1 0zm2.117-4.233a.5.5 0 1 1-1 0 .5.5 0 0 1 1 0zm0 4.233a.5.5 0 1 1-1 0 .5.5 0 0 1 1 0zm-10.583 0a.5.5 0 1 1-1 0 .5.5 0 0 1 1 0zm-1.059-2.116a.5.5 0 1 1-1 0 .5.5 0 0 1 1 0zm1.059-2.117a.5.5 0 1 1-1 0 .5.5 0 0 1 1 0zm3.175 2.117a.5.5 0 1 1-1 0 .5.5 0 0 1 1 0zm-13.759 2.116a.5.5 0 1 1-1 0 .5.5 0 0 1 1 0zm-1.058-2.116a.5.5 0 1 1-1 0 .5.5 0 0 1 1 0zm4.233 0a.5.5 0 1 1-1 0 .5.5 0 0 1 1 0zm-3.175-2.117a.5.5 0 1 1-1 0 .5.5 0 0 1 1 0zm2.117 0a.5.5 0 1 1-1 0 .5.5 0 0 1 1 0zm0 4.233a.5.5 0 1 1-1 0 .5.5 0 0 1 1 0zm3.175-2.116a.5.5 0 1 1-1 0 .5.5 0 0 1 1 0zm2.117 0a.5.5 0 1 1-1 0 .5.5 0 0 1 1 0zm-3.175 2.116a.5.5 0 1 1-1 0 .5.5 0 0 1 1 0zm0-4.233a.5.5 0 1 1-1 0 .5.5 0 0 1 1 0zm2.116 0a.5.5 0 1 1-1 0 .5.5 0 0 1 1 0zm0 4.233a.5.5 0 1 1-1 0 .5.5 0 0 1 1 0zm2.117-4.233a.5.5 0 1 1-1 0 .5.5 0 0 1 1 0zm0 4.233a.5.5 0 1 1-1 0 .5.5 0 0 1 1 0zm-10.583 0a.5.5 0 1 1-1 0 .5.5 0 0 1 1 0zm-1.059-2.116a.5.5 0 1 1-1 0 .5.5 0 0 1 1 0zm1.059-2.117a.5.5 0 1 1-1 0 .5.5 0 0 1 1 0zm3.175 2.117a.5.5 0 1 1-1 0 .5.5 0 0 1 1 0zm-13.759 2.116a.5.5 0 1 1-1 0 .5.5 0 0 1 1 0zm-1.058-2.116a.5.5 0 1 1-1 0 .5.5 0 0 1 1 0zm4.233 0a.5.5 0 1 1-1 0 .5.5 0 0 1 1 0zm-15.875 2.116a.5.5 0 1 1-1 0 .5.5 0 0 1 1 0zm-1.058-2.116a.5.5 0 1 1-1 0 .5.5 0 0 1 1 0zm4.233 0a.5.5 0 1 1-1 0 .5.5 0 0 1 1 0zm-3.175-2.117a.5.5 0 1 1-1 0 .5.5 0 0 1 1 0zm2.117 0a.5.5 0 1 1-1 0 .5.5 0 0 1 1 0zm0 4.233a.5.5 0 1 1-1 0 .5.5 0 0 1 1 0zm3.175-2.116a.5.5 0 1 1-1 0 .5.5 0 0 1 1 0zm2.117 0a.5.5 0 1 1-1 0 .5.5 0 0 1 1 0zm-3.175 2.116a.5.5 0 1 1-1 0 .5.5 0 0 1 1 0zm0-4.233a.5.5 0 1 1-1 0 .5.5 0 0 1 1 0zm2.116 0a.5.5 0 1 1-1 0 .5.5 0 0 1 1 0zm2.117 0a.5.5 0 1 1-1 0 .5.5 0 0 1 1 0zm0 4.233a.5.5 0 1 1-1 0 .5.5 0 0 1 1 0zm-10.583 0a.5.5 0 1 1-1 0 .5.5 0 0 1 1 0zm-1.059-2.116a.5.5 0 1 1-1 0 .5.5 0 0 1 1 0zm1.059-2.117a.5.5 0 1 1-1 0 .5.5 0 0 1 1 0zm3.175 2.117a.5.5 0 1 1-1 0 .5.5 0 0 1 1 0zm11.641-2.117a.5.5 0 1 1-1 0 .5.5 0 0 1 1 0zm2.117 0a.5.5 0 1 1-1 0 .5.5 0 0 1 1 0zm0 4.233a.5.5 0 1 1-1 0 .5.5 0 0 1 1 0zm3.175-2.116a.5.5 0 1 1-1 0 .5.5 0 0 1 1 0zm2.117 0a.5.5 0 1 1-1 0 .5.5 0 0 1 1 0zm-3.175 2.116a.5.5 0 1 1-1 0 .5.5 0 0 1 1 0zm0-4.233a.5.5 0 1 1-1 0 .5.5 0 0 1 1 0zm2.116 0a.5.5 0 1 1-1 0 .5.5 0 0 1 1 0zm0 4.233a.5.5 0 1 1-1 0 .5.5 0 0 1 1 0zm2.117-4.233a.5.5 0 1 1-1 0 .5.5 0 0 1 1 0zm0 4.233a.5.5 0 1 1-1 0 .5.5 0 0 1 1 0zm-10.583 0a.5.5 0 1 1-1 0 .5.5 0 0 1 1 0zm-1.059-2.116a.5.5 0 1 1-1 0 .5.5 0 0 1 1 0zm1.059-2.117a.5.5 0 1 1-1 0 .5.5 0 0 1 1 0zm3.175 2.117a.5.5 0 1 1-1 0 .5.5 0 0 1 1 0zm23.283-4.234a.5.5 0 1 1-1 0 .5.5 0 0 1 1 0zm-1.058-2.116a.5.5 0 1 1-1 0 .5.5 0 0 1 1 0zm4.233 0a.5.5 0 1 1-1 0 .5.5 0 0 1 1 0zm-3.175-2.117a.5.5 0 1 1-1 0 .5.5 0 0 1 1 0zm2.117 0a.5.5 0 1 1-1 0 .5.5 0 0 1 1 0zm0 4.233a.5.5 0 1 1-1 0 .5.5 0 0 1 1 0zm3.175-2.116a.5.5 0 1 1-1 0 .5.5 0 0 1 1 0zm2.116 0a.5.5 0 1 1-1 0 .5.5 0 0 1 1 0zm-3.175 2.116a.5.5 0 1 1-1 0 .5.5 0 0 1 1 0zm0-4.233a.5.5 0 1 1-1 0 .5.5 0 0 1 1 0zm2.117 0a.5.5 0 1 1-1 0 .5.5 0 0 1 1 0zm0 4.233a.5.5 0 1 1-1 0 .5.5 0 0 1 1 0zm2.117-4.233a.5.5 0 1 1-1 0 .5.5 0 0 1 1 0zm0 4.233a.5.5 0 1 1-1 0 .5.5 0 0 1 1 0zm-10.584 0a.5.5 0 1 1-1 0 .5.5 0 0 1 1 0zm-1.058-2.116a.5.5 0 1 1-1 0 .5.5 0 0 1 1 0zm1.058-2.117a.5.5 0 1 1-1 0 .5.5 0 0 1 1 0zm3.175 2.117a.5.5 0 1 1-1 0 .5.5 0 0 1 1 0zm-13.758 2.116a.5.5 0 1 1-1 0 .5.5 0 0 1 1 0zm-1.058-2.116a.5.5 0 1 1-1 0 .5.5 0 0 1 1 0zm4.233 0a.5.5 0 1 1-1 0 .5.5 0 0 1 1 0zm-3.175-2.117a.5.5 0 1 1-1 0 .5.5 0 0 1 1 0zm2.117 0a.5.5 0 1 1-1 0 .5.5 0 0 1 1 0zm0 4.233a.5.5 0 1 1-1 0 .5.5 0 0 1 1 0zm3.175-2.116a.5.5 0 1 1-1 0 .5.5 0 0 1 1 0zm2.116 0a.5.5 0 1 1-1 0 .5.5 0 0 1 1 0zm-3.175 2.116a.5.5 0 1 1-1 0 .5.5 0 0 1 1 0zm0-4.233a.5.5 0 1 1-1 0 .5.5 0 0 1 1 0zm2.117 0a.5.5 0 1 1-1 0 .5.5 0 0 1 1 0zm0 4.233a.5.5 0 1 1-1 0 .5.5 0 0 1 1 0zm2.117-4.233a.5.5 0 1 1-1 0 .5.5 0 0 1 1 0zm0 4.233a.5.5 0 1 1-1 0 .5.5 0 0 1 1 0zm-10.584 0a.5.5 0 1 1-1 0 .5.5 0 0 1 1 0zm-1.058-2.116a.5.5 0 1 1-1 0 .5.5 0 0 1 1 0zm1.058-2.117a.5.5 0 1 1-1 0 .5.5 0 0 1 1 0zm3.175 2.117a.5.5 0 1 1-1 0 .5.5 0 0 1 1 0zm-13.758 2.116a.5.5 0 1 1-1 0 .5.5 0 0 1 1 0zm-1.058-2.116a.5.5 0 1 1-1 0 .5.5 0 0 1 1 0zm4.233 0a.5.5 0 1 1-1 0 .5.5 0 0 1 1 0zm-15.875 2.116a.5.5 0 1 1-1 0 .5.5 0 0 1 1 0zm-1.058-2.116a.5.5 0 1 1-1 0 .5.5 0 0 1 1 0zm4.233 0a.5.5 0 1 1-1 0 .5.5 0 0 1 1 0zm-3.175-2.117a.5.5 0 1 1-1 0 .5.5 0 0 1 1 0zm2.117 0a.5.5 0 1 1-1 0 .5.5 0 0 1 1 0zm0 4.233a.5.5 0 1 1-1 0 .5.5 0 0 1 1 0zm3.175-2.116a.5.5 0 1 1-1 0 .5.5 0 0 1 1 0zm2.116 0a.5.5 0 1 1-1 0 .5.5 0 0 1 1 0zm-3.175 2.116a.5.5 0 1 1-1 0 .5.5 0 0 1 1 0zm0-4.233a.5.5 0 1 1-1 0 .5.5 0 0 1 1 0zm2.117 0a.5.5 0 1 1-1 0 .5.5 0 0 1 1 0zm0 4.233a.5.5 0 1 1-1 0 .5.5 0 0 1 1 0zm2.117-4.233a.5.5 0 1 1-1 0 .5.5 0 0 1 1 0zm0 4.233a.5.5 0 1 1-1 0 .5.5 0 0 1 1 0zm-10.584 0a.5.5 0 1 1-1 0 .5.5 0 0 1 1 0zm0-4.233a.5.5 0 1 1-1 0 .5.5 0 0 1 1 0zm3.175 2.117a.5.5 0 1 1-1 0 .5.5 0 0 1 1 0zm11.642-2.117a.5.5 0 1 1-1 0 .5.5 0 0 1 1 0zm2.117 0a.5.5 0 1 1-1 0 .5.5 0 0 1 1 0zm0 4.233a.5.5 0 1 1-1 0 .5.5 0 0 1 1 0zm3.175-2.116a.5.5 0 1 1-1 0 .5.5 0 0 1 1 0zm2.116 0a.5.5 0 1 1-1 0 .5.5 0 0 1 1 0zm-3.175 2.116a.5.5 0 1 1-1 0 .5.5 0 0 1 1 0zm0-4.233a.5.5 0 1 1-1 0 .5.5 0 0 1 1 0zm2.117 0a.5.5 0 1 1-1 0 .5.5 0 0 1 1 0zm0 4.233a.5.5 0 1 1-1 0 .5.5 0 0 1 1 0zm2.117-4.233a.5.5 0 1 1-1 0 .5.5 0 0 1 1 0zm0 4.233a.5.5 0 1 1-1 0 .5.5 0 0 1 1 0zm-10.584 0a.5.5 0 1 1-1 0 .5.5 0 0 1 1 0zm-1.058-2.116a.5.5 0 1 1-1 0 .5.5 0 0 1 1 0zm1.058-2.117a.5.5 0 1 1-1 0 .5.5 0 0 1 1 0zm3.175 2.117a.5.5 0 1 1-1 0 .5.5 0 0 1 1 0zm25.4-4.234a.5.5 0 1 1-1 0 .5.5 0 0 1 1 0zm-1.058-2.116a.5.5 0 1 1-1 0 .5.5 0 0 1 1 0zm4.233 0a.5.5 0 1 1-1 0 .5.5 0 0 1 1 0zm-3.175-2.117a.5.5 0 1 1-1 0 .5.5 0 0 1 1 0zm2.117 0a.5.5 0 1 1-1 0 .5.5 0 0 1 1 0zm0 4.233a.5.5 0 1 1-1 0 .5.5 0 0 1 1 0zm3.175-2.116a.5.5 0 1 1-1 0 .5.5 0 0 1 1 0zm2.117 0a.5.5 0 1 1-1 0 .5.5 0 0 1 1 0zm-3.175 2.116a.5.5 0 1 1-1 0 .5.5 0 0 1 1 0zm0-4.233a.5.5 0 1 1-1 0 .5.5 0 0 1 1 0zm2.116 0a.5.5 0 1 1-1 0 .5.5 0 0 1 1 0zm0 4.233a.5.5 0 1 1-1 0 .5.5 0 0 1 1 0zm2.117-4.233a.5.5 0 1 1-1 0 .5.5 0 0 1 1 0zm0 4.233a.5.5 0 1 1-1 0 .5.5 0 0 1 1 0zm-10.583 0a.5.5 0 1 1-1 0 .5.5 0 0 1 1 0zm-1.059-2.116a.5.5 0 1 1-1 0 .5.5 0 0 1 1 0zm1.059-2.117a.5.5 0 1 1-1 0 .5.5 0 0 1 1 0zm3.175 2.117a.5.5 0 1 1-1 0 .5.5 0 0 1 1 0zm-13.759 2.116a.5.5 0 1 1-1 0 .5.5 0 0 1 1 0zm-1.058-2.116a.5.5 0 1 1-1 0 .5.5 0 0 1 1 0zm4.233 0a.5.5 0 1 1-1 0 .5.5 0 0 1 1 0zm-3.175-2.117a.5.5 0 1 1-1 0 .5.5 0 0 1 1 0zm2.117 0a.5.5 0 1 1-1 0 .5.5 0 0 1 1 0zm0 4.233a.5.5 0 1 1-1 0 .5.5 0 0 1 1 0zm3.175-2.116a.5.5 0 1 1-1 0 .5.5 0 0 1 1 0zm2.117 0a.5.5 0 1 1-1 0 .5.5 0 0 1 1 0zm-3.175 2.116a.5.5 0 1 1-1 0 .5.5 0 0 1 1 0zm0-4.233a.5.5 0 1 1-1 0 .5.5 0 0 1 1 0zm2.116 0a.5.5 0 1 1-1 0 .5.5 0 0 1 1 0zm0 4.233a.5.5 0 1 1-1 0 .5.5 0 0 1 1 0zm2.117-4.233a.5.5 0 1 1-1 0 .5.5 0 0 1 1 0zm0 4.233a.5.5 0 1 1-1 0 .5.5 0 0 1 1 0zm-10.583 0a.5.5 0 1 1-1 0 .5.5 0 0 1 1 0zm-1.059-2.116a.5.5 0 1 1-1 0 .5.5 0 0 1 1 0zm1.059-2.117a.5.5 0 1 1-1 0 .5.5 0 0 1 1 0zm3.175 2.117a.5.5 0 1 1-1 0 .5.5 0 0 1 1 0zm-13.759 2.116a.5.5 0 1 1-1 0 .5.5 0 0 1 1 0zm-1.058-2.116a.5.5 0 1 1-1 0 .5.5 0 0 1 1 0zm4.233 0a.5.5 0 1 1-1 0 .5.5 0 0 1 1 0zm-15.875 2.116a.5.5 0 1 1-1 0 .5.5 0 0 1 1 0zm-1.058-2.116a.5.5 0 1 1-1 0 .5.5 0 0 1 1 0zm4.233 0a.5.5 0 1 1-1 0 .5.5 0 0 1 1 0zm-3.175-2.117a.5.5 0 1 1-1 0 .5.5 0 0 1 1 0zm2.117 0a.5.5 0 1 1-1 0 .5.5 0 0 1 1 0zm0 4.233a.5.5 0 1 1-1 0 .5.5 0 0 1 1 0zm3.175-2.116a.5.5 0 1 1-1 0 .5.5 0 0 1 1 0zm2.117 0a.5.5 0 1 1-1 0 .5.5 0 0 1 1 0zm-3.175 2.116a.5.5 0 1 1-1 0 .5.5 0 0 1 1 0zm0-4.233a.5.5 0 1 1-1 0 .5.5 0 0 1 1 0zm2.116 0a.5.5 0 1 1-1 0 .5.5 0 0 1 1 0zm0 4.233a.5.5 0 1 1-1 0 .5.5 0 0 1 1 0zm2.117-4.233a.5.5 0 1 1-1 0 .5.5 0 0 1 1 0zm0 4.233a.5.5 0 1 1-1 0 .5.5 0 0 1 1 0zm-10.583 0a.5.5 0 1 1-1 0 .5.5 0 0 1 1 0zm-1.059-2.116a.5.5 0 1 1-1 0 .5.5 0 0 1 1 0zm1.059-2.117a.5.5 0 1 1-1 0 .5.5 0 0 1 1 0zm3.175 2.117a.5.5 0 1 1-1 0 .5.5 0 0 1 1 0zm11.641-2.117a.5.5 0 1 1-1 0 .5.5 0 0 1 1 0zm2.117 0a.5.5 0 1 1-1 0 .5.5 0 0 1 1 0zm0 4.233a.5.5 0 1 1-1 0 .5.5 0 0 1 1 0zm3.175-2.116a.5.5 0 1 1-1 0 .5.5 0 0 1 1 0zm2.117 0a.5.5 0 1 1-1 0 .5.5 0 0 1 1 0zm-3.175 2.116a.5.5 0 1 1-1 0 .5.5 0 0 1 1 0zm0-4.233a.5.5 0 1 1-1 0 .5.5 0 0 1 1 0zm2.116 0a.5.5 0 1 1-1 0 .5.5 0 0 1 1 0zm0 4.233a.5.5 0 1 1-1 0 .5.5 0 0 1 1 0zm2.117-4.233a.5.5 0 1 1-1 0 .5.5 0 0 1 1 0zm0 4.233a.5.5 0 1 1-1 0 .5.5 0 0 1 1 0zm-10.583 0a.5.5 0 1 1-1 0 .5.5 0 0 1 1 0zm-1.059-2.116a.5.5 0 1 1-1 0 .5.5 0 0 1 1 0zm1.059-2.117a.5.5 0 1 1-1 0 .5.5 0 0 1 1 0zm3.175 2.117a.5.5 0 1 1-1 0 .5.5 0 0 1 1 0z" clip-path="url(#a)" transform="rotate(-5 4406.708 9371.082)"/><path style="fill:#fff;fill-opacity:1;stroke:none;stroke-width:2;stroke-linecap:round;stroke-linejoin:round;stroke-miterlimit:4;stroke-dasharray:none;paint-order:markers fill stroke" d="m857.455-407.607 8.86 7.435 2.624 29.99c.093 1.06-.626 1.982-1.61 2.069l-25.466 2.227c-.985.087-1.852-.697-1.945-1.757l-3.17-36.225c-.092-1.06.626-1.982 1.611-2.068z" transform="translate(-817.637 412.16)"/><path style="color:#000;fill:#4d62a1;stroke-width:1;stroke-linecap:round;stroke-linejoin:round;-inkscape-stroke:none;paint-order:markers fill stroke" d="M857.367-408.603a1 1 0 0 1 .03 0 1 1 0 0 1 .207.01 1 1 0 0 1 .032.003 1 1 0 0 1 .218.069 1 1 0 0 1 .046.022 1 1 0 0 1 .197.125l8.861 7.434a1 1 0 0 1 .156.17 1 1 0 0 1 .032.045 1 1 0 0 1 .106.201 1 1 0 0 1 .01.033 1 1 0 0 1 .043.196 1 1 0 0 1 .008.034l2.624 29.99c.136 1.558-.96 3.016-2.52 3.152l-25.466 2.228c-1.56.137-2.893-1.11-3.029-2.666l-3.17-36.224c-.135-1.557.96-3.016 2.521-3.152zm-.822 2.08-18.098 1.583c-.41.036-.752.422-.703.985l3.17 36.225c.049.563.453.884.862.848l25.465-2.228c.41-.036.751-.422.702-.985l-2.537-28.995-5.374.47c-1.56.137-2.892-1.109-3.028-2.666zm2.116 1.234.335 3.83c.05.562.452.883.862.847l3.963-.347z" transform="translate(-817.637 412.16)"/><path style="color:#000;mix-blend-mode:multiply;fill:#bd1f0c;stroke-width:.3;stroke-linecap:round;stroke-linejoin:round;-inkscape-stroke:none;paint-order:markers fill stroke" d="M850.995-412.158a.492.492 0 0 0-.326.16.518.518 0 0 0-.12.391v.002c.021.624.499 6.616.684 8.787-.435.038-.87.076-1.306.112a7.685 7.685 0 0 0-.231-1.244c-.924-3.354-4.224-5.952-7.575-6.227-3.352-.275-6.527 1.789-7.808 4.299-.98 1.919-.724 3-.532 4.692l-.084.008c-.161.016-.322.037-.483.053-.265-2.172-1.204-8.994-1.241-9.275l-.045-.33a1.35 1.35 0 0 0-.024-.136.488.488 0 0 0-.175-.348.463.463 0 0 0-.328-.096.466.466 0 0 0-.309.15.493.493 0 0 0-.112.383c.06.34.131.672.178 1.006.084.6 1.112 8.122 1.192 8.742-1.926.214-3.848.452-5.774.599-.181.013-.334.06-.451.126-.118.066-.207.15-.227.266a.24.24 0 0 0 .04.174c.035.05.088.086.152.113.127.054.306.075.558.06h.004c1.88-.206 3.914-.419 5.79-.613l.06.483a.549.549 0 0 1 .006.037c0 .01.004.024.004.025h.004l.424 3.446v.002c.23 1.645 1.027 9.454 1.242 11.12l.008.072c-2.022.239-3.45.402-3.866.424-.406.022-.687.238-.715.512a.388.388 0 0 0 .184.362c.127.078.297.102.505.072l-.006.002c1.074-.11 2.482-.27 4.007-.447.189 1.546.86 7.327 1.625 13.748.072.607.13 1.067.202 1.667l-4.586.478h.018a1.016 1.016 0 0 0-.607.188.568.568 0 0 0-.246.462.527.527 0 0 0 .316.442c.184.086.422.105.724.058 1.525-.162 3.038-.342 4.514-.525.286 2.377.527 5.987.554 6.064.07.202.172.338.297.41a.47.47 0 0 0 .386.038c.241-.08.43-.32.393-.579v-.002c-.11-.817-.338-3.922-.6-6.057 5.284-.67 9.78-1.361 11.144-1.5 1.86-.191 3.72-.394 5.578-.602.098.966.722 6.994.97 9.239a.513.513 0 0 0 .196.353.48.48 0 0 0 .343.089.48.48 0 0 0 .313-.167.51.51 0 0 0 .105-.388c-.418-3.626-.99-9.23-.99-9.23 2.016-.23 4.031-.466 6.046-.707 5.102-.53 2.148-.213 7.345-.793.996-.111 1.99-.222 2.986-.327.048.588.342 5.07.404 5.98.107 1.574-.009 1.043.09 2.618.133 1.23 1.871 1.043 1.74-.187-.118-.866-.335-1.139-.44-2.046-.183-1.576-.54-4.9-.696-6.478 1.928-.192 2.276-.21 4.21-.271l-.004-.006.014.006a.58.58 0 0 0 .408-.207.553.553 0 0 0 .115-.391.55.55 0 0 0-.18-.365.581.581 0 0 0-.44-.135c-1.935.18-2.288.233-4.221.432-.057-.558-.108-1.117-.173-1.675-.143-1.428-.297-2.855-.43-4.284-.301-3.268-.387-4.683-.628-7.859-.02-.255-.04-.564-.062-.84 1.864-.1 2.674-.106 4.538-.219a.538.538 0 0 0 .379-.219c.075-.11.099-.241.08-.364a.503.503 0 0 0-.188-.323c-.079-.06-.196-.067-.308-.072l-.004-.006v.004c-.035-.001-.06-.027-.096-.022v-.002h-.007s-2.616.251-4.459.367c-.078-1-.161-2.007-.217-2.925-.019-.308-.026-.616-.04-.925-.106-.593-.533-.86-.96-.86-.547 0-1.094.442-.957 1.205.058.279.121.556.172.836.133.727.29 1.75.452 2.765l-1.32.081-3.473.215c-.5.032-.523.035-.524.035l-4.074.239c-1.959.11-4.23.297-6.574.51-.45-5.72-.88-11.03-1.205-14.986 3.72-.329 7.44-.639 11.164-.903 1.736-.145 8.736-.717 10.345-.726a.102.102 0 0 0 .063-.026c.116-.009.23-.031.302-.1a.461.461 0 0 0 .143-.31.464.464 0 0 0-.103-.326.49.49 0 0 0-.366-.166s-4.25.39-6.896.621c-1.182.104-2.364.19-3.547.285a.1.1 0 0 0-.003 0c-1.291.118-2.581.247-3.872.354-1.34.111-2.685.19-4.029.3-1.087.09-2.172.198-3.257.3l-.133-1.621v-.002c-.078-1.125-.336-5.757-.526-7.167l-.008-.006a.52.52 0 0 0-.181-.353.49.49 0 0 0-.348-.101zm-9.544 2.804c3.12-.025 6.296 1.877 7.457 5.089.194.535.314 1.076.373 1.614-.79.066-1.581.13-2.372.205a.1.1 0 0 0-.003 0c-6.046.614-3.033.324-9.028.87l-3 .285c-.237-1.42-.278-2.987.365-4.213 1.386-2.644 3.78-3.83 6.207-3.85zm9.841 7.226c.1 1.158.176 2.092.28 3.29.422 4.889.694 8.079 1.003 11.693-3.515.33-7.2.725-10.571 1.11-2.624.3-4.89.57-6.846.802-.354-2.897-.706-5.753-1.05-8.587l-.804-6.576.548-.057c.025.322.045.667.05 1.044-.018.95.728 1.254 1.038 1.17.31-.083.598-.282.502-.629a29.75 29.75 0 0 1-.426-1.706c1.138-.117 2.48-.254 2.931-.303 3.791-.364 7.583-.726 11.376-1.073.032 2.657-1.352 5.12-2.8 6.15-1.869 1.329-4.89 2.174-9.085-2.279-.21-.244-.729-.521-.973-.312-.243.21-.35.558-.14.801.721.836 5.56 7.081 11.29 1.99 1.16-1.031 2.41-3.664 2.355-6.41l1.322-.118zm18.264 14.667c.046.292.119.702.15.91.174 1.193.355 2.386.495 3.583.166 1.408.271 2.823.422 4.232.153 1.426.325 2.85.488 4.276l.137 1.686c-3.454.362-6.904.749-10.354 1.147-1.182.126-2.37.238-3.555.378-.829.098-1.655.21-2.48.318-.063-.651-.116-1.236-.177-1.877 2.845-.329 7.443-.82 8.071-1.052.703-.26.2-1.132-.26-1.088-.462.044-2.595.56-3.894.805-.454.086-2.638.405-3.987.607a636.135 636.135 0 0 1-.482-5.292c2.818-.419 5.632-.836 6.006-.897.328-.053 2.177-.344 2.626-.4a40.82 40.82 0 0 1 1.628-.163c-.008.03-.01.062-.02.089-.259.97-.413 1.965-.517 2.963-.088.741-.055.34-.084 1.06-.01.225-.032.605-.026.838.003.09.043.526.052.63l.031.27c.136.838 1.32.645 1.184-.192-.01-.066-.022-.133-.034-.199-.14-.747-.09-1.522-.026-2.275.026-.178.055-.355.077-.534.023-.181.028-.364.057-.545.095-.606.298-1.191.456-1.782.02-.143.067-.286.061-.43-.02-.476-.102-.73-.557-.973-.113-.06-.631-.06-.453-.07l-.15.01c-.359.036-.753.138-.967.166-2.778.529 1.391-.272-2.025.411-.488.098-.979.184-1.467.279-.937.18-3.447.558-5.923.92-.037-.444-.094-1.053-.123-1.425-.143-1.892-.277-3.533-.417-5.325 2.608-.27 4.9-.478 6.551-.572 3.162-.159 6.325-.32 9.487-.487zm-16.91 1.154c.133 1.54.394 4.53.455 5.296l.107 1.484c-2.414.35-4.646.666-5.067.727-1.504.219-3.016.432-4.538.436-.183 0-.366-.019-.548-.029-.482.024-.678.41-.611.745a.597.597 0 0 0 .003.126c.083.795.242 1.578.371 2.366.394 2.401-.09-.4.314 1.907.133.733 1.17.545 1.037-.188-.061-.301-.13-.6-.183-.902-.055-.318-.096-.64-.14-.96a19.423 19.423 0 0 1-.186-1.935c.383-.06.764-.128 1.148-.188 1.08-.17 2.384-.354 3.458-.527.54-.087 2.709-.41 5.002-.75l.112 1.547.008.11.003.043v.004c0 .005.003.013.003.013l.039-.004c.047.494.083.886.223 2.543.029.347.05.697.073 1.044a4.898 4.898 0 0 0-.08.012c-2.313.291-2.584.34-4.948.575-.798.079-1.596.163-2.396.217-.603.04-1.209.04-1.813.067-3.083.133.32.005-1.461.07-.843.187-.58 1.379.263 1.193.452-.088.817-.161 1.303-.236 3.037-.468 6.091-.817 9.14-1.197a.572.572 0 0 0 .041-.005c.025.384.05.766.08 1.15v.002c.034.406.044.45.07.74-.225.03-.451.059-.677.086-2.602.312-7.98.887-10.473 1.172-4.931.564-5.354.627-5.619.661-.608-4.956-1.25-10.213-1.885-15.416 5.116-.598 11.81-1.412 17.376-2z" transform="translate(-817.637 412.16)"/><path style="color:#000;opacity:.35;mix-blend-mode:multiply;fill:#ebe0b7;stroke-width:1;stroke-linecap:round;stroke-linejoin:round;-inkscape-stroke:none;paint-order:markers fill stroke" d="M850.995-412.158a.492.492 0 0 0-.326.16.518.518 0 0 0-.12.391v.003c.01.269.15 2.012.273 3.575l-3.481.304c-1.442-1.373-3.315-2.295-5.22-2.451-3.352-.275-6.527 1.788-7.808 4.298-.98 1.92-.724 3-.532 4.693l-.084.008c-.161.016-.322.037-.483.053-.265-2.172-1.204-8.995-1.242-9.275-.019-.14-.033-.25-.045-.33a1.35 1.35 0 0 0-.023-.137.488.488 0 0 0-.176-.347.463.463 0 0 0-.328-.096.467.467 0 0 0-.308.15.493.493 0 0 0-.112.384c.06.338.13.671.178 1.005.084.6 1.112 8.122 1.192 8.742-1.926.214-3.848.452-5.774.599-.181.013-.334.06-.451.126-.118.066-.207.15-.227.266a.24.24 0 0 0 .04.174c.035.05.088.086.152.113.127.054.306.075.558.06h.004c1.88-.206 3.913-.418 5.789-.613l.061.483a.56.56 0 0 1 .006.037c0 .01.004.024.004.026h.004l.424 3.445v.003c.23 1.645 1.027 9.454 1.242 11.121l.008.07c-2.022.24-3.451.403-3.867.425-.406.022-.686.237-.714.512a.388.388 0 0 0 .183.361c.128.079.297.103.506.073l-.006.003c1.073-.11 2.481-.27 4.007-.447.188 1.546.86 7.327 1.624 13.748.072.607.13 1.067.202 1.667-.704.073-1.986.206-4.585.478h.017a1.016 1.016 0 0 0-.607.188.568.568 0 0 0-.246.462.527.527 0 0 0 .316.442c.184.086.422.105.725.058 1.524-.162 3.037-.342 4.514-.525.285 2.377.527 5.986.553 6.064.07.202.172.337.297.41a.47.47 0 0 0 .387.037c.24-.08.43-.32.393-.578v-.003c-.11-.818-.338-3.922-.6-6.057.556-.071 1.068-.14 1.592-.21l.04.455c.101 1.156.864 2.139 1.889 2.513.307 1.365 1.53 2.397 2.956 2.272l10.89-.953c.117 1.116.25 2.386.325 3.06a.513.513 0 0 0 .195.353.48.48 0 0 0 .344.089.48.48 0 0 0 .312-.167.51.51 0 0 0 .106-.388c-.107-.924-.223-1.974-.338-3.029l13.631-1.192c1.189-.104 2.106-.976 2.416-2.074l.081 1.218c.107 1.574-.009 1.043.09 2.618.133 1.23 1.871 1.043 1.74-.187-.118-.866-.335-1.139-.44-2.046-.183-1.576-.54-4.9-.696-6.478 1.928-.192 2.276-.21 4.21-.271l-.003-.006c.004.003.009.004.013.006a.581.581 0 0 0 .408-.207.552.552 0 0 0 .116-.391.55.55 0 0 0-.18-.365.581.581 0 0 0-.44-.135c-1.936.18-2.289.233-4.222.432-.057-.558-.108-1.117-.173-1.675-.143-1.427-.297-2.855-.429-4.284-.302-3.268-.388-4.683-.63-7.859l-.061-.84c1.864-.1 2.674-.106 4.538-.219.005 0 .009 0 .013-.003a.538.538 0 0 0 .366-.216c.075-.11.099-.243.08-.366a.503.503 0 0 0-.188-.322c-.078-.061-.195-.068-.308-.073 0-.003-.003-.004-.004-.006v.004c-.035 0-.06-.027-.096-.022v-.003h-.007s-2.616.251-4.459.367c-.078-1-.161-2.007-.217-2.925-.018-.308-.026-.616-.04-.925-.106-.593-.533-.86-.959-.86-.06 0-.122.006-.181.017l-.442-5.05c-.004-.012-.005-.023-.008-.034a1.016 1.016 0 0 0-.043-.196l-.01-.032a.99.99 0 0 0-.137-.246.996.996 0 0 0-.156-.17l-1.442-1.21-.02-.231a1 1 0 0 0-.008-.034 1 1 0 0 0-.043-.196 1 1 0 0 0-.01-.032 1 1 0 0 0-.105-.202 1 1 0 0 0-.032-.044 1 1 0 0 0-.156-.17l-2.673-2.243c2.34-.193 8.002-.648 9.47-.656.024 0 .046-.01.063-.026.117-.009.23-.032.303-.1a.461.461 0 0 0 .143-.31.464.464 0 0 0-.104-.326.49.49 0 0 0-.353-.166h-.012s-4.25.39-6.897.621c-1.143.1-2.287.184-3.432.276l-5.37-4.505a1 1 0 0 0-.197-.125 1 1 0 0 0-.046-.022 1 1 0 0 0-.217-.07 1 1 0 0 0-.032-.002 1 1 0 0 0-.207-.01 1 1 0 0 0-.03 0l-5.543.486c-.092-1.414-.193-2.841-.292-3.578l-.008-.006a.52.52 0 0 0-.181-.353.49.49 0 0 0-.348-.102zm-9.544 2.804c1.762-.014 3.526.603 4.947 1.71l-8.125.71c-1.56.137-2.657 1.596-2.52 3.152l.208 2.388-1.084.103c-.236-1.42-.277-2.987.366-4.213 1.386-2.644 3.78-3.83 6.207-3.85zm-5.427 8.676.228 2.61a.478.478 0 0 0 .036.404l1.064 12.172-2.194.259c-.354-2.897-.705-5.753-1.05-8.587l-.804-6.577.548-.057c.026.323.045.668.05 1.045-.018.95.728 1.254 1.038 1.17.31-.083.598-.282.503-.629a29.748 29.748 0 0 1-.427-1.706l1.008-.104zm1.41 16.115 1.354 15.478c-.662.079-1.53.18-1.628.193-.609-4.956-1.25-10.213-1.886-15.416l2.16-.255z" transform="translate(-817.637 412.16)"/></svg>