<svg width="199.768" height="224.082" viewBox="0 0 52.855 59.288" xmlns="http://www.w3.org/2000/svg"><defs><clipPath clipPathUnits="userSpaceOnUse" id="a"/></defs><g style="fill:#eae7e7"><path style="color:#000;opacity:1;fill:#eae7e7;stroke-width:3.77953;stroke-linecap:round;stroke-linejoin:round;-inkscape-stroke:none;paint-order:markers fill stroke" d="M3278.527-1025.162c-5.92 0-10.527 5.132-10.527 11.037v137.436c0 5.905 4.608 11.035 10.527 11.035h96.614c5.92 0 10.527-5.129 10.527-11.035v-113.786c-.01-.043-.012-.087-.02-.13a3.946 3.946 0 0 0-.098-.75c-.01-.043-.017-.085-.027-.127a3.751 3.751 0 0 0-.436-.971 3.78 3.78 0 0 0-.53-.693l-30.917-30.909a3.779 3.779 0 0 0-.7-.537 3.784 3.784 0 0 0-.963-.43c-.04-.01-.08-.016-.12-.023a3.727 3.727 0 0 0-.775-.101c-.038-.01-.075-.011-.114-.016z" transform="scale(.26458) rotate(-5 13851.88 36435.673)"/></g><path style="fill:#4d62a1;stroke-width:.0299333;stroke-linecap:round;stroke-linejoin:round;paint-order:markers fill stroke" d="M884.105-316.07a.5.5 0 0 1-.5.5.5.5 0 0 1-.5-.5.5.5 0 0 1 .5-.5.5.5 0 0 1 .5.5zm-1.058-2.116a.5.5 0 0 1-.5.5.5.5 0 0 1-.5-.5.5.5 0 0 1 .5-.5.5.5 0 0 1 .5.5zm4.233 0a.5.5 0 0 1-.5.5.5.5 0 0 1-.5-.5.5.5 0 0 1 .5-.5.5.5 0 0 1 .5.5zm-3.175-2.117a.5.5 0 0 1-.5.5.5.5 0 0 1-.5-.5.5.5 0 0 1 .5-.5.5.5 0 0 1 .5.5zm2.117 0a.5.5 0 0 1-.5.5.5.5 0 0 1-.5-.5.5.5 0 0 1 .5-.5.5.5 0 0 1 .5.5zm0 4.233a.5.5 0 0 1-.5.5.5.5 0 0 1-.5-.5.5.5 0 0 1 .5-.5.5.5 0 0 1 .5.5zm3.175-2.116a.5.5 0 0 1-.5.5.5.5 0 0 1-.5-.5.5.5 0 0 1 .5-.5.5.5 0 0 1 .5.5zm2.116 0a.5.5 0 0 1-.5.5.5.5 0 0 1-.5-.5.5.5 0 0 1 .5-.5.5.5 0 0 1 .5.5zm-3.175 2.116a.5.5 0 0 1-.5.5.5.5 0 0 1-.5-.5.5.5 0 0 1 .5-.5.5.5 0 0 1 .5.5zm0-4.233a.5.5 0 0 1-.5.5.5.5 0 0 1-.5-.5.5.5 0 0 1 .5-.5.5.5 0 0 1 .5.5zm2.117 0a.5.5 0 0 1-.5.5.5.5 0 0 1-.5-.5.5.5 0 0 1 .5-.5.5.5 0 0 1 .5.5zm0 4.233a.5.5 0 0 1-.5.5.5.5 0 0 1-.5-.5.5.5 0 0 1 .5-.5.5.5 0 0 1 .5.5zm2.117-4.233a.5.5 0 0 1-.5.5.5.5 0 0 1-.5-.5.5.5 0 0 1 .5-.5.5.5 0 0 1 .5.5zm0 4.233a.5.5 0 0 1-.5.5.5.5 0 0 1-.5-.5.5.5 0 0 1 .5-.5.5.5 0 0 1 .5.5zm-10.584 0a.5.5 0 0 1-.5.5.5.5 0 0 1-.5-.5.5.5 0 0 1 .5-.5.5.5 0 0 1 .5.5zm-1.058-2.116a.5.5 0 0 1-.5.5.5.5 0 0 1-.5-.5.5.5 0 0 1 .5-.5.5.5 0 0 1 .5.5zm1.058-2.117a.5.5 0 0 1-.5.5.5.5 0 0 1-.5-.5.5.5 0 0 1 .5-.5.5.5 0 0 1 .5.5zm3.175 2.117a.5.5 0 0 1-.5.5.5.5 0 0 1-.5-.5.5.5 0 0 1 .5-.5.5.5 0 0 1 .5.5zm-13.758 2.116a.5.5 0 0 1-.5.5.5.5 0 0 1-.5-.5.5.5 0 0 1 .5-.5.5.5 0 0 1 .5.5zm-1.058-2.116a.5.5 0 0 1-.5.5.5.5 0 0 1-.5-.5.5.5 0 0 1 .5-.5.5.5 0 0 1 .5.5zm4.233 0a.5.5 0 0 1-.5.5.5.5 0 0 1-.5-.5.5.5 0 0 1 .5-.5.5.5 0 0 1 .5.5zm-3.175-2.117a.5.5 0 0 1-.5.5.5.5 0 0 1-.5-.5.5.5 0 0 1 .5-.5.5.5 0 0 1 .5.5zm2.117 0a.5.5 0 0 1-.5.5.5.5 0 0 1-.5-.5.5.5 0 0 1 .5-.5.5.5 0 0 1 .5.5zm0 4.233a.5.5 0 0 1-.5.5.5.5 0 0 1-.5-.5.5.5 0 0 1 .5-.5.5.5 0 0 1 .5.5zm3.175-2.116a.5.5 0 0 1-.5.5.5.5 0 0 1-.5-.5.5.5 0 0 1 .5-.5.5.5 0 0 1 .5.5zm2.116 0a.5.5 0 0 1-.5.5.5.5 0 0 1-.5-.5.5.5 0 0 1 .5-.5.5.5 0 0 1 .5.5zm-3.175 2.116a.5.5 0 0 1-.5.5.5.5 0 0 1-.5-.5.5.5 0 0 1 .5-.5.5.5 0 0 1 .5.5zm0-4.233a.5.5 0 0 1-.5.5.5.5 0 0 1-.5-.5.5.5 0 0 1 .5-.5.5.5 0 0 1 .5.5zm2.117 0a.5.5 0 0 1-.5.5.5.5 0 0 1-.5-.5.5.5 0 0 1 .5-.5.5.5 0 0 1 .5.5zm0 4.233a.5.5 0 0 1-.5.5.5.5 0 0 1-.5-.5.5.5 0 0 1 .5-.5.5.5 0 0 1 .5.5zm2.117-4.233a.5.5 0 0 1-.5.5.5.5 0 0 1-.5-.5.5.5 0 0 1 .5-.5.5.5 0 0 1 .5.5zm0 4.233a.5.5 0 0 1-.5.5.5.5 0 0 1-.5-.5.5.5 0 0 1 .5-.5.5.5 0 0 1 .5.5zm-10.584 0a.5.5 0 0 1-.5.5.5.5 0 0 1-.5-.5.5.5 0 0 1 .5-.5.5.5 0 0 1 .5.5zm-1.058-2.116a.5.5 0 0 1-.5.5.5.5 0 0 1-.5-.5.5.5 0 0 1 .5-.5.5.5 0 0 1 .5.5zm1.058-2.117a.5.5 0 0 1-.5.5.5.5 0 0 1-.5-.5.5.5 0 0 1 .5-.5.5.5 0 0 1 .5.5zm3.175 2.117a.5.5 0 0 1-.5.5.5.5 0 0 1-.5-.5.5.5 0 0 1 .5-.5.5.5 0 0 1 .5.5zm-13.758 2.116a.5.5 0 0 1-.5.5.5.5 0 0 1-.5-.5.5.5 0 0 1 .5-.5.5.5 0 0 1 .5.5zm-1.058-2.116a.5.5 0 0 1-.5.5.5.5 0 0 1-.5-.5.5.5 0 0 1 .5-.5.5.5 0 0 1 .5.5zm4.233 0a.5.5 0 0 1-.5.5.5.5 0 0 1-.5-.5.5.5 0 0 1 .5-.5.5.5 0 0 1 .5.5zm-15.875 2.116a.5.5 0 0 1-.5.5.5.5 0 0 1-.5-.5.5.5 0 0 1 .5-.5.5.5 0 0 1 .5.5zm-1.058-2.116a.5.5 0 0 1-.5.5.5.5 0 0 1-.5-.5.5.5 0 0 1 .5-.5.5.5 0 0 1 .5.5zm4.233 0a.5.5 0 0 1-.5.5.5.5 0 0 1-.5-.5.5.5 0 0 1 .5-.5.5.5 0 0 1 .5.5zm-3.175-2.117a.5.5 0 0 1-.5.5.5.5 0 0 1-.5-.5.5.5 0 0 1 .5-.5.5.5 0 0 1 .5.5zm2.117 0a.5.5 0 0 1-.5.5.5.5 0 0 1-.5-.5.5.5 0 0 1 .5-.5.5.5 0 0 1 .5.5zm0 4.233a.5.5 0 0 1-.5.5.5.5 0 0 1-.5-.5.5.5 0 0 1 .5-.5.5.5 0 0 1 .5.5zm3.175-2.116a.5.5 0 0 1-.5.5.5.5 0 0 1-.5-.5.5.5 0 0 1 .5-.5.5.5 0 0 1 .5.5zm2.116 0a.5.5 0 0 1-.5.5.5.5 0 0 1-.5-.5.5.5 0 0 1 .5-.5.5.5 0 0 1 .5.5zm-3.175 2.116a.5.5 0 0 1-.5.5.5.5 0 0 1-.5-.5.5.5 0 0 1 .5-.5.5.5 0 0 1 .5.5zm0-4.233a.5.5 0 0 1-.5.5.5.5 0 0 1-.5-.5.5.5 0 0 1 .5-.5.5.5 0 0 1 .5.5zm2.117 0a.5.5 0 0 1-.5.5.5.5 0 0 1-.5-.5.5.5 0 0 1 .5-.5.5.5 0 0 1 .5.5zm0 4.233a.5.5 0 0 1-.5.5.5.5 0 0 1-.5-.5.5.5 0 0 1 .5-.5.5.5 0 0 1 .5.5zm2.117-4.233a.5.5 0 0 1-.5.5.5.5 0 0 1-.5-.5.5.5 0 0 1 .5-.5.5.5 0 0 1 .5.5zm0 4.233a.5.5 0 0 1-.5.5.5.5 0 0 1-.5-.5.5.5 0 0 1 .5-.5.5.5 0 0 1 .5.5zm-10.584 0a.5.5 0 0 1-.5.5.5.5 0 0 1-.5-.5.5.5 0 0 1 .5-.5.5.5 0 0 1 .5.5zm0-4.233a.5.5 0 0 1-.5.5.5.5 0 0 1-.5-.5.5.5 0 0 1 .5-.5.5.5 0 0 1 .5.5zm3.175 2.117a.5.5 0 0 1-.5.5.5.5 0 0 1-.5-.5.5.5 0 0 1 .5-.5.5.5 0 0 1 .5.5zm11.642-2.117a.5.5 0 0 1-.5.5.5.5 0 0 1-.5-.5.5.5 0 0 1 .5-.5.5.5 0 0 1 .5.5zm2.117 0a.5.5 0 0 1-.5.5.5.5 0 0 1-.5-.5.5.5 0 0 1 .5-.5.5.5 0 0 1 .5.5zm0 4.233a.5.5 0 0 1-.5.5.5.5 0 0 1-.5-.5.5.5 0 0 1 .5-.5.5.5 0 0 1 .5.5zm3.175-2.116a.5.5 0 0 1-.5.5.5.5 0 0 1-.5-.5.5.5 0 0 1 .5-.5.5.5 0 0 1 .5.5zm2.116 0a.5.5 0 0 1-.5.5.5.5 0 0 1-.5-.5.5.5 0 0 1 .5-.5.5.5 0 0 1 .5.5zm-3.175 2.116a.5.5 0 0 1-.5.5.5.5 0 0 1-.5-.5.5.5 0 0 1 .5-.5.5.5 0 0 1 .5.5zm0-4.233a.5.5 0 0 1-.5.5.5.5 0 0 1-.5-.5.5.5 0 0 1 .5-.5.5.5 0 0 1 .5.5zm2.117 0a.5.5 0 0 1-.5.5.5.5 0 0 1-.5-.5.5.5 0 0 1 .5-.5.5.5 0 0 1 .5.5zm0 4.233a.5.5 0 0 1-.5.5.5.5 0 0 1-.5-.5.5.5 0 0 1 .5-.5.5.5 0 0 1 .5.5zm2.117-4.233a.5.5 0 0 1-.5.5.5.5 0 0 1-.5-.5.5.5 0 0 1 .5-.5.5.5 0 0 1 .5.5zm0 4.233a.5.5 0 0 1-.5.5.5.5 0 0 1-.5-.5.5.5 0 0 1 .5-.5.5.5 0 0 1 .5.5zm-10.584 0a.5.5 0 0 1-.5.5.5.5 0 0 1-.5-.5.5.5 0 0 1 .5-.5.5.5 0 0 1 .5.5zm-1.058-2.116a.5.5 0 0 1-.5.5.5.5 0 0 1-.5-.5.5.5 0 0 1 .5-.5.5.5 0 0 1 .5.5zm1.058-2.117a.5.5 0 0 1-.5.5.5.5 0 0 1-.5-.5.5.5 0 0 1 .5-.5.5.5 0 0 1 .5.5zm3.175 2.117a.5.5 0 0 1-.5.5.5.5 0 0 1-.5-.5.5.5 0 0 1 .5-.5.5.5 0 0 1 .5.5zm25.4-4.234a.5.5 0 0 1-.5.5.5.5 0 0 1-.5-.5.5.5 0 0 1 .5-.5.5.5 0 0 1 .5.5zm-1.058-2.116a.5.5 0 0 1-.5.5.5.5 0 0 1-.5-.5.5.5 0 0 1 .5-.5.5.5 0 0 1 .5.5zm4.233 0a.5.5 0 0 1-.5.5.5.5 0 0 1-.5-.5.5.5 0 0 1 .5-.5.5.5 0 0 1 .5.5zm-3.175-2.117a.5.5 0 0 1-.5.5.5.5 0 0 1-.5-.5.5.5 0 0 1 .5-.5.5.5 0 0 1 .5.5zm2.117 0a.5.5 0 0 1-.5.5.5.5 0 0 1-.5-.5.5.5 0 0 1 .5-.5.5.5 0 0 1 .5.5zm0 4.233a.5.5 0 0 1-.5.5.5.5 0 0 1-.5-.5.5.5 0 0 1 .5-.5.5.5 0 0 1 .5.5zm3.175-2.116a.5.5 0 0 1-.5.5.5.5 0 0 1-.5-.5.5.5 0 0 1 .5-.5.5.5 0 0 1 .5.5zm2.117 0a.5.5 0 0 1-.5.5.5.5 0 0 1-.5-.5.5.5 0 0 1 .5-.5.5.5 0 0 1 .5.5zm-3.175 2.116a.5.5 0 0 1-.5.5.5.5 0 0 1-.5-.5.5.5 0 0 1 .5-.5.5.5 0 0 1 .5.5zm0-4.233a.5.5 0 0 1-.5.5.5.5 0 0 1-.5-.5.5.5 0 0 1 .5-.5.5.5 0 0 1 .5.5zm2.116 0a.5.5 0 0 1-.5.5.5.5 0 0 1-.5-.5.5.5 0 0 1 .5-.5.5.5 0 0 1 .5.5zm0 4.233a.5.5 0 0 1-.5.5.5.5 0 0 1-.5-.5.5.5 0 0 1 .5-.5.5.5 0 0 1 .5.5zm2.117-4.233a.5.5 0 0 1-.5.5.5.5 0 0 1-.5-.5.5.5 0 0 1 .5-.5.5.5 0 0 1 .5.5zm0 4.233a.5.5 0 0 1-.5.5.5.5 0 0 1-.5-.5.5.5 0 0 1 .5-.5.5.5 0 0 1 .5.5zm-10.583 0a.5.5 0 0 1-.5.5.5.5 0 0 1-.5-.5.5.5 0 0 1 .5-.5.5.5 0 0 1 .5.5zm-1.059-2.116a.5.5 0 0 1-.5.5.5.5 0 0 1-.5-.5.5.5 0 0 1 .5-.5.5.5 0 0 1 .5.5zm1.059-2.117a.5.5 0 0 1-.5.5.5.5 0 0 1-.5-.5.5.5 0 0 1 .5-.5.5.5 0 0 1 .5.5zm3.175 2.117a.5.5 0 0 1-.5.5.5.5 0 0 1-.5-.5.5.5 0 0 1 .5-.5.5.5 0 0 1 .5.5zm-13.759 2.116a.5.5 0 0 1-.5.5.5.5 0 0 1-.5-.5.5.5 0 0 1 .5-.5.5.5 0 0 1 .5.5zm-1.058-2.116a.5.5 0 0 1-.5.5.5.5 0 0 1-.5-.5.5.5 0 0 1 .5-.5.5.5 0 0 1 .5.5zm4.233 0a.5.5 0 0 1-.5.5.5.5 0 0 1-.5-.5.5.5 0 0 1 .5-.5.5.5 0 0 1 .5.5zm-3.175-2.117a.5.5 0 0 1-.5.5.5.5 0 0 1-.5-.5.5.5 0 0 1 .5-.5.5.5 0 0 1 .5.5zm2.117 0a.5.5 0 0 1-.5.5.5.5 0 0 1-.5-.5.5.5 0 0 1 .5-.5.5.5 0 0 1 .5.5zm0 4.233a.5.5 0 0 1-.5.5.5.5 0 0 1-.5-.5.5.5 0 0 1 .5-.5.5.5 0 0 1 .5.5zm3.175-2.116a.5.5 0 0 1-.5.5.5.5 0 0 1-.5-.5.5.5 0 0 1 .5-.5.5.5 0 0 1 .5.5zm2.117 0a.5.5 0 0 1-.5.5.5.5 0 0 1-.5-.5.5.5 0 0 1 .5-.5.5.5 0 0 1 .5.5zm-3.175 2.116a.5.5 0 0 1-.5.5.5.5 0 0 1-.5-.5.5.5 0 0 1 .5-.5.5.5 0 0 1 .5.5zm0-4.233a.5.5 0 0 1-.5.5.5.5 0 0 1-.5-.5.5.5 0 0 1 .5-.5.5.5 0 0 1 .5.5zm2.116 0a.5.5 0 0 1-.5.5.5.5 0 0 1-.5-.5.5.5 0 0 1 .5-.5.5.5 0 0 1 .5.5zm0 4.233a.5.5 0 0 1-.5.5.5.5 0 0 1-.5-.5.5.5 0 0 1 .5-.5.5.5 0 0 1 .5.5zm2.117-4.233a.5.5 0 0 1-.5.5.5.5 0 0 1-.5-.5.5.5 0 0 1 .5-.5.5.5 0 0 1 .5.5zm0 4.233a.5.5 0 0 1-.5.5.5.5 0 0 1-.5-.5.5.5 0 0 1 .5-.5.5.5 0 0 1 .5.5zm-10.583 0a.5.5 0 0 1-.5.5.5.5 0 0 1-.5-.5.5.5 0 0 1 .5-.5.5.5 0 0 1 .5.5zm-1.059-2.116a.5.5 0 0 1-.5.5.5.5 0 0 1-.5-.5.5.5 0 0 1 .5-.5.5.5 0 0 1 .5.5zm1.059-2.117a.5.5 0 0 1-.5.5.5.5 0 0 1-.5-.5.5.5 0 0 1 .5-.5.5.5 0 0 1 .5.5zm3.175 2.117a.5.5 0 0 1-.5.5.5.5 0 0 1-.5-.5.5.5 0 0 1 .5-.5.5.5 0 0 1 .5.5zm-13.759 2.116a.5.5 0 0 1-.5.5.5.5 0 0 1-.5-.5.5.5 0 0 1 .5-.5.5.5 0 0 1 .5.5zm-1.058-2.116a.5.5 0 0 1-.5.5.5.5 0 0 1-.5-.5.5.5 0 0 1 .5-.5.5.5 0 0 1 .5.5zm4.233 0a.5.5 0 0 1-.5.5.5.5 0 0 1-.5-.5.5.5 0 0 1 .5-.5.5.5 0 0 1 .5.5zm-15.875 2.116a.5.5 0 0 1-.5.5.5.5 0 0 1-.5-.5.5.5 0 0 1 .5-.5.5.5 0 0 1 .5.5zm-1.058-2.116a.5.5 0 0 1-.5.5.5.5 0 0 1-.5-.5.5.5 0 0 1 .5-.5.5.5 0 0 1 .5.5zm4.233 0a.5.5 0 0 1-.5.5.5.5 0 0 1-.5-.5.5.5 0 0 1 .5-.5.5.5 0 0 1 .5.5zm-3.175-2.117a.5.5 0 0 1-.5.5.5.5 0 0 1-.5-.5.5.5 0 0 1 .5-.5.5.5 0 0 1 .5.5zm2.117 0a.5.5 0 0 1-.5.5.5.5 0 0 1-.5-.5.5.5 0 0 1 .5-.5.5.5 0 0 1 .5.5zm0 4.233a.5.5 0 0 1-.5.5.5.5 0 0 1-.5-.5.5.5 0 0 1 .5-.5.5.5 0 0 1 .5.5zm3.175-2.116a.5.5 0 0 1-.5.5.5.5 0 0 1-.5-.5.5.5 0 0 1 .5-.5.5.5 0 0 1 .5.5zm2.117 0a.5.5 0 0 1-.5.5.5.5 0 0 1-.5-.5.5.5 0 0 1 .5-.5.5.5 0 0 1 .5.5zm-3.175 2.116a.5.5 0 0 1-.5.5.5.5 0 0 1-.5-.5.5.5 0 0 1 .5-.5.5.5 0 0 1 .5.5zm0-4.233a.5.5 0 0 1-.5.5.5.5 0 0 1-.5-.5.5.5 0 0 1 .5-.5.5.5 0 0 1 .5.5zm2.116 0a.5.5 0 0 1-.5.5.5.5 0 0 1-.5-.5.5.5 0 0 1 .5-.5.5.5 0 0 1 .5.5zm0 4.233a.5.5 0 0 1-.5.5.5.5 0 0 1-.5-.5.5.5 0 0 1 .5-.5.5.5 0 0 1 .5.5zm2.117-4.233a.5.5 0 0 1-.5.5.5.5 0 0 1-.5-.5.5.5 0 0 1 .5-.5.5.5 0 0 1 .5.5zm0 4.233a.5.5 0 0 1-.5.5.5.5 0 0 1-.5-.5.5.5 0 0 1 .5-.5.5.5 0 0 1 .5.5zm-10.583 0a.5.5 0 0 1-.5.5.5.5 0 0 1-.5-.5.5.5 0 0 1 .5-.5.5.5 0 0 1 .5.5zm-1.059-2.116a.5.5 0 0 1-.5.5.5.5 0 0 1-.5-.5.5.5 0 0 1 .5-.5.5.5 0 0 1 .5.5zm1.059-2.117a.5.5 0 0 1-.5.5.5.5 0 0 1-.5-.5.5.5 0 0 1 .5-.5.5.5 0 0 1 .5.5zm3.175 2.117a.5.5 0 0 1-.5.5.5.5 0 0 1-.5-.5.5.5 0 0 1 .5-.5.5.5 0 0 1 .5.5zm11.641-2.117a.5.5 0 0 1-.5.5.5.5 0 0 1-.5-.5.5.5 0 0 1 .5-.5.5.5 0 0 1 .5.5zm2.117 0a.5.5 0 0 1-.5.5.5.5 0 0 1-.5-.5.5.5 0 0 1 .5-.5.5.5 0 0 1 .5.5zm0 4.233a.5.5 0 0 1-.5.5.5.5 0 0 1-.5-.5.5.5 0 0 1 .5-.5.5.5 0 0 1 .5.5zm3.175-2.116a.5.5 0 0 1-.5.5.5.5 0 0 1-.5-.5.5.5 0 0 1 .5-.5.5.5 0 0 1 .5.5zm2.117 0a.5.5 0 0 1-.5.5.5.5 0 0 1-.5-.5.5.5 0 0 1 .5-.5.5.5 0 0 1 .5.5zm-3.175 2.116a.5.5 0 0 1-.5.5.5.5 0 0 1-.5-.5.5.5 0 0 1 .5-.5.5.5 0 0 1 .5.5zm0-4.233a.5.5 0 0 1-.5.5.5.5 0 0 1-.5-.5.5.5 0 0 1 .5-.5.5.5 0 0 1 .5.5zm2.116 0a.5.5 0 0 1-.5.5.5.5 0 0 1-.5-.5.5.5 0 0 1 .5-.5.5.5 0 0 1 .5.5zm0 4.233a.5.5 0 0 1-.5.5.5.5 0 0 1-.5-.5.5.5 0 0 1 .5-.5.5.5 0 0 1 .5.5zm2.117-4.233a.5.5 0 0 1-.5.5.5.5 0 0 1-.5-.5.5.5 0 0 1 .5-.5.5.5 0 0 1 .5.5zm0 4.233a.5.5 0 0 1-.5.5.5.5 0 0 1-.5-.5.5.5 0 0 1 .5-.5.5.5 0 0 1 .5.5zm-10.583 0a.5.5 0 0 1-.5.5.5.5 0 0 1-.5-.5.5.5 0 0 1 .5-.5.5.5 0 0 1 .5.5zm-1.059-2.116a.5.5 0 0 1-.5.5.5.5 0 0 1-.5-.5.5.5 0 0 1 .5-.5.5.5 0 0 1 .5.5zm1.059-2.117a.5.5 0 0 1-.5.5.5.5 0 0 1-.5-.5.5.5 0 0 1 .5-.5.5.5 0 0 1 .5.5zm3.175 2.117a.5.5 0 0 1-.5.5.5.5 0 0 1-.5-.5.5.5 0 0 1 .5-.5.5.5 0 0 1 .5.5zm23.283-4.234a.5.5 0 0 1-.5.5.5.5 0 0 1-.5-.5.5.5 0 0 1 .5-.5.5.5 0 0 1 .5.5zm-1.058-2.116a.5.5 0 0 1-.5.5.5.5 0 0 1-.5-.5.5.5 0 0 1 .5-.5.5.5 0 0 1 .5.5zm4.233 0a.5.5 0 0 1-.5.5.5.5 0 0 1-.5-.5.5.5 0 0 1 .5-.5.5.5 0 0 1 .5.5zm-3.175-2.117a.5.5 0 0 1-.5.5.5.5 0 0 1-.5-.5.5.5 0 0 1 .5-.5.5.5 0 0 1 .5.5zm2.117 0a.5.5 0 0 1-.5.5.5.5 0 0 1-.5-.5.5.5 0 0 1 .5-.5.5.5 0 0 1 .5.5zm0 4.233a.5.5 0 0 1-.5.5.5.5 0 0 1-.5-.5.5.5 0 0 1 .5-.5.5.5 0 0 1 .5.5zm3.175-2.116a.5.5 0 0 1-.5.5.5.5 0 0 1-.5-.5.5.5 0 0 1 .5-.5.5.5 0 0 1 .5.5zm2.116 0a.5.5 0 0 1-.5.5.5.5 0 0 1-.5-.5.5.5 0 0 1 .5-.5.5.5 0 0 1 .5.5zm-3.175 2.116a.5.5 0 0 1-.5.5.5.5 0 0 1-.5-.5.5.5 0 0 1 .5-.5.5.5 0 0 1 .5.5zm0-4.233a.5.5 0 0 1-.5.5.5.5 0 0 1-.5-.5.5.5 0 0 1 .5-.5.5.5 0 0 1 .5.5zm2.117 0a.5.5 0 0 1-.5.5.5.5 0 0 1-.5-.5.5.5 0 0 1 .5-.5.5.5 0 0 1 .5.5zm0 4.233a.5.5 0 0 1-.5.5.5.5 0 0 1-.5-.5.5.5 0 0 1 .5-.5.5.5 0 0 1 .5.5zm2.117-4.233a.5.5 0 0 1-.5.5.5.5 0 0 1-.5-.5.5.5 0 0 1 .5-.5.5.5 0 0 1 .5.5zm0 4.233a.5.5 0 0 1-.5.5.5.5 0 0 1-.5-.5.5.5 0 0 1 .5-.5.5.5 0 0 1 .5.5zm-10.584 0a.5.5 0 0 1-.5.5.5.5 0 0 1-.5-.5.5.5 0 0 1 .5-.5.5.5 0 0 1 .5.5zm-1.058-2.116a.5.5 0 0 1-.5.5.5.5 0 0 1-.5-.5.5.5 0 0 1 .5-.5.5.5 0 0 1 .5.5zm1.058-2.117a.5.5 0 0 1-.5.5.5.5 0 0 1-.5-.5.5.5 0 0 1 .5-.5.5.5 0 0 1 .5.5zm3.175 2.117a.5.5 0 0 1-.5.5.5.5 0 0 1-.5-.5.5.5 0 0 1 .5-.5.5.5 0 0 1 .5.5zm-13.758 2.116a.5.5 0 0 1-.5.5.5.5 0 0 1-.5-.5.5.5 0 0 1 .5-.5.5.5 0 0 1 .5.5zm-1.058-2.116a.5.5 0 0 1-.5.5.5.5 0 0 1-.5-.5.5.5 0 0 1 .5-.5.5.5 0 0 1 .5.5zm4.233 0a.5.5 0 0 1-.5.5.5.5 0 0 1-.5-.5.5.5 0 0 1 .5-.5.5.5 0 0 1 .5.5zm-3.175-2.117a.5.5 0 0 1-.5.5.5.5 0 0 1-.5-.5.5.5 0 0 1 .5-.5.5.5 0 0 1 .5.5zm2.117 0a.5.5 0 0 1-.5.5.5.5 0 0 1-.5-.5.5.5 0 0 1 .5-.5.5.5 0 0 1 .5.5zm0 4.233a.5.5 0 0 1-.5.5.5.5 0 0 1-.5-.5.5.5 0 0 1 .5-.5.5.5 0 0 1 .5.5zm3.175-2.116a.5.5 0 0 1-.5.5.5.5 0 0 1-.5-.5.5.5 0 0 1 .5-.5.5.5 0 0 1 .5.5zm2.116 0a.5.5 0 0 1-.5.5.5.5 0 0 1-.5-.5.5.5 0 0 1 .5-.5.5.5 0 0 1 .5.5zm-3.175 2.116a.5.5 0 0 1-.5.5.5.5 0 0 1-.5-.5.5.5 0 0 1 .5-.5.5.5 0 0 1 .5.5zm0-4.233a.5.5 0 0 1-.5.5.5.5 0 0 1-.5-.5.5.5 0 0 1 .5-.5.5.5 0 0 1 .5.5zm2.117 0a.5.5 0 0 1-.5.5.5.5 0 0 1-.5-.5.5.5 0 0 1 .5-.5.5.5 0 0 1 .5.5zm0 4.233a.5.5 0 0 1-.5.5.5.5 0 0 1-.5-.5.5.5 0 0 1 .5-.5.5.5 0 0 1 .5.5zm2.117-4.233a.5.5 0 0 1-.5.5.5.5 0 0 1-.5-.5.5.5 0 0 1 .5-.5.5.5 0 0 1 .5.5zm0 4.233a.5.5 0 0 1-.5.5.5.5 0 0 1-.5-.5.5.5 0 0 1 .5-.5.5.5 0 0 1 .5.5zm-10.584 0a.5.5 0 0 1-.5.5.5.5 0 0 1-.5-.5.5.5 0 0 1 .5-.5.5.5 0 0 1 .5.5zm-1.058-2.116a.5.5 0 0 1-.5.5.5.5 0 0 1-.5-.5.5.5 0 0 1 .5-.5.5.5 0 0 1 .5.5zm1.058-2.117a.5.5 0 0 1-.5.5.5.5 0 0 1-.5-.5.5.5 0 0 1 .5-.5.5.5 0 0 1 .5.5zm3.175 2.117a.5.5 0 0 1-.5.5.5.5 0 0 1-.5-.5.5.5 0 0 1 .5-.5.5.5 0 0 1 .5.5zm-13.758 2.116a.5.5 0 0 1-.5.5.5.5 0 0 1-.5-.5.5.5 0 0 1 .5-.5.5.5 0 0 1 .5.5zm-1.058-2.116a.5.5 0 0 1-.5.5.5.5 0 0 1-.5-.5.5.5 0 0 1 .5-.5.5.5 0 0 1 .5.5zm4.233 0a.5.5 0 0 1-.5.5.5.5 0 0 1-.5-.5.5.5 0 0 1 .5-.5.5.5 0 0 1 .5.5zm-15.875 2.116a.5.5 0 0 1-.5.5.5.5 0 0 1-.5-.5.5.5 0 0 1 .5-.5.5.5 0 0 1 .5.5zm-1.058-2.116a.5.5 0 0 1-.5.5.5.5 0 0 1-.5-.5.5.5 0 0 1 .5-.5.5.5 0 0 1 .5.5zm4.233 0a.5.5 0 0 1-.5.5.5.5 0 0 1-.5-.5.5.5 0 0 1 .5-.5.5.5 0 0 1 .5.5zm-3.175-2.117a.5.5 0 0 1-.5.5.5.5 0 0 1-.5-.5.5.5 0 0 1 .5-.5.5.5 0 0 1 .5.5zm2.117 0a.5.5 0 0 1-.5.5.5.5 0 0 1-.5-.5.5.5 0 0 1 .5-.5.5.5 0 0 1 .5.5zm0 4.233a.5.5 0 0 1-.5.5.5.5 0 0 1-.5-.5.5.5 0 0 1 .5-.5.5.5 0 0 1 .5.5zm3.175-2.116a.5.5 0 0 1-.5.5.5.5 0 0 1-.5-.5.5.5 0 0 1 .5-.5.5.5 0 0 1 .5.5zm2.116 0a.5.5 0 0 1-.5.5.5.5 0 0 1-.5-.5.5.5 0 0 1 .5-.5.5.5 0 0 1 .5.5zm-3.175 2.116a.5.5 0 0 1-.5.5.5.5 0 0 1-.5-.5.5.5 0 0 1 .5-.5.5.5 0 0 1 .5.5zm0-4.233a.5.5 0 0 1-.5.5.5.5 0 0 1-.5-.5.5.5 0 0 1 .5-.5.5.5 0 0 1 .5.5zm2.117 0a.5.5 0 0 1-.5.5.5.5 0 0 1-.5-.5.5.5 0 0 1 .5-.5.5.5 0 0 1 .5.5zm0 4.233a.5.5 0 0 1-.5.5.5.5 0 0 1-.5-.5.5.5 0 0 1 .5-.5.5.5 0 0 1 .5.5zm2.117-4.233a.5.5 0 0 1-.5.5.5.5 0 0 1-.5-.5.5.5 0 0 1 .5-.5.5.5 0 0 1 .5.5zm0 4.233a.5.5 0 0 1-.5.5.5.5 0 0 1-.5-.5.5.5 0 0 1 .5-.5.5.5 0 0 1 .5.5zm-10.584 0a.5.5 0 0 1-.5.5.5.5 0 0 1-.5-.5.5.5 0 0 1 .5-.5.5.5 0 0 1 .5.5zm0-4.233a.5.5 0 0 1-.5.5.5.5 0 0 1-.5-.5.5.5 0 0 1 .5-.5.5.5 0 0 1 .5.5zm3.175 2.117a.5.5 0 0 1-.5.5.5.5 0 0 1-.5-.5.5.5 0 0 1 .5-.5.5.5 0 0 1 .5.5zm11.642-2.117a.5.5 0 0 1-.5.5.5.5 0 0 1-.5-.5.5.5 0 0 1 .5-.5.5.5 0 0 1 .5.5zm2.117 0a.5.5 0 0 1-.5.5.5.5 0 0 1-.5-.5.5.5 0 0 1 .5-.5.5.5 0 0 1 .5.5zm0 4.233a.5.5 0 0 1-.5.5.5.5 0 0 1-.5-.5.5.5 0 0 1 .5-.5.5.5 0 0 1 .5.5zm3.175-2.116a.5.5 0 0 1-.5.5.5.5 0 0 1-.5-.5.5.5 0 0 1 .5-.5.5.5 0 0 1 .5.5zm2.116 0a.5.5 0 0 1-.5.5.5.5 0 0 1-.5-.5.5.5 0 0 1 .5-.5.5.5 0 0 1 .5.5zm-3.175 2.116a.5.5 0 0 1-.5.5.5.5 0 0 1-.5-.5.5.5 0 0 1 .5-.5.5.5 0 0 1 .5.5zm0-4.233a.5.5 0 0 1-.5.5.5.5 0 0 1-.5-.5.5.5 0 0 1 .5-.5.5.5 0 0 1 .5.5zm2.117 0a.5.5 0 0 1-.5.5.5.5 0 0 1-.5-.5.5.5 0 0 1 .5-.5.5.5 0 0 1 .5.5zm0 4.233a.5.5 0 0 1-.5.5.5.5 0 0 1-.5-.5.5.5 0 0 1 .5-.5.5.5 0 0 1 .5.5zm2.117-4.233a.5.5 0 0 1-.5.5.5.5 0 0 1-.5-.5.5.5 0 0 1 .5-.5.5.5 0 0 1 .5.5zm0 4.233a.5.5 0 0 1-.5.5.5.5 0 0 1-.5-.5.5.5 0 0 1 .5-.5.5.5 0 0 1 .5.5zm-10.584 0a.5.5 0 0 1-.5.5.5.5 0 0 1-.5-.5.5.5 0 0 1 .5-.5.5.5 0 0 1 .5.5zm-1.058-2.116a.5.5 0 0 1-.5.5.5.5 0 0 1-.5-.5.5.5 0 0 1 .5-.5.5.5 0 0 1 .5.5zm1.058-2.117a.5.5 0 0 1-.5.5.5.5 0 0 1-.5-.5.5.5 0 0 1 .5-.5.5.5 0 0 1 .5.5zm3.175 2.117a.5.5 0 0 1-.5.5.5.5 0 0 1-.5-.5.5.5 0 0 1 .5-.5.5.5 0 0 1 .5.5zm25.4-4.234a.5.5 0 0 1-.5.5.5.5 0 0 1-.5-.5.5.5 0 0 1 .5-.5.5.5 0 0 1 .5.5zm-1.058-2.116a.5.5 0 0 1-.5.5.5.5 0 0 1-.5-.5.5.5 0 0 1 .5-.5.5.5 0 0 1 .5.5zm4.233 0a.5.5 0 0 1-.5.5.5.5 0 0 1-.5-.5.5.5 0 0 1 .5-.5.5.5 0 0 1 .5.5zm-3.175-2.117a.5.5 0 0 1-.5.5.5.5 0 0 1-.5-.5.5.5 0 0 1 .5-.5.5.5 0 0 1 .5.5zm2.117 0a.5.5 0 0 1-.5.5.5.5 0 0 1-.5-.5.5.5 0 0 1 .5-.5.5.5 0 0 1 .5.5zm0 4.233a.5.5 0 0 1-.5.5.5.5 0 0 1-.5-.5.5.5 0 0 1 .5-.5.5.5 0 0 1 .5.5zm3.175-2.116a.5.5 0 0 1-.5.5.5.5 0 0 1-.5-.5.5.5 0 0 1 .5-.5.5.5 0 0 1 .5.5zm2.117 0a.5.5 0 0 1-.5.5.5.5 0 0 1-.5-.5.5.5 0 0 1 .5-.5.5.5 0 0 1 .5.5zm-3.175 2.116a.5.5 0 0 1-.5.5.5.5 0 0 1-.5-.5.5.5 0 0 1 .5-.5.5.5 0 0 1 .5.5zm0-4.233a.5.5 0 0 1-.5.5.5.5 0 0 1-.5-.5.5.5 0 0 1 .5-.5.5.5 0 0 1 .5.5zm2.116 0a.5.5 0 0 1-.5.5.5.5 0 0 1-.5-.5.5.5 0 0 1 .5-.5.5.5 0 0 1 .5.5zm0 4.233a.5.5 0 0 1-.5.5.5.5 0 0 1-.5-.5.5.5 0 0 1 .5-.5.5.5 0 0 1 .5.5zm2.117-4.233a.5.5 0 0 1-.5.5.5.5 0 0 1-.5-.5.5.5 0 0 1 .5-.5.5.5 0 0 1 .5.5zm0 4.233a.5.5 0 0 1-.5.5.5.5 0 0 1-.5-.5.5.5 0 0 1 .5-.5.5.5 0 0 1 .5.5zm-10.583 0a.5.5 0 0 1-.5.5.5.5 0 0 1-.5-.5.5.5 0 0 1 .5-.5.5.5 0 0 1 .5.5zm-1.059-2.116a.5.5 0 0 1-.5.5.5.5 0 0 1-.5-.5.5.5 0 0 1 .5-.5.5.5 0 0 1 .5.5zm1.059-2.117a.5.5 0 0 1-.5.5.5.5 0 0 1-.5-.5.5.5 0 0 1 .5-.5.5.5 0 0 1 .5.5zm3.175 2.117a.5.5 0 0 1-.5.5.5.5 0 0 1-.5-.5.5.5 0 0 1 .5-.5.5.5 0 0 1 .5.5zm-13.759 2.116a.5.5 0 0 1-.5.5.5.5 0 0 1-.5-.5.5.5 0 0 1 .5-.5.5.5 0 0 1 .5.5zm-1.058-2.116a.5.5 0 0 1-.5.5.5.5 0 0 1-.5-.5.5.5 0 0 1 .5-.5.5.5 0 0 1 .5.5zm4.233 0a.5.5 0 0 1-.5.5.5.5 0 0 1-.5-.5.5.5 0 0 1 .5-.5.5.5 0 0 1 .5.5zm-3.175-2.117a.5.5 0 0 1-.5.5.5.5 0 0 1-.5-.5.5.5 0 0 1 .5-.5.5.5 0 0 1 .5.5zm2.117 0a.5.5 0 0 1-.5.5.5.5 0 0 1-.5-.5.5.5 0 0 1 .5-.5.5.5 0 0 1 .5.5zm0 4.233a.5.5 0 0 1-.5.5.5.5 0 0 1-.5-.5.5.5 0 0 1 .5-.5.5.5 0 0 1 .5.5zm3.175-2.116a.5.5 0 0 1-.5.5.5.5 0 0 1-.5-.5.5.5 0 0 1 .5-.5.5.5 0 0 1 .5.5zm2.117 0a.5.5 0 0 1-.5.5.5.5 0 0 1-.5-.5.5.5 0 0 1 .5-.5.5.5 0 0 1 .5.5zm-3.175 2.116a.5.5 0 0 1-.5.5.5.5 0 0 1-.5-.5.5.5 0 0 1 .5-.5.5.5 0 0 1 .5.5zm0-4.233a.5.5 0 0 1-.5.5.5.5 0 0 1-.5-.5.5.5 0 0 1 .5-.5.5.5 0 0 1 .5.5zm2.116 0a.5.5 0 0 1-.5.5.5.5 0 0 1-.5-.5.5.5 0 0 1 .5-.5.5.5 0 0 1 .5.5zm0 4.233a.5.5 0 0 1-.5.5.5.5 0 0 1-.5-.5.5.5 0 0 1 .5-.5.5.5 0 0 1 .5.5zm2.117-4.233a.5.5 0 0 1-.5.5.5.5 0 0 1-.5-.5.5.5 0 0 1 .5-.5.5.5 0 0 1 .5.5zm0 4.233a.5.5 0 0 1-.5.5.5.5 0 0 1-.5-.5.5.5 0 0 1 .5-.5.5.5 0 0 1 .5.5zm-10.583 0a.5.5 0 0 1-.5.5.5.5 0 0 1-.5-.5.5.5 0 0 1 .5-.5.5.5 0 0 1 .5.5zm-1.059-2.116a.5.5 0 0 1-.5.5.5.5 0 0 1-.5-.5.5.5 0 0 1 .5-.5.5.5 0 0 1 .5.5zm1.059-2.117a.5.5 0 0 1-.5.5.5.5 0 0 1-.5-.5.5.5 0 0 1 .5-.5.5.5 0 0 1 .5.5zm3.175 2.117a.5.5 0 0 1-.5.5.5.5 0 0 1-.5-.5.5.5 0 0 1 .5-.5.5.5 0 0 1 .5.5zm-13.759 2.116a.5.5 0 0 1-.5.5.5.5 0 0 1-.5-.5.5.5 0 0 1 .5-.5.5.5 0 0 1 .5.5zm-1.058-2.116a.5.5 0 0 1-.5.5.5.5 0 0 1-.5-.5.5.5 0 0 1 .5-.5.5.5 0 0 1 .5.5zm4.233 0a.5.5 0 0 1-.5.5.5.5 0 0 1-.5-.5.5.5 0 0 1 .5-.5.5.5 0 0 1 .5.5zm-15.875 2.116a.5.5 0 0 1-.5.5.5.5 0 0 1-.5-.5.5.5 0 0 1 .5-.5.5.5 0 0 1 .5.5zm-1.058-2.116a.5.5 0 0 1-.5.5.5.5 0 0 1-.5-.5.5.5 0 0 1 .5-.5.5.5 0 0 1 .5.5zm4.233 0a.5.5 0 0 1-.5.5.5.5 0 0 1-.5-.5.5.5 0 0 1 .5-.5.5.5 0 0 1 .5.5zm-3.175-2.117a.5.5 0 0 1-.5.5.5.5 0 0 1-.5-.5.5.5 0 0 1 .5-.5.5.5 0 0 1 .5.5zm2.117 0a.5.5 0 0 1-.5.5.5.5 0 0 1-.5-.5.5.5 0 0 1 .5-.5.5.5 0 0 1 .5.5zm0 4.233a.5.5 0 0 1-.5.5.5.5 0 0 1-.5-.5.5.5 0 0 1 .5-.5.5.5 0 0 1 .5.5zm3.175-2.116a.5.5 0 0 1-.5.5.5.5 0 0 1-.5-.5.5.5 0 0 1 .5-.5.5.5 0 0 1 .5.5zm2.117 0a.5.5 0 0 1-.5.5.5.5 0 0 1-.5-.5.5.5 0 0 1 .5-.5.5.5 0 0 1 .5.5zm-3.175 2.116a.5.5 0 0 1-.5.5.5.5 0 0 1-.5-.5.5.5 0 0 1 .5-.5.5.5 0 0 1 .5.5zm0-4.233a.5.5 0 0 1-.5.5.5.5 0 0 1-.5-.5.5.5 0 0 1 .5-.5.5.5 0 0 1 .5.5zm2.116 0a.5.5 0 0 1-.5.5.5.5 0 0 1-.5-.5.5.5 0 0 1 .5-.5.5.5 0 0 1 .5.5zm0 4.233a.5.5 0 0 1-.5.5.5.5 0 0 1-.5-.5.5.5 0 0 1 .5-.5.5.5 0 0 1 .5.5zm2.117-4.233a.5.5 0 0 1-.5.5.5.5 0 0 1-.5-.5.5.5 0 0 1 .5-.5.5.5 0 0 1 .5.5zm0 4.233a.5.5 0 0 1-.5.5.5.5 0 0 1-.5-.5.5.5 0 0 1 .5-.5.5.5 0 0 1 .5.5zm-10.583 0a.5.5 0 0 1-.5.5.5.5 0 0 1-.5-.5.5.5 0 0 1 .5-.5.5.5 0 0 1 .5.5zm-1.059-2.116a.5.5 0 0 1-.5.5.5.5 0 0 1-.5-.5.5.5 0 0 1 .5-.5.5.5 0 0 1 .5.5zm1.059-2.117a.5.5 0 0 1-.5.5.5.5 0 0 1-.5-.5.5.5 0 0 1 .5-.5.5.5 0 0 1 .5.5zm3.175 2.117a.5.5 0 0 1-.5.5.5.5 0 0 1-.5-.5.5.5 0 0 1 .5-.5.5.5 0 0 1 .5.5zm11.641-2.117a.5.5 0 0 1-.5.5.5.5 0 0 1-.5-.5.5.5 0 0 1 .5-.5.5.5 0 0 1 .5.5zm2.117 0a.5.5 0 0 1-.5.5.5.5 0 0 1-.5-.5.5.5 0 0 1 .5-.5.5.5 0 0 1 .5.5zm0 4.233a.5.5 0 0 1-.5.5.5.5 0 0 1-.5-.5.5.5 0 0 1 .5-.5.5.5 0 0 1 .5.5zm3.175-2.116a.5.5 0 0 1-.5.5.5.5 0 0 1-.5-.5.5.5 0 0 1 .5-.5.5.5 0 0 1 .5.5zm2.117 0a.5.5 0 0 1-.5.5.5.5 0 0 1-.5-.5.5.5 0 0 1 .5-.5.5.5 0 0 1 .5.5zm-3.175 2.116a.5.5 0 0 1-.5.5.5.5 0 0 1-.5-.5.5.5 0 0 1 .5-.5.5.5 0 0 1 .5.5zm0-4.233a.5.5 0 0 1-.5.5.5.5 0 0 1-.5-.5.5.5 0 0 1 .5-.5.5.5 0 0 1 .5.5zm2.116 0a.5.5 0 0 1-.5.5.5.5 0 0 1-.5-.5.5.5 0 0 1 .5-.5.5.5 0 0 1 .5.5zm0 4.233a.5.5 0 0 1-.5.5.5.5 0 0 1-.5-.5.5.5 0 0 1 .5-.5.5.5 0 0 1 .5.5zm2.117-4.233a.5.5 0 0 1-.5.5.5.5 0 0 1-.5-.5.5.5 0 0 1 .5-.5.5.5 0 0 1 .5.5zm0 4.233a.5.5 0 0 1-.5.5.5.5 0 0 1-.5-.5.5.5 0 0 1 .5-.5.5.5 0 0 1 .5.5zm-10.583 0a.5.5 0 0 1-.5.5.5.5 0 0 1-.5-.5.5.5 0 0 1 .5-.5.5.5 0 0 1 .5.5zm-1.059-2.116a.5.5 0 0 1-.5.5.5.5 0 0 1-.5-.5.5.5 0 0 1 .5-.5.5.5 0 0 1 .5.5zm1.059-2.117a.5.5 0 0 1-.5.5.5.5 0 0 1-.5-.5.5.5 0 0 1 .5-.5.5.5 0 0 1 .5.5zm3.175 2.117a.5.5 0 0 1-.5.5.5.5 0 0 1-.5-.5.5.5 0 0 1 .5-.5.5.5 0 0 1 .5.5zm23.283 46.566a.5.5 0 0 1-.5.5.5.5 0 0 1-.5-.5.5.5 0 0 1 .5-.5.5.5 0 0 1 .5.5zm-1.058-2.116a.5.5 0 0 1-.5.5.5.5 0 0 1-.5-.5.5.5 0 0 1 .5-.5.5.5 0 0 1 .5.5zm4.233 0a.5.5 0 0 1-.5.5.5.5 0 0 1-.5-.5.5.5 0 0 1 .5-.5.5.5 0 0 1 .5.5zm-3.175-2.117a.5.5 0 0 1-.5.5.5.5 0 0 1-.5-.5.5.5 0 0 1 .5-.5.5.5 0 0 1 .5.5zm2.117 0a.5.5 0 0 1-.5.5.5.5 0 0 1-.5-.5.5.5 0 0 1 .5-.5.5.5 0 0 1 .5.5zm0 4.233a.5.5 0 0 1-.5.5.5.5 0 0 1-.5-.5.5.5 0 0 1 .5-.5.5.5 0 0 1 .5.5zm3.175-2.116a.5.5 0 0 1-.5.5.5.5 0 0 1-.5-.5.5.5 0 0 1 .5-.5.5.5 0 0 1 .5.5zm2.116 0a.5.5 0 0 1-.5.5.5.5 0 0 1-.5-.5.5.5 0 0 1 .5-.5.5.5 0 0 1 .5.5zm-3.175 2.116a.5.5 0 0 1-.5.5.5.5 0 0 1-.5-.5.5.5 0 0 1 .5-.5.5.5 0 0 1 .5.5zm0-4.233a.5.5 0 0 1-.5.5.5.5 0 0 1-.5-.5.5.5 0 0 1 .5-.5.5.5 0 0 1 .5.5zm2.117 0a.5.5 0 0 1-.5.5.5.5 0 0 1-.5-.5.5.5 0 0 1 .5-.5.5.5 0 0 1 .5.5zm0 4.233a.5.5 0 0 1-.5.5.5.5 0 0 1-.5-.5.5.5 0 0 1 .5-.5.5.5 0 0 1 .5.5zm2.117-4.233a.5.5 0 0 1-.5.5.5.5 0 0 1-.5-.5.5.5 0 0 1 .5-.5.5.5 0 0 1 .5.5zm0 4.233a.5.5 0 0 1-.5.5.5.5 0 0 1-.5-.5.5.5 0 0 1 .5-.5.5.5 0 0 1 .5.5zm-10.584 0a.5.5 0 0 1-.5.5.5.5 0 0 1-.5-.5.5.5 0 0 1 .5-.5.5.5 0 0 1 .5.5zm-1.058-2.116a.5.5 0 0 1-.5.5.5.5 0 0 1-.5-.5.5.5 0 0 1 .5-.5.5.5 0 0 1 .5.5zm1.058-2.117a.5.5 0 0 1-.5.5.5.5 0 0 1-.5-.5.5.5 0 0 1 .5-.5.5.5 0 0 1 .5.5zm3.175 2.117a.5.5 0 0 1-.5.5.5.5 0 0 1-.5-.5.5.5 0 0 1 .5-.5.5.5 0 0 1 .5.5zm-13.758 2.116a.5.5 0 0 1-.5.5.5.5 0 0 1-.5-.5.5.5 0 0 1 .5-.5.5.5 0 0 1 .5.5zm-1.058-2.116a.5.5 0 0 1-.5.5.5.5 0 0 1-.5-.5.5.5 0 0 1 .5-.5.5.5 0 0 1 .5.5zm4.233 0a.5.5 0 0 1-.5.5.5.5 0 0 1-.5-.5.5.5 0 0 1 .5-.5.5.5 0 0 1 .5.5zm-3.175-2.117a.5.5 0 0 1-.5.5.5.5 0 0 1-.5-.5.5.5 0 0 1 .5-.5.5.5 0 0 1 .5.5zm2.117 0a.5.5 0 0 1-.5.5.5.5 0 0 1-.5-.5.5.5 0 0 1 .5-.5.5.5 0 0 1 .5.5zm0 4.233a.5.5 0 0 1-.5.5.5.5 0 0 1-.5-.5.5.5 0 0 1 .5-.5.5.5 0 0 1 .5.5zm3.175-2.116a.5.5 0 0 1-.5.5.5.5 0 0 1-.5-.5.5.5 0 0 1 .5-.5.5.5 0 0 1 .5.5zm2.116 0a.5.5 0 0 1-.5.5.5.5 0 0 1-.5-.5.5.5 0 0 1 .5-.5.5.5 0 0 1 .5.5zm-3.175 2.116a.5.5 0 0 1-.5.5.5.5 0 0 1-.5-.5.5.5 0 0 1 .5-.5.5.5 0 0 1 .5.5zm0-4.233a.5.5 0 0 1-.5.5.5.5 0 0 1-.5-.5.5.5 0 0 1 .5-.5.5.5 0 0 1 .5.5zm2.117 0a.5.5 0 0 1-.5.5.5.5 0 0 1-.5-.5.5.5 0 0 1 .5-.5.5.5 0 0 1 .5.5zm0 4.233a.5.5 0 0 1-.5.5.5.5 0 0 1-.5-.5.5.5 0 0 1 .5-.5.5.5 0 0 1 .5.5zm2.117-4.233a.5.5 0 0 1-.5.5.5.5 0 0 1-.5-.5.5.5 0 0 1 .5-.5.5.5 0 0 1 .5.5zm0 4.233a.5.5 0 0 1-.5.5.5.5 0 0 1-.5-.5.5.5 0 0 1 .5-.5.5.5 0 0 1 .5.5zm-10.584 0a.5.5 0 0 1-.5.5.5.5 0 0 1-.5-.5.5.5 0 0 1 .5-.5.5.5 0 0 1 .5.5zm-1.058-2.116a.5.5 0 0 1-.5.5.5.5 0 0 1-.5-.5.5.5 0 0 1 .5-.5.5.5 0 0 1 .5.5zm1.058-2.117a.5.5 0 0 1-.5.5.5.5 0 0 1-.5-.5.5.5 0 0 1 .5-.5.5.5 0 0 1 .5.5zm3.175 2.117a.5.5 0 0 1-.5.5.5.5 0 0 1-.5-.5.5.5 0 0 1 .5-.5.5.5 0 0 1 .5.5zm-13.758 2.116a.5.5 0 0 1-.5.5.5.5 0 0 1-.5-.5.5.5 0 0 1 .5-.5.5.5 0 0 1 .5.5zm-1.058-2.116a.5.5 0 0 1-.5.5.5.5 0 0 1-.5-.5.5.5 0 0 1 .5-.5.5.5 0 0 1 .5.5zm4.233 0a.5.5 0 0 1-.5.5.5.5 0 0 1-.5-.5.5.5 0 0 1 .5-.5.5.5 0 0 1 .5.5zm-15.875 2.116a.5.5 0 0 1-.5.5.5.5 0 0 1-.5-.5.5.5 0 0 1 .5-.5.5.5 0 0 1 .5.5zm-1.058-2.116a.5.5 0 0 1-.5.5.5.5 0 0 1-.5-.5.5.5 0 0 1 .5-.5.5.5 0 0 1 .5.5zm4.233 0a.5.5 0 0 1-.5.5.5.5 0 0 1-.5-.5.5.5 0 0 1 .5-.5.5.5 0 0 1 .5.5zm-3.175-2.117a.5.5 0 0 1-.5.5.5.5 0 0 1-.5-.5.5.5 0 0 1 .5-.5.5.5 0 0 1 .5.5zm2.117 0a.5.5 0 0 1-.5.5.5.5 0 0 1-.5-.5.5.5 0 0 1 .5-.5.5.5 0 0 1 .5.5zm0 4.233a.5.5 0 0 1-.5.5.5.5 0 0 1-.5-.5.5.5 0 0 1 .5-.5.5.5 0 0 1 .5.5zm3.175-2.116a.5.5 0 0 1-.5.5.5.5 0 0 1-.5-.5.5.5 0 0 1 .5-.5.5.5 0 0 1 .5.5zm2.116 0a.5.5 0 0 1-.5.5.5.5 0 0 1-.5-.5.5.5 0 0 1 .5-.5.5.5 0 0 1 .5.5zm-3.175 2.116a.5.5 0 0 1-.5.5.5.5 0 0 1-.5-.5.5.5 0 0 1 .5-.5.5.5 0 0 1 .5.5zm0-4.233a.5.5 0 0 1-.5.5.5.5 0 0 1-.5-.5.5.5 0 0 1 .5-.5.5.5 0 0 1 .5.5zm2.117 0a.5.5 0 0 1-.5.5.5.5 0 0 1-.5-.5.5.5 0 0 1 .5-.5.5.5 0 0 1 .5.5zm0 4.233a.5.5 0 0 1-.5.5.5.5 0 0 1-.5-.5.5.5 0 0 1 .5-.5.5.5 0 0 1 .5.5zm2.117-4.233a.5.5 0 0 1-.5.5.5.5 0 0 1-.5-.5.5.5 0 0 1 .5-.5.5.5 0 0 1 .5.5zm0 4.233a.5.5 0 0 1-.5.5.5.5 0 0 1-.5-.5.5.5 0 0 1 .5-.5.5.5 0 0 1 .5.5zm-10.584 0a.5.5 0 0 1-.5.5.5.5 0 0 1-.5-.5.5.5 0 0 1 .5-.5.5.5 0 0 1 .5.5zm0-4.233a.5.5 0 0 1-.5.5.5.5 0 0 1-.5-.5.5.5 0 0 1 .5-.5.5.5 0 0 1 .5.5zm3.175 2.117a.5.5 0 0 1-.5.5.5.5 0 0 1-.5-.5.5.5 0 0 1 .5-.5.5.5 0 0 1 .5.5zm11.642-2.117a.5.5 0 0 1-.5.5.5.5 0 0 1-.5-.5.5.5 0 0 1 .5-.5.5.5 0 0 1 .5.5zm2.117 0a.5.5 0 0 1-.5.5.5.5 0 0 1-.5-.5.5.5 0 0 1 .5-.5.5.5 0 0 1 .5.5zm0 4.233a.5.5 0 0 1-.5.5.5.5 0 0 1-.5-.5.5.5 0 0 1 .5-.5.5.5 0 0 1 .5.5zm3.175-2.116a.5.5 0 0 1-.5.5.5.5 0 0 1-.5-.5.5.5 0 0 1 .5-.5.5.5 0 0 1 .5.5zm2.116 0a.5.5 0 0 1-.5.5.5.5 0 0 1-.5-.5.5.5 0 0 1 .5-.5.5.5 0 0 1 .5.5zm-3.175 2.116a.5.5 0 0 1-.5.5.5.5 0 0 1-.5-.5.5.5 0 0 1 .5-.5.5.5 0 0 1 .5.5zm0-4.233a.5.5 0 0 1-.5.5.5.5 0 0 1-.5-.5.5.5 0 0 1 .5-.5.5.5 0 0 1 .5.5zm2.117 0a.5.5 0 0 1-.5.5.5.5 0 0 1-.5-.5.5.5 0 0 1 .5-.5.5.5 0 0 1 .5.5zm0 4.233a.5.5 0 0 1-.5.5.5.5 0 0 1-.5-.5.5.5 0 0 1 .5-.5.5.5 0 0 1 .5.5zm2.117-4.233a.5.5 0 0 1-.5.5.5.5 0 0 1-.5-.5.5.5 0 0 1 .5-.5.5.5 0 0 1 .5.5zm0 4.233a.5.5 0 0 1-.5.5.5.5 0 0 1-.5-.5.5.5 0 0 1 .5-.5.5.5 0 0 1 .5.5zm-10.584 0a.5.5 0 0 1-.5.5.5.5 0 0 1-.5-.5.5.5 0 0 1 .5-.5.5.5 0 0 1 .5.5zm-1.058-2.116a.5.5 0 0 1-.5.5.5.5 0 0 1-.5-.5.5.5 0 0 1 .5-.5.5.5 0 0 1 .5.5zm1.058-2.117a.5.5 0 0 1-.5.5.5.5 0 0 1-.5-.5.5.5 0 0 1 .5-.5.5.5 0 0 1 .5.5zm3.175 2.117a.5.5 0 0 1-.5.5.5.5 0 0 1-.5-.5.5.5 0 0 1 .5-.5.5.5 0 0 1 .5.5zm25.4-4.234a.5.5 0 0 1-.5.5.5.5 0 0 1-.5-.5.5.5 0 0 1 .5-.5.5.5 0 0 1 .5.5zm-1.058-2.116a.5.5 0 0 1-.5.5.5.5 0 0 1-.5-.5.5.5 0 0 1 .5-.5.5.5 0 0 1 .5.5zm4.233 0a.5.5 0 0 1-.5.5.5.5 0 0 1-.5-.5.5.5 0 0 1 .5-.5.5.5 0 0 1 .5.5zm-3.175-2.117a.5.5 0 0 1-.5.5.5.5 0 0 1-.5-.5.5.5 0 0 1 .5-.5.5.5 0 0 1 .5.5zm2.117 0a.5.5 0 0 1-.5.5.5.5 0 0 1-.5-.5.5.5 0 0 1 .5-.5.5.5 0 0 1 .5.5zm0 4.233a.5.5 0 0 1-.5.5.5.5 0 0 1-.5-.5.5.5 0 0 1 .5-.5.5.5 0 0 1 .5.5zm3.175-2.116a.5.5 0 0 1-.5.5.5.5 0 0 1-.5-.5.5.5 0 0 1 .5-.5.5.5 0 0 1 .5.5zm2.117 0a.5.5 0 0 1-.5.5.5.5 0 0 1-.5-.5.5.5 0 0 1 .5-.5.5.5 0 0 1 .5.5zm-3.175 2.116a.5.5 0 0 1-.5.5.5.5 0 0 1-.5-.5.5.5 0 0 1 .5-.5.5.5 0 0 1 .5.5zm0-4.233a.5.5 0 0 1-.5.5.5.5 0 0 1-.5-.5.5.5 0 0 1 .5-.5.5.5 0 0 1 .5.5zm2.116 0a.5.5 0 0 1-.5.5.5.5 0 0 1-.5-.5.5.5 0 0 1 .5-.5.5.5 0 0 1 .5.5zm0 4.233a.5.5 0 0 1-.5.5.5.5 0 0 1-.5-.5.5.5 0 0 1 .5-.5.5.5 0 0 1 .5.5zm2.117-4.233a.5.5 0 0 1-.5.5.5.5 0 0 1-.5-.5.5.5 0 0 1 .5-.5.5.5 0 0 1 .5.5zm0 4.233a.5.5 0 0 1-.5.5.5.5 0 0 1-.5-.5.5.5 0 0 1 .5-.5.5.5 0 0 1 .5.5zm-10.583 0a.5.5 0 0 1-.5.5.5.5 0 0 1-.5-.5.5.5 0 0 1 .5-.5.5.5 0 0 1 .5.5zm-1.059-2.116a.5.5 0 0 1-.5.5.5.5 0 0 1-.5-.5.5.5 0 0 1 .5-.5.5.5 0 0 1 .5.5zm1.059-2.117a.5.5 0 0 1-.5.5.5.5 0 0 1-.5-.5.5.5 0 0 1 .5-.5.5.5 0 0 1 .5.5zm3.175 2.117a.5.5 0 0 1-.5.5.5.5 0 0 1-.5-.5.5.5 0 0 1 .5-.5.5.5 0 0 1 .5.5zm-13.759 2.116a.5.5 0 0 1-.5.5.5.5 0 0 1-.5-.5.5.5 0 0 1 .5-.5.5.5 0 0 1 .5.5zm-1.058-2.116a.5.5 0 0 1-.5.5.5.5 0 0 1-.5-.5.5.5 0 0 1 .5-.5.5.5 0 0 1 .5.5zm4.233 0a.5.5 0 0 1-.5.5.5.5 0 0 1-.5-.5.5.5 0 0 1 .5-.5.5.5 0 0 1 .5.5zm-3.175-2.117a.5.5 0 0 1-.5.5.5.5 0 0 1-.5-.5.5.5 0 0 1 .5-.5.5.5 0 0 1 .5.5zm2.117 0a.5.5 0 0 1-.5.5.5.5 0 0 1-.5-.5.5.5 0 0 1 .5-.5.5.5 0 0 1 .5.5zm0 4.233a.5.5 0 0 1-.5.5.5.5 0 0 1-.5-.5.5.5 0 0 1 .5-.5.5.5 0 0 1 .5.5zm3.175-2.116a.5.5 0 0 1-.5.5.5.5 0 0 1-.5-.5.5.5 0 0 1 .5-.5.5.5 0 0 1 .5.5zm2.117 0a.5.5 0 0 1-.5.5.5.5 0 0 1-.5-.5.5.5 0 0 1 .5-.5.5.5 0 0 1 .5.5zm-3.175 2.116a.5.5 0 0 1-.5.5.5.5 0 0 1-.5-.5.5.5 0 0 1 .5-.5.5.5 0 0 1 .5.5zm0-4.233a.5.5 0 0 1-.5.5.5.5 0 0 1-.5-.5.5.5 0 0 1 .5-.5.5.5 0 0 1 .5.5zm2.116 0a.5.5 0 0 1-.5.5.5.5 0 0 1-.5-.5.5.5 0 0 1 .5-.5.5.5 0 0 1 .5.5zm0 4.233a.5.5 0 0 1-.5.5.5.5 0 0 1-.5-.5.5.5 0 0 1 .5-.5.5.5 0 0 1 .5.5zm2.117-4.233a.5.5 0 0 1-.5.5.5.5 0 0 1-.5-.5.5.5 0 0 1 .5-.5.5.5 0 0 1 .5.5zm0 4.233a.5.5 0 0 1-.5.5.5.5 0 0 1-.5-.5.5.5 0 0 1 .5-.5.5.5 0 0 1 .5.5zm-10.583 0a.5.5 0 0 1-.5.5.5.5 0 0 1-.5-.5.5.5 0 0 1 .5-.5.5.5 0 0 1 .5.5zm-1.059-2.116a.5.5 0 0 1-.5.5.5.5 0 0 1-.5-.5.5.5 0 0 1 .5-.5.5.5 0 0 1 .5.5zm1.059-2.117a.5.5 0 0 1-.5.5.5.5 0 0 1-.5-.5.5.5 0 0 1 .5-.5.5.5 0 0 1 .5.5zm3.175 2.117a.5.5 0 0 1-.5.5.5.5 0 0 1-.5-.5.5.5 0 0 1 .5-.5.5.5 0 0 1 .5.5zm-13.759 2.116a.5.5 0 0 1-.5.5.5.5 0 0 1-.5-.5.5.5 0 0 1 .5-.5.5.5 0 0 1 .5.5zm-1.058-2.116a.5.5 0 0 1-.5.5.5.5 0 0 1-.5-.5.5.5 0 0 1 .5-.5.5.5 0 0 1 .5.5zm4.233 0a.5.5 0 0 1-.5.5.5.5 0 0 1-.5-.5.5.5 0 0 1 .5-.5.5.5 0 0 1 .5.5zm-15.875 2.116a.5.5 0 0 1-.5.5.5.5 0 0 1-.5-.5.5.5 0 0 1 .5-.5.5.5 0 0 1 .5.5zm-1.058-2.116a.5.5 0 0 1-.5.5.5.5 0 0 1-.5-.5.5.5 0 0 1 .5-.5.5.5 0 0 1 .5.5zm4.233 0a.5.5 0 0 1-.5.5.5.5 0 0 1-.5-.5.5.5 0 0 1 .5-.5.5.5 0 0 1 .5.5zm-3.175-2.117a.5.5 0 0 1-.5.5.5.5 0 0 1-.5-.5.5.5 0 0 1 .5-.5.5.5 0 0 1 .5.5zm2.117 0a.5.5 0 0 1-.5.5.5.5 0 0 1-.5-.5.5.5 0 0 1 .5-.5.5.5 0 0 1 .5.5zm0 4.233a.5.5 0 0 1-.5.5.5.5 0 0 1-.5-.5.5.5 0 0 1 .5-.5.5.5 0 0 1 .5.5zm3.175-2.116a.5.5 0 0 1-.5.5.5.5 0 0 1-.5-.5.5.5 0 0 1 .5-.5.5.5 0 0 1 .5.5zm2.117 0a.5.5 0 0 1-.5.5.5.5 0 0 1-.5-.5.5.5 0 0 1 .5-.5.5.5 0 0 1 .5.5zm-3.175 2.116a.5.5 0 0 1-.5.5.5.5 0 0 1-.5-.5.5.5 0 0 1 .5-.5.5.5 0 0 1 .5.5zm0-4.233a.5.5 0 0 1-.5.5.5.5 0 0 1-.5-.5.5.5 0 0 1 .5-.5.5.5 0 0 1 .5.5zm2.116 0a.5.5 0 0 1-.5.5.5.5 0 0 1-.5-.5.5.5 0 0 1 .5-.5.5.5 0 0 1 .5.5zm0 4.233a.5.5 0 0 1-.5.5.5.5 0 0 1-.5-.5.5.5 0 0 1 .5-.5.5.5 0 0 1 .5.5zm2.117-4.233a.5.5 0 0 1-.5.5.5.5 0 0 1-.5-.5.5.5 0 0 1 .5-.5.5.5 0 0 1 .5.5zm0 4.233a.5.5 0 0 1-.5.5.5.5 0 0 1-.5-.5.5.5 0 0 1 .5-.5.5.5 0 0 1 .5.5zm-10.583 0a.5.5 0 0 1-.5.5.5.5 0 0 1-.5-.5.5.5 0 0 1 .5-.5.5.5 0 0 1 .5.5zm-1.059-2.116a.5.5 0 0 1-.5.5.5.5 0 0 1-.5-.5.5.5 0 0 1 .5-.5.5.5 0 0 1 .5.5zm1.059-2.117a.5.5 0 0 1-.5.5.5.5 0 0 1-.5-.5.5.5 0 0 1 .5-.5.5.5 0 0 1 .5.5zm3.175 2.117a.5.5 0 0 1-.5.5.5.5 0 0 1-.5-.5.5.5 0 0 1 .5-.5.5.5 0 0 1 .5.5zm11.641-2.117a.5.5 0 0 1-.5.5.5.5 0 0 1-.5-.5.5.5 0 0 1 .5-.5.5.5 0 0 1 .5.5zm2.117 0a.5.5 0 0 1-.5.5.5.5 0 0 1-.5-.5.5.5 0 0 1 .5-.5.5.5 0 0 1 .5.5zm0 4.233a.5.5 0 0 1-.5.5.5.5 0 0 1-.5-.5.5.5 0 0 1 .5-.5.5.5 0 0 1 .5.5zm3.175-2.116a.5.5 0 0 1-.5.5.5.5 0 0 1-.5-.5.5.5 0 0 1 .5-.5.5.5 0 0 1 .5.5zm2.117 0a.5.5 0 0 1-.5.5.5.5 0 0 1-.5-.5.5.5 0 0 1 .5-.5.5.5 0 0 1 .5.5zm-3.175 2.116a.5.5 0 0 1-.5.5.5.5 0 0 1-.5-.5.5.5 0 0 1 .5-.5.5.5 0 0 1 .5.5zm0-4.233a.5.5 0 0 1-.5.5.5.5 0 0 1-.5-.5.5.5 0 0 1 .5-.5.5.5 0 0 1 .5.5zm2.116 0a.5.5 0 0 1-.5.5.5.5 0 0 1-.5-.5.5.5 0 0 1 .5-.5.5.5 0 0 1 .5.5zm0 4.233a.5.5 0 0 1-.5.5.5.5 0 0 1-.5-.5.5.5 0 0 1 .5-.5.5.5 0 0 1 .5.5zm2.117-4.233a.5.5 0 0 1-.5.5.5.5 0 0 1-.5-.5.5.5 0 0 1 .5-.5.5.5 0 0 1 .5.5zm0 4.233a.5.5 0 0 1-.5.5.5.5 0 0 1-.5-.5.5.5 0 0 1 .5-.5.5.5 0 0 1 .5.5zm-10.583 0a.5.5 0 0 1-.5.5.5.5 0 0 1-.5-.5.5.5 0 0 1 .5-.5.5.5 0 0 1 .5.5zm-1.059-2.116a.5.5 0 0 1-.5.5.5.5 0 0 1-.5-.5.5.5 0 0 1 .5-.5.5.5 0 0 1 .5.5zm1.059-2.117a.5.5 0 0 1-.5.5.5.5 0 0 1-.5-.5.5.5 0 0 1 .5-.5.5.5 0 0 1 .5.5zm3.175 2.117a.5.5 0 0 1-.5.5.5.5 0 0 1-.5-.5.5.5 0 0 1 .5-.5.5.5 0 0 1 .5.5zm23.283-4.234a.5.5 0 0 1-.5.5.5.5 0 0 1-.5-.5.5.5 0 0 1 .5-.5.5.5 0 0 1 .5.5zm-1.058-2.116a.5.5 0 0 1-.5.5.5.5 0 0 1-.5-.5.5.5 0 0 1 .5-.5.5.5 0 0 1 .5.5zm4.233 0a.5.5 0 0 1-.5.5.5.5 0 0 1-.5-.5.5.5 0 0 1 .5-.5.5.5 0 0 1 .5.5zm-3.175-2.117a.5.5 0 0 1-.5.5.5.5 0 0 1-.5-.5.5.5 0 0 1 .5-.5.5.5 0 0 1 .5.5zm2.117 0a.5.5 0 0 1-.5.5.5.5 0 0 1-.5-.5.5.5 0 0 1 .5-.5.5.5 0 0 1 .5.5zm0 4.233a.5.5 0 0 1-.5.5.5.5 0 0 1-.5-.5.5.5 0 0 1 .5-.5.5.5 0 0 1 .5.5zm3.175-2.116a.5.5 0 0 1-.5.5.5.5 0 0 1-.5-.5.5.5 0 0 1 .5-.5.5.5 0 0 1 .5.5zm2.116 0a.5.5 0 0 1-.5.5.5.5 0 0 1-.5-.5.5.5 0 0 1 .5-.5.5.5 0 0 1 .5.5zm-3.175 2.116a.5.5 0 0 1-.5.5.5.5 0 0 1-.5-.5.5.5 0 0 1 .5-.5.5.5 0 0 1 .5.5zm0-4.233a.5.5 0 0 1-.5.5.5.5 0 0 1-.5-.5.5.5 0 0 1 .5-.5.5.5 0 0 1 .5.5zm2.117 0a.5.5 0 0 1-.5.5.5.5 0 0 1-.5-.5.5.5 0 0 1 .5-.5.5.5 0 0 1 .5.5zm0 4.233a.5.5 0 0 1-.5.5.5.5 0 0 1-.5-.5.5.5 0 0 1 .5-.5.5.5 0 0 1 .5.5zm2.117-4.233a.5.5 0 0 1-.5.5.5.5 0 0 1-.5-.5.5.5 0 0 1 .5-.5.5.5 0 0 1 .5.5zm0 4.233a.5.5 0 0 1-.5.5.5.5 0 0 1-.5-.5.5.5 0 0 1 .5-.5.5.5 0 0 1 .5.5zm-10.584 0a.5.5 0 0 1-.5.5.5.5 0 0 1-.5-.5.5.5 0 0 1 .5-.5.5.5 0 0 1 .5.5zm-1.058-2.116a.5.5 0 0 1-.5.5.5.5 0 0 1-.5-.5.5.5 0 0 1 .5-.5.5.5 0 0 1 .5.5zm1.058-2.117a.5.5 0 0 1-.5.5.5.5 0 0 1-.5-.5.5.5 0 0 1 .5-.5.5.5 0 0 1 .5.5zm3.175 2.117a.5.5 0 0 1-.5.5.5.5 0 0 1-.5-.5.5.5 0 0 1 .5-.5.5.5 0 0 1 .5.5zm-13.758 2.116a.5.5 0 0 1-.5.5.5.5 0 0 1-.5-.5.5.5 0 0 1 .5-.5.5.5 0 0 1 .5.5zm-1.058-2.116a.5.5 0 0 1-.5.5.5.5 0 0 1-.5-.5.5.5 0 0 1 .5-.5.5.5 0 0 1 .5.5zm4.233 0a.5.5 0 0 1-.5.5.5.5 0 0 1-.5-.5.5.5 0 0 1 .5-.5.5.5 0 0 1 .5.5zm-3.175-2.117a.5.5 0 0 1-.5.5.5.5 0 0 1-.5-.5.5.5 0 0 1 .5-.5.5.5 0 0 1 .5.5zm2.117 0a.5.5 0 0 1-.5.5.5.5 0 0 1-.5-.5.5.5 0 0 1 .5-.5.5.5 0 0 1 .5.5zm0 4.233a.5.5 0 0 1-.5.5.5.5 0 0 1-.5-.5.5.5 0 0 1 .5-.5.5.5 0 0 1 .5.5zm3.175-2.116a.5.5 0 0 1-.5.5.5.5 0 0 1-.5-.5.5.5 0 0 1 .5-.5.5.5 0 0 1 .5.5zm2.116 0a.5.5 0 0 1-.5.5.5.5 0 0 1-.5-.5.5.5 0 0 1 .5-.5.5.5 0 0 1 .5.5zm-3.175 2.116a.5.5 0 0 1-.5.5.5.5 0 0 1-.5-.5.5.5 0 0 1 .5-.5.5.5 0 0 1 .5.5zm0-4.233a.5.5 0 0 1-.5.5.5.5 0 0 1-.5-.5.5.5 0 0 1 .5-.5.5.5 0 0 1 .5.5zm2.117 0a.5.5 0 0 1-.5.5.5.5 0 0 1-.5-.5.5.5 0 0 1 .5-.5.5.5 0 0 1 .5.5zm0 4.233a.5.5 0 0 1-.5.5.5.5 0 0 1-.5-.5.5.5 0 0 1 .5-.5.5.5 0 0 1 .5.5zm2.117-4.233a.5.5 0 0 1-.5.5.5.5 0 0 1-.5-.5.5.5 0 0 1 .5-.5.5.5 0 0 1 .5.5zm0 4.233a.5.5 0 0 1-.5.5.5.5 0 0 1-.5-.5.5.5 0 0 1 .5-.5.5.5 0 0 1 .5.5zm-10.584 0a.5.5 0 0 1-.5.5.5.5 0 0 1-.5-.5.5.5 0 0 1 .5-.5.5.5 0 0 1 .5.5zm-1.058-2.116a.5.5 0 0 1-.5.5.5.5 0 0 1-.5-.5.5.5 0 0 1 .5-.5.5.5 0 0 1 .5.5zm1.058-2.117a.5.5 0 0 1-.5.5.5.5 0 0 1-.5-.5.5.5 0 0 1 .5-.5.5.5 0 0 1 .5.5zm3.175 2.117a.5.5 0 0 1-.5.5.5.5 0 0 1-.5-.5.5.5 0 0 1 .5-.5.5.5 0 0 1 .5.5zm-13.758 2.116a.5.5 0 0 1-.5.5.5.5 0 0 1-.5-.5.5.5 0 0 1 .5-.5.5.5 0 0 1 .5.5zm-1.058-2.116a.5.5 0 0 1-.5.5.5.5 0 0 1-.5-.5.5.5 0 0 1 .5-.5.5.5 0 0 1 .5.5zm4.233 0a.5.5 0 0 1-.5.5.5.5 0 0 1-.5-.5.5.5 0 0 1 .5-.5.5.5 0 0 1 .5.5zm-15.875 2.116a.5.5 0 0 1-.5.5.5.5 0 0 1-.5-.5.5.5 0 0 1 .5-.5.5.5 0 0 1 .5.5zm-1.058-2.116a.5.5 0 0 1-.5.5.5.5 0 0 1-.5-.5.5.5 0 0 1 .5-.5.5.5 0 0 1 .5.5zm4.233 0a.5.5 0 0 1-.5.5.5.5 0 0 1-.5-.5.5.5 0 0 1 .5-.5.5.5 0 0 1 .5.5zm-3.175-2.117a.5.5 0 0 1-.5.5.5.5 0 0 1-.5-.5.5.5 0 0 1 .5-.5.5.5 0 0 1 .5.5zm2.117 0a.5.5 0 0 1-.5.5.5.5 0 0 1-.5-.5.5.5 0 0 1 .5-.5.5.5 0 0 1 .5.5zm0 4.233a.5.5 0 0 1-.5.5.5.5 0 0 1-.5-.5.5.5 0 0 1 .5-.5.5.5 0 0 1 .5.5zm3.175-2.116a.5.5 0 0 1-.5.5.5.5 0 0 1-.5-.5.5.5 0 0 1 .5-.5.5.5 0 0 1 .5.5zm2.116 0a.5.5 0 0 1-.5.5.5.5 0 0 1-.5-.5.5.5 0 0 1 .5-.5.5.5 0 0 1 .5.5zm-3.175 2.116a.5.5 0 0 1-.5.5.5.5 0 0 1-.5-.5.5.5 0 0 1 .5-.5.5.5 0 0 1 .5.5zm0-4.233a.5.5 0 0 1-.5.5.5.5 0 0 1-.5-.5.5.5 0 0 1 .5-.5.5.5 0 0 1 .5.5zm2.117 0a.5.5 0 0 1-.5.5.5.5 0 0 1-.5-.5.5.5 0 0 1 .5-.5.5.5 0 0 1 .5.5zm0 4.233a.5.5 0 0 1-.5.5.5.5 0 0 1-.5-.5.5.5 0 0 1 .5-.5.5.5 0 0 1 .5.5zm2.117-4.233a.5.5 0 0 1-.5.5.5.5 0 0 1-.5-.5.5.5 0 0 1 .5-.5.5.5 0 0 1 .5.5zm0 4.233a.5.5 0 0 1-.5.5.5.5 0 0 1-.5-.5.5.5 0 0 1 .5-.5.5.5 0 0 1 .5.5zm-10.584 0a.5.5 0 0 1-.5.5.5.5 0 0 1-.5-.5.5.5 0 0 1 .5-.5.5.5 0 0 1 .5.5zm0-4.233a.5.5 0 0 1-.5.5.5.5 0 0 1-.5-.5.5.5 0 0 1 .5-.5.5.5 0 0 1 .5.5zm3.175 2.117a.5.5 0 0 1-.5.5.5.5 0 0 1-.5-.5.5.5 0 0 1 .5-.5.5.5 0 0 1 .5.5zm11.642-2.117a.5.5 0 0 1-.5.5.5.5 0 0 1-.5-.5.5.5 0 0 1 .5-.5.5.5 0 0 1 .5.5zm2.117 0a.5.5 0 0 1-.5.5.5.5 0 0 1-.5-.5.5.5 0 0 1 .5-.5.5.5 0 0 1 .5.5zm0 4.233a.5.5 0 0 1-.5.5.5.5 0 0 1-.5-.5.5.5 0 0 1 .5-.5.5.5 0 0 1 .5.5zm3.175-2.116a.5.5 0 0 1-.5.5.5.5 0 0 1-.5-.5.5.5 0 0 1 .5-.5.5.5 0 0 1 .5.5zm2.116 0a.5.5 0 0 1-.5.5.5.5 0 0 1-.5-.5.5.5 0 0 1 .5-.5.5.5 0 0 1 .5.5zm-3.175 2.116a.5.5 0 0 1-.5.5.5.5 0 0 1-.5-.5.5.5 0 0 1 .5-.5.5.5 0 0 1 .5.5zm0-4.233a.5.5 0 0 1-.5.5.5.5 0 0 1-.5-.5.5.5 0 0 1 .5-.5.5.5 0 0 1 .5.5zm2.117 0a.5.5 0 0 1-.5.5.5.5 0 0 1-.5-.5.5.5 0 0 1 .5-.5.5.5 0 0 1 .5.5zm0 4.233a.5.5 0 0 1-.5.5.5.5 0 0 1-.5-.5.5.5 0 0 1 .5-.5.5.5 0 0 1 .5.5zm2.117-4.233a.5.5 0 0 1-.5.5.5.5 0 0 1-.5-.5.5.5 0 0 1 .5-.5.5.5 0 0 1 .5.5zm0 4.233a.5.5 0 0 1-.5.5.5.5 0 0 1-.5-.5.5.5 0 0 1 .5-.5.5.5 0 0 1 .5.5zm-10.584 0a.5.5 0 0 1-.5.5.5.5 0 0 1-.5-.5.5.5 0 0 1 .5-.5.5.5 0 0 1 .5.5zm-1.058-2.116a.5.5 0 0 1-.5.5.5.5 0 0 1-.5-.5.5.5 0 0 1 .5-.5.5.5 0 0 1 .5.5zm1.058-2.117a.5.5 0 0 1-.5.5.5.5 0 0 1-.5-.5.5.5 0 0 1 .5-.5.5.5 0 0 1 .5.5zm3.175 2.117a.5.5 0 0 1-.5.5.5.5 0 0 1-.5-.5.5.5 0 0 1 .5-.5.5.5 0 0 1 .5.5zm25.4-4.234a.5.5 0 0 1-.5.5.5.5 0 0 1-.5-.5.5.5 0 0 1 .5-.5.5.5 0 0 1 .5.5zm-1.058-2.116a.5.5 0 0 1-.5.5.5.5 0 0 1-.5-.5.5.5 0 0 1 .5-.5.5.5 0 0 1 .5.5zm4.233 0a.5.5 0 0 1-.5.5.5.5 0 0 1-.5-.5.5.5 0 0 1 .5-.5.5.5 0 0 1 .5.5zm-3.175-2.117a.5.5 0 0 1-.5.5.5.5 0 0 1-.5-.5.5.5 0 0 1 .5-.5.5.5 0 0 1 .5.5zm2.117 0a.5.5 0 0 1-.5.5.5.5 0 0 1-.5-.5.5.5 0 0 1 .5-.5.5.5 0 0 1 .5.5zm0 4.233a.5.5 0 0 1-.5.5.5.5 0 0 1-.5-.5.5.5 0 0 1 .5-.5.5.5 0 0 1 .5.5zm3.175-2.116a.5.5 0 0 1-.5.5.5.5 0 0 1-.5-.5.5.5 0 0 1 .5-.5.5.5 0 0 1 .5.5zm2.117 0a.5.5 0 0 1-.5.5.5.5 0 0 1-.5-.5.5.5 0 0 1 .5-.5.5.5 0 0 1 .5.5zm-3.175 2.116a.5.5 0 0 1-.5.5.5.5 0 0 1-.5-.5.5.5 0 0 1 .5-.5.5.5 0 0 1 .5.5zm0-4.233a.5.5 0 0 1-.5.5.5.5 0 0 1-.5-.5.5.5 0 0 1 .5-.5.5.5 0 0 1 .5.5zm2.116 0a.5.5 0 0 1-.5.5.5.5 0 0 1-.5-.5.5.5 0 0 1 .5-.5.5.5 0 0 1 .5.5zm0 4.233a.5.5 0 0 1-.5.5.5.5 0 0 1-.5-.5.5.5 0 0 1 .5-.5.5.5 0 0 1 .5.5zm2.117-4.233a.5.5 0 0 1-.5.5.5.5 0 0 1-.5-.5.5.5 0 0 1 .5-.5.5.5 0 0 1 .5.5zm0 4.233a.5.5 0 0 1-.5.5.5.5 0 0 1-.5-.5.5.5 0 0 1 .5-.5.5.5 0 0 1 .5.5zm-10.583 0a.5.5 0 0 1-.5.5.5.5 0 0 1-.5-.5.5.5 0 0 1 .5-.5.5.5 0 0 1 .5.5zm-1.059-2.116a.5.5 0 0 1-.5.5.5.5 0 0 1-.5-.5.5.5 0 0 1 .5-.5.5.5 0 0 1 .5.5zm1.059-2.117a.5.5 0 0 1-.5.5.5.5 0 0 1-.5-.5.5.5 0 0 1 .5-.5.5.5 0 0 1 .5.5zm3.175 2.117a.5.5 0 0 1-.5.5.5.5 0 0 1-.5-.5.5.5 0 0 1 .5-.5.5.5 0 0 1 .5.5zm-13.759 2.116a.5.5 0 0 1-.5.5.5.5 0 0 1-.5-.5.5.5 0 0 1 .5-.5.5.5 0 0 1 .5.5zm-1.058-2.116a.5.5 0 0 1-.5.5.5.5 0 0 1-.5-.5.5.5 0 0 1 .5-.5.5.5 0 0 1 .5.5zm4.233 0a.5.5 0 0 1-.5.5.5.5 0 0 1-.5-.5.5.5 0 0 1 .5-.5.5.5 0 0 1 .5.5zm-3.175-2.117a.5.5 0 0 1-.5.5.5.5 0 0 1-.5-.5.5.5 0 0 1 .5-.5.5.5 0 0 1 .5.5zm2.117 0a.5.5 0 0 1-.5.5.5.5 0 0 1-.5-.5.5.5 0 0 1 .5-.5.5.5 0 0 1 .5.5zm0 4.233a.5.5 0 0 1-.5.5.5.5 0 0 1-.5-.5.5.5 0 0 1 .5-.5.5.5 0 0 1 .5.5zm3.175-2.116a.5.5 0 0 1-.5.5.5.5 0 0 1-.5-.5.5.5 0 0 1 .5-.5.5.5 0 0 1 .5.5zm2.117 0a.5.5 0 0 1-.5.5.5.5 0 0 1-.5-.5.5.5 0 0 1 .5-.5.5.5 0 0 1 .5.5zm-3.175 2.116a.5.5 0 0 1-.5.5.5.5 0 0 1-.5-.5.5.5 0 0 1 .5-.5.5.5 0 0 1 .5.5zm0-4.233a.5.5 0 0 1-.5.5.5.5 0 0 1-.5-.5.5.5 0 0 1 .5-.5.5.5 0 0 1 .5.5zm2.116 0a.5.5 0 0 1-.5.5.5.5 0 0 1-.5-.5.5.5 0 0 1 .5-.5.5.5 0 0 1 .5.5zm0 4.233a.5.5 0 0 1-.5.5.5.5 0 0 1-.5-.5.5.5 0 0 1 .5-.5.5.5 0 0 1 .5.5zm2.117-4.233a.5.5 0 0 1-.5.5.5.5 0 0 1-.5-.5.5.5 0 0 1 .5-.5.5.5 0 0 1 .5.5zm0 4.233a.5.5 0 0 1-.5.5.5.5 0 0 1-.5-.5.5.5 0 0 1 .5-.5.5.5 0 0 1 .5.5zm-10.583 0a.5.5 0 0 1-.5.5.5.5 0 0 1-.5-.5.5.5 0 0 1 .5-.5.5.5 0 0 1 .5.5zm-1.059-2.116a.5.5 0 0 1-.5.5.5.5 0 0 1-.5-.5.5.5 0 0 1 .5-.5.5.5 0 0 1 .5.5zm1.059-2.117a.5.5 0 0 1-.5.5.5.5 0 0 1-.5-.5.5.5 0 0 1 .5-.5.5.5 0 0 1 .5.5zm3.175 2.117a.5.5 0 0 1-.5.5.5.5 0 0 1-.5-.5.5.5 0 0 1 .5-.5.5.5 0 0 1 .5.5zm-13.759 2.116a.5.5 0 0 1-.5.5.5.5 0 0 1-.5-.5.5.5 0 0 1 .5-.5.5.5 0 0 1 .5.5zm-1.058-2.116a.5.5 0 0 1-.5.5.5.5 0 0 1-.5-.5.5.5 0 0 1 .5-.5.5.5 0 0 1 .5.5zm4.233 0a.5.5 0 0 1-.5.5.5.5 0 0 1-.5-.5.5.5 0 0 1 .5-.5.5.5 0 0 1 .5.5zm-15.875 2.116a.5.5 0 0 1-.5.5.5.5 0 0 1-.5-.5.5.5 0 0 1 .5-.5.5.5 0 0 1 .5.5zm-1.058-2.116a.5.5 0 0 1-.5.5.5.5 0 0 1-.5-.5.5.5 0 0 1 .5-.5.5.5 0 0 1 .5.5zm4.233 0a.5.5 0 0 1-.5.5.5.5 0 0 1-.5-.5.5.5 0 0 1 .5-.5.5.5 0 0 1 .5.5zm-3.175-2.117a.5.5 0 0 1-.5.5.5.5 0 0 1-.5-.5.5.5 0 0 1 .5-.5.5.5 0 0 1 .5.5zm2.117 0a.5.5 0 0 1-.5.5.5.5 0 0 1-.5-.5.5.5 0 0 1 .5-.5.5.5 0 0 1 .5.5zm0 4.233a.5.5 0 0 1-.5.5.5.5 0 0 1-.5-.5.5.5 0 0 1 .5-.5.5.5 0 0 1 .5.5zm3.175-2.116a.5.5 0 0 1-.5.5.5.5 0 0 1-.5-.5.5.5 0 0 1 .5-.5.5.5 0 0 1 .5.5zm2.117 0a.5.5 0 0 1-.5.5.5.5 0 0 1-.5-.5.5.5 0 0 1 .5-.5.5.5 0 0 1 .5.5zm-3.175 2.116a.5.5 0 0 1-.5.5.5.5 0 0 1-.5-.5.5.5 0 0 1 .5-.5.5.5 0 0 1 .5.5zm0-4.233a.5.5 0 0 1-.5.5.5.5 0 0 1-.5-.5.5.5 0 0 1 .5-.5.5.5 0 0 1 .5.5zm2.116 0a.5.5 0 0 1-.5.5.5.5 0 0 1-.5-.5.5.5 0 0 1 .5-.5.5.5 0 0 1 .5.5zm0 4.233a.5.5 0 0 1-.5.5.5.5 0 0 1-.5-.5.5.5 0 0 1 .5-.5.5.5 0 0 1 .5.5zm2.117-4.233a.5.5 0 0 1-.5.5.5.5 0 0 1-.5-.5.5.5 0 0 1 .5-.5.5.5 0 0 1 .5.5zm0 4.233a.5.5 0 0 1-.5.5.5.5 0 0 1-.5-.5.5.5 0 0 1 .5-.5.5.5 0 0 1 .5.5zm-10.583 0a.5.5 0 0 1-.5.5.5.5 0 0 1-.5-.5.5.5 0 0 1 .5-.5.5.5 0 0 1 .5.5zm-1.059-2.116a.5.5 0 0 1-.5.5.5.5 0 0 1-.5-.5.5.5 0 0 1 .5-.5.5.5 0 0 1 .5.5zm1.059-2.117a.5.5 0 0 1-.5.5.5.5 0 0 1-.5-.5.5.5 0 0 1 .5-.5.5.5 0 0 1 .5.5zm3.175 2.117a.5.5 0 0 1-.5.5.5.5 0 0 1-.5-.5.5.5 0 0 1 .5-.5.5.5 0 0 1 .5.5zm11.641-2.117a.5.5 0 0 1-.5.5.5.5 0 0 1-.5-.5.5.5 0 0 1 .5-.5.5.5 0 0 1 .5.5zm2.117 0a.5.5 0 0 1-.5.5.5.5 0 0 1-.5-.5.5.5 0 0 1 .5-.5.5.5 0 0 1 .5.5zm0 4.233a.5.5 0 0 1-.5.5.5.5 0 0 1-.5-.5.5.5 0 0 1 .5-.5.5.5 0 0 1 .5.5zm3.175-2.116a.5.5 0 0 1-.5.5.5.5 0 0 1-.5-.5.5.5 0 0 1 .5-.5.5.5 0 0 1 .5.5zm2.117 0a.5.5 0 0 1-.5.5.5.5 0 0 1-.5-.5.5.5 0 0 1 .5-.5.5.5 0 0 1 .5.5zm-3.175 2.116a.5.5 0 0 1-.5.5.5.5 0 0 1-.5-.5.5.5 0 0 1 .5-.5.5.5 0 0 1 .5.5zm0-4.233a.5.5 0 0 1-.5.5.5.5 0 0 1-.5-.5.5.5 0 0 1 .5-.5.5.5 0 0 1 .5.5zm2.116 0a.5.5 0 0 1-.5.5.5.5 0 0 1-.5-.5.5.5 0 0 1 .5-.5.5.5 0 0 1 .5.5zm0 4.233a.5.5 0 0 1-.5.5.5.5 0 0 1-.5-.5.5.5 0 0 1 .5-.5.5.5 0 0 1 .5.5zm2.117-4.233a.5.5 0 0 1-.5.5.5.5 0 0 1-.5-.5.5.5 0 0 1 .5-.5.5.5 0 0 1 .5.5zm0 4.233a.5.5 0 0 1-.5.5.5.5 0 0 1-.5-.5.5.5 0 0 1 .5-.5.5.5 0 0 1 .5.5zm-10.583 0a.5.5 0 0 1-.5.5.5.5 0 0 1-.5-.5.5.5 0 0 1 .5-.5.5.5 0 0 1 .5.5zm-1.059-2.116a.5.5 0 0 1-.5.5.5.5 0 0 1-.5-.5.5.5 0 0 1 .5-.5.5.5 0 0 1 .5.5zm1.059-2.117a.5.5 0 0 1-.5.5.5.5 0 0 1-.5-.5.5.5 0 0 1 .5-.5.5.5 0 0 1 .5.5zm3.175 2.117a.5.5 0 0 1-.5.5.5.5 0 0 1-.5-.5.5.5 0 0 1 .5-.5.5.5 0 0 1 .5.5z" clip-path="url(#a)" transform="rotate(-5 4436.403 9466.554)"/><path style="opacity:1;fill:#f4f4f4;fill-opacity:1;stroke:none;stroke-width:2;stroke-linecap:round;stroke-linejoin:round;stroke-miterlimit:4;stroke-dasharray:none;paint-order:markers fill stroke" d="m624.854-401.392 8.18 8.179v30.104c0 1.064-.797 1.92-1.786 1.92h-25.563c-.988 0-1.784-.856-1.784-1.92v-36.363c0-1.064.796-1.92 1.784-1.92z" transform="rotate(-5 5010.86 6596.816)"/><path style="color:#000;opacity:1;fill:#4d62a1;stroke-width:1;stroke-linecap:round;stroke-linejoin:round;-inkscape-stroke:none;paint-order:markers fill stroke" d="M624.854-402.392a1 1 0 0 1 .03.004 1 1 0 0 1 .205.027 1 1 0 0 1 .031.006 1 1 0 0 1 .211.087 1 1 0 0 1 .044.026 1 1 0 0 1 .186.143l8.18 8.177a1 1 0 0 1 .14.184 1 1 0 0 1 .028.047 1 1 0 0 1 .087.21 1 1 0 0 1 .007.033 1 1 0 0 1 .026.199 1 1 0 0 1 .005.034v30.106c0 1.563-1.219 2.92-2.785 2.92h-25.562c-1.567 0-2.786-1.358-2.786-2.92v-36.363c0-1.563 1.22-2.92 2.786-2.92zm-1 2h-18.168c-.411 0-.786.355-.786.92v36.363c0 .565.375.92.786.92h25.562c.411 0 .785-.355.785-.92v-29.106h-5.394c-1.567 0-2.785-1.357-2.785-2.92zm2 1.414v3.844c0 .565.373.92.785.92h3.978z" transform="rotate(-5 5010.86 6596.816)"/><path style="color:#000;mix-blend-mode:multiply;fill:red;stroke-width:1.13386;stroke-linecap:round;stroke-linejoin:round;-inkscape-stroke:none;paint-order:markers fill stroke" d="M3212.754-969.264a1.86 1.86 0 0 0-1.232.606c-.325.365-.5.89-.452 1.476v.006c.08 2.36.682 10.168 1.573 20.965.544 6.603 1.304 15.401 2.005 23.604-1.643.145-3.29.286-4.935.424a28.92 28.92 0 0 0-.875-4.704c-3.491-12.674-15.964-22.493-28.631-23.533-12.667-1.04-24.666 6.76-29.51 16.246-3.703 7.253-2.735 11.339-2.012 17.735-.105.01-.21.018-.316.029-.609.061-1.216.14-1.824.203-1.004-8.212-2.228-18.282-3.004-24.584-.824-6.69-1.492-12.129-1.977-15.953a633.808 633.808 0 0 0-.584-4.48c-.07-.53-.126-.948-.17-1.249a5.803 5.803 0 0 0-.088-.515c-.05-.574-.303-1.03-.664-1.315-.36-.285-.808-.399-1.24-.36v-.003c-.432.038-.86.225-1.166.568-.306.344-.472.845-.422 1.418a.378.378 0 0 0 0 .032c.227 1.28.494 2.539.672 3.8.318 2.27.538 4.564.828 6.858.422 3.318.87 6.63 1.307 9.943.503 4.161.991 8.32 1.512 12.483 1.176 9.404 1.428 11.376 1.728 13.718-7.277.81-14.541 1.708-21.822 2.264-.684.052-1.26.229-1.705.479-.444.25-.78.566-.856 1.003a.91.91 0 0 0 .149.659c.134.188.333.325.574.427.481.205 1.158.285 2.111.229a.378.378 0 0 0 .016 0c7.106-.783 14.79-1.584 21.88-2.32.022.177.216 1.727.23 1.826.01.061.018.106.02.14 0 .034.017.09.017.096h.016c.408 3.332.56 4.534 1.601 13.022a.378.378 0 0 0 0 .008c.867 6.217 3.884 35.733 4.696 42.033 0 .015.029.25.03.267-7.642.904-13.042 1.523-14.613 1.606-1.534.08-2.595.896-2.7 1.933-.054.52.212 1.07.693 1.368.48.296 1.123.385 1.912.273l-.021.006c4.056-.418 9.378-1.023 15.144-1.69.712 5.841 3.25 27.694 6.139 51.962.273 2.291.492 4.03.763 6.3-2.662.276-7.505.777-17.33 1.805h.066c-.937.011-1.721.275-2.295.709-.573.434-.95 1.058-.93 1.748.024.69.5 1.346 1.196 1.67.696.324 1.594.398 2.738.22a1006.43 1006.43 0 0 0 17.061-1.984c1.078 8.983 2.196 18.337 3.07 25.305.619 4.925 1.155 9.091 1.573 12.121.209 1.515.389 2.741.533 3.647.144.905.237 1.441.338 1.734.262.762.65 1.276 1.123 1.55a1.778 1.778 0 0 0 1.46.141c.91-.3 1.624-1.21 1.485-2.185v-.008c-.417-3.09-1.652-9.875-2.568-17.252-.867-6.98-2.131-17.46-3.123-25.531 19.971-2.534 36.963-5.144 42.119-5.672 7.032-.72 14.059-1.484 21.082-2.272.372 3.65.67 6.081 1.28 13.19.233 2.722.395 5.454.597 8.193a.567.567 0 0 0 0 .016c.818 8.515 1.897 16.99 2.836 25.474.068.573.352 1.05.738 1.336.386.286.855.387 1.299.334.443-.053.871-.26 1.18-.629.307-.368.468-.896.4-1.468-.9-7.957-2.887-27.357-4.79-46.842 7.62-.865 15.236-1.76 22.85-2.67 19.286-2 8.12-.805 27.764-2.996 3.762-.42 7.523-.839 11.283-1.237.184 2.224-.074-.69 1.221 17.912.24 3.44.562 6.875.797 10.315.402 5.949.665 11.912 1.039 17.863.498 4.647 7.07 3.942 6.572-.705-.446-3.275-1.004-6.535-1.42-9.814-.33-2.608-.538-5.23-.857-7.838-.42-3.427-.957-6.838-1.356-10.268-.692-5.956-1.258-11.925-1.845-17.892 7.287-.726 14.58-1.316 21.89-1.547l-.016-.024a.756.756 0 0 0 .051.024c.645-.056 1.2-.35 1.543-.783.343-.433.48-.969.436-1.477a2.08 2.08 0 0 0-.678-1.379c-.412-.367-1.01-.565-1.654-.51a.756.756 0 0 0-.01 0c-7.315.679-14.625 1.403-21.932 2.157-.217-2.11-.408-4.224-.654-6.33-.54-5.397-1.122-10.791-1.621-16.192-1.142-12.353-1.467-17.702-2.38-29.705-.072-.963-.152-2.133-.234-3.172 7.047-.382 14.093-.752 21.137-1.178a.567.567 0 0 0 .051-.008c.603-.094 1.095-.402 1.381-.818.285-.416.375-.916.303-1.38a1.908 1.908 0 0 0-.71-1.22c-.296-.23-.739-.255-1.165-.273a.567.567 0 0 0-.016-.022v.016c-.133-.004-.223-.102-.362-.082v-.008H3310.071c-6.917.81-13.873 1.299-20.836 1.734-.295-3.776-.61-7.585-.82-11.052-.072-1.164-.1-2.331-.15-3.496-.403-2.242-2.017-3.253-3.627-3.252-2.07 0-4.138 1.673-3.62 4.554.217 1.054.458 2.103.651 3.16.5 2.747 1.094 6.618 1.707 10.45-1.663.099-3.323.207-4.986.308-7.492.459-11.244.693-13.131.813-1.888.12-1.976.133-1.979.133l-15.398.9c-7.403.414-15.984 1.124-24.846 1.93-1.701-21.62-3.326-41.688-4.554-56.643 14.056-1.241 28.118-2.413 42.193-3.412 6.561-.55 9.925-.83 11.64-.975.858-.072 1.305-.113 1.536-.132l.148-.014h.024c.01 0 .016.006.023.006.057.002.078-.001.154-.006.154-.008.475-.031 1.166-.082 1.384-.102 4.243-.321 10.137-.783 6.088-.477 12.171-1.074 18.254-1.108a.378.378 0 0 0 .236-.095c.442-.034.872-.121 1.145-.377.335-.315.512-.74.539-1.172a1.762 1.762 0 0 0-.39-1.235c-.295-.353-.762-.591-1.337-.627a.378.378 0 0 0-.045 0c-10.046.64-20.045 1.82-30.05 2.696-4.465.392-8.933.717-13.407 1.078a.378.378 0 0 0-.01 0c-4.879.446-9.754.932-14.63 1.336-5.068.419-10.149.715-15.229 1.137-4.109.34-8.21.745-12.31 1.132l-.502-6.129v-.008l-.887-12.755a.567.567 0 0 0 0-.002.567.567 0 0 0 0-.002.567.567 0 0 0 0-.002.567.567 0 0 0 0-.002c-.276-3.235-.585-6.46-.826-9.686-.396-5.302-.554-10.667-1.27-15.996a.567.567 0 0 0-.03-.023c-.064-.564-.314-1.042-.686-1.336a1.85 1.85 0 0 0-1.315-.383zm-35.078 21.957c11.793-.095 23.795 7.095 28.185 19.233a26.26 26.26 0 0 1 1.409 6.101c-2.989.249-5.976.49-8.963.772a.378.378 0 0 0-.01 0c-22.854 2.32-11.464 1.227-34.125 3.293-3.78.359-7.56.714-11.34 1.074-.892-5.369-1.05-11.289 1.383-15.926 5.24-9.99 14.286-14.472 23.459-14.547zm96.377 22.09v.008c-.015.011-.319.184-.319.184l-.05-.147.01-.013.36-.032zm.02.037.2.274s-.021.018-.043.029c0 0-.128-.246-.156-.303zm.231.016c.056.011.125.03.125.03l-.059.132-.066-.162zm-59.433 5.17c.375 4.376.665 7.904 1.056 12.435 1.594 18.475 2.622 30.533 3.791 44.194-13.284 1.245-27.212 2.738-39.955 4.193-9.915 1.132-18.481 2.155-25.875 3.031-1.337-10.948-2.665-21.742-3.969-32.453-1.184-9.733-2-16.376-3.037-24.857l2.073-.215c.096 1.219.167 2.522.185 3.947-.067 3.589 2.753 4.74 3.924 4.426 1.174-.315 2.26-1.067 1.9-2.379-.502-1.83-1.1-4.048-1.611-6.45 4.301-.441 9.37-.96 11.078-1.144a8897.74 8897.74 0 0 1 42.994-4.054c.124 10.04-5.108 19.352-10.578 23.24-7.067 5.023-18.481 8.22-34.34-8.611-.793-.921-2.754-1.97-3.676-1.178-.92.793-1.321 2.106-.529 3.027 2.725 3.16 21.013 26.763 42.67 7.518 4.383-3.895 9.107-13.846 8.9-24.223 1.666-.15 3.332-.298 4.999-.447zm69.029 55.433c.171 1.102.447 2.654.562 3.442.663 4.508 1.344 9.014 1.875 13.539.626 5.322 1.026 10.668 1.596 15.996.577 5.39 1.229 10.774 1.844 16.16.527 6.512.34 4.224.517 6.371-13.054 1.368-26.096 2.832-39.132 4.338-4.468.475-8.957.897-13.436 1.426-3.134.37-6.256.791-9.373 1.205-.239-2.462-.44-4.674-.672-7.098 10.752-1.24 28.133-3.097 30.506-3.974 2.656-.982.756-4.279-.986-4.112-1.743.168-9.806 2.118-14.713 3.043-1.716.324-9.973 1.53-15.069 2.295a2409.78 2409.78 0 0 1-1.824-20.004c10.651-1.582 21.287-3.158 22.701-3.388 1.24-.203 8.227-1.302 9.926-1.512 1.102-.136 5.17-.575 6.15-.615-.03.11-.033.232-.071.334-.981 3.668-1.565 7.429-1.957 11.2-.332 2.8-.207 1.28-.319 4.009-.034.848-.121 2.281-.096 3.164.01.342.163 1.986.197 2.38.041.342.074.683.116 1.024.514 3.164 4.989 2.436 4.474-.728-.04-.251-.084-.502-.127-.752-.527-2.826-.338-5.755-.1-8.6.097-.671.21-1.343.293-2.016.085-.686.106-1.377.213-2.06.36-2.292 1.129-4.503 1.725-6.737.077-.54.254-1.08.23-1.626-.078-1.8-.385-2.756-2.105-3.674-.427-.228-2.387-.23-1.711-.264-.185.008-.375.022-.569.04-1.355.132-2.843.518-3.654.622-10.5 2 5.257-1.026-7.652 1.555-1.845.369-3.7.697-5.547 1.053-3.538.68-13.028 2.111-22.385 3.48-.14-1.68-.356-3.98-.465-5.389-.542-7.15-1.047-13.35-1.578-20.123 9.857-1.02 18.524-1.808 24.762-2.164 11.951-.6 23.904-1.206 35.855-1.84zm-63.91 4.36c.497 5.825 1.488 17.123 1.717 20.017.255 3.533.247 3.46.402 5.608-9.121 1.325-17.557 2.518-19.15 2.75-5.682.827-11.397 1.633-17.15 1.648-.693 0-1.382-.072-2.073-.11-1.82.09-2.562 1.552-2.309 2.815-.01.151-.01.31.01.477.316 3.004.916 5.965 1.405 8.943 1.488 9.073-.344-1.51 1.185 7.205.502 2.77 4.42 2.06 3.918-.71-.23-1.137-.491-2.266-.69-3.409-.208-1.203-.363-2.416-.53-3.625-.337-2.433-.611-4.865-.704-7.316 1.448-.225 2.89-.485 4.338-.711 4.084-.64 9.01-1.338 13.07-1.99 2.042-.328 10.24-1.55 18.909-2.838l.42 5.85c.01.116.024.335.03.413 0 .038.01.148.01.162v.016c0 .02.01.05.01.051l.149-.015c.177 1.867.317 3.348.842 9.611.11 1.31.19 2.633.277 3.947l-.299.047c-8.746 1.1-9.769 1.287-18.705 2.172-3.015.298-6.03.616-9.054.818-2.281.155-4.57.156-6.854.254-11.652.504 1.212.02-5.521.268-3.187.703-2.192 5.209.994 4.506v.002c1.707-.333 3.088-.61 4.924-.893 11.48-1.77 23.024-3.09 34.548-4.523l.153-.018c.094 1.45.186 2.892.304 4.346a.567.567 0 0 0 0 .008c.126 1.532.166 1.702.264 2.799-.854.109-1.706.22-2.56.322-9.836 1.18-30.16 3.352-39.582 4.43-18.64 2.131-20.237 2.369-21.237 2.5-2.3-18.732-4.724-38.603-7.127-58.268 19.338-2.258 44.635-5.336 65.674-7.559z" transform="matrix(.26458 0 0 .26458 -825.204 256.453)"/><path style="color:#000;opacity:.569249;mix-blend-mode:multiply;fill:#bd1f0c;stroke-width:.3;stroke-linecap:round;stroke-linejoin:round;-inkscape-stroke:none;paint-order:markers fill stroke" d="M850.04-256.451a.492.492 0 0 0-.325.16.518.518 0 0 0-.12.39v.003c.021.624.18 2.69.416 5.547.144 1.747.345 4.075.53 6.245-.434.038-.87.076-1.305.112a7.654 7.654 0 0 0-.231-1.244c-.924-3.354-4.224-5.952-7.576-6.227-3.351-.275-6.526 1.789-7.807 4.299-.98 1.918-.724 3-.533 4.692l-.083.008c-.162.016-.322.037-.483.053-.266-2.172-.59-4.837-.795-6.504-.218-1.77-.395-3.21-.523-4.221-.064-.506-.117-.905-.154-1.185l-.045-.33a1.517 1.517 0 0 0-.024-.137.488.488 0 0 0-.175-.348.463.463 0 0 0-.329-.095v-.001a.466.466 0 0 0-.308.15.493.493 0 0 0-.112.376.1.1 0 0 0 0 .008c.06.338.131.671.178 1.005.084.6.142 1.208.22 1.815.11.878.23 1.754.345 2.63.133 1.101.262 2.202.4 3.303.311 2.488.378 3.01.457 3.63-1.925.214-3.847.452-5.774.599-.18.013-.333.06-.45.126-.118.066-.207.15-.227.266a.24.24 0 0 0 .04.174c.035.05.088.086.151.113.128.054.307.076.559.06a.1.1 0 0 0 .004 0c1.88-.206 3.913-.418 5.789-.613l.06.483a.56.56 0 0 1 .007.037c0 .01.004.024.004.025h.004l.423 3.446a.1.1 0 0 0 0 .002c.23 1.645 1.028 9.454 1.243 11.121l.008.07c-2.022.24-3.451.404-3.867.426-.406.021-.687.237-.714.511a.388.388 0 0 0 .183.362c.127.078.297.102.506.072l-.006.002c1.073-.11 2.481-.27 4.007-.447.188 1.546.86 7.327 1.624 13.748.072.607.13 1.067.202 1.667-.704.073-1.986.206-4.585.478h.017a1.016 1.016 0 0 0-.607.188.568.568 0 0 0-.246.462.527.527 0 0 0 .317.442c.184.086.421.105.724.058 1.525-.162 3.038-.342 4.514-.525.285 2.377.58 4.852.812 6.695.164 1.304.306 2.406.416 3.207.056.401.103.726.141.965.038.24.063.382.09.46.07.2.172.337.297.41a.47.47 0 0 0 .386.037c.241-.08.43-.32.393-.579v-.002c-.11-.817-.437-2.612-.68-4.564-.229-1.847-.563-4.62-.826-6.755 5.284-.67 9.78-1.361 11.144-1.501 1.86-.19 3.72-.393 5.578-.601.099.966.178 1.609.339 3.49.062.72.105 1.443.158 2.168a.15.15 0 0 0 0 .004c.217 2.252.502 4.495.75 6.74a.512.512 0 0 0 .196.353.48.48 0 0 0 .343.089.478.478 0 0 0 .312-.167.51.51 0 0 0 .106-.388c-.238-2.106-.764-7.239-1.267-12.394 2.016-.229 4.031-.465 6.046-.706 5.102-.53 2.148-.213 7.346-.793.995-.111 1.99-.222 2.985-.327.049.588-.02-.183.323 4.739.063.91.149 1.819.21 2.729.107 1.574.177 3.152.276 4.726.131 1.23 1.87 1.043 1.739-.186-.118-.867-.266-1.73-.376-2.597-.087-.69-.143-1.383-.227-2.074-.11-.906-.253-1.809-.359-2.716-.183-1.576-.333-3.156-.488-4.734 1.928-.192 3.858-.349 5.792-.41l-.004-.006a.2.2 0 0 0 .013.006.58.58 0 0 0 .409-.207.553.553 0 0 0 .115-.39.55.55 0 0 0-.18-.365.581.581 0 0 0-.437-.135.2.2 0 0 0-.003 0c-1.935.18-3.87.37-5.803.57-.057-.558-.108-1.117-.173-1.675-.143-1.428-.297-2.855-.429-4.284-.302-3.268-.388-4.683-.63-7.86l-.061-.838c1.864-.101 3.728-.2 5.592-.312a.15.15 0 0 0 .014-.002.538.538 0 0 0 .365-.216c.076-.11.1-.243.08-.366a.505.505 0 0 0-.187-.322c-.08-.061-.196-.068-.309-.073a.15.15 0 0 0-.004-.006v.004c-.035 0-.059-.027-.096-.021v-.002h-.007c-1.83.214-3.67.343-5.512.459-.079-1-.162-2.007-.217-2.925-.02-.308-.027-.617-.04-.925-.107-.593-.534-.86-.96-.86-.548 0-1.095.442-.957 1.205.057.279.12.556.172.836.132.727.289 1.75.451 2.765-.44.026-.879.054-1.319.081-1.982.122-2.975.183-3.474.215-.5.032-.523.035-.524.035l-4.074.239c-1.959.109-4.229.297-6.574.51-.45-5.72-.88-11.03-1.205-14.987 3.72-.328 7.44-.638 11.164-.902l3.08-.258.406-.035.04-.004h.006l.006.002.041-.002.309-.022c.366-.027 1.122-.085 2.682-.207 1.61-.126 3.22-.284 4.83-.293a.1.1 0 0 0 .062-.026c.117-.009.23-.031.303-.1a.461.461 0 0 0 .142-.31.466.466 0 0 0-.103-.326.49.49 0 0 0-.354-.166.1.1 0 0 0-.011 0c-2.659.17-5.304.482-7.951.713-1.182.104-2.364.19-3.547.286a.1.1 0 0 0-.003 0c-1.291.118-2.581.246-3.872.353-1.34.111-2.685.19-4.029.3-1.087.091-2.172.198-3.257.3l-.133-1.621v-.002l-.234-3.375a.15.15 0 0 0 0-.001.15.15 0 0 0 0-.001c-.073-.856-.155-1.71-.219-2.563-.105-1.403-.146-2.822-.336-4.232a.15.15 0 0 0-.008-.006.517.517 0 0 0-.181-.354.49.49 0 0 0-.348-.1zm-9.28 5.81c3.12-.026 6.296 1.877 7.457 5.088.193.535.314 1.076.373 1.614-.791.066-1.581.13-2.372.204a.1.1 0 0 0-.003 0c-6.047.614-3.033.325-9.029.872l-3 .284c-.236-1.42-.278-2.987.366-4.214 1.386-2.643 3.78-3.829 6.207-3.849zm25.5 5.844v.002l-.085.049-.013-.04.003-.003.095-.008zm.005.01.053.072-.011.008-.042-.08zm.061.004.033.008-.015.035-.018-.043zm-15.725 1.368c.1 1.158.176 2.091.28 3.29.422 4.888.693 8.078 1.003 11.693-3.515.33-7.2.724-10.572 1.11-2.623.299-4.89.57-6.846.801-.354-2.896-.705-5.752-1.05-8.586-.313-2.576-.53-4.333-.803-6.577l.548-.057c.025.323.044.667.049 1.045-.018.95.728 1.253 1.038 1.17.31-.083.598-.282.503-.629a29.766 29.766 0 0 1-.426-1.706c1.138-.117 2.479-.254 2.93-.303 3.792-.365 7.583-.727 11.376-1.073.033 2.657-1.351 5.12-2.799 6.15-1.87 1.328-4.89 2.174-9.085-2.28-.21-.243-.73-.52-.973-.31-.243.209-.35.556-.14.8.721.836 5.56 7.081 11.29 1.99 1.16-1.031 2.41-3.664 2.355-6.41l1.322-.118zm18.264 14.667c.045.291.118.702.149.91.175 1.193.355 2.385.496 3.582.166 1.408.271 2.823.422 4.233.153 1.426.325 2.85.488 4.275l.137 1.686c-3.454.362-6.905.75-10.354 1.148-1.182.125-2.37.237-3.555.377-.829.098-1.655.21-2.48.319-.063-.652-.116-1.237-.177-1.878 2.844-.328 7.443-.82 8.071-1.052.703-.26.2-1.132-.261-1.087-.461.044-2.594.56-3.893.805-.454.085-2.639.404-3.987.607a637.962 637.962 0 0 1-.482-5.293c2.818-.418 5.632-.835 6.006-.896.328-.054 2.177-.345 2.626-.4a40.822 40.822 0 0 1 1.628-.163c-.008.03-.01.061-.02.088-.259.97-.414 1.966-.517 2.964-.088.74-.055.338-.084 1.06-.01.225-.033.604-.026.837.003.09.043.526.052.63.011.09.02.18.03.271.137.837 1.32.645 1.185-.193a22.81 22.81 0 0 0-.034-.199c-.14-.747-.09-1.522-.026-2.275.025-.177.055-.355.077-.533.023-.182.028-.365.056-.545.095-.607.3-1.192.457-1.783.02-.143.067-.286.06-.43-.02-.476-.101-.73-.556-.972-.113-.06-.632-.061-.453-.07a3.52 3.52 0 0 0-.15.01c-.36.035-.753.138-.967.165-2.779.53 1.39-.271-2.025.412-.488.097-.979.184-1.468.278-.936.18-3.447.559-5.922.92-.037-.444-.094-1.052-.123-1.425-.144-1.892-.277-3.532-.418-5.324 2.608-.27 4.901-.478 6.552-.573 3.162-.158 6.324-.319 9.487-.486zm-16.91 1.153c.132 1.541.394 4.53.455 5.296l.106 1.484c-2.413.35-4.645.666-5.067.728-1.503.218-3.015.432-4.537.436-.183 0-.366-.02-.549-.03-.481.025-.677.411-.61.746a.597.597 0 0 0 .003.126c.083.794.242 1.578.371 2.366.394 2.4-.09-.4.314 1.906.133.733 1.17.545 1.036-.188-.06-.3-.13-.6-.182-.902-.055-.318-.096-.639-.14-.959a19.473 19.473 0 0 1-.187-1.936c.384-.059.765-.128 1.148-.188 1.08-.169 2.384-.354 3.458-.526.54-.087 2.71-.41 5.003-.751l.111 1.548.008.11.003.042v.004c0 .005.003.013.003.013l.04-.004c.046.494.084.886.222 2.543.03.347.05.697.074 1.045a2.205 2.205 0 0 0-.08.012c-2.314.291-2.584.34-4.948.575-.798.079-1.596.163-2.396.216-.604.041-1.21.042-1.813.068-3.084.133.32.005-1.461.07-.843.186-.58 1.379.263 1.193.451-.088.817-.161 1.302-.236 3.038-.468 6.092-.818 9.141-1.197a.561.561 0 0 0 .04-.005c.026.384.05.765.081 1.15a.15.15 0 0 0 0 .002c.034.405.044.45.07.74-.226.03-.451.059-.677.086-2.603.312-7.98.887-10.473 1.172-4.932.564-5.354.627-5.619.661-.609-4.956-1.25-10.213-1.886-15.416 5.117-.598 11.81-1.412 17.377-2z" transform="translate(-825.204 256.453)"/><g style="opacity:.800351;mix-blend-mode:multiply;fill:#eae7e7"><path style="color:#000;opacity:1;mix-blend-mode:multiply;fill:#ebe0b7;stroke-width:3.77953;stroke-linecap:round;stroke-linejoin:round;-inkscape-stroke:none;paint-order:markers fill stroke" d="M3212.748-733.266v.002a1.86 1.86 0 0 0-1.227.606c-.324.365-.5.89-.45 1.476v.008c.078 2.36.68 10.168 1.571 20.965.087 1.042.221 2.585.317 3.725l-13.08 1.144c-5.445-5.11-12.527-8.491-19.672-9.078-12.667-1.04-24.666 6.76-29.51 16.246-3.703 7.253-2.735 11.339-2.011 17.735-.106.011-.211.018-.317.029-.609.06-1.216.14-1.824.203-1.004-8.212-2.228-18.282-3.004-24.584-.824-6.69-1.492-12.129-1.977-15.953a633.808 633.808 0 0 0-.584-4.48c-.07-.53-.126-.948-.17-1.248a5.803 5.803 0 0 0-.087-.516c-.05-.574-.304-1.03-.665-1.315-.36-.285-.808-.399-1.24-.36v-.003c-.432.038-.86.225-1.166.568-.306.344-.472.845-.422 1.418a.378.378 0 0 0 0 .032c.227 1.28.494 2.539.672 3.8.318 2.27.538 4.564.828 6.858.422 3.318.87 6.63 1.307 9.943.503 4.161.991 8.32 1.512 12.483 1.176 9.404 1.429 11.376 1.728 13.718-7.277.81-14.541 1.708-21.822 2.264-.684.052-1.26.229-1.705.479-.444.25-.78.566-.856 1.003a.906.906 0 0 0 .149.659c.134.188.334.325.574.427.481.205 1.158.285 2.111.229a.378.378 0 0 0 .016 0c7.106-.783 14.79-1.584 21.88-2.32.022.177.216 1.727.23 1.826.01.061.02.106.023.14 0 .034.014.09.014.096h.016c.408 3.332.56 4.534 1.601 13.022a.378.378 0 0 0 0 .008c.867 6.217 3.884 35.733 4.696 42.033 0 .015.03.25.03.267-7.642.904-13.042 1.523-14.613 1.606-1.534.08-2.595.896-2.7 1.933-.054.52.212 1.07.693 1.368.48.296 1.123.385 1.912.273l-.023.008c4.056-.418 9.378-1.023 15.144-1.69.712 5.842 3.25 27.694 6.139 51.962.273 2.292.492 4.031.764 6.3-2.663.276-7.506.777-17.33 1.805h.066c-.938.011-1.722.275-2.295.709-.574.434-.951 1.058-.93 1.748.023.69.5 1.346 1.195 1.67.696.324 1.594.398 2.738.22 5.762-.613 11.481-1.293 17.061-1.984 1.078 8.983 2.196 18.337 3.07 25.305.619 4.925 1.155 9.091 1.573 12.121.209 1.515.389 2.741.533 3.647.144.905.237 1.441.338 1.734.262.762.65 1.276 1.123 1.55a1.778 1.778 0 0 0 1.46.141c.91-.3 1.624-1.209 1.485-2.185v-.008c-.417-3.09-1.652-9.875-2.568-17.252-.867-6.98-2.131-17.46-3.123-25.531 2.177-.277 4.132-.545 6.226-.82l.135 1.544c.381 4.358 3.246 8.064 7.101 9.487 1.155 5.168 5.818 9.069 11.21 8.597l40.591-3.553c.793 7.91 1.778 15.79 2.65 23.674.069.573.353 1.05.739 1.336.386.286.855.387 1.299.334.443-.053.871-.26 1.18-.629.308-.368.468-.896.4-1.468-.512-4.532-1.44-13.57-2.453-23.579l51.84-4.537c4.314-.377 7.667-3.437 8.966-7.351.237 3.318.543 6.63.77 9.949.402 5.949.665 11.912 1.039 17.863.498 4.648 7.07 3.942 6.572-.705-.446-3.275-1.004-6.535-1.42-9.814-.33-2.608-.538-5.23-.857-7.838-.419-3.427-.957-6.838-1.356-10.268-.692-5.956-1.258-11.925-1.845-17.892 7.287-.726 14.58-1.316 21.89-1.547l-.016-.024a.756.756 0 0 0 .051.024c.646-.056 1.2-.35 1.543-.783.343-.433.48-.969.436-1.477a2.08 2.08 0 0 0-.678-1.379c-.411-.367-1.009-.565-1.654-.51a.756.756 0 0 0-.012 0 2136.2 2136.2 0 0 0-21.932 2.157c-.216-2.11-.408-4.224-.654-6.33-.54-5.397-1.122-10.79-1.621-16.192-1.142-12.353-1.467-17.702-2.379-29.705-.073-.963-.153-2.133-.234-3.172 7.046-.381 14.092-.752 21.136-1.178a.567.567 0 0 0 .051-.008c.603-.094 1.096-.402 1.381-.818.285-.416.375-.916.303-1.38a1.909 1.909 0 0 0-.71-1.22c-.296-.23-.738-.254-1.165-.273a.567.567 0 0 0-.014-.023v.015c-.132-.004-.223-.102-.361-.082v-.008h-.028c-6.918.811-13.873 1.3-20.836 1.735-.296-3.777-.61-7.586-.82-11.053-.073-1.164-.101-2.33-.151-3.496-.403-2.242-2.016-3.253-3.627-3.252-.16 0-.318.029-.477.049l-1.685-19.276c-.014-.042-.02-.086-.031-.129a3.953 3.953 0 0 0-.162-.738c-.014-.041-.025-.084-.04-.125a3.73 3.73 0 0 0-.517-.928 3.782 3.782 0 0 0-.59-.644l-5.447-4.57-.076-.874a3.78 3.78 0 0 0-.029-.128 3.78 3.78 0 0 0-.164-.739 3.78 3.78 0 0 0-.039-.125 3.78 3.78 0 0 0-.398-.761 3.78 3.78 0 0 0-.12-.17 3.78 3.78 0 0 0-.59-.645l-9.912-8.314 7.954-.666 1.535-.131c.085-.008.113-.012.148-.016h.028c.011 0 .016.008.023.008.057.002.076 0 .153-.008.153-.008.474-.03 1.166-.082 1.383-.101 4.242-.321 10.136-.783 6.088-.477 12.171-1.074 18.254-1.107a.378.378 0 0 0 .237-.096c.44-.034.87-.12 1.144-.377.335-.315.513-.74.54-1.172a1.762 1.762 0 0 0-.391-1.234c-.295-.353-.762-.592-1.336-.627a.378.378 0 0 0-.045 0c-10.047.64-20.046 1.82-30.051 2.695-4.188.368-8.379.679-12.574 1.014l-20.5-17.198a3.78 3.78 0 0 0-.746-.472 3.78 3.78 0 0 0-.174-.084 3.78 3.78 0 0 0-.823-.262 3.78 3.78 0 0 0-.12-.01 3.78 3.78 0 0 0-.782-.035 3.78 3.78 0 0 0-.113-.008l-21.23 1.857c-.253-2.906-.524-5.806-.74-8.707-.397-5.302-.555-10.667-1.27-15.996a.567.567 0 0 0-.03-.021c-.062-.564-.312-1.042-.685-1.336a1.85 1.85 0 0 0-1.308-.383zm-35.082 21.96c6.601-.054 13.267 2.177 18.627 6.279l-30.45 2.664c-5.896.516-10.04 6.029-9.525 11.912l.807 9.209-4.305.408c-.891-5.369-1.049-11.289 1.383-15.926 5.24-9.99 14.286-14.472 23.46-14.547zm96.385 22.09v.007c-.015.011-.319.184-.319.184l-.05-.147s.011-.011.011-.015l.358-.03zm.023.038c.038.055.199.274.199.274s-.023.02-.043.03c0 0-.132-.245-.16-.302zm.232.016c.056.011.125.03.125.03l-.058.132-.066-.162zm-116.935 10.629.826 9.449c-.41.727-.46 1.584.107 2.244l.1.115 3.987 45.58-8.5 1.006c-1.338-10.948-2.665-21.742-3.97-32.453-1.184-9.733-2-16.376-3.036-24.857.896-.093 1.214-.127 2.072-.215.096 1.219.167 2.522.186 3.947-.067 3.589 2.752 4.74 3.923 4.426 1.174-.315 2.261-1.067 1.9-2.379-.502-1.83-1.1-4.048-1.61-6.45l4.015-.413zm5.328 60.906 5.117 58.48c-3.973.472-5.791.7-6.36.774-2.3-18.732-4.723-38.602-7.126-58.268 2.513-.293 5.677-.669 8.369-.986z" transform="matrix(.26458 0 0 .26458 -825.204 194.012)"/></g></svg>