<svg width="165.502" height="198.407" viewBox="0 0 43.789 52.495" xmlns="http://www.w3.org/2000/svg"><defs><clipPath clipPathUnits="userSpaceOnUse" id="a"><path style="color:#000;fill:#fff;stroke-width:2;stroke-linecap:round;stroke-linejoin:round;-inkscape-stroke:none;paint-order:markers fill stroke" d="M797.396-62.45c-.571 0-1 .43-1 1.001v34.117c0 .571.429 1 1 1h36.735c.571 0 1-.429 1-1V-61.45c0-.571-.429-1-1-1z"/></clipPath></defs><g transform="translate(-793.87 128.9)"><path style="fill:none;stroke:#0b2228;stroke-width:2;stroke-linecap:round;stroke-linejoin:miter;stroke-miterlimit:4;stroke-dasharray:none;stroke-opacity:1" d="M830.27-121.663c-8.417 14.576-16.832 29.152-25.248 43.729M815.547-127.9v50.495M800.824-121.663l25.247 43.729"/><rect style="opacity:1;fill:#fff;fill-opacity:1;stroke:#0b2228;stroke-width:2;stroke-linecap:round;stroke-linejoin:round;stroke-miterlimit:4;stroke-dasharray:none;paint-order:markers fill stroke" width="40.736" height="38.118" x="795.396" y="-126.949" rx="2" ry="2"/><path style="fill:#d4c4b5;stroke-width:.0299333;stroke-linecap:round;stroke-linejoin:round;paint-order:markers fill stroke" d="M834.48-46.488a.5.5 0 0 1-.5.5.5.5 0 0 1-.5-.5.5.5 0 0 1 .5-.5.5.5 0 0 1 .5.5zm-1.059-2.116a.5.5 0 0 1-.5.5.5.5 0 0 1-.5-.5.5.5 0 0 1 .5-.5.5.5 0 0 1 .5.5zm4.234 0a.5.5 0 0 1-.5.5.5.5 0 0 1-.5-.5.5.5 0 0 1 .5-.5.5.5 0 0 1 .5.5zm-3.175-2.117a.5.5 0 0 1-.5.5.5.5 0 0 1-.5-.5.5.5 0 0 1 .5-.5.5.5 0 0 1 .5.5zm2.116 0a.5.5 0 0 1-.5.5.5.5 0 0 1-.5-.5.5.5 0 0 1 .5-.5.5.5 0 0 1 .5.5zm0 4.233a.5.5 0 0 1-.5.5.5.5 0 0 1-.5-.5.5.5 0 0 1 .5-.5.5.5 0 0 1 .5.5zm3.175-2.116a.5.5 0 0 1-.5.5.5.5 0 0 1-.5-.5.5.5 0 0 1 .5-.5.5.5 0 0 1 .5.5zm2.117 0a.5.5 0 0 1-.5.5.5.5 0 0 1-.5-.5.5.5 0 0 1 .5-.5.5.5 0 0 1 .5.5zm-3.175 2.116a.5.5 0 0 1-.5.5.5.5 0 0 1-.5-.5.5.5 0 0 1 .5-.5.5.5 0 0 1 .5.5zm0-4.233a.5.5 0 0 1-.5.5.5.5 0 0 1-.5-.5.5.5 0 0 1 .5-.5.5.5 0 0 1 .5.5zm2.117 0a.5.5 0 0 1-.5.5.5.5 0 0 1-.5-.5.5.5 0 0 1 .5-.5.5.5 0 0 1 .5.5zm0 4.233a.5.5 0 0 1-.5.5.5.5 0 0 1-.5-.5.5.5 0 0 1 .5-.5.5.5 0 0 1 .5.5zm2.116-4.233a.5.5 0 0 1-.5.5.5.5 0 0 1-.5-.5.5.5 0 0 1 .5-.5.5.5 0 0 1 .5.5zm0 4.233a.5.5 0 0 1-.5.5.5.5 0 0 1-.5-.5.5.5 0 0 1 .5-.5.5.5 0 0 1 .5.5zm-10.583 0a.5.5 0 0 1-.5.5.5.5 0 0 1-.5-.5.5.5 0 0 1 .5-.5.5.5 0 0 1 .5.5zm-1.058-2.116a.5.5 0 0 1-.5.5.5.5 0 0 1-.5-.5.5.5 0 0 1 .5-.5.5.5 0 0 1 .5.5zm1.058-2.117a.5.5 0 0 1-.5.5.5.5 0 0 1-.5-.5.5.5 0 0 1 .5-.5.5.5 0 0 1 .5.5zm3.175 2.117a.5.5 0 0 1-.5.5.5.5 0 0 1-.5-.5.5.5 0 0 1 .5-.5.5.5 0 0 1 .5.5zm-13.758 2.116a.5.5 0 0 1-.5.5.5.5 0 0 1-.5-.5.5.5 0 0 1 .5-.5.5.5 0 0 1 .5.5zm-1.059-2.116a.5.5 0 0 1-.5.5.5.5 0 0 1-.5-.5.5.5 0 0 1 .5-.5.5.5 0 0 1 .5.5zm4.234 0a.5.5 0 0 1-.5.5.5.5 0 0 1-.5-.5.5.5 0 0 1 .5-.5.5.5 0 0 1 .5.5zm-3.175-2.117a.5.5 0 0 1-.5.5.5.5 0 0 1-.5-.5.5.5 0 0 1 .5-.5.5.5 0 0 1 .5.5zm2.116 0a.5.5 0 0 1-.5.5.5.5 0 0 1-.5-.5.5.5 0 0 1 .5-.5.5.5 0 0 1 .5.5zm0 4.233a.5.5 0 0 1-.5.5.5.5 0 0 1-.5-.5.5.5 0 0 1 .5-.5.5.5 0 0 1 .5.5zm3.175-2.116a.5.5 0 0 1-.5.5.5.5 0 0 1-.5-.5.5.5 0 0 1 .5-.5.5.5 0 0 1 .5.5zm2.117 0a.5.5 0 0 1-.5.5.5.5 0 0 1-.5-.5.5.5 0 0 1 .5-.5.5.5 0 0 1 .5.5zm-3.175 2.116a.5.5 0 0 1-.5.5.5.5 0 0 1-.5-.5.5.5 0 0 1 .5-.5.5.5 0 0 1 .5.5zm0-4.233a.5.5 0 0 1-.5.5.5.5 0 0 1-.5-.5.5.5 0 0 1 .5-.5.5.5 0 0 1 .5.5zm2.117 0a.5.5 0 0 1-.5.5.5.5 0 0 1-.5-.5.5.5 0 0 1 .5-.5.5.5 0 0 1 .5.5zm0 4.233a.5.5 0 0 1-.5.5.5.5 0 0 1-.5-.5.5.5 0 0 1 .5-.5.5.5 0 0 1 .5.5zm2.116-4.233a.5.5 0 0 1-.5.5.5.5 0 0 1-.5-.5.5.5 0 0 1 .5-.5.5.5 0 0 1 .5.5zm0 4.233a.5.5 0 0 1-.5.5.5.5 0 0 1-.5-.5.5.5 0 0 1 .5-.5.5.5 0 0 1 .5.5zm-10.583 0a.5.5 0 0 1-.5.5.5.5 0 0 1-.5-.5.5.5 0 0 1 .5-.5.5.5 0 0 1 .5.5zm-1.058-2.116a.5.5 0 0 1-.5.5.5.5 0 0 1-.5-.5.5.5 0 0 1 .5-.5.5.5 0 0 1 .5.5zm1.058-2.117a.5.5 0 0 1-.5.5.5.5 0 0 1-.5-.5.5.5 0 0 1 .5-.5.5.5 0 0 1 .5.5zm3.175 2.117a.5.5 0 0 1-.5.5.5.5 0 0 1-.5-.5.5.5 0 0 1 .5-.5.5.5 0 0 1 .5.5zm-13.758 2.116a.5.5 0 0 1-.5.5.5.5 0 0 1-.5-.5.5.5 0 0 1 .5-.5.5.5 0 0 1 .5.5zm-1.059-2.116a.5.5 0 0 1-.5.5.5.5 0 0 1-.5-.5.5.5 0 0 1 .5-.5.5.5 0 0 1 .5.5zm4.234 0a.5.5 0 0 1-.5.5.5.5 0 0 1-.5-.5.5.5 0 0 1 .5-.5.5.5 0 0 1 .5.5zm-15.875 2.116a.5.5 0 0 1-.5.5.5.5 0 0 1-.5-.5.5.5 0 0 1 .5-.5.5.5 0 0 1 .5.5zm-1.059-2.116a.5.5 0 0 1-.5.5.5.5 0 0 1-.5-.5.5.5 0 0 1 .5-.5.5.5 0 0 1 .5.5zm4.234 0a.5.5 0 0 1-.5.5.5.5 0 0 1-.5-.5.5.5 0 0 1 .5-.5.5.5 0 0 1 .5.5zm-3.175-2.117a.5.5 0 0 1-.5.5.5.5 0 0 1-.5-.5.5.5 0 0 1 .5-.5.5.5 0 0 1 .5.5zm2.116 0a.5.5 0 0 1-.5.5.5.5 0 0 1-.5-.5.5.5 0 0 1 .5-.5.5.5 0 0 1 .5.5zm0 4.233a.5.5 0 0 1-.5.5.5.5 0 0 1-.5-.5.5.5 0 0 1 .5-.5.5.5 0 0 1 .5.5zm3.175-2.116a.5.5 0 0 1-.5.5.5.5 0 0 1-.5-.5.5.5 0 0 1 .5-.5.5.5 0 0 1 .5.5zm2.117 0a.5.5 0 0 1-.5.5.5.5 0 0 1-.5-.5.5.5 0 0 1 .5-.5.5.5 0 0 1 .5.5zm-3.175 2.116a.5.5 0 0 1-.5.5.5.5 0 0 1-.5-.5.5.5 0 0 1 .5-.5.5.5 0 0 1 .5.5zm0-4.233a.5.5 0 0 1-.5.5.5.5 0 0 1-.5-.5.5.5 0 0 1 .5-.5.5.5 0 0 1 .5.5zm2.117 0a.5.5 0 0 1-.5.5.5.5 0 0 1-.5-.5.5.5 0 0 1 .5-.5.5.5 0 0 1 .5.5zm0 4.233a.5.5 0 0 1-.5.5.5.5 0 0 1-.5-.5.5.5 0 0 1 .5-.5.5.5 0 0 1 .5.5zm2.116-4.233a.5.5 0 0 1-.5.5.5.5 0 0 1-.5-.5.5.5 0 0 1 .5-.5.5.5 0 0 1 .5.5zm0 4.233a.5.5 0 0 1-.5.5.5.5 0 0 1-.5-.5.5.5 0 0 1 .5-.5.5.5 0 0 1 .5.5zm-10.583 0a.5.5 0 0 1-.5.5.5.5 0 0 1-.5-.5.5.5 0 0 1 .5-.5.5.5 0 0 1 .5.5zm0-4.233a.5.5 0 0 1-.5.5.5.5 0 0 1-.5-.5.5.5 0 0 1 .5-.5.5.5 0 0 1 .5.5zm3.175 2.117a.5.5 0 0 1-.5.5.5.5 0 0 1-.5-.5.5.5 0 0 1 .5-.5.5.5 0 0 1 .5.5zm11.642-2.117a.5.5 0 0 1-.5.5.5.5 0 0 1-.5-.5.5.5 0 0 1 .5-.5.5.5 0 0 1 .5.5zm2.116 0a.5.5 0 0 1-.5.5.5.5 0 0 1-.5-.5.5.5 0 0 1 .5-.5.5.5 0 0 1 .5.5zm0 4.233a.5.5 0 0 1-.5.5.5.5 0 0 1-.5-.5.5.5 0 0 1 .5-.5.5.5 0 0 1 .5.5zm3.175-2.116a.5.5 0 0 1-.5.5.5.5 0 0 1-.5-.5.5.5 0 0 1 .5-.5.5.5 0 0 1 .5.5zm2.117 0a.5.5 0 0 1-.5.5.5.5 0 0 1-.5-.5.5.5 0 0 1 .5-.5.5.5 0 0 1 .5.5zm-3.175 2.116a.5.5 0 0 1-.5.5.5.5 0 0 1-.5-.5.5.5 0 0 1 .5-.5.5.5 0 0 1 .5.5zm0-4.233a.5.5 0 0 1-.5.5.5.5 0 0 1-.5-.5.5.5 0 0 1 .5-.5.5.5 0 0 1 .5.5zm2.117 0a.5.5 0 0 1-.5.5.5.5 0 0 1-.5-.5.5.5 0 0 1 .5-.5.5.5 0 0 1 .5.5zm0 4.233a.5.5 0 0 1-.5.5.5.5 0 0 1-.5-.5.5.5 0 0 1 .5-.5.5.5 0 0 1 .5.5zm2.116-4.233a.5.5 0 0 1-.5.5.5.5 0 0 1-.5-.5.5.5 0 0 1 .5-.5.5.5 0 0 1 .5.5zm0 4.233a.5.5 0 0 1-.5.5.5.5 0 0 1-.5-.5.5.5 0 0 1 .5-.5.5.5 0 0 1 .5.5zm-10.583 0a.5.5 0 0 1-.5.5.5.5 0 0 1-.5-.5.5.5 0 0 1 .5-.5.5.5 0 0 1 .5.5zm-1.058-2.116a.5.5 0 0 1-.5.5.5.5 0 0 1-.5-.5.5.5 0 0 1 .5-.5.5.5 0 0 1 .5.5zm1.058-2.117a.5.5 0 0 1-.5.5.5.5 0 0 1-.5-.5.5.5 0 0 1 .5-.5.5.5 0 0 1 .5.5zm3.175 2.117a.5.5 0 0 1-.5.5.5.5 0 0 1-.5-.5.5.5 0 0 1 .5-.5.5.5 0 0 1 .5.5zm25.4-4.234a.5.5 0 0 1-.5.5.5.5 0 0 1-.5-.5.5.5 0 0 1 .5-.5.5.5 0 0 1 .5.5zm-1.058-2.116a.5.5 0 0 1-.5.5.5.5 0 0 1-.5-.5.5.5 0 0 1 .5-.5.5.5 0 0 1 .5.5zm4.233 0a.5.5 0 0 1-.5.5.5.5 0 0 1-.5-.5.5.5 0 0 1 .5-.5.5.5 0 0 1 .5.5zm-3.175-2.117a.5.5 0 0 1-.5.5.5.5 0 0 1-.5-.5.5.5 0 0 1 .5-.5.5.5 0 0 1 .5.5zm2.117 0a.5.5 0 0 1-.5.5.5.5 0 0 1-.5-.5.5.5 0 0 1 .5-.5.5.5 0 0 1 .5.5zm0 4.233a.5.5 0 0 1-.5.5.5.5 0 0 1-.5-.5.5.5 0 0 1 .5-.5.5.5 0 0 1 .5.5zm3.175-2.116a.5.5 0 0 1-.5.5.5.5 0 0 1-.5-.5.5.5 0 0 1 .5-.5.5.5 0 0 1 .5.5zm2.116 0a.5.5 0 0 1-.5.5.5.5 0 0 1-.5-.5.5.5 0 0 1 .5-.5.5.5 0 0 1 .5.5zm-3.175 2.116a.5.5 0 0 1-.5.5.5.5 0 0 1-.5-.5.5.5 0 0 1 .5-.5.5.5 0 0 1 .5.5zm0-4.233a.5.5 0 0 1-.5.5.5.5 0 0 1-.5-.5.5.5 0 0 1 .5-.5.5.5 0 0 1 .5.5zm2.117 0a.5.5 0 0 1-.5.5.5.5 0 0 1-.5-.5.5.5 0 0 1 .5-.5.5.5 0 0 1 .5.5zm0 4.233a.5.5 0 0 1-.5.5.5.5 0 0 1-.5-.5.5.5 0 0 1 .5-.5.5.5 0 0 1 .5.5zm2.117-4.233a.5.5 0 0 1-.5.5.5.5 0 0 1-.5-.5.5.5 0 0 1 .5-.5.5.5 0 0 1 .5.5zm0 4.233a.5.5 0 0 1-.5.5.5.5 0 0 1-.5-.5.5.5 0 0 1 .5-.5.5.5 0 0 1 .5.5zm-10.584 0a.5.5 0 0 1-.5.5.5.5 0 0 1-.5-.5.5.5 0 0 1 .5-.5.5.5 0 0 1 .5.5zm-1.058-2.116a.5.5 0 0 1-.5.5.5.5 0 0 1-.5-.5.5.5 0 0 1 .5-.5.5.5 0 0 1 .5.5zm1.058-2.117a.5.5 0 0 1-.5.5.5.5 0 0 1-.5-.5.5.5 0 0 1 .5-.5.5.5 0 0 1 .5.5zm3.175 2.117a.5.5 0 0 1-.5.5.5.5 0 0 1-.5-.5.5.5 0 0 1 .5-.5.5.5 0 0 1 .5.5zm-13.758 2.116a.5.5 0 0 1-.5.5.5.5 0 0 1-.5-.5.5.5 0 0 1 .5-.5.5.5 0 0 1 .5.5zm-1.058-2.116a.5.5 0 0 1-.5.5.5.5 0 0 1-.5-.5.5.5 0 0 1 .5-.5.5.5 0 0 1 .5.5zm4.233 0a.5.5 0 0 1-.5.5.5.5 0 0 1-.5-.5.5.5 0 0 1 .5-.5.5.5 0 0 1 .5.5zm-3.175-2.117a.5.5 0 0 1-.5.5.5.5 0 0 1-.5-.5.5.5 0 0 1 .5-.5.5.5 0 0 1 .5.5zm2.117 0a.5.5 0 0 1-.5.5.5.5 0 0 1-.5-.5.5.5 0 0 1 .5-.5.5.5 0 0 1 .5.5zm0 4.233a.5.5 0 0 1-.5.5.5.5 0 0 1-.5-.5.5.5 0 0 1 .5-.5.5.5 0 0 1 .5.5zm3.175-2.116a.5.5 0 0 1-.5.5.5.5 0 0 1-.5-.5.5.5 0 0 1 .5-.5.5.5 0 0 1 .5.5zm2.116 0a.5.5 0 0 1-.5.5.5.5 0 0 1-.5-.5.5.5 0 0 1 .5-.5.5.5 0 0 1 .5.5zm-3.175 2.116a.5.5 0 0 1-.5.5.5.5 0 0 1-.5-.5.5.5 0 0 1 .5-.5.5.5 0 0 1 .5.5zm0-4.233a.5.5 0 0 1-.5.5.5.5 0 0 1-.5-.5.5.5 0 0 1 .5-.5.5.5 0 0 1 .5.5zm2.117 0a.5.5 0 0 1-.5.5.5.5 0 0 1-.5-.5.5.5 0 0 1 .5-.5.5.5 0 0 1 .5.5zm0 4.233a.5.5 0 0 1-.5.5.5.5 0 0 1-.5-.5.5.5 0 0 1 .5-.5.5.5 0 0 1 .5.5zm2.117-4.233a.5.5 0 0 1-.5.5.5.5 0 0 1-.5-.5.5.5 0 0 1 .5-.5.5.5 0 0 1 .5.5zm0 4.233a.5.5 0 0 1-.5.5.5.5 0 0 1-.5-.5.5.5 0 0 1 .5-.5.5.5 0 0 1 .5.5zm-10.584 0a.5.5 0 0 1-.5.5.5.5 0 0 1-.5-.5.5.5 0 0 1 .5-.5.5.5 0 0 1 .5.5zm-1.058-2.116a.5.5 0 0 1-.5.5.5.5 0 0 1-.5-.5.5.5 0 0 1 .5-.5.5.5 0 0 1 .5.5zm1.058-2.117a.5.5 0 0 1-.5.5.5.5 0 0 1-.5-.5.5.5 0 0 1 .5-.5.5.5 0 0 1 .5.5zm3.175 2.117a.5.5 0 0 1-.5.5.5.5 0 0 1-.5-.5.5.5 0 0 1 .5-.5.5.5 0 0 1 .5.5zm-13.758 2.116a.5.5 0 0 1-.5.5.5.5 0 0 1-.5-.5.5.5 0 0 1 .5-.5.5.5 0 0 1 .5.5zm-1.058-2.116a.5.5 0 0 1-.5.5.5.5 0 0 1-.5-.5.5.5 0 0 1 .5-.5.5.5 0 0 1 .5.5zm4.233 0a.5.5 0 0 1-.5.5.5.5 0 0 1-.5-.5.5.5 0 0 1 .5-.5.5.5 0 0 1 .5.5zm-15.875 2.116a.5.5 0 0 1-.5.5.5.5 0 0 1-.5-.5.5.5 0 0 1 .5-.5.5.5 0 0 1 .5.5zm-1.058-2.116a.5.5 0 0 1-.5.5.5.5 0 0 1-.5-.5.5.5 0 0 1 .5-.5.5.5 0 0 1 .5.5zm4.233 0a.5.5 0 0 1-.5.5.5.5 0 0 1-.5-.5.5.5 0 0 1 .5-.5.5.5 0 0 1 .5.5zm-3.175-2.117a.5.5 0 0 1-.5.5.5.5 0 0 1-.5-.5.5.5 0 0 1 .5-.5.5.5 0 0 1 .5.5zm2.117 0a.5.5 0 0 1-.5.5.5.5 0 0 1-.5-.5.5.5 0 0 1 .5-.5.5.5 0 0 1 .5.5zm0 4.233a.5.5 0 0 1-.5.5.5.5 0 0 1-.5-.5.5.5 0 0 1 .5-.5.5.5 0 0 1 .5.5zm3.175-2.116a.5.5 0 0 1-.5.5.5.5 0 0 1-.5-.5.5.5 0 0 1 .5-.5.5.5 0 0 1 .5.5zm2.116 0a.5.5 0 0 1-.5.5.5.5 0 0 1-.5-.5.5.5 0 0 1 .5-.5.5.5 0 0 1 .5.5zm-3.175 2.116a.5.5 0 0 1-.5.5.5.5 0 0 1-.5-.5.5.5 0 0 1 .5-.5.5.5 0 0 1 .5.5zm0-4.233a.5.5 0 0 1-.5.5.5.5 0 0 1-.5-.5.5.5 0 0 1 .5-.5.5.5 0 0 1 .5.5zm2.117 0a.5.5 0 0 1-.5.5.5.5 0 0 1-.5-.5.5.5 0 0 1 .5-.5.5.5 0 0 1 .5.5zm0 4.233a.5.5 0 0 1-.5.5.5.5 0 0 1-.5-.5.5.5 0 0 1 .5-.5.5.5 0 0 1 .5.5zm2.117-4.233a.5.5 0 0 1-.5.5.5.5 0 0 1-.5-.5.5.5 0 0 1 .5-.5.5.5 0 0 1 .5.5zm0 4.233a.5.5 0 0 1-.5.5.5.5 0 0 1-.5-.5.5.5 0 0 1 .5-.5.5.5 0 0 1 .5.5zm-10.584 0a.5.5 0 0 1-.5.5.5.5 0 0 1-.5-.5.5.5 0 0 1 .5-.5.5.5 0 0 1 .5.5zm-1.058-2.116a.5.5 0 0 1-.5.5.5.5 0 0 1-.5-.5.5.5 0 0 1 .5-.5.5.5 0 0 1 .5.5zm1.058-2.117a.5.5 0 0 1-.5.5.5.5 0 0 1-.5-.5.5.5 0 0 1 .5-.5.5.5 0 0 1 .5.5zm3.175 2.117a.5.5 0 0 1-.5.5.5.5 0 0 1-.5-.5.5.5 0 0 1 .5-.5.5.5 0 0 1 .5.5zm11.642-2.117a.5.5 0 0 1-.5.5.5.5 0 0 1-.5-.5.5.5 0 0 1 .5-.5.5.5 0 0 1 .5.5zm2.117 0a.5.5 0 0 1-.5.5.5.5 0 0 1-.5-.5.5.5 0 0 1 .5-.5.5.5 0 0 1 .5.5zm0 4.233a.5.5 0 0 1-.5.5.5.5 0 0 1-.5-.5.5.5 0 0 1 .5-.5.5.5 0 0 1 .5.5zm3.175-2.116a.5.5 0 0 1-.5.5.5.5 0 0 1-.5-.5.5.5 0 0 1 .5-.5.5.5 0 0 1 .5.5zm2.116 0a.5.5 0 0 1-.5.5.5.5 0 0 1-.5-.5.5.5 0 0 1 .5-.5.5.5 0 0 1 .5.5zm-3.175 2.116a.5.5 0 0 1-.5.5.5.5 0 0 1-.5-.5.5.5 0 0 1 .5-.5.5.5 0 0 1 .5.5zm0-4.233a.5.5 0 0 1-.5.5.5.5 0 0 1-.5-.5.5.5 0 0 1 .5-.5.5.5 0 0 1 .5.5zm2.117 0a.5.5 0 0 1-.5.5.5.5 0 0 1-.5-.5.5.5 0 0 1 .5-.5.5.5 0 0 1 .5.5zm0 4.233a.5.5 0 0 1-.5.5.5.5 0 0 1-.5-.5.5.5 0 0 1 .5-.5.5.5 0 0 1 .5.5zm2.117-4.233a.5.5 0 0 1-.5.5.5.5 0 0 1-.5-.5.5.5 0 0 1 .5-.5.5.5 0 0 1 .5.5zm0 4.233a.5.5 0 0 1-.5.5.5.5 0 0 1-.5-.5.5.5 0 0 1 .5-.5.5.5 0 0 1 .5.5zm-10.584 0a.5.5 0 0 1-.5.5.5.5 0 0 1-.5-.5.5.5 0 0 1 .5-.5.5.5 0 0 1 .5.5zm-1.058-2.116a.5.5 0 0 1-.5.5.5.5 0 0 1-.5-.5.5.5 0 0 1 .5-.5.5.5 0 0 1 .5.5zm1.058-2.117a.5.5 0 0 1-.5.5.5.5 0 0 1-.5-.5.5.5 0 0 1 .5-.5.5.5 0 0 1 .5.5zm3.175 2.117a.5.5 0 0 1-.5.5.5.5 0 0 1-.5-.5.5.5 0 0 1 .5-.5.5.5 0 0 1 .5.5zm23.284-4.234a.5.5 0 0 1-.5.5.5.5 0 0 1-.5-.5.5.5 0 0 1 .5-.5.5.5 0 0 1 .5.5zm-1.059-2.116a.5.5 0 0 1-.5.5.5.5 0 0 1-.5-.5.5.5 0 0 1 .5-.5.5.5 0 0 1 .5.5zm4.234 0a.5.5 0 0 1-.5.5.5.5 0 0 1-.5-.5.5.5 0 0 1 .5-.5.5.5 0 0 1 .5.5zm-3.175-2.117a.5.5 0 0 1-.5.5.5.5 0 0 1-.5-.5.5.5 0 0 1 .5-.5.5.5 0 0 1 .5.5zm2.116 0a.5.5 0 0 1-.5.5.5.5 0 0 1-.5-.5.5.5 0 0 1 .5-.5.5.5 0 0 1 .5.5zm0 4.233a.5.5 0 0 1-.5.5.5.5 0 0 1-.5-.5.5.5 0 0 1 .5-.5.5.5 0 0 1 .5.5zm3.175-2.116a.5.5 0 0 1-.5.5.5.5 0 0 1-.5-.5.5.5 0 0 1 .5-.5.5.5 0 0 1 .5.5zm2.117 0a.5.5 0 0 1-.5.5.5.5 0 0 1-.5-.5.5.5 0 0 1 .5-.5.5.5 0 0 1 .5.5zm-3.175 2.116a.5.5 0 0 1-.5.5.5.5 0 0 1-.5-.5.5.5 0 0 1 .5-.5.5.5 0 0 1 .5.5zm0-4.233a.5.5 0 0 1-.5.5.5.5 0 0 1-.5-.5.5.5 0 0 1 .5-.5.5.5 0 0 1 .5.5zm2.117 0a.5.5 0 0 1-.5.5.5.5 0 0 1-.5-.5.5.5 0 0 1 .5-.5.5.5 0 0 1 .5.5zm0 4.233a.5.5 0 0 1-.5.5.5.5 0 0 1-.5-.5.5.5 0 0 1 .5-.5.5.5 0 0 1 .5.5zm2.116-4.233a.5.5 0 0 1-.5.5.5.5 0 0 1-.5-.5.5.5 0 0 1 .5-.5.5.5 0 0 1 .5.5zm0 4.233a.5.5 0 0 1-.5.5.5.5 0 0 1-.5-.5.5.5 0 0 1 .5-.5.5.5 0 0 1 .5.5zm-10.583 0a.5.5 0 0 1-.5.5.5.5 0 0 1-.5-.5.5.5 0 0 1 .5-.5.5.5 0 0 1 .5.5zm-1.058-2.116a.5.5 0 0 1-.5.5.5.5 0 0 1-.5-.5.5.5 0 0 1 .5-.5.5.5 0 0 1 .5.5zm1.058-2.117a.5.5 0 0 1-.5.5.5.5 0 0 1-.5-.5.5.5 0 0 1 .5-.5.5.5 0 0 1 .5.5zm3.175 2.117a.5.5 0 0 1-.5.5.5.5 0 0 1-.5-.5.5.5 0 0 1 .5-.5.5.5 0 0 1 .5.5zm-13.758 2.116a.5.5 0 0 1-.5.5.5.5 0 0 1-.5-.5.5.5 0 0 1 .5-.5.5.5 0 0 1 .5.5zm-1.059-2.116a.5.5 0 0 1-.5.5.5.5 0 0 1-.5-.5.5.5 0 0 1 .5-.5.5.5 0 0 1 .5.5zm4.234 0a.5.5 0 0 1-.5.5.5.5 0 0 1-.5-.5.5.5 0 0 1 .5-.5.5.5 0 0 1 .5.5zm-3.175-2.117a.5.5 0 0 1-.5.5.5.5 0 0 1-.5-.5.5.5 0 0 1 .5-.5.5.5 0 0 1 .5.5zm2.116 0a.5.5 0 0 1-.5.5.5.5 0 0 1-.5-.5.5.5 0 0 1 .5-.5.5.5 0 0 1 .5.5zm0 4.233a.5.5 0 0 1-.5.5.5.5 0 0 1-.5-.5.5.5 0 0 1 .5-.5.5.5 0 0 1 .5.5zm3.175-2.116a.5.5 0 0 1-.5.5.5.5 0 0 1-.5-.5.5.5 0 0 1 .5-.5.5.5 0 0 1 .5.5zm2.117 0a.5.5 0 0 1-.5.5.5.5 0 0 1-.5-.5.5.5 0 0 1 .5-.5.5.5 0 0 1 .5.5zm-3.175 2.116a.5.5 0 0 1-.5.5.5.5 0 0 1-.5-.5.5.5 0 0 1 .5-.5.5.5 0 0 1 .5.5zm0-4.233a.5.5 0 0 1-.5.5.5.5 0 0 1-.5-.5.5.5 0 0 1 .5-.5.5.5 0 0 1 .5.5zm2.117 0a.5.5 0 0 1-.5.5.5.5 0 0 1-.5-.5.5.5 0 0 1 .5-.5.5.5 0 0 1 .5.5zm0 4.233a.5.5 0 0 1-.5.5.5.5 0 0 1-.5-.5.5.5 0 0 1 .5-.5.5.5 0 0 1 .5.5zm2.116-4.233a.5.5 0 0 1-.5.5.5.5 0 0 1-.5-.5.5.5 0 0 1 .5-.5.5.5 0 0 1 .5.5zm0 4.233a.5.5 0 0 1-.5.5.5.5 0 0 1-.5-.5.5.5 0 0 1 .5-.5.5.5 0 0 1 .5.5zm-10.583 0a.5.5 0 0 1-.5.5.5.5 0 0 1-.5-.5.5.5 0 0 1 .5-.5.5.5 0 0 1 .5.5zm-1.058-2.116a.5.5 0 0 1-.5.5.5.5 0 0 1-.5-.5.5.5 0 0 1 .5-.5.5.5 0 0 1 .5.5zm1.058-2.117a.5.5 0 0 1-.5.5.5.5 0 0 1-.5-.5.5.5 0 0 1 .5-.5.5.5 0 0 1 .5.5zm3.175 2.117a.5.5 0 0 1-.5.5.5.5 0 0 1-.5-.5.5.5 0 0 1 .5-.5.5.5 0 0 1 .5.5zm-13.758 2.116a.5.5 0 0 1-.5.5.5.5 0 0 1-.5-.5.5.5 0 0 1 .5-.5.5.5 0 0 1 .5.5zm-1.059-2.116a.5.5 0 0 1-.5.5.5.5 0 0 1-.5-.5.5.5 0 0 1 .5-.5.5.5 0 0 1 .5.5zm4.234 0a.5.5 0 0 1-.5.5.5.5 0 0 1-.5-.5.5.5 0 0 1 .5-.5.5.5 0 0 1 .5.5zm-15.875 2.116a.5.5 0 0 1-.5.5.5.5 0 0 1-.5-.5.5.5 0 0 1 .5-.5.5.5 0 0 1 .5.5zm-1.059-2.116a.5.5 0 0 1-.5.5.5.5 0 0 1-.5-.5.5.5 0 0 1 .5-.5.5.5 0 0 1 .5.5zm4.234 0a.5.5 0 0 1-.5.5.5.5 0 0 1-.5-.5.5.5 0 0 1 .5-.5.5.5 0 0 1 .5.5zm-3.175-2.117a.5.5 0 0 1-.5.5.5.5 0 0 1-.5-.5.5.5 0 0 1 .5-.5.5.5 0 0 1 .5.5zm2.116 0a.5.5 0 0 1-.5.5.5.5 0 0 1-.5-.5.5.5 0 0 1 .5-.5.5.5 0 0 1 .5.5zm0 4.233a.5.5 0 0 1-.5.5.5.5 0 0 1-.5-.5.5.5 0 0 1 .5-.5.5.5 0 0 1 .5.5zm3.175-2.116a.5.5 0 0 1-.5.5.5.5 0 0 1-.5-.5.5.5 0 0 1 .5-.5.5.5 0 0 1 .5.5zm2.117 0a.5.5 0 0 1-.5.5.5.5 0 0 1-.5-.5.5.5 0 0 1 .5-.5.5.5 0 0 1 .5.5zm-3.175 2.116a.5.5 0 0 1-.5.5.5.5 0 0 1-.5-.5.5.5 0 0 1 .5-.5.5.5 0 0 1 .5.5zm0-4.233a.5.5 0 0 1-.5.5.5.5 0 0 1-.5-.5.5.5 0 0 1 .5-.5.5.5 0 0 1 .5.5zm2.117 0a.5.5 0 0 1-.5.5.5.5 0 0 1-.5-.5.5.5 0 0 1 .5-.5.5.5 0 0 1 .5.5zm0 4.233a.5.5 0 0 1-.5.5.5.5 0 0 1-.5-.5.5.5 0 0 1 .5-.5.5.5 0 0 1 .5.5zm2.116-4.233a.5.5 0 0 1-.5.5.5.5 0 0 1-.5-.5.5.5 0 0 1 .5-.5.5.5 0 0 1 .5.5zm0 4.233a.5.5 0 0 1-.5.5.5.5 0 0 1-.5-.5.5.5 0 0 1 .5-.5.5.5 0 0 1 .5.5zm-10.583 0a.5.5 0 0 1-.5.5.5.5 0 0 1-.5-.5.5.5 0 0 1 .5-.5.5.5 0 0 1 .5.5zm0-4.233a.5.5 0 0 1-.5.5.5.5 0 0 1-.5-.5.5.5 0 0 1 .5-.5.5.5 0 0 1 .5.5zm3.175 2.117a.5.5 0 0 1-.5.5.5.5 0 0 1-.5-.5.5.5 0 0 1 .5-.5.5.5 0 0 1 .5.5zm11.642-2.117a.5.5 0 0 1-.5.5.5.5 0 0 1-.5-.5.5.5 0 0 1 .5-.5.5.5 0 0 1 .5.5zm2.116 0a.5.5 0 0 1-.5.5.5.5 0 0 1-.5-.5.5.5 0 0 1 .5-.5.5.5 0 0 1 .5.5zm0 4.233a.5.5 0 0 1-.5.5.5.5 0 0 1-.5-.5.5.5 0 0 1 .5-.5.5.5 0 0 1 .5.5zm3.175-2.116a.5.5 0 0 1-.5.5.5.5 0 0 1-.5-.5.5.5 0 0 1 .5-.5.5.5 0 0 1 .5.5zm2.117 0a.5.5 0 0 1-.5.5.5.5 0 0 1-.5-.5.5.5 0 0 1 .5-.5.5.5 0 0 1 .5.5zm-3.175 2.116a.5.5 0 0 1-.5.5.5.5 0 0 1-.5-.5.5.5 0 0 1 .5-.5.5.5 0 0 1 .5.5zm0-4.233a.5.5 0 0 1-.5.5.5.5 0 0 1-.5-.5.5.5 0 0 1 .5-.5.5.5 0 0 1 .5.5zm2.117 0a.5.5 0 0 1-.5.5.5.5 0 0 1-.5-.5.5.5 0 0 1 .5-.5.5.5 0 0 1 .5.5zm0 4.233a.5.5 0 0 1-.5.5.5.5 0 0 1-.5-.5.5.5 0 0 1 .5-.5.5.5 0 0 1 .5.5zm2.116-4.233a.5.5 0 0 1-.5.5.5.5 0 0 1-.5-.5.5.5 0 0 1 .5-.5.5.5 0 0 1 .5.5zm0 4.233a.5.5 0 0 1-.5.5.5.5 0 0 1-.5-.5.5.5 0 0 1 .5-.5.5.5 0 0 1 .5.5zm-10.583 0a.5.5 0 0 1-.5.5.5.5 0 0 1-.5-.5.5.5 0 0 1 .5-.5.5.5 0 0 1 .5.5zm-1.058-2.116a.5.5 0 0 1-.5.5.5.5 0 0 1-.5-.5.5.5 0 0 1 .5-.5.5.5 0 0 1 .5.5zm1.058-2.117a.5.5 0 0 1-.5.5.5.5 0 0 1-.5-.5.5.5 0 0 1 .5-.5.5.5 0 0 1 .5.5zm3.175 2.117a.5.5 0 0 1-.5.5.5.5 0 0 1-.5-.5.5.5 0 0 1 .5-.5.5.5 0 0 1 .5.5zm25.4-4.234a.5.5 0 0 1-.5.5.5.5 0 0 1-.5-.5.5.5 0 0 1 .5-.5.5.5 0 0 1 .5.5zm-1.058-2.116a.5.5 0 0 1-.5.5.5.5 0 0 1-.5-.5.5.5 0 0 1 .5-.5.5.5 0 0 1 .5.5zm4.233 0a.5.5 0 0 1-.5.5.5.5 0 0 1-.5-.5.5.5 0 0 1 .5-.5.5.5 0 0 1 .5.5zm-3.175-2.117a.5.5 0 0 1-.5.5.5.5 0 0 1-.5-.5.5.5 0 0 1 .5-.5.5.5 0 0 1 .5.5zm2.117 0a.5.5 0 0 1-.5.5.5.5 0 0 1-.5-.5.5.5 0 0 1 .5-.5.5.5 0 0 1 .5.5zm0 4.233a.5.5 0 0 1-.5.5.5.5 0 0 1-.5-.5.5.5 0 0 1 .5-.5.5.5 0 0 1 .5.5zm3.175-2.116a.5.5 0 0 1-.5.5.5.5 0 0 1-.5-.5.5.5 0 0 1 .5-.5.5.5 0 0 1 .5.5zm2.116 0a.5.5 0 0 1-.5.5.5.5 0 0 1-.5-.5.5.5 0 0 1 .5-.5.5.5 0 0 1 .5.5zm-3.175 2.116a.5.5 0 0 1-.5.5.5.5 0 0 1-.5-.5.5.5 0 0 1 .5-.5.5.5 0 0 1 .5.5zm0-4.233a.5.5 0 0 1-.5.5.5.5 0 0 1-.5-.5.5.5 0 0 1 .5-.5.5.5 0 0 1 .5.5zm2.117 0a.5.5 0 0 1-.5.5.5.5 0 0 1-.5-.5.5.5 0 0 1 .5-.5.5.5 0 0 1 .5.5zm0 4.233a.5.5 0 0 1-.5.5.5.5 0 0 1-.5-.5.5.5 0 0 1 .5-.5.5.5 0 0 1 .5.5zm2.117-4.233a.5.5 0 0 1-.5.5.5.5 0 0 1-.5-.5.5.5 0 0 1 .5-.5.5.5 0 0 1 .5.5zm0 4.233a.5.5 0 0 1-.5.5.5.5 0 0 1-.5-.5.5.5 0 0 1 .5-.5.5.5 0 0 1 .5.5zm-10.584 0a.5.5 0 0 1-.5.5.5.5 0 0 1-.5-.5.5.5 0 0 1 .5-.5.5.5 0 0 1 .5.5zm-1.058-2.116a.5.5 0 0 1-.5.5.5.5 0 0 1-.5-.5.5.5 0 0 1 .5-.5.5.5 0 0 1 .5.5zm1.058-2.117a.5.5 0 0 1-.5.5.5.5 0 0 1-.5-.5.5.5 0 0 1 .5-.5.5.5 0 0 1 .5.5zm3.175 2.117a.5.5 0 0 1-.5.5.5.5 0 0 1-.5-.5.5.5 0 0 1 .5-.5.5.5 0 0 1 .5.5zm-13.758 2.116a.5.5 0 0 1-.5.5.5.5 0 0 1-.5-.5.5.5 0 0 1 .5-.5.5.5 0 0 1 .5.5zm-1.058-2.116a.5.5 0 0 1-.5.5.5.5 0 0 1-.5-.5.5.5 0 0 1 .5-.5.5.5 0 0 1 .5.5zm4.233 0a.5.5 0 0 1-.5.5.5.5 0 0 1-.5-.5.5.5 0 0 1 .5-.5.5.5 0 0 1 .5.5zm-3.175-2.117a.5.5 0 0 1-.5.5.5.5 0 0 1-.5-.5.5.5 0 0 1 .5-.5.5.5 0 0 1 .5.5zm2.117 0a.5.5 0 0 1-.5.5.5.5 0 0 1-.5-.5.5.5 0 0 1 .5-.5.5.5 0 0 1 .5.5zm0 4.233a.5.5 0 0 1-.5.5.5.5 0 0 1-.5-.5.5.5 0 0 1 .5-.5.5.5 0 0 1 .5.5zm3.175-2.116a.5.5 0 0 1-.5.5.5.5 0 0 1-.5-.5.5.5 0 0 1 .5-.5.5.5 0 0 1 .5.5zm2.116 0a.5.5 0 0 1-.5.5.5.5 0 0 1-.5-.5.5.5 0 0 1 .5-.5.5.5 0 0 1 .5.5zm-3.175 2.116a.5.5 0 0 1-.5.5.5.5 0 0 1-.5-.5.5.5 0 0 1 .5-.5.5.5 0 0 1 .5.5zm0-4.233a.5.5 0 0 1-.5.5.5.5 0 0 1-.5-.5.5.5 0 0 1 .5-.5.5.5 0 0 1 .5.5zm2.117 0a.5.5 0 0 1-.5.5.5.5 0 0 1-.5-.5.5.5 0 0 1 .5-.5.5.5 0 0 1 .5.5zm0 4.233a.5.5 0 0 1-.5.5.5.5 0 0 1-.5-.5.5.5 0 0 1 .5-.5.5.5 0 0 1 .5.5zm2.117-4.233a.5.5 0 0 1-.5.5.5.5 0 0 1-.5-.5.5.5 0 0 1 .5-.5.5.5 0 0 1 .5.5zm0 4.233a.5.5 0 0 1-.5.5.5.5 0 0 1-.5-.5.5.5 0 0 1 .5-.5.5.5 0 0 1 .5.5zm-10.584 0a.5.5 0 0 1-.5.5.5.5 0 0 1-.5-.5.5.5 0 0 1 .5-.5.5.5 0 0 1 .5.5zm-1.058-2.116a.5.5 0 0 1-.5.5.5.5 0 0 1-.5-.5.5.5 0 0 1 .5-.5.5.5 0 0 1 .5.5zm1.058-2.117a.5.5 0 0 1-.5.5.5.5 0 0 1-.5-.5.5.5 0 0 1 .5-.5.5.5 0 0 1 .5.5zm3.175 2.117a.5.5 0 0 1-.5.5.5.5 0 0 1-.5-.5.5.5 0 0 1 .5-.5.5.5 0 0 1 .5.5zm-13.758 2.116a.5.5 0 0 1-.5.5.5.5 0 0 1-.5-.5.5.5 0 0 1 .5-.5.5.5 0 0 1 .5.5zm-1.058-2.116a.5.5 0 0 1-.5.5.5.5 0 0 1-.5-.5.5.5 0 0 1 .5-.5.5.5 0 0 1 .5.5zm4.233 0a.5.5 0 0 1-.5.5.5.5 0 0 1-.5-.5.5.5 0 0 1 .5-.5.5.5 0 0 1 .5.5zm-15.875 2.116a.5.5 0 0 1-.5.5.5.5 0 0 1-.5-.5.5.5 0 0 1 .5-.5.5.5 0 0 1 .5.5zm-1.058-2.116a.5.5 0 0 1-.5.5.5.5 0 0 1-.5-.5.5.5 0 0 1 .5-.5.5.5 0 0 1 .5.5zm4.233 0a.5.5 0 0 1-.5.5.5.5 0 0 1-.5-.5.5.5 0 0 1 .5-.5.5.5 0 0 1 .5.5zm-3.175-2.117a.5.5 0 0 1-.5.5.5.5 0 0 1-.5-.5.5.5 0 0 1 .5-.5.5.5 0 0 1 .5.5zm2.117 0a.5.5 0 0 1-.5.5.5.5 0 0 1-.5-.5.5.5 0 0 1 .5-.5.5.5 0 0 1 .5.5zm0 4.233a.5.5 0 0 1-.5.5.5.5 0 0 1-.5-.5.5.5 0 0 1 .5-.5.5.5 0 0 1 .5.5zm3.175-2.116a.5.5 0 0 1-.5.5.5.5 0 0 1-.5-.5.5.5 0 0 1 .5-.5.5.5 0 0 1 .5.5zm2.116 0a.5.5 0 0 1-.5.5.5.5 0 0 1-.5-.5.5.5 0 0 1 .5-.5.5.5 0 0 1 .5.5zm-3.175 2.116a.5.5 0 0 1-.5.5.5.5 0 0 1-.5-.5.5.5 0 0 1 .5-.5.5.5 0 0 1 .5.5zm0-4.233a.5.5 0 0 1-.5.5.5.5 0 0 1-.5-.5.5.5 0 0 1 .5-.5.5.5 0 0 1 .5.5zm2.117 0a.5.5 0 0 1-.5.5.5.5 0 0 1-.5-.5.5.5 0 0 1 .5-.5.5.5 0 0 1 .5.5zm0 4.233a.5.5 0 0 1-.5.5.5.5 0 0 1-.5-.5.5.5 0 0 1 .5-.5.5.5 0 0 1 .5.5zm2.117-4.233a.5.5 0 0 1-.5.5.5.5 0 0 1-.5-.5.5.5 0 0 1 .5-.5.5.5 0 0 1 .5.5zm0 4.233a.5.5 0 0 1-.5.5.5.5 0 0 1-.5-.5.5.5 0 0 1 .5-.5.5.5 0 0 1 .5.5zm-10.584 0a.5.5 0 0 1-.5.5.5.5 0 0 1-.5-.5.5.5 0 0 1 .5-.5.5.5 0 0 1 .5.5zm-1.058-2.116a.5.5 0 0 1-.5.5.5.5 0 0 1-.5-.5.5.5 0 0 1 .5-.5.5.5 0 0 1 .5.5zm1.058-2.117a.5.5 0 0 1-.5.5.5.5 0 0 1-.5-.5.5.5 0 0 1 .5-.5.5.5 0 0 1 .5.5zm3.175 2.117a.5.5 0 0 1-.5.5.5.5 0 0 1-.5-.5.5.5 0 0 1 .5-.5.5.5 0 0 1 .5.5zm11.642-2.117a.5.5 0 0 1-.5.5.5.5 0 0 1-.5-.5.5.5 0 0 1 .5-.5.5.5 0 0 1 .5.5zm2.117 0a.5.5 0 0 1-.5.5.5.5 0 0 1-.5-.5.5.5 0 0 1 .5-.5.5.5 0 0 1 .5.5zm0 4.233a.5.5 0 0 1-.5.5.5.5 0 0 1-.5-.5.5.5 0 0 1 .5-.5.5.5 0 0 1 .5.5zm3.175-2.116a.5.5 0 0 1-.5.5.5.5 0 0 1-.5-.5.5.5 0 0 1 .5-.5.5.5 0 0 1 .5.5zm2.116 0a.5.5 0 0 1-.5.5.5.5 0 0 1-.5-.5.5.5 0 0 1 .5-.5.5.5 0 0 1 .5.5zm-3.175 2.116a.5.5 0 0 1-.5.5.5.5 0 0 1-.5-.5.5.5 0 0 1 .5-.5.5.5 0 0 1 .5.5zm0-4.233a.5.5 0 0 1-.5.5.5.5 0 0 1-.5-.5.5.5 0 0 1 .5-.5.5.5 0 0 1 .5.5zm2.117 0a.5.5 0 0 1-.5.5.5.5 0 0 1-.5-.5.5.5 0 0 1 .5-.5.5.5 0 0 1 .5.5zm0 4.233a.5.5 0 0 1-.5.5.5.5 0 0 1-.5-.5.5.5 0 0 1 .5-.5.5.5 0 0 1 .5.5zm2.117-4.233a.5.5 0 0 1-.5.5.5.5 0 0 1-.5-.5.5.5 0 0 1 .5-.5.5.5 0 0 1 .5.5zm0 4.233a.5.5 0 0 1-.5.5.5.5 0 0 1-.5-.5.5.5 0 0 1 .5-.5.5.5 0 0 1 .5.5zm-10.584 0a.5.5 0 0 1-.5.5.5.5 0 0 1-.5-.5.5.5 0 0 1 .5-.5.5.5 0 0 1 .5.5zm-1.058-2.116a.5.5 0 0 1-.5.5.5.5 0 0 1-.5-.5.5.5 0 0 1 .5-.5.5.5 0 0 1 .5.5zm1.058-2.117a.5.5 0 0 1-.5.5.5.5 0 0 1-.5-.5.5.5 0 0 1 .5-.5.5.5 0 0 1 .5.5zm3.175 2.117a.5.5 0 0 1-.5.5.5.5 0 0 1-.5-.5.5.5 0 0 1 .5-.5.5.5 0 0 1 .5.5zm23.284 46.567a.5.5 0 0 1-.5.5.5.5 0 0 1-.5-.5.5.5 0 0 1 .5-.5.5.5 0 0 1 .5.5zm-1.059-2.117a.5.5 0 0 1-.5.5.5.5 0 0 1-.5-.5.5.5 0 0 1 .5-.5.5.5 0 0 1 .5.5zm4.234 0a.5.5 0 0 1-.5.5.5.5 0 0 1-.5-.5.5.5 0 0 1 .5-.5.5.5 0 0 1 .5.5zm-3.175-2.117a.5.5 0 0 1-.5.5.5.5 0 0 1-.5-.5.5.5 0 0 1 .5-.5.5.5 0 0 1 .5.5zm2.116 0a.5.5 0 0 1-.5.5.5.5 0 0 1-.5-.5.5.5 0 0 1 .5-.5.5.5 0 0 1 .5.5zm0 4.234a.5.5 0 0 1-.5.5.5.5 0 0 1-.5-.5.5.5 0 0 1 .5-.5.5.5 0 0 1 .5.5zm3.175-2.117a.5.5 0 0 1-.5.5.5.5 0 0 1-.5-.5.5.5 0 0 1 .5-.5.5.5 0 0 1 .5.5zm2.117 0a.5.5 0 0 1-.5.5.5.5 0 0 1-.5-.5.5.5 0 0 1 .5-.5.5.5 0 0 1 .5.5zm-3.175 2.117a.5.5 0 0 1-.5.5.5.5 0 0 1-.5-.5.5.5 0 0 1 .5-.5.5.5 0 0 1 .5.5zm0-4.234a.5.5 0 0 1-.5.5.5.5 0 0 1-.5-.5.5.5 0 0 1 .5-.5.5.5 0 0 1 .5.5zm2.117 0a.5.5 0 0 1-.5.5.5.5 0 0 1-.5-.5.5.5 0 0 1 .5-.5.5.5 0 0 1 .5.5zm0 4.234a.5.5 0 0 1-.5.5.5.5 0 0 1-.5-.5.5.5 0 0 1 .5-.5.5.5 0 0 1 .5.5zm2.116-4.234a.5.5 0 0 1-.5.5.5.5 0 0 1-.5-.5.5.5 0 0 1 .5-.5.5.5 0 0 1 .5.5zm0 4.234a.5.5 0 0 1-.5.5.5.5 0 0 1-.5-.5.5.5 0 0 1 .5-.5.5.5 0 0 1 .5.5zm-10.583 0a.5.5 0 0 1-.5.5.5.5 0 0 1-.5-.5.5.5 0 0 1 .5-.5.5.5 0 0 1 .5.5zm-1.058-2.117a.5.5 0 0 1-.5.5.5.5 0 0 1-.5-.5.5.5 0 0 1 .5-.5.5.5 0 0 1 .5.5zm1.058-2.117a.5.5 0 0 1-.5.5.5.5 0 0 1-.5-.5.5.5 0 0 1 .5-.5.5.5 0 0 1 .5.5zm3.175 2.117a.5.5 0 0 1-.5.5.5.5 0 0 1-.5-.5.5.5 0 0 1 .5-.5.5.5 0 0 1 .5.5zm-13.758 2.117a.5.5 0 0 1-.5.5.5.5 0 0 1-.5-.5.5.5 0 0 1 .5-.5.5.5 0 0 1 .5.5zm-1.059-2.117a.5.5 0 0 1-.5.5.5.5 0 0 1-.5-.5.5.5 0 0 1 .5-.5.5.5 0 0 1 .5.5zm4.234 0a.5.5 0 0 1-.5.5.5.5 0 0 1-.5-.5.5.5 0 0 1 .5-.5.5.5 0 0 1 .5.5zm-3.175-2.117a.5.5 0 0 1-.5.5.5.5 0 0 1-.5-.5.5.5 0 0 1 .5-.5.5.5 0 0 1 .5.5zm2.116 0a.5.5 0 0 1-.5.5.5.5 0 0 1-.5-.5.5.5 0 0 1 .5-.5.5.5 0 0 1 .5.5zm0 4.234a.5.5 0 0 1-.5.5.5.5 0 0 1-.5-.5.5.5 0 0 1 .5-.5.5.5 0 0 1 .5.5zm3.175-2.117a.5.5 0 0 1-.5.5.5.5 0 0 1-.5-.5.5.5 0 0 1 .5-.5.5.5 0 0 1 .5.5zm2.117 0a.5.5 0 0 1-.5.5.5.5 0 0 1-.5-.5.5.5 0 0 1 .5-.5.5.5 0 0 1 .5.5zm-3.175 2.117a.5.5 0 0 1-.5.5.5.5 0 0 1-.5-.5.5.5 0 0 1 .5-.5.5.5 0 0 1 .5.5zm0-4.234a.5.5 0 0 1-.5.5.5.5 0 0 1-.5-.5.5.5 0 0 1 .5-.5.5.5 0 0 1 .5.5zm2.117 0a.5.5 0 0 1-.5.5.5.5 0 0 1-.5-.5.5.5 0 0 1 .5-.5.5.5 0 0 1 .5.5zm0 4.234a.5.5 0 0 1-.5.5.5.5 0 0 1-.5-.5.5.5 0 0 1 .5-.5.5.5 0 0 1 .5.5zm2.116-4.234a.5.5 0 0 1-.5.5.5.5 0 0 1-.5-.5.5.5 0 0 1 .5-.5.5.5 0 0 1 .5.5zm0 4.234a.5.5 0 0 1-.5.5.5.5 0 0 1-.5-.5.5.5 0 0 1 .5-.5.5.5 0 0 1 .5.5zm-10.583 0a.5.5 0 0 1-.5.5.5.5 0 0 1-.5-.5.5.5 0 0 1 .5-.5.5.5 0 0 1 .5.5zm-1.058-2.117a.5.5 0 0 1-.5.5.5.5 0 0 1-.5-.5.5.5 0 0 1 .5-.5.5.5 0 0 1 .5.5zm1.058-2.117a.5.5 0 0 1-.5.5.5.5 0 0 1-.5-.5.5.5 0 0 1 .5-.5.5.5 0 0 1 .5.5zm3.175 2.117a.5.5 0 0 1-.5.5.5.5 0 0 1-.5-.5.5.5 0 0 1 .5-.5.5.5 0 0 1 .5.5zm-13.758 2.117a.5.5 0 0 1-.5.5.5.5 0 0 1-.5-.5.5.5 0 0 1 .5-.5.5.5 0 0 1 .5.5zm-1.059-2.117a.5.5 0 0 1-.5.5.5.5 0 0 1-.5-.5.5.5 0 0 1 .5-.5.5.5 0 0 1 .5.5zm4.234 0a.5.5 0 0 1-.5.5.5.5 0 0 1-.5-.5.5.5 0 0 1 .5-.5.5.5 0 0 1 .5.5zm-15.875 2.117a.5.5 0 0 1-.5.5.5.5 0 0 1-.5-.5.5.5 0 0 1 .5-.5.5.5 0 0 1 .5.5zm-1.059-2.117a.5.5 0 0 1-.5.5.5.5 0 0 1-.5-.5.5.5 0 0 1 .5-.5.5.5 0 0 1 .5.5zm4.234 0a.5.5 0 0 1-.5.5.5.5 0 0 1-.5-.5.5.5 0 0 1 .5-.5.5.5 0 0 1 .5.5zm-3.175-2.117a.5.5 0 0 1-.5.5.5.5 0 0 1-.5-.5.5.5 0 0 1 .5-.5.5.5 0 0 1 .5.5zm2.116 0a.5.5 0 0 1-.5.5.5.5 0 0 1-.5-.5.5.5 0 0 1 .5-.5.5.5 0 0 1 .5.5zm0 4.234a.5.5 0 0 1-.5.5.5.5 0 0 1-.5-.5.5.5 0 0 1 .5-.5.5.5 0 0 1 .5.5zm3.175-2.117a.5.5 0 0 1-.5.5.5.5 0 0 1-.5-.5.5.5 0 0 1 .5-.5.5.5 0 0 1 .5.5zm2.117 0a.5.5 0 0 1-.5.5.5.5 0 0 1-.5-.5.5.5 0 0 1 .5-.5.5.5 0 0 1 .5.5zm-3.175 2.117a.5.5 0 0 1-.5.5.5.5 0 0 1-.5-.5.5.5 0 0 1 .5-.5.5.5 0 0 1 .5.5zm0-4.234a.5.5 0 0 1-.5.5.5.5 0 0 1-.5-.5.5.5 0 0 1 .5-.5.5.5 0 0 1 .5.5zm2.117 0a.5.5 0 0 1-.5.5.5.5 0 0 1-.5-.5.5.5 0 0 1 .5-.5.5.5 0 0 1 .5.5zm0 4.234a.5.5 0 0 1-.5.5.5.5 0 0 1-.5-.5.5.5 0 0 1 .5-.5.5.5 0 0 1 .5.5zm2.116-4.234a.5.5 0 0 1-.5.5.5.5 0 0 1-.5-.5.5.5 0 0 1 .5-.5.5.5 0 0 1 .5.5zm0 4.234a.5.5 0 0 1-.5.5.5.5 0 0 1-.5-.5.5.5 0 0 1 .5-.5.5.5 0 0 1 .5.5zm-10.583 0a.5.5 0 0 1-.5.5.5.5 0 0 1-.5-.5.5.5 0 0 1 .5-.5.5.5 0 0 1 .5.5zm0-4.234a.5.5 0 0 1-.5.5.5.5 0 0 1-.5-.5.5.5 0 0 1 .5-.5.5.5 0 0 1 .5.5zm3.175 2.117a.5.5 0 0 1-.5.5.5.5 0 0 1-.5-.5.5.5 0 0 1 .5-.5.5.5 0 0 1 .5.5zm11.642-2.117a.5.5 0 0 1-.5.5.5.5 0 0 1-.5-.5.5.5 0 0 1 .5-.5.5.5 0 0 1 .5.5zm2.116 0a.5.5 0 0 1-.5.5.5.5 0 0 1-.5-.5.5.5 0 0 1 .5-.5.5.5 0 0 1 .5.5zm0 4.234a.5.5 0 0 1-.5.5.5.5 0 0 1-.5-.5.5.5 0 0 1 .5-.5.5.5 0 0 1 .5.5zm3.175-2.117a.5.5 0 0 1-.5.5.5.5 0 0 1-.5-.5.5.5 0 0 1 .5-.5.5.5 0 0 1 .5.5zm2.117 0a.5.5 0 0 1-.5.5.5.5 0 0 1-.5-.5.5.5 0 0 1 .5-.5.5.5 0 0 1 .5.5zm-3.175 2.117a.5.5 0 0 1-.5.5.5.5 0 0 1-.5-.5.5.5 0 0 1 .5-.5.5.5 0 0 1 .5.5zm0-4.234a.5.5 0 0 1-.5.5.5.5 0 0 1-.5-.5.5.5 0 0 1 .5-.5.5.5 0 0 1 .5.5zm2.117 0a.5.5 0 0 1-.5.5.5.5 0 0 1-.5-.5.5.5 0 0 1 .5-.5.5.5 0 0 1 .5.5zm0 4.234a.5.5 0 0 1-.5.5.5.5 0 0 1-.5-.5.5.5 0 0 1 .5-.5.5.5 0 0 1 .5.5zm2.116-4.234a.5.5 0 0 1-.5.5.5.5 0 0 1-.5-.5.5.5 0 0 1 .5-.5.5.5 0 0 1 .5.5zm0 4.234a.5.5 0 0 1-.5.5.5.5 0 0 1-.5-.5.5.5 0 0 1 .5-.5.5.5 0 0 1 .5.5zm-10.583 0a.5.5 0 0 1-.5.5.5.5 0 0 1-.5-.5.5.5 0 0 1 .5-.5.5.5 0 0 1 .5.5zm-1.058-2.117a.5.5 0 0 1-.5.5.5.5 0 0 1-.5-.5.5.5 0 0 1 .5-.5.5.5 0 0 1 .5.5zm1.058-2.117a.5.5 0 0 1-.5.5.5.5 0 0 1-.5-.5.5.5 0 0 1 .5-.5.5.5 0 0 1 .5.5zm3.175 2.117a.5.5 0 0 1-.5.5.5.5 0 0 1-.5-.5.5.5 0 0 1 .5-.5.5.5 0 0 1 .5.5zm25.4-4.234a.5.5 0 0 1-.5.5.5.5 0 0 1-.5-.5.5.5 0 0 1 .5-.5.5.5 0 0 1 .5.5zm-1.058-2.116a.5.5 0 0 1-.5.5.5.5 0 0 1-.5-.5.5.5 0 0 1 .5-.5.5.5 0 0 1 .5.5zm4.233 0a.5.5 0 0 1-.5.5.5.5 0 0 1-.5-.5.5.5 0 0 1 .5-.5.5.5 0 0 1 .5.5zm-3.175-2.117a.5.5 0 0 1-.5.5.5.5 0 0 1-.5-.5.5.5 0 0 1 .5-.5.5.5 0 0 1 .5.5zm2.117 0a.5.5 0 0 1-.5.5.5.5 0 0 1-.5-.5.5.5 0 0 1 .5-.5.5.5 0 0 1 .5.5zm0 4.233a.5.5 0 0 1-.5.5.5.5 0 0 1-.5-.5.5.5 0 0 1 .5-.5.5.5 0 0 1 .5.5zm3.175-2.116a.5.5 0 0 1-.5.5.5.5 0 0 1-.5-.5.5.5 0 0 1 .5-.5.5.5 0 0 1 .5.5zm2.116 0a.5.5 0 0 1-.5.5.5.5 0 0 1-.5-.5.5.5 0 0 1 .5-.5.5.5 0 0 1 .5.5zm-3.175 2.116a.5.5 0 0 1-.5.5.5.5 0 0 1-.5-.5.5.5 0 0 1 .5-.5.5.5 0 0 1 .5.5zm0-4.233a.5.5 0 0 1-.5.5.5.5 0 0 1-.5-.5.5.5 0 0 1 .5-.5.5.5 0 0 1 .5.5zm2.117 0a.5.5 0 0 1-.5.5.5.5 0 0 1-.5-.5.5.5 0 0 1 .5-.5.5.5 0 0 1 .5.5zm0 4.233a.5.5 0 0 1-.5.5.5.5 0 0 1-.5-.5.5.5 0 0 1 .5-.5.5.5 0 0 1 .5.5zm2.117-4.233a.5.5 0 0 1-.5.5.5.5 0 0 1-.5-.5.5.5 0 0 1 .5-.5.5.5 0 0 1 .5.5zm0 4.233a.5.5 0 0 1-.5.5.5.5 0 0 1-.5-.5.5.5 0 0 1 .5-.5.5.5 0 0 1 .5.5zm-10.584 0a.5.5 0 0 1-.5.5.5.5 0 0 1-.5-.5.5.5 0 0 1 .5-.5.5.5 0 0 1 .5.5zm-1.058-2.116a.5.5 0 0 1-.5.5.5.5 0 0 1-.5-.5.5.5 0 0 1 .5-.5.5.5 0 0 1 .5.5zm1.058-2.117a.5.5 0 0 1-.5.5.5.5 0 0 1-.5-.5.5.5 0 0 1 .5-.5.5.5 0 0 1 .5.5zm3.175 2.117a.5.5 0 0 1-.5.5.5.5 0 0 1-.5-.5.5.5 0 0 1 .5-.5.5.5 0 0 1 .5.5zm-13.758 2.116a.5.5 0 0 1-.5.5.5.5 0 0 1-.5-.5.5.5 0 0 1 .5-.5.5.5 0 0 1 .5.5zm-1.058-2.116a.5.5 0 0 1-.5.5.5.5 0 0 1-.5-.5.5.5 0 0 1 .5-.5.5.5 0 0 1 .5.5zm4.233 0a.5.5 0 0 1-.5.5.5.5 0 0 1-.5-.5.5.5 0 0 1 .5-.5.5.5 0 0 1 .5.5zm-3.175-2.117a.5.5 0 0 1-.5.5.5.5 0 0 1-.5-.5.5.5 0 0 1 .5-.5.5.5 0 0 1 .5.5zm2.117 0a.5.5 0 0 1-.5.5.5.5 0 0 1-.5-.5.5.5 0 0 1 .5-.5.5.5 0 0 1 .5.5zm0 4.233a.5.5 0 0 1-.5.5.5.5 0 0 1-.5-.5.5.5 0 0 1 .5-.5.5.5 0 0 1 .5.5zm3.175-2.116a.5.5 0 0 1-.5.5.5.5 0 0 1-.5-.5.5.5 0 0 1 .5-.5.5.5 0 0 1 .5.5zm2.116 0a.5.5 0 0 1-.5.5.5.5 0 0 1-.5-.5.5.5 0 0 1 .5-.5.5.5 0 0 1 .5.5zm-3.175 2.116a.5.5 0 0 1-.5.5.5.5 0 0 1-.5-.5.5.5 0 0 1 .5-.5.5.5 0 0 1 .5.5zm0-4.233a.5.5 0 0 1-.5.5.5.5 0 0 1-.5-.5.5.5 0 0 1 .5-.5.5.5 0 0 1 .5.5zm2.117 0a.5.5 0 0 1-.5.5.5.5 0 0 1-.5-.5.5.5 0 0 1 .5-.5.5.5 0 0 1 .5.5zm0 4.233a.5.5 0 0 1-.5.5.5.5 0 0 1-.5-.5.5.5 0 0 1 .5-.5.5.5 0 0 1 .5.5zm2.117-4.233a.5.5 0 0 1-.5.5.5.5 0 0 1-.5-.5.5.5 0 0 1 .5-.5.5.5 0 0 1 .5.5zm0 4.233a.5.5 0 0 1-.5.5.5.5 0 0 1-.5-.5.5.5 0 0 1 .5-.5.5.5 0 0 1 .5.5zm-10.584 0a.5.5 0 0 1-.5.5.5.5 0 0 1-.5-.5.5.5 0 0 1 .5-.5.5.5 0 0 1 .5.5zm-1.058-2.116a.5.5 0 0 1-.5.5.5.5 0 0 1-.5-.5.5.5 0 0 1 .5-.5.5.5 0 0 1 .5.5zm1.058-2.117a.5.5 0 0 1-.5.5.5.5 0 0 1-.5-.5.5.5 0 0 1 .5-.5.5.5 0 0 1 .5.5zm3.175 2.117a.5.5 0 0 1-.5.5.5.5 0 0 1-.5-.5.5.5 0 0 1 .5-.5.5.5 0 0 1 .5.5zm-13.758 2.116a.5.5 0 0 1-.5.5.5.5 0 0 1-.5-.5.5.5 0 0 1 .5-.5.5.5 0 0 1 .5.5zm-1.058-2.116a.5.5 0 0 1-.5.5.5.5 0 0 1-.5-.5.5.5 0 0 1 .5-.5.5.5 0 0 1 .5.5zm4.233 0a.5.5 0 0 1-.5.5.5.5 0 0 1-.5-.5.5.5 0 0 1 .5-.5.5.5 0 0 1 .5.5zm-15.875 2.116a.5.5 0 0 1-.5.5.5.5 0 0 1-.5-.5.5.5 0 0 1 .5-.5.5.5 0 0 1 .5.5zm-1.058-2.116a.5.5 0 0 1-.5.5.5.5 0 0 1-.5-.5.5.5 0 0 1 .5-.5.5.5 0 0 1 .5.5zm4.233 0a.5.5 0 0 1-.5.5.5.5 0 0 1-.5-.5.5.5 0 0 1 .5-.5.5.5 0 0 1 .5.5zm-3.175-2.117a.5.5 0 0 1-.5.5.5.5 0 0 1-.5-.5.5.5 0 0 1 .5-.5.5.5 0 0 1 .5.5zm2.117 0a.5.5 0 0 1-.5.5.5.5 0 0 1-.5-.5.5.5 0 0 1 .5-.5.5.5 0 0 1 .5.5zm0 4.233a.5.5 0 0 1-.5.5.5.5 0 0 1-.5-.5.5.5 0 0 1 .5-.5.5.5 0 0 1 .5.5zm3.175-2.116a.5.5 0 0 1-.5.5.5.5 0 0 1-.5-.5.5.5 0 0 1 .5-.5.5.5 0 0 1 .5.5zm2.116 0a.5.5 0 0 1-.5.5.5.5 0 0 1-.5-.5.5.5 0 0 1 .5-.5.5.5 0 0 1 .5.5zm-3.175 2.116a.5.5 0 0 1-.5.5.5.5 0 0 1-.5-.5.5.5 0 0 1 .5-.5.5.5 0 0 1 .5.5zm0-4.233a.5.5 0 0 1-.5.5.5.5 0 0 1-.5-.5.5.5 0 0 1 .5-.5.5.5 0 0 1 .5.5zm2.117 0a.5.5 0 0 1-.5.5.5.5 0 0 1-.5-.5.5.5 0 0 1 .5-.5.5.5 0 0 1 .5.5zm0 4.233a.5.5 0 0 1-.5.5.5.5 0 0 1-.5-.5.5.5 0 0 1 .5-.5.5.5 0 0 1 .5.5zm2.117-4.233a.5.5 0 0 1-.5.5.5.5 0 0 1-.5-.5.5.5 0 0 1 .5-.5.5.5 0 0 1 .5.5zm0 4.233a.5.5 0 0 1-.5.5.5.5 0 0 1-.5-.5.5.5 0 0 1 .5-.5.5.5 0 0 1 .5.5zm-10.584 0a.5.5 0 0 1-.5.5.5.5 0 0 1-.5-.5.5.5 0 0 1 .5-.5.5.5 0 0 1 .5.5zm-1.058-2.116a.5.5 0 0 1-.5.5.5.5 0 0 1-.5-.5.5.5 0 0 1 .5-.5.5.5 0 0 1 .5.5zm1.058-2.117a.5.5 0 0 1-.5.5.5.5 0 0 1-.5-.5.5.5 0 0 1 .5-.5.5.5 0 0 1 .5.5zm3.175 2.117a.5.5 0 0 1-.5.5.5.5 0 0 1-.5-.5.5.5 0 0 1 .5-.5.5.5 0 0 1 .5.5zm11.642-2.117a.5.5 0 0 1-.5.5.5.5 0 0 1-.5-.5.5.5 0 0 1 .5-.5.5.5 0 0 1 .5.5zm2.117 0a.5.5 0 0 1-.5.5.5.5 0 0 1-.5-.5.5.5 0 0 1 .5-.5.5.5 0 0 1 .5.5zm0 4.233a.5.5 0 0 1-.5.5.5.5 0 0 1-.5-.5.5.5 0 0 1 .5-.5.5.5 0 0 1 .5.5zm3.175-2.116a.5.5 0 0 1-.5.5.5.5 0 0 1-.5-.5.5.5 0 0 1 .5-.5.5.5 0 0 1 .5.5zm2.116 0a.5.5 0 0 1-.5.5.5.5 0 0 1-.5-.5.5.5 0 0 1 .5-.5.5.5 0 0 1 .5.5zm-3.175 2.116a.5.5 0 0 1-.5.5.5.5 0 0 1-.5-.5.5.5 0 0 1 .5-.5.5.5 0 0 1 .5.5zm0-4.233a.5.5 0 0 1-.5.5.5.5 0 0 1-.5-.5.5.5 0 0 1 .5-.5.5.5 0 0 1 .5.5zm2.117 0a.5.5 0 0 1-.5.5.5.5 0 0 1-.5-.5.5.5 0 0 1 .5-.5.5.5 0 0 1 .5.5zm0 4.233a.5.5 0 0 1-.5.5.5.5 0 0 1-.5-.5.5.5 0 0 1 .5-.5.5.5 0 0 1 .5.5zm2.117-4.233a.5.5 0 0 1-.5.5.5.5 0 0 1-.5-.5.5.5 0 0 1 .5-.5.5.5 0 0 1 .5.5zm0 4.233a.5.5 0 0 1-.5.5.5.5 0 0 1-.5-.5.5.5 0 0 1 .5-.5.5.5 0 0 1 .5.5zm-10.584 0a.5.5 0 0 1-.5.5.5.5 0 0 1-.5-.5.5.5 0 0 1 .5-.5.5.5 0 0 1 .5.5zm-1.058-2.116a.5.5 0 0 1-.5.5.5.5 0 0 1-.5-.5.5.5 0 0 1 .5-.5.5.5 0 0 1 .5.5zm1.058-2.117a.5.5 0 0 1-.5.5.5.5 0 0 1-.5-.5.5.5 0 0 1 .5-.5.5.5 0 0 1 .5.5zm3.175 2.117a.5.5 0 0 1-.5.5.5.5 0 0 1-.5-.5.5.5 0 0 1 .5-.5.5.5 0 0 1 .5.5zm23.284-4.234a.5.5 0 0 1-.5.5.5.5 0 0 1-.5-.5.5.5 0 0 1 .5-.5.5.5 0 0 1 .5.5zm-1.059-2.116a.5.5 0 0 1-.5.5.5.5 0 0 1-.5-.5.5.5 0 0 1 .5-.5.5.5 0 0 1 .5.5zm4.234 0a.5.5 0 0 1-.5.5.5.5 0 0 1-.5-.5.5.5 0 0 1 .5-.5.5.5 0 0 1 .5.5zm-3.175-2.117a.5.5 0 0 1-.5.5.5.5 0 0 1-.5-.5.5.5 0 0 1 .5-.5.5.5 0 0 1 .5.5zm2.116 0a.5.5 0 0 1-.5.5.5.5 0 0 1-.5-.5.5.5 0 0 1 .5-.5.5.5 0 0 1 .5.5zm0 4.233a.5.5 0 0 1-.5.5.5.5 0 0 1-.5-.5.5.5 0 0 1 .5-.5.5.5 0 0 1 .5.5zm3.175-2.116a.5.5 0 0 1-.5.5.5.5 0 0 1-.5-.5.5.5 0 0 1 .5-.5.5.5 0 0 1 .5.5zm2.117 0a.5.5 0 0 1-.5.5.5.5 0 0 1-.5-.5.5.5 0 0 1 .5-.5.5.5 0 0 1 .5.5zm-3.175 2.116a.5.5 0 0 1-.5.5.5.5 0 0 1-.5-.5.5.5 0 0 1 .5-.5.5.5 0 0 1 .5.5zm0-4.233a.5.5 0 0 1-.5.5.5.5 0 0 1-.5-.5.5.5 0 0 1 .5-.5.5.5 0 0 1 .5.5zm2.117 0a.5.5 0 0 1-.5.5.5.5 0 0 1-.5-.5.5.5 0 0 1 .5-.5.5.5 0 0 1 .5.5zm0 4.233a.5.5 0 0 1-.5.5.5.5 0 0 1-.5-.5.5.5 0 0 1 .5-.5.5.5 0 0 1 .5.5zm2.116-4.233a.5.5 0 0 1-.5.5.5.5 0 0 1-.5-.5.5.5 0 0 1 .5-.5.5.5 0 0 1 .5.5zm0 4.233a.5.5 0 0 1-.5.5.5.5 0 0 1-.5-.5.5.5 0 0 1 .5-.5.5.5 0 0 1 .5.5zm-10.583 0a.5.5 0 0 1-.5.5.5.5 0 0 1-.5-.5.5.5 0 0 1 .5-.5.5.5 0 0 1 .5.5zm-1.058-2.116a.5.5 0 0 1-.5.5.5.5 0 0 1-.5-.5.5.5 0 0 1 .5-.5.5.5 0 0 1 .5.5zm1.058-2.117a.5.5 0 0 1-.5.5.5.5 0 0 1-.5-.5.5.5 0 0 1 .5-.5.5.5 0 0 1 .5.5zm3.175 2.117a.5.5 0 0 1-.5.5.5.5 0 0 1-.5-.5.5.5 0 0 1 .5-.5.5.5 0 0 1 .5.5zm-13.758 2.116a.5.5 0 0 1-.5.5.5.5 0 0 1-.5-.5.5.5 0 0 1 .5-.5.5.5 0 0 1 .5.5zm-1.059-2.116a.5.5 0 0 1-.5.5.5.5 0 0 1-.5-.5.5.5 0 0 1 .5-.5.5.5 0 0 1 .5.5zm4.234 0a.5.5 0 0 1-.5.5.5.5 0 0 1-.5-.5.5.5 0 0 1 .5-.5.5.5 0 0 1 .5.5zm-3.175-2.117a.5.5 0 0 1-.5.5.5.5 0 0 1-.5-.5.5.5 0 0 1 .5-.5.5.5 0 0 1 .5.5zm2.116 0a.5.5 0 0 1-.5.5.5.5 0 0 1-.5-.5.5.5 0 0 1 .5-.5.5.5 0 0 1 .5.5zm0 4.233a.5.5 0 0 1-.5.5.5.5 0 0 1-.5-.5.5.5 0 0 1 .5-.5.5.5 0 0 1 .5.5zm3.175-2.116a.5.5 0 0 1-.5.5.5.5 0 0 1-.5-.5.5.5 0 0 1 .5-.5.5.5 0 0 1 .5.5zm2.117 0a.5.5 0 0 1-.5.5.5.5 0 0 1-.5-.5.5.5 0 0 1 .5-.5.5.5 0 0 1 .5.5zm-3.175 2.116a.5.5 0 0 1-.5.5.5.5 0 0 1-.5-.5.5.5 0 0 1 .5-.5.5.5 0 0 1 .5.5zm0-4.233a.5.5 0 0 1-.5.5.5.5 0 0 1-.5-.5.5.5 0 0 1 .5-.5.5.5 0 0 1 .5.5zm2.117 0a.5.5 0 0 1-.5.5.5.5 0 0 1-.5-.5.5.5 0 0 1 .5-.5.5.5 0 0 1 .5.5zm0 4.233a.5.5 0 0 1-.5.5.5.5 0 0 1-.5-.5.5.5 0 0 1 .5-.5.5.5 0 0 1 .5.5zm2.116-4.233a.5.5 0 0 1-.5.5.5.5 0 0 1-.5-.5.5.5 0 0 1 .5-.5.5.5 0 0 1 .5.5zm0 4.233a.5.5 0 0 1-.5.5.5.5 0 0 1-.5-.5.5.5 0 0 1 .5-.5.5.5 0 0 1 .5.5zm-10.583 0a.5.5 0 0 1-.5.5.5.5 0 0 1-.5-.5.5.5 0 0 1 .5-.5.5.5 0 0 1 .5.5zm-1.058-2.116a.5.5 0 0 1-.5.5.5.5 0 0 1-.5-.5.5.5 0 0 1 .5-.5.5.5 0 0 1 .5.5zm1.058-2.117a.5.5 0 0 1-.5.5.5.5 0 0 1-.5-.5.5.5 0 0 1 .5-.5.5.5 0 0 1 .5.5zm3.175 2.117a.5.5 0 0 1-.5.5.5.5 0 0 1-.5-.5.5.5 0 0 1 .5-.5.5.5 0 0 1 .5.5zm-13.758 2.116a.5.5 0 0 1-.5.5.5.5 0 0 1-.5-.5.5.5 0 0 1 .5-.5.5.5 0 0 1 .5.5zm-1.059-2.116a.5.5 0 0 1-.5.5.5.5 0 0 1-.5-.5.5.5 0 0 1 .5-.5.5.5 0 0 1 .5.5zm4.234 0a.5.5 0 0 1-.5.5.5.5 0 0 1-.5-.5.5.5 0 0 1 .5-.5.5.5 0 0 1 .5.5zm-15.875 2.116a.5.5 0 0 1-.5.5.5.5 0 0 1-.5-.5.5.5 0 0 1 .5-.5.5.5 0 0 1 .5.5zm-1.059-2.116a.5.5 0 0 1-.5.5.5.5 0 0 1-.5-.5.5.5 0 0 1 .5-.5.5.5 0 0 1 .5.5zm4.234 0a.5.5 0 0 1-.5.5.5.5 0 0 1-.5-.5.5.5 0 0 1 .5-.5.5.5 0 0 1 .5.5zm-3.175-2.117a.5.5 0 0 1-.5.5.5.5 0 0 1-.5-.5.5.5 0 0 1 .5-.5.5.5 0 0 1 .5.5zm2.116 0a.5.5 0 0 1-.5.5.5.5 0 0 1-.5-.5.5.5 0 0 1 .5-.5.5.5 0 0 1 .5.5zm0 4.233a.5.5 0 0 1-.5.5.5.5 0 0 1-.5-.5.5.5 0 0 1 .5-.5.5.5 0 0 1 .5.5zm3.175-2.116a.5.5 0 0 1-.5.5.5.5 0 0 1-.5-.5.5.5 0 0 1 .5-.5.5.5 0 0 1 .5.5zm2.117 0a.5.5 0 0 1-.5.5.5.5 0 0 1-.5-.5.5.5 0 0 1 .5-.5.5.5 0 0 1 .5.5zm-3.175 2.116a.5.5 0 0 1-.5.5.5.5 0 0 1-.5-.5.5.5 0 0 1 .5-.5.5.5 0 0 1 .5.5zm0-4.233a.5.5 0 0 1-.5.5.5.5 0 0 1-.5-.5.5.5 0 0 1 .5-.5.5.5 0 0 1 .5.5zm2.117 0a.5.5 0 0 1-.5.5.5.5 0 0 1-.5-.5.5.5 0 0 1 .5-.5.5.5 0 0 1 .5.5zm0 4.233a.5.5 0 0 1-.5.5.5.5 0 0 1-.5-.5.5.5 0 0 1 .5-.5.5.5 0 0 1 .5.5zm2.116-4.233a.5.5 0 0 1-.5.5.5.5 0 0 1-.5-.5.5.5 0 0 1 .5-.5.5.5 0 0 1 .5.5zm0 4.233a.5.5 0 0 1-.5.5.5.5 0 0 1-.5-.5.5.5 0 0 1 .5-.5.5.5 0 0 1 .5.5zm-10.583 0a.5.5 0 0 1-.5.5.5.5 0 0 1-.5-.5.5.5 0 0 1 .5-.5.5.5 0 0 1 .5.5zm0-4.233a.5.5 0 0 1-.5.5.5.5 0 0 1-.5-.5.5.5 0 0 1 .5-.5.5.5 0 0 1 .5.5zm3.175 2.117a.5.5 0 0 1-.5.5.5.5 0 0 1-.5-.5.5.5 0 0 1 .5-.5.5.5 0 0 1 .5.5zm11.642-2.117a.5.5 0 0 1-.5.5.5.5 0 0 1-.5-.5.5.5 0 0 1 .5-.5.5.5 0 0 1 .5.5zm2.116 0a.5.5 0 0 1-.5.5.5.5 0 0 1-.5-.5.5.5 0 0 1 .5-.5.5.5 0 0 1 .5.5zm0 4.233a.5.5 0 0 1-.5.5.5.5 0 0 1-.5-.5.5.5 0 0 1 .5-.5.5.5 0 0 1 .5.5zm3.175-2.116a.5.5 0 0 1-.5.5.5.5 0 0 1-.5-.5.5.5 0 0 1 .5-.5.5.5 0 0 1 .5.5zm2.117 0a.5.5 0 0 1-.5.5.5.5 0 0 1-.5-.5.5.5 0 0 1 .5-.5.5.5 0 0 1 .5.5zm-3.175 2.116a.5.5 0 0 1-.5.5.5.5 0 0 1-.5-.5.5.5 0 0 1 .5-.5.5.5 0 0 1 .5.5zm0-4.233a.5.5 0 0 1-.5.5.5.5 0 0 1-.5-.5.5.5 0 0 1 .5-.5.5.5 0 0 1 .5.5zm2.117 0a.5.5 0 0 1-.5.5.5.5 0 0 1-.5-.5.5.5 0 0 1 .5-.5.5.5 0 0 1 .5.5zm0 4.233a.5.5 0 0 1-.5.5.5.5 0 0 1-.5-.5.5.5 0 0 1 .5-.5.5.5 0 0 1 .5.5zm2.116-4.233a.5.5 0 0 1-.5.5.5.5 0 0 1-.5-.5.5.5 0 0 1 .5-.5.5.5 0 0 1 .5.5zm0 4.233a.5.5 0 0 1-.5.5.5.5 0 0 1-.5-.5.5.5 0 0 1 .5-.5.5.5 0 0 1 .5.5zm-10.583 0a.5.5 0 0 1-.5.5.5.5 0 0 1-.5-.5.5.5 0 0 1 .5-.5.5.5 0 0 1 .5.5zm-1.058-2.116a.5.5 0 0 1-.5.5.5.5 0 0 1-.5-.5.5.5 0 0 1 .5-.5.5.5 0 0 1 .5.5zm1.058-2.117a.5.5 0 0 1-.5.5.5.5 0 0 1-.5-.5.5.5 0 0 1 .5-.5.5.5 0 0 1 .5.5zm3.175 2.117a.5.5 0 0 1-.5.5.5.5 0 0 1-.5-.5.5.5 0 0 1 .5-.5.5.5 0 0 1 .5.5zm25.4-4.234a.5.5 0 0 1-.5.5.5.5 0 0 1-.5-.5.5.5 0 0 1 .5-.5.5.5 0 0 1 .5.5zm-1.058-2.116a.5.5 0 0 1-.5.5.5.5 0 0 1-.5-.5.5.5 0 0 1 .5-.5.5.5 0 0 1 .5.5zm4.233 0a.5.5 0 0 1-.5.5.5.5 0 0 1-.5-.5.5.5 0 0 1 .5-.5.5.5 0 0 1 .5.5zm-3.175-2.117a.5.5 0 0 1-.5.5.5.5 0 0 1-.5-.5.5.5 0 0 1 .5-.5.5.5 0 0 1 .5.5zm2.117 0a.5.5 0 0 1-.5.5.5.5 0 0 1-.5-.5.5.5 0 0 1 .5-.5.5.5 0 0 1 .5.5zm0 4.233a.5.5 0 0 1-.5.5.5.5 0 0 1-.5-.5.5.5 0 0 1 .5-.5.5.5 0 0 1 .5.5zm3.175-2.116a.5.5 0 0 1-.5.5.5.5 0 0 1-.5-.5.5.5 0 0 1 .5-.5.5.5 0 0 1 .5.5zm2.116 0a.5.5 0 0 1-.5.5.5.5 0 0 1-.5-.5.5.5 0 0 1 .5-.5.5.5 0 0 1 .5.5zm-3.175 2.116a.5.5 0 0 1-.5.5.5.5 0 0 1-.5-.5.5.5 0 0 1 .5-.5.5.5 0 0 1 .5.5zm0-4.233a.5.5 0 0 1-.5.5.5.5 0 0 1-.5-.5.5.5 0 0 1 .5-.5.5.5 0 0 1 .5.5zm2.117 0a.5.5 0 0 1-.5.5.5.5 0 0 1-.5-.5.5.5 0 0 1 .5-.5.5.5 0 0 1 .5.5zm0 4.233a.5.5 0 0 1-.5.5.5.5 0 0 1-.5-.5.5.5 0 0 1 .5-.5.5.5 0 0 1 .5.5zm2.117-4.233a.5.5 0 0 1-.5.5.5.5 0 0 1-.5-.5.5.5 0 0 1 .5-.5.5.5 0 0 1 .5.5zm0 4.233a.5.5 0 0 1-.5.5.5.5 0 0 1-.5-.5.5.5 0 0 1 .5-.5.5.5 0 0 1 .5.5zm-10.584 0a.5.5 0 0 1-.5.5.5.5 0 0 1-.5-.5.5.5 0 0 1 .5-.5.5.5 0 0 1 .5.5zm-1.058-2.116a.5.5 0 0 1-.5.5.5.5 0 0 1-.5-.5.5.5 0 0 1 .5-.5.5.5 0 0 1 .5.5zm1.058-2.117a.5.5 0 0 1-.5.5.5.5 0 0 1-.5-.5.5.5 0 0 1 .5-.5.5.5 0 0 1 .5.5zm3.175 2.117a.5.5 0 0 1-.5.5.5.5 0 0 1-.5-.5.5.5 0 0 1 .5-.5.5.5 0 0 1 .5.5zm-13.758 2.116a.5.5 0 0 1-.5.5.5.5 0 0 1-.5-.5.5.5 0 0 1 .5-.5.5.5 0 0 1 .5.5zm-1.058-2.116a.5.5 0 0 1-.5.5.5.5 0 0 1-.5-.5.5.5 0 0 1 .5-.5.5.5 0 0 1 .5.5zm4.233 0a.5.5 0 0 1-.5.5.5.5 0 0 1-.5-.5.5.5 0 0 1 .5-.5.5.5 0 0 1 .5.5zm-3.175-2.117a.5.5 0 0 1-.5.5.5.5 0 0 1-.5-.5.5.5 0 0 1 .5-.5.5.5 0 0 1 .5.5zm2.117 0a.5.5 0 0 1-.5.5.5.5 0 0 1-.5-.5.5.5 0 0 1 .5-.5.5.5 0 0 1 .5.5zm0 4.233a.5.5 0 0 1-.5.5.5.5 0 0 1-.5-.5.5.5 0 0 1 .5-.5.5.5 0 0 1 .5.5zm3.175-2.116a.5.5 0 0 1-.5.5.5.5 0 0 1-.5-.5.5.5 0 0 1 .5-.5.5.5 0 0 1 .5.5zm2.116 0a.5.5 0 0 1-.5.5.5.5 0 0 1-.5-.5.5.5 0 0 1 .5-.5.5.5 0 0 1 .5.5zm-3.175 2.116a.5.5 0 0 1-.5.5.5.5 0 0 1-.5-.5.5.5 0 0 1 .5-.5.5.5 0 0 1 .5.5zm0-4.233a.5.5 0 0 1-.5.5.5.5 0 0 1-.5-.5.5.5 0 0 1 .5-.5.5.5 0 0 1 .5.5zm2.117 0a.5.5 0 0 1-.5.5.5.5 0 0 1-.5-.5.5.5 0 0 1 .5-.5.5.5 0 0 1 .5.5zm0 4.233a.5.5 0 0 1-.5.5.5.5 0 0 1-.5-.5.5.5 0 0 1 .5-.5.5.5 0 0 1 .5.5zm2.117-4.233a.5.5 0 0 1-.5.5.5.5 0 0 1-.5-.5.5.5 0 0 1 .5-.5.5.5 0 0 1 .5.5zm0 4.233a.5.5 0 0 1-.5.5.5.5 0 0 1-.5-.5.5.5 0 0 1 .5-.5.5.5 0 0 1 .5.5zm-10.584 0a.5.5 0 0 1-.5.5.5.5 0 0 1-.5-.5.5.5 0 0 1 .5-.5.5.5 0 0 1 .5.5zm-1.058-2.116a.5.5 0 0 1-.5.5.5.5 0 0 1-.5-.5.5.5 0 0 1 .5-.5.5.5 0 0 1 .5.5zm1.058-2.117a.5.5 0 0 1-.5.5.5.5 0 0 1-.5-.5.5.5 0 0 1 .5-.5.5.5 0 0 1 .5.5zm3.175 2.117a.5.5 0 0 1-.5.5.5.5 0 0 1-.5-.5.5.5 0 0 1 .5-.5.5.5 0 0 1 .5.5zm-13.758 2.116a.5.5 0 0 1-.5.5.5.5 0 0 1-.5-.5.5.5 0 0 1 .5-.5.5.5 0 0 1 .5.5zm-1.058-2.116a.5.5 0 0 1-.5.5.5.5 0 0 1-.5-.5.5.5 0 0 1 .5-.5.5.5 0 0 1 .5.5zm4.233 0a.5.5 0 0 1-.5.5.5.5 0 0 1-.5-.5.5.5 0 0 1 .5-.5.5.5 0 0 1 .5.5zm-15.875 2.116a.5.5 0 0 1-.5.5.5.5 0 0 1-.5-.5.5.5 0 0 1 .5-.5.5.5 0 0 1 .5.5zm-1.058-2.116a.5.5 0 0 1-.5.5.5.5 0 0 1-.5-.5.5.5 0 0 1 .5-.5.5.5 0 0 1 .5.5zm4.233 0a.5.5 0 0 1-.5.5.5.5 0 0 1-.5-.5.5.5 0 0 1 .5-.5.5.5 0 0 1 .5.5zm-3.175-2.117a.5.5 0 0 1-.5.5.5.5 0 0 1-.5-.5.5.5 0 0 1 .5-.5.5.5 0 0 1 .5.5zm2.117 0a.5.5 0 0 1-.5.5.5.5 0 0 1-.5-.5.5.5 0 0 1 .5-.5.5.5 0 0 1 .5.5zm0 4.233a.5.5 0 0 1-.5.5.5.5 0 0 1-.5-.5.5.5 0 0 1 .5-.5.5.5 0 0 1 .5.5zm3.175-2.116a.5.5 0 0 1-.5.5.5.5 0 0 1-.5-.5.5.5 0 0 1 .5-.5.5.5 0 0 1 .5.5zm2.116 0a.5.5 0 0 1-.5.5.5.5 0 0 1-.5-.5.5.5 0 0 1 .5-.5.5.5 0 0 1 .5.5zm-3.175 2.116a.5.5 0 0 1-.5.5.5.5 0 0 1-.5-.5.5.5 0 0 1 .5-.5.5.5 0 0 1 .5.5zm0-4.233a.5.5 0 0 1-.5.5.5.5 0 0 1-.5-.5.5.5 0 0 1 .5-.5.5.5 0 0 1 .5.5zm2.117 0a.5.5 0 0 1-.5.5.5.5 0 0 1-.5-.5.5.5 0 0 1 .5-.5.5.5 0 0 1 .5.5zm0 4.233a.5.5 0 0 1-.5.5.5.5 0 0 1-.5-.5.5.5 0 0 1 .5-.5.5.5 0 0 1 .5.5zm2.117-4.233a.5.5 0 0 1-.5.5.5.5 0 0 1-.5-.5.5.5 0 0 1 .5-.5.5.5 0 0 1 .5.5zm0 4.233a.5.5 0 0 1-.5.5.5.5 0 0 1-.5-.5.5.5 0 0 1 .5-.5.5.5 0 0 1 .5.5zm-10.584 0a.5.5 0 0 1-.5.5.5.5 0 0 1-.5-.5.5.5 0 0 1 .5-.5.5.5 0 0 1 .5.5zm-1.058-2.116a.5.5 0 0 1-.5.5.5.5 0 0 1-.5-.5.5.5 0 0 1 .5-.5.5.5 0 0 1 .5.5zm1.058-2.117a.5.5 0 0 1-.5.5.5.5 0 0 1-.5-.5.5.5 0 0 1 .5-.5.5.5 0 0 1 .5.5zm3.175 2.117a.5.5 0 0 1-.5.5.5.5 0 0 1-.5-.5.5.5 0 0 1 .5-.5.5.5 0 0 1 .5.5zm11.642-2.117a.5.5 0 0 1-.5.5.5.5 0 0 1-.5-.5.5.5 0 0 1 .5-.5.5.5 0 0 1 .5.5zm2.117 0a.5.5 0 0 1-.5.5.5.5 0 0 1-.5-.5.5.5 0 0 1 .5-.5.5.5 0 0 1 .5.5zm0 4.233a.5.5 0 0 1-.5.5.5.5 0 0 1-.5-.5.5.5 0 0 1 .5-.5.5.5 0 0 1 .5.5zm3.175-2.116a.5.5 0 0 1-.5.5.5.5 0 0 1-.5-.5.5.5 0 0 1 .5-.5.5.5 0 0 1 .5.5zm2.116 0a.5.5 0 0 1-.5.5.5.5 0 0 1-.5-.5.5.5 0 0 1 .5-.5.5.5 0 0 1 .5.5zm-3.175 2.116a.5.5 0 0 1-.5.5.5.5 0 0 1-.5-.5.5.5 0 0 1 .5-.5.5.5 0 0 1 .5.5zm0-4.233a.5.5 0 0 1-.5.5.5.5 0 0 1-.5-.5.5.5 0 0 1 .5-.5.5.5 0 0 1 .5.5zm2.117 0a.5.5 0 0 1-.5.5.5.5 0 0 1-.5-.5.5.5 0 0 1 .5-.5.5.5 0 0 1 .5.5zm0 4.233a.5.5 0 0 1-.5.5.5.5 0 0 1-.5-.5.5.5 0 0 1 .5-.5.5.5 0 0 1 .5.5zm2.117-4.233a.5.5 0 0 1-.5.5.5.5 0 0 1-.5-.5.5.5 0 0 1 .5-.5.5.5 0 0 1 .5.5zm0 4.233a.5.5 0 0 1-.5.5.5.5 0 0 1-.5-.5.5.5 0 0 1 .5-.5.5.5 0 0 1 .5.5zm-10.584 0a.5.5 0 0 1-.5.5.5.5 0 0 1-.5-.5.5.5 0 0 1 .5-.5.5.5 0 0 1 .5.5zm-1.058-2.116a.5.5 0 0 1-.5.5.5.5 0 0 1-.5-.5.5.5 0 0 1 .5-.5.5.5 0 0 1 .5.5zm1.058-2.117a.5.5 0 0 1-.5.5.5.5 0 0 1-.5-.5.5.5 0 0 1 .5-.5.5.5 0 0 1 .5.5zm3.175 2.117a.5.5 0 0 1-.5.5.5.5 0 0 1-.5-.5.5.5 0 0 1 .5-.5.5.5 0 0 1 .5.5z" clip-path="url(#a)" transform="translate(0 -63.5)"/><path style="opacity:.67728;mix-blend-mode:multiply;fill:red;fill-opacity:1;stroke:none;stroke-width:2;stroke-linecap:round;stroke-linejoin:round;stroke-miterlimit:4;stroke-dasharray:none;paint-order:markers fill stroke" d="M816.919-121.123c-.566-.013-.99.426-1.216.99-1.438 3.574-5.05 11.515-6.613 14.974-.671-.009-1.37-.021-2.099-.039-.546-.013-2.553-.062-3.01-.08-.999-.03-1.041 1.383-.043 1.413v-.001c.45.03 1.857-.219 2.665-.238.544-.013 5.845-.08 9.437.103.809.007.818-1.138.01-1.144-1.423-.006-3.195.011-5.296 0 1.16-2.703 2.297-5.416 3.52-8.092 2.152-4.71 1.93-4.252 2.288-5.09.377.759 1.852 4.778 2.439 6.275 1.884 4.422 5.89 16.243 6.166 17.177.226.763.414 1.538.627 2.305.44 1.429 2.46.807 2.02-.621-.605-1.974-.025-.115-.743-2.308-.762-2.326-2.183-6.039-4.477-12.197-.623-1.674-1.296-3.33-1.905-5.008-.652-1.825-1.272-3.664-1.938-5.483-.135-.368-.293-.728-.423-1.098-.087-.247-.151-.5-.227-.751l-.116-.327c-.242-.524-.656-.75-1.066-.76zm-1.745 19.109c-2.603.078-3.046.088-5.798.146-.76-.02-2.75-.03-4.995-.124-.57-.024-1.136-.088-1.704-.123-.469-.028-1.012-.04-1.497-.053-.991-.01-1.006 1.39-.016 1.402 1.79-.165 3.59-.092 5.384-.103.156 0 .282-.002.417-.003-.094.183-.188.365-.28.548-.399.81-.737 1.65-1.117 2.468-.76 1.637-1.6 3.23-2.425 4.835-.549 1.598 1.712 2.374 2.26.776.034-.142.055-.287.102-.425.11-.329.243-.649.365-.973.188-.496.362-.997.564-1.487.442-1.07 1.543-3.451 1.952-4.407.195-.456.384-.913.571-1.37.164.001.529.017 2.198.066 2.756-.006 1.415.004 4.023-.029.81-.002.806-1.146-.003-1.144z"/><rect style="opacity:1;fill:#eae7e7;fill-opacity:1;stroke:#0b2228;stroke-width:2;stroke-linecap:round;stroke-linejoin:round;stroke-miterlimit:4;stroke-dasharray:none;paint-order:markers fill stroke" width="41.788" height="2.845" x="794.87" y="-127.012" rx="2" ry="2"/><path style="opacity:1;mix-blend-mode:multiply;fill:#bd1f0c;fill-opacity:1;stroke:none;stroke-width:2;stroke-linecap:round;stroke-linejoin:round;stroke-miterlimit:4;stroke-dasharray:none;paint-order:markers fill stroke" d="M816.919-121.123c-.566-.013-.99.426-1.216.99-1.438 3.574-5.05 11.515-6.613 14.974-.671-.009-1.37-.021-2.099-.039-.546-.013-2.553-.062-3.01-.08-.999-.03-1.041 1.383-.043 1.412.45.03 1.857-.219 2.665-.238.544-.013 5.845-.08 9.437.103.809.007.818-1.138.01-1.144-1.423-.006-3.195.011-5.296 0 1.16-2.703 2.297-5.416 3.52-8.092 2.152-4.71 1.93-4.253 2.288-5.09.377.759 1.852 4.778 2.439 6.275 1.884 4.422 5.89 16.243 6.166 17.177.226.763.414 1.538.627 2.305.44 1.429 2.46.807 2.02-.621-.605-1.974-.025-.115-.743-2.308-.762-2.326-2.183-6.039-4.477-12.197-.623-1.674-1.296-3.33-1.905-5.008-.652-1.825-1.272-3.664-1.938-5.483-.135-.369-.293-.728-.423-1.098-.087-.247-.151-.5-.227-.751l-.116-.327c-.242-.524-.656-.75-1.066-.76zm-1.745 19.109c-2.603.078-3.046.088-5.798.146-.76-.02-2.75-.03-4.995-.124-.57-.024-1.136-.088-1.704-.123-.469-.028-1.012-.04-1.497-.053-.991-.01-1.006 1.39-.016 1.401 1.79-.164 3.59-.09 5.384-.102.156 0 .282-.002.417-.003-.094.182-.188.364-.28.548-.399.81-.737 1.65-1.117 2.468-.76 1.637-1.6 3.23-2.425 4.835-.549 1.598 1.712 2.374 2.26.776.034-.142.055-.287.102-.425.11-.329.243-.65.365-.973.188-.496.362-.997.564-1.487.442-1.07 1.543-3.451 1.952-4.408.195-.455.384-.912.571-1.37.164.002.529.018 2.198.067 2.756-.006 1.415.004 4.023-.029.81-.002.806-1.146-.003-1.144z"/><path style="color:#000;opacity:.7;mix-blend-mode:multiply;fill:#ebe0b7;stroke-width:1;stroke-linecap:round;-inkscape-stroke:none" d="M815.547-128.899a1 1 0 0 0-.982.887h-17.696c-.745 0-1.436.205-1.994.602s-1.006 1.049-1.006 1.82c0 .53.214 1.002.527 1.376v33.382c0 1.645 1.356 3 3 3h12.186l-5.426 9.399a1 1 0 0 0 .365 1.365 1 1 0 0 0 1.368-.366l6.003-10.398h2.655v10.428a1 1 0 0 0 1 1 1 1 0 0 0 1-1v-10.428h2.655l6.003 10.398a1 1 0 0 0 1.365.366 1 1 0 0 0 .368-1.365l-5.426-9.399h12.619c1.645 0 3-1.355 3-3v-33.382c.313-.374.527-.846.527-1.376 0-.771-.448-1.423-1.006-1.82s-1.249-.602-1.994-.602H816.53a1 1 0 0 0-.982-.887z"/></g></svg>